<?xml version="1.0" standalone="no"?>
<!DOCTYPE svg PUBLIC "-//W3C//DTD SVG 1.1//EN" "http://www.w3.org/Graphics/SVG/1.1/DTD/svg11.dtd" >
<svg>
<metadata>
Created by FontForge 20090914 at Thu Feb 23 22:32:19 2012
 By root
Copyright (c) Derek Vogelpohl, 2001. All rights reserved.
</metadata>
<defs>
<font id="Florencesans" horiz-adv-x="217" >
  <font-face 
    font-family="Florencesans"
    font-weight="400"
    font-stretch="normal"
    units-per-em="1000"
    panose-1="2 0 5 3 2 0 0 2 0 4"
    ascent="800"
    descent="-200"
    x-height="525"
    cap-height="700"
    bbox="-46 -193 1211 878"
    underline-thickness="20"
    underline-position="-123"
    unicode-range="U+0020-U+2212"
  />
<missing-glyph horiz-adv-x="500" 
 />
    <glyph glyph-name=".notdef" horiz-adv-x="500" 
 />
    <glyph glyph-name=".null" horiz-adv-x="0" 
 />
    <glyph glyph-name="nonmarkingreturn" horiz-adv-x="500" 
 />
    <glyph glyph-name="space" unicode=" " horiz-adv-x="436" 
 />
    <glyph glyph-name="breve" unicode="&#x2d8;" horiz-adv-x="1029" 
d="M923 571v128h-270v-201h139v-47h43v138h-43v-47h-94v113h176l7 -84h42zM964 98q0 72 -74 96q51 25 51 81q0 17 -5 29.5t-13 23.5h3v128h-43v-85h-270v171h-210v114h48v44h-378l-8 -96h44v52h104v-285h-127v-371h750q51 0 86 24q42 27 42 74zM917 105q0 -40 -39 -53
q-11 -5 -29 -7t-42 -2h-123l-118 285h242q35 0 56 -11q30 -14 30 -45q0 -26 -26 -44q-11 -7 -24 -11t-28 -4h-103v-43h94q110 0 110 -65zM635 44h-505v284h128v328h98v-157h212v-127h-48v-44h1l69 -170h-175l-19 -43h210zM412 211v162h-56v-162h56z" />
    <glyph glyph-name="ring" unicode="&#x2da;" horiz-adv-x="322" 
d="M257 604q0 40 -28 68t-68 28t-68 -28t-28 -68q0 -41 28 -69t68 -28t68 28t28 69zM222 604q0 -26 -17.5 -44t-43.5 -18t-43.5 18t-17.5 44t17.5 43.5t43.5 17.5t43.5 -17.5t17.5 -43.5z" />
    <glyph glyph-name="caron" unicode="&#x2c7;" horiz-adv-x="339" 
d="M275 700h-53l-52 -63l-53 63h-52l70 -105h70z" />
    <glyph glyph-name="dotlessi" unicode="&#x131;" 
d="M152 0v525h-87v-525h87z" />
    <glyph glyph-name="Zcaron" unicode="&#x17d;" horiz-adv-x="672" 
d="M441 875h-53l-52 -63l-53 63h-52l70 -105h70zM616 0v87h-441l441 525v88h-560v-88h441l-441 -525v-87h560z" />
    <glyph glyph-name="zcaron" unicode="&#x17e;" horiz-adv-x="584" 
d="M397 700h-52l-53 -63l-52 63h-53l70 -105h70zM528 0v87h-349l349 350v88h-472v-88h349l-349 -350v-87h472z" />
    <glyph glyph-name="exclam" unicode="!" horiz-adv-x="252" 
d="M170 700h-88l18 -508h52zM187 61q0 26 -17.5 43.5t-43.5 17.5t-43.5 -17.5t-17.5 -43.5t17.5 -43.5t43.5 -17.5t43.5 17.5t17.5 43.5z" />
    <glyph glyph-name="quotedbl" unicode="&#x22;" horiz-adv-x="462" 
d="M397 735h-122l38 -240q5 -23 23 -23t23 23zM187 735h-122l38 -240q5 -23 23 -23t23 23z" />
    <glyph glyph-name="numbersign" unicode="#" horiz-adv-x="584" 
d="M520 297v70h-110l10 105h100v70h-94l9 105h-70l-9 -105h-105l9 105h-70l-9 -105h-116v-70h110l-10 -105h-100v-70h94l-9 -105h70l9 105h105l-9 -105h70l9 105h116zM350 472l-10 -105h-105l10 105h105z" />
    <glyph glyph-name="dollar" unicode="$" horiz-adv-x="689" 
d="M625 189q0 98 -73 147q-51 32 -164 50v240q27 -5 49.5 -12.5t39.5 -20.5q43 -31 43 -80h87q0 84 -69 141q-62 49 -150 61v72h-87v-72q-45 -6 -82 -21.5t-68 -39.5q-69 -57 -69 -141q0 -95 65 -145q24 -17 62 -31t92 -22v-242q-30 3 -55 10.5t-44 20.5q-50 32 -50 85h-87
q0 -90 76 -145q63 -47 160 -59v-73h87v73q98 12 161 59q76 56 76 145zM301 400q-60 12 -89 32q-42 28 -42 81q0 49 43 80q17 13 39 20.5t49 12.5v-226zM537 189q0 -99 -149 -116v228q68 -12 99 -29q50 -26 50 -83z" />
    <glyph glyph-name="percent" unicode="%" horiz-adv-x="873" 
d="M808 157q0 73 -51 124t-124 51t-124 -51t-51 -124t51 -124t124 -51t124 51t51 124zM782 700h-87l-604 -700h87zM415 542q0 72 -52 124q-51 51 -123 51q-73 0 -125 -51q-50 -50 -50 -124t50 -124q52 -51 125 -51q72 0 123 51q52 52 52 124zM738 157q0 -44 -30 -74
q-31 -31 -75 -31q-43 0 -74 31t-31 74q0 44 31 75q30 30 74 30q45 0 75 -30t30 -75zM345 542q0 -43 -31 -74t-74 -31q-42 0 -75 31q-30 31 -30 74q0 44 30 74q31 31 75 31t74 -30q31 -31 31 -75z" />
    <glyph glyph-name="ampersand" unicode="&#x26;" horiz-adv-x="666" 
d="M601 0l-77 119q8 11 14 22.5t11 22.5h-1l42 95l-80 35l-40 -91l-123 188q35 22 57.5 39t33.5 28q40 43 40 104q0 65 -48 110q-44 45 -112 45q-32 0 -60 -11t-51 -34q-45 -47 -45 -110q0 -37 21 -77q3 -6 13.5 -23t30.5 -46q-77 -49 -112 -90q-50 -57 -50 -131
q0 -86 62 -150q63 -63 150 -63q104 0 187 69l32 -51h105zM390 561q0 -39 -39 -63l-51 -33l-38 58q-13 19 -13 40q0 28 19.5 48t48.5 20t51 -20.5t22 -49.5zM416 125q-60 -56 -139 -56q-53 0 -88 38q-37 37 -37 90q0 48 40 87q11 11 31.5 25.5l50.5 34.5z" />
    <glyph glyph-name="quotesingle" unicode="'" horiz-adv-x="252" 
d="M187 735h-122l38 -240q5 -23 23 -23t23 23z" />
    <glyph glyph-name="parenleft" unicode="(" horiz-adv-x="322" 
d="M257 -88q-58 102 -82 189q-23 87 -23 205t23 205q11 43 32 90t50 99h-52q-77 -94 -109 -184q-31 -86 -31 -210q0 -122 31 -211q16 -44 43 -89.5t66 -93.5h52z" />
    <glyph glyph-name="parenright" unicode=")" horiz-adv-x="322" 
d="M257 306q0 124 -31 210q-32 90 -109 184h-52q29 -52 50 -99t32 -90q23 -87 23 -205q0 -120 -24 -205q-23 -86 -81 -189h52q39 48 66 93.5t43 89.5q31 89 31 211z" />
    <glyph glyph-name="asterisk" unicode="*" horiz-adv-x="467" 
d="M402 416l-98 56l98 57l-35 62l-98 -58v114h-70v-114l-99 58l-35 -62l99 -57l-99 -56l35 -62l99 58v-115h70v115l98 -58z" />
    <glyph glyph-name="plus" unicode="+" horiz-adv-x="479" 
d="M415 227v70h-140v140h-70v-140h-140v-70h140v-140h70v140h140z" />
    <glyph glyph-name="comma" unicode="," horiz-adv-x="252" 
d="M187 122h-122l38 -239q5 -23 23 -23t23 23z" />
    <glyph glyph-name="hyphen" unicode="-" horiz-adv-x="479" 
d="M415 227v70h-350v-70h350z" />
    <glyph glyph-name="hyphen" unicode="&#xad;" horiz-adv-x="479" 
d="M415 227v70h-350v-70h350z" />
    <glyph glyph-name="period" unicode="." horiz-adv-x="252" 
d="M187 61q0 26 -17.5 43.5t-43.5 17.5t-43.5 -17.5t-17.5 -43.5t17.5 -43.5t43.5 -17.5t43.5 17.5t17.5 43.5z" />
    <glyph glyph-name="slash" unicode="/" horiz-adv-x="437" 
d="M395 661l-83 30l-269 -740l82 -30z" />
    <glyph glyph-name="zero" unicode="0" horiz-adv-x="681" 
d="M638 350q0 142 -76 248q-85 119 -222 119q-136 0 -221 -119q-38 -53 -57 -115t-19 -133q0 -143 76 -249q86 -119 221 -119q136 0 222 119q76 108 76 249zM550 350q0 -108 -50 -186q-60 -94 -160 -94q-101 0 -159 94q-51 79 -51 186q0 106 51 186q59 94 159 94
q99 0 160 -94q50 -78 50 -186z" />
    <glyph glyph-name="one" unicode="1" horiz-adv-x="681" 
d="M451 0v700h-87l-186 -186l56 -56l130 131v-589h87z" />
    <glyph glyph-name="two" unicode="2" horiz-adv-x="681" 
d="M603 0v87h-412q34 63 147 129l119 72.5t59 40.5q87 75 87 175t-84 159q-75 54 -179 54q-103 0 -176 -49q-86 -57 -86 -155h87q0 60 59 92q48 25 112 25q71 0 119 -27q60 -35 60 -99q0 -86 -113 -160l-105 -66l-105 -65q-114 -89 -114 -213h525z" />
    <glyph glyph-name="three" unicode="3" horiz-adv-x="681" 
d="M608 210q0 130 -136 184q101 42 101 140q0 94 -80 141q-66 42 -165 42q-80 0 -139 -28q-73 -31 -96 -98l82 -30q24 69 153 69q61 0 102 -18q56 -24 56 -78q0 -46 -58 -75q-45 -22 -100 -22h-52v-87h52q71 0 127 -34q66 -39 66 -106q0 -70 -64 -109q-52 -31 -129 -31
q-136 0 -179 82l-76 -44q36 -64 110 -96q66 -30 145 -30q112 0 192 56q88 64 88 172z" />
    <glyph glyph-name="four" unicode="4" horiz-adv-x="681" 
d="M620 140v87h-87v473h-75l-398 -473v-87h385v-140h88v140h87zM445 227h-292l292 343v-343z" />
    <glyph glyph-name="five" unicode="5" horiz-adv-x="681" 
d="M613 245q0 112 -84 187q-83 75 -196 75q-91 0 -164 -49v154h357v88h-445v-340l83 -32q26 43 71.5 67.5t97.5 24.5q76 0 133 -49q60 -51 60 -126t-60 -126q-57 -49 -133 -49q-56 0 -107 30q-49 29 -72 81l-86 -22q31 -81 105 -129q72 -48 160 -48q112 0 196 76
q84 75 84 187z" />
    <glyph glyph-name="six" unicode="6" horiz-adv-x="681" 
d="M630 247q0 111 -86 189q-81 74 -196 74q-133 0 -205 -101q14 91 63 151q56 70 142 70q92 0 147 -76l68 51q-84 112 -215 112q-136 0 -221 -119q-38 -53 -57 -115t-19 -133q0 -143 76 -249q86 -119 221 -119q113 0 196 75q86 77 86 190zM542 246q0 -77 -58 -126
q-30 -25 -63.5 -37.5t-72.5 -12.5q-70 0 -127 53q-57 54 -57 123q0 77 53 126q54 51 131 51q39 0 72.5 -12.5t62.5 -36.5q59 -53 59 -128z" />
    <glyph glyph-name="seven" unicode="7" horiz-adv-x="681" 
d="M607 612v88h-472v-88h371l-358 -612h104z" />
    <glyph glyph-name="eight" unicode="8" horiz-adv-x="681" 
d="M620 210q0 130 -136 184q101 41 101 140q0 93 -79 141q-68 42 -166 42t-165 -42q-80 -48 -80 -141q0 -100 102 -140q-137 -54 -137 -184q0 -109 89 -172q79 -56 191 -56t192 56q88 63 88 172zM498 534q0 -47 -58 -75q-45 -22 -100 -22t-99 22q-58 28 -58 75q0 54 55 78
q40 18 102 18t103 -18q55 -24 55 -78zM533 210q0 -70 -64 -109q-52 -31 -129 -31q-76 0 -128 31q-64 39 -64 109q0 67 65 106q56 34 127 34q72 0 127 -34q66 -39 66 -106z" />
    <glyph glyph-name="nine" unicode="9" horiz-adv-x="681" 
d="M630 350q0 71 -19 133t-57 115q-85 119 -222 119q-113 0 -196 -74q-85 -79 -85 -190q0 -110 85 -189q83 -74 196 -74q134 0 206 101q-15 -91 -63 -151q-58 -70 -143 -70q-90 0 -147 76l-68 -52q85 -112 215 -112q136 0 222 119q76 106 76 249zM517 454q0 -76 -54 -127
q-55 -50 -131 -50t-135 50t-59 127t59 126q59 50 135 50q69 0 127 -53q58 -54 58 -123z" />
    <glyph glyph-name="colon" unicode=":" horiz-adv-x="252" 
d="M187 376q0 26 -17.5 43.5t-43.5 17.5t-43.5 -17.5t-17.5 -43.5t17.5 -43.5t43.5 -17.5t43.5 17.5t17.5 43.5zM187 61q0 26 -17.5 43.5t-43.5 17.5t-43.5 -17.5t-17.5 -43.5t17.5 -43.5t43.5 -17.5t43.5 17.5t17.5 43.5z" />
    <glyph glyph-name="semicolon" unicode=";" horiz-adv-x="252" 
d="M187 376q0 26 -17.5 43.5t-43.5 17.5t-43.5 -17.5t-17.5 -43.5t17.5 -43.5t43.5 -17.5t43.5 17.5t17.5 43.5zM187 122h-122l38 -239q5 -23 23 -23t23 23z" />
    <glyph glyph-name="semicolon" unicode="&#x37e;" horiz-adv-x="252" 
d="M187 376q0 26 -17.5 43.5t-43.5 17.5t-43.5 -17.5t-17.5 -43.5t17.5 -43.5t43.5 -17.5t43.5 17.5t17.5 43.5zM187 122h-122l38 -239q5 -23 23 -23t23 23z" />
    <glyph glyph-name="less" unicode="&#x3c;" horiz-adv-x="461" 
d="M396 95l-257 167l257 168l-38 58l-293 -191v-70l293 -190z" />
    <glyph glyph-name="equal" unicode="=" horiz-adv-x="479" 
d="M415 306v70h-350v-70h350zM415 149v70h-350v-70h350z" />
    <glyph glyph-name="greater" unicode="&#x3e;" horiz-adv-x="461" 
d="M396 227v70l-293 191l-38 -58l257 -168l-257 -167l38 -58z" />
    <glyph glyph-name="question" unicode="?" horiz-adv-x="444" 
d="M380 556q0 64 -47 113q-44 48 -111 48t-112 -48t-45 -113h87q1 29 21 51.5t49 22.5q30 0 50 -22.5t20 -51.5q0 -47 -44 -85l-39.5 -33l-39.5 -33q-44 -44 -44 -105q0 -4 2.5 -30.5l7.5 -77.5h52q4 30 5.5 52t3.5 36q9 69 59 105l41 27.5l42 27.5q42 37 42 116zM222 61
q0 26 -17.5 43.5t-43.5 17.5t-43.5 -17.5t-17.5 -43.5t17.5 -43.5t43.5 -17.5t43.5 17.5t17.5 43.5z" />
    <glyph glyph-name="at" unicode="@" horiz-adv-x="1039" 
d="M975 262q0 188 -134 322q-133 133 -321 133q-189 0 -322 -133t-133 -322q0 -188 133 -321q134 -134 322 -134q62 0 128 20l-15 58q-54 -16 -113 -16q-163 0 -279 116q-115 115 -115 277q0 163 115 278q116 116 279 116t278 -115t115 -279q0 -75 -39 -133
q-45 -68 -115 -68q-31 0 -50 25t-19 57v3t1 8l26 305h-65l-6 -71q-51 84 -151 84q-88 0 -152 -70q-63 -69 -63 -159q0 -77 50 -135q51 -56 128 -56q101 0 166 84q0 -56 37 -96q36 -40 92 -40q97 0 161 85q61 79 61 177zM635 275q0 -62 -47 -111q-49 -46 -110 -46
q-57 0 -94 39q-38 38 -38 93q0 63 47 110t110 47q55 0 94 -39q38 -38 38 -93z" />
    <glyph glyph-name="A" unicode="A" horiz-adv-x="645" 
d="M624 0l-255 700h-93l-255 -700h93l57 157h301l58 -157h94zM441 245h-238l119 327z" />
    <glyph glyph-name="B" unicode="B" horiz-adv-x="654" 
d="M598 197q0 117 -123 156q106 43 106 150q0 84 -67 143q-65 54 -152 54h-297v-700h315q87 0 152 55q66 56 66 142zM493 503q0 -49 -42 -80q-36 -29 -89 -29h-210v218h210q52 0 89 -28q42 -32 42 -81zM511 197q0 -50 -42 -81q-38 -29 -89 -29h-228v219h228q53 0 89 -29
q42 -32 42 -80z" />
    <glyph glyph-name="C" unicode="C" horiz-adv-x="726" 
d="M670 90l-63 60q-82 -80 -197 -80t-197 82q-83 82 -83 198t83 198q82 82 197 82q116 0 197 -81l63 61q-107 107 -260 107q-152 0 -260 -108q-107 -109 -107 -259t107 -260q109 -108 260 -108q152 0 260 108z" />
    <glyph glyph-name="D" unicode="D" horiz-adv-x="733" 
d="M677 350q0 144 -103 247q-102 103 -247 103h-262v-700h262q145 0 247 102q103 103 103 248zM590 350q0 -107 -77 -186q-79 -77 -186 -77h-175v525h175q109 0 186 -77t77 -185z" />
    <glyph glyph-name="E" unicode="E" horiz-adv-x="619" 
d="M555 0v87h-403v219h315v88h-315v218h403v88h-490v-700h490z" />
    <glyph glyph-name="F" unicode="F" horiz-adv-x="589" 
d="M555 612v88h-490v-700h87v306h315v88h-315v218h403z" />
    <glyph glyph-name="G" unicode="G" horiz-adv-x="773" 
d="M717 148v246h-307v-88h220v-130q-84 -106 -220 -106q-115 0 -197 82q-83 82 -83 198t83 198q82 82 197 82q66 0 125.5 -29.5t98.5 -82.5l72 50q-52 71 -130 110t-166 39q-152 0 -260 -108q-107 -109 -107 -259t107 -260q109 -108 260 -108q94 0 175 44t132 122z" />
    <glyph glyph-name="H" unicode="H" horiz-adv-x="689" 
d="M625 0v700h-88v-306h-385v306h-87v-700h87v306h385v-306h88z" />
    <glyph glyph-name="I" unicode="I" 
d="M152 0v700h-87v-700h87z" />
    <glyph glyph-name="J" unicode="J" horiz-adv-x="530" 
d="M474 219v481h-265v-88h178v-393q0 -61 -44 -105t-105 -44q-82 0 -126 70l-78 -41q32 -54 86.5 -85.5t117.5 -31.5q97 0 166 70q70 69 70 167z" />
    <glyph glyph-name="K" unicode="K" horiz-adv-x="615" 
d="M590 0l-276 424l276 276h-124l-314 -314v314h-87v-700h87v262l99 99l235 -361h104z" />
    <glyph glyph-name="L" unicode="L" horiz-adv-x="501" 
d="M467 0v87h-315v613h-87v-700h402z" />
    <glyph glyph-name="M" unicode="M" horiz-adv-x="826" 
d="M761 0v700h-140l-208 -572l-208 572h-140v-700h87v590l215 -590h93l214 587v-587h87z" />
    <glyph glyph-name="N" unicode="N" horiz-adv-x="689" 
d="M625 0v700h-88v-543l-385 543h-87v-700h87v542l385 -542h88z" />
    <glyph glyph-name="O" unicode="O" horiz-adv-x="821" 
d="M778 350q0 152 -108 260q-107 107 -260 107t-260 -107q-107 -109 -107 -260t107 -260q108 -108 260 -108t260 108t108 260zM690 350q0 -116 -82 -198t-198 -82q-115 0 -197 82q-83 82 -83 198t83 198q82 82 197 82q116 0 198 -82t82 -198z" />
    <glyph glyph-name="P" unicode="P" horiz-adv-x="615" 
d="M581 503q0 84 -67 143q-65 54 -152 54h-297v-700h87v306h210q86 0 152 55q67 57 67 142zM493 503q0 -49 -42 -80q-36 -29 -89 -29h-210v218h210q52 0 89 -28q42 -32 42 -81z" />
    <glyph glyph-name="Q" unicode="Q" horiz-adv-x="821" 
d="M778 350q0 152 -108 260q-107 107 -260 107t-260 -107q-107 -109 -107 -260q0 -141 93 -244q94 -105 231 -121v-160h87v160q137 16 231 121q93 105 93 244zM690 350q0 -105 -67 -182q-66 -78 -169 -95v102h-87v-102q-104 17 -169 95q-68 79 -68 182q0 116 83 198
q82 82 197 82q116 0 198 -82t82 -198z" />
    <glyph glyph-name="R" unicode="R" horiz-adv-x="650" 
d="M651 0l-159 245q-44 67 -69 69q70 18 113 69q45 51 45 120q0 84 -67 143q-65 54 -152 54h-297v-700h87v306h105q91 0 131 -61l159 -245h104zM493 503q0 -49 -42 -80q-36 -29 -89 -29h-210v218h210q52 0 89 -28q42 -32 42 -81z" />
    <glyph glyph-name="S" unicode="S" horiz-adv-x="672" 
d="M616 189q0 124 -118 169l-219 45q-118 28 -118 110q0 59 61 92q25 12 53 18.5t61 6.5q64 0 114 -26q61 -31 61 -91h87q0 95 -86 153q-77 51 -176 51q-100 0 -176 -51q-87 -59 -87 -153q0 -128 119 -173l109 -22l109 -22q118 -27 118 -107q0 -64 -68 -95q-51 -24 -124 -24
q-72 0 -124 24q-69 31 -69 95h-87q0 -99 94 -157q82 -50 186 -50t185 49q95 60 95 158z" />
    <glyph glyph-name="T" unicode="T" horiz-adv-x="602" 
d="M572 612v88h-542v-88h227v-612h88v612h227z" />
    <glyph glyph-name="U" unicode="U" horiz-adv-x="672" 
d="M616 262v438h-88v-438q0 -78 -56 -136q-56 -56 -136 -56q-81 0 -137 56q-56 58 -56 136v438h-87v-438q0 -115 82 -197q83 -83 198 -83t198 83q82 82 82 197z" />
    <glyph glyph-name="V" unicode="V" horiz-adv-x="645" 
d="M624 700h-94l-208 -572l-208 572h-93l255 -700h93z" />
    <glyph glyph-name="W" unicode="W" horiz-adv-x="936" 
d="M915 700h-91l-156 -542l-154 542h-91l-156 -542l-155 542h-91l200 -700h91l156 542l155 -542h91z" />
    <glyph glyph-name="X" unicode="X" horiz-adv-x="653" 
d="M627 0l-246 350l246 350h-108l-193 -273l-192 273h-109l247 -350l-247 -350h109l192 273l193 -273h108z" />
    <glyph glyph-name="Y" unicode="Y" horiz-adv-x="644" 
d="M623 700h-109l-192 -273l-193 273h-108l257 -365v-335h88v335z" />
    <glyph glyph-name="Z" unicode="Z" horiz-adv-x="672" 
d="M616 0v87h-441l441 525v88h-560v-88h441l-441 -525v-87h560z" />
    <glyph glyph-name="bracketleft" unicode="[" horiz-adv-x="339" 
d="M275 -88v88h-123v612h123v88h-210v-788h210z" />
    <glyph glyph-name="backslash" unicode="\" horiz-adv-x="437" 
d="M395 -49l-270 740l-82 -30l269 -740z" />
    <glyph glyph-name="bracketright" unicode="]" horiz-adv-x="339" 
d="M275 -88v788h-210v-88h122v-612h-122v-88h210z" />
    <glyph glyph-name="asciicircum" unicode="^" horiz-adv-x="485" 
d="M420 328l-143 319h-70l-142 -319l64 -29l113 255l114 -255z" />
    <glyph glyph-name="underscore" unicode="_" horiz-adv-x="436" 
d="M436 0v70h-436v-70h436z" />
    <glyph glyph-name="grave" unicode="`" horiz-adv-x="269" 
d="M205 595l-53 105h-87l87 -105h53z" />
    <glyph glyph-name="a" unicode="a" horiz-adv-x="668" 
d="M603 0v525h-88v-95q-78 112 -210 112q-112 0 -187 -84q-75 -83 -75 -196q0 -114 74 -195q76 -85 188 -85q131 0 210 112v-94h88zM515 262q0 -79 -57 -136q-55 -56 -135 -56q-81 0 -137 56q-56 58 -56 136q0 41 14 74t42 62q57 57 137 57q79 0 135 -57q57 -57 57 -136z
" />
    <glyph glyph-name="b" unicode="b" horiz-adv-x="668" 
d="M625 262q0 112 -76 196q-74 84 -187 84q-131 0 -210 -112v270h-87v-700h87v94q80 -112 210 -112q113 0 188 85q75 82 75 195zM537 262q0 -79 -57 -136q-55 -56 -135 -56q-81 0 -137 56q-56 58 -56 136q0 41 14 74t42 62q57 57 137 57q79 0 135 -57q57 -57 57 -136z" />
    <glyph glyph-name="c" unicode="c" horiz-adv-x="601" 
d="M545 93l-73 47q-61 -70 -149 -70q-81 0 -137 56q-56 58 -56 136q0 41 14 74t42 62q57 57 137 57q88 0 149 -70l73 47q-39 52 -98 81t-124 29q-116 0 -198 -82t-82 -198q0 -115 82 -197q83 -83 198 -83q65 0 124 29.5t98 81.5z" />
    <glyph glyph-name="d" unicode="d" horiz-adv-x="668" 
d="M603 0v700h-88v-270q-78 112 -210 112q-112 0 -187 -84q-75 -83 -75 -196q0 -114 74 -195q76 -85 188 -85q131 0 210 112v-94h88zM515 262q0 -79 -57 -136q-55 -56 -135 -56q-81 0 -137 56q-56 58 -56 136q0 41 14 74t42 62q57 57 137 57q79 0 135 -57q57 -57 57 -136z
" />
    <glyph glyph-name="e" unicode="e" horiz-adv-x="646" 
d="M603 262q0 116 -82 198q-83 82 -198 82q-116 0 -198 -82t-82 -198q0 -115 82 -197q83 -83 198 -83q65 0 124 29.5t98 81.5l-73 47q-59 -70 -149 -70q-66 0 -120 42q-54 43 -67 107h463q4 20 4 43zM510 306h-374q13 64 67 107q54 42 120 42t119 -42q53 -41 68 -107z" />
    <glyph glyph-name="f" unicode="f" horiz-adv-x="328" 
d="M294 700q-29 17 -67 17q-55 0 -93 -38q-39 -38 -39 -93v-114h-52v-87h52v-560h88v560h87v87h-87v114q0 18 13 31.5t31 13.5q14 0 27 -10z" />
    <glyph glyph-name="g" unicode="g" horiz-adv-x="668" 
d="M603 87v438h-88v-95q-35 51 -91 82q-56 30 -119 30q-111 0 -187 -84q-75 -83 -75 -196q0 -114 74 -195q78 -85 188 -85q62 0 119 31q56 31 91 81q0 -42 -13.5 -78t-40.5 -64q-54 -57 -138 -57q-90 0 -149 70l-67 -56q85 -102 216 -102q113 0 198 83q82 82 82 197z
M515 262q0 -79 -57 -136q-55 -56 -135 -56q-81 0 -137 56q-56 58 -56 136q0 41 14 74t42 62q57 57 137 57q79 0 135 -57q57 -57 57 -136z" />
    <glyph glyph-name="h" unicode="h" horiz-adv-x="576" 
d="M520 0v315q0 90 -59 157q-61 70 -151 70q-97 0 -158 -77v235h-87v-700h87v315q0 58 41 99t99 41t99 -41t41 -99v-315h88z" />
    <glyph glyph-name="i" unicode="i" 
d="M170 656q0 26 -18 43.5t-44 17.5t-43.5 -17.5t-17.5 -43.5t17.5 -43.5t43.5 -17.5t44 17.5t18 43.5zM152 0v525h-87v-525h87z" />
    <glyph glyph-name="j" unicode="j" 
d="M170 656q0 26 -18 43.5t-44 17.5t-43.5 -17.5t-17.5 -43.5t17.5 -43.5t43.5 -17.5t44 17.5t18 43.5zM152 -61v586h-87v-586q0 -18 -13 -31t-31 -13q-16 0 -27 10l-40 -79q32 -19 67 -19q52 0 93 39q38 38 38 93z" />
    <glyph glyph-name="k" unicode="k" horiz-adv-x="545" 
d="M520 0l-207 318l207 207h-124l-244 -244v419h-87v-700h87v157l97 98l167 -255h104z" />
    <glyph glyph-name="l" unicode="l" 
d="M152 0v700h-87v-700h87z" />
    <glyph glyph-name="m" unicode="m" horiz-adv-x="873" 
d="M817 0v315q0 45 -14.5 85t-43.5 73q-62 69 -152 69q-111 0 -163 -102q-44 102 -143 102q-94 0 -149 -77v60h-87v-525h87v315q0 54 34 97q36 43 89 43t89 -44q33 -41 33 -96v-315h88v315q0 56 34 97q34 43 88 43t89 -44q34 -42 34 -96v-315h87z" />
    <glyph glyph-name="n" unicode="n" horiz-adv-x="576" 
d="M520 0v315q0 90 -59 157q-61 70 -151 70q-97 0 -158 -77v60h-87v-525h87v315q0 58 41 99t99 41t99 -41t41 -99v-315h88z" />
    <glyph glyph-name="o" unicode="o" horiz-adv-x="646" 
d="M603 262q0 116 -82 198q-83 82 -198 82q-116 0 -198 -82t-82 -198q0 -115 82 -197q83 -83 198 -83q113 0 198 83q82 82 82 197zM515 262q0 -79 -57 -136q-55 -56 -135 -56q-81 0 -137 56q-56 58 -56 136q0 41 14 74t42 62q57 57 137 57q79 0 135 -57q57 -57 57 -136z" />
    <glyph glyph-name="p" unicode="p" horiz-adv-x="668" 
d="M625 262q0 112 -76 196q-74 84 -187 84q-131 0 -210 -112v95h-87v-700h87v269q80 -112 210 -112q113 0 188 85q75 82 75 195zM537 262q0 -79 -57 -136q-55 -56 -135 -56q-81 0 -137 56q-56 58 -56 136q0 41 14 74t42 62q57 57 137 57q79 0 135 -57q57 -57 57 -136z" />
    <glyph glyph-name="q" unicode="q" horiz-adv-x="668" 
d="M603 -175v700h-88v-95q-78 112 -210 112q-112 0 -187 -84q-75 -83 -75 -196q0 -114 74 -195q76 -85 188 -85q131 0 210 112v-269h88zM515 262q0 -79 -57 -136q-55 -56 -135 -56q-81 0 -137 56q-56 58 -56 136q0 41 14 74t42 62q57 57 137 57q79 0 135 -57q57 -57 57 -136
z" />
    <glyph glyph-name="r" unicode="r" horiz-adv-x="377" 
d="M343 445v95q-8 2 -17 2h-16q-97 0 -158 -77v60h-87v-525h87v315q0 58 41 99t99 41q14 0 26 -2.5t25 -7.5z" />
    <glyph glyph-name="s" unicode="s" horiz-adv-x="549" 
d="M493 144q0 98 -88 132q-5 2 -45.5 10.5l-118.5 24.5q-89 17 -89 70q0 39 44 59q33 15 79 15t78 -15q44 -20 44 -59h88q0 75 -70 121q-61 40 -140 40q-81 0 -140 -40q-70 -45 -70 -121q0 -99 88 -133q6 -2 46.5 -10.5l118.5 -24.5q88 -17 88 -69q0 -74 -131 -74
q-53 0 -83 13q-49 19 -49 61h-87q0 -77 73 -123q32 -19 68 -29t78 -10t77.5 10t67.5 29q73 46 73 123z" />
    <glyph glyph-name="t" unicode="t" horiz-adv-x="366" 
d="M332 437v88h-105v122h-88v-122h-105v-88h105v-612h88v612h105z" />
    <glyph glyph-name="u" unicode="u" horiz-adv-x="576" 
d="M511 0v525h-88v-315q0 -58 -41 -99t-99 -41q-57 0 -98 41q-42 40 -42 99v315h-87v-315q0 -92 59 -158q62 -70 151 -70q95 0 157 77v-59h88z" />
    <glyph glyph-name="v" unicode="v" horiz-adv-x="561" 
d="M540 525h-95l-165 -409l-165 409h-94l212 -525h94z" />
    <glyph glyph-name="w" unicode="w" horiz-adv-x="816" 
d="M795 525h-92l-124 -383l-125 383h-92l-124 -383l-125 383h-92l171 -525h91l126 383l124 -383h92z" />
    <glyph glyph-name="x" unicode="x" horiz-adv-x="529" 
d="M504 0l-186 262l186 263h-109l-131 -186l-130 186h-109l185 -263l-185 -262h109l130 185l131 -185h109z" />
    <glyph glyph-name="y" unicode="y" horiz-adv-x="561" 
d="M540 525h-95l-165 -409l-165 409h-94l212 -525l-33 -81q-9 -24 -40 -24q-17 0 -44 9v-88q27 -9 44 -9q90 0 123 83z" />
    <glyph glyph-name="z" unicode="z" horiz-adv-x="584" 
d="M528 0v87h-349l349 350v88h-472v-88h349l-349 -350v-87h472z" />
    <glyph glyph-name="braceleft" unicode="{" horiz-adv-x="401" 
d="M336 -88v88h-35q-12 0 -23 5.5t-19.5 14t-13.5 19.5t-5 22v140q0 33 -23 68q-25 37 -57 37q32 0 57 38q23 35 23 67v140q0 23 19 42t42 19h35v88h-44q-53 0 -97 -47q-43 -47 -43 -102v-149q0 -24 -17.5 -38t-43.5 -14h-26v-88h26q26 0 43.5 -14t17.5 -38v-149
q0 -55 43 -101q43 -48 97 -48h44z" />
    <glyph glyph-name="bar" unicode="|" 
d="M152 -88v788h-87v-788h87z" />
    <glyph glyph-name="braceright" unicode="}" horiz-adv-x="401" 
d="M336 262v88h-26q-26 0 -44 14t-18 38v149q0 55 -43 102q-44 47 -97 47h-43v-88h35q11 0 22 -5t19.5 -13.5t14 -19.5t5.5 -23v-140q0 -32 23 -67q23 -38 57 -38q-33 0 -57 -37q-23 -35 -23 -68v-140q0 -23 -19 -42t-42 -19h-35v-88h43q53 0 97 48q43 46 43 101v149
q0 24 18 38t44 14h26z" />
    <glyph glyph-name="asciitilde" unicode="~" horiz-adv-x="483" 
d="M418 284l-65 27q-13 -38 -39 -38q-28 0 -79 21t-78 21q-62 0 -92 -77l64 -26q15 37 40 37q26 0 79 -21q51 -21 78 -21q62 0 92 77z" />
    <glyph glyph-name="quotesinglbase" unicode="&#x201a;" horiz-adv-x="252" 
d="M187 0v122h-122v-122h87q0 -36 -15 -62t-37 -26v-35q34 0 61 36q26 37 26 87z" />
    <glyph glyph-name="florin" unicode="&#x192;" horiz-adv-x="518" 
d="M475 700q-28 17 -65 17q-55 0 -98 -39q-43 -37 -51 -92l-27 -192h-88l-12 -88h87l-51 -367q-3 -18 -18 -31t-32 -13q-15 0 -26 10l-51 -79q28 -19 65 -19q53 0 98 40q44 39 51 92l52 367h87l13 88h-88l27 192q3 18 17.5 31.5t32.5 13.5q13 0 26 -10z" />
    <glyph glyph-name="quotedblbase" unicode="&#x201e;" horiz-adv-x="444" 
d="M380 0v122h-123v-122h88q0 -36 -15.5 -62t-37.5 -26v-35q36 0 61 36q27 36 27 87zM187 0v122h-122v-122h87q0 -36 -15 -62t-37 -26v-35q34 0 61 36q26 37 26 87z" />
    <glyph glyph-name="ellipsis" unicode="&#x2026;" horiz-adv-x="707" 
d="M642 61q0 26 -17.5 43.5t-43.5 17.5t-43.5 -17.5t-17.5 -43.5t17.5 -43.5t43.5 -17.5t43.5 17.5t17.5 43.5zM415 61q0 26 -18 43.5t-44 17.5t-43.5 -17.5t-17.5 -43.5t17.5 -43.5t43.5 -17.5t44 17.5t18 43.5zM187 61q0 26 -17.5 43.5t-43.5 17.5t-43.5 -17.5
t-17.5 -43.5t17.5 -43.5t43.5 -17.5t43.5 17.5t17.5 43.5z" />
    <glyph glyph-name="dagger" unicode="&#x2020;" horiz-adv-x="488" 
d="M423 437v88h-135v175h-88v-175h-135v-88h135v-612h88v612h135z" />
    <glyph glyph-name="daggerdbl" unicode="&#x2021;" horiz-adv-x="488" 
d="M423 175v87h-135v175h135v88h-135v175h-88v-175h-135v-88h135v-175h-135v-87h135v-350h88v350h135z" />
    <glyph glyph-name="circumflex" unicode="&#x2c6;" horiz-adv-x="339" 
d="M275 595l-70 105h-70l-70 -105h52l53 63l52 -63h53z" />
    <glyph glyph-name="perthousand" unicode="&#x2030;" horiz-adv-x="1276" 
d="M1211 157q0 72 -52 124q-51 51 -123 51q-73 0 -124 -51t-51 -124t51 -124t124 -51q72 0 123 51q52 52 52 124zM808 157q0 73 -51 124t-124 51t-124 -51t-51 -124t51 -124t124 -51t124 51t51 124zM782 700h-87l-604 -700h87zM415 542q0 72 -52 124q-51 51 -123 51
q-73 0 -125 -51q-50 -50 -50 -124t50 -124q52 -51 125 -51q72 0 123 51q52 52 52 124zM1141 157q0 -43 -31 -74t-74 -31t-74 31q-31 30 -31 74q0 45 31 75q30 30 74 30t74 -30q31 -31 31 -75zM738 157q0 -44 -30 -74q-31 -31 -75 -31q-43 0 -74 31t-31 74q0 44 31 75
q30 30 74 30q45 0 75 -30t30 -75zM345 542q0 -43 -31 -74t-74 -31q-42 0 -75 31q-30 31 -30 74q0 44 30 74q31 31 75 31t74 -30q31 -31 31 -75z" />
    <glyph glyph-name="Scaron" unicode="&#x160;" horiz-adv-x="672" 
d="M441 875h-53l-52 -63l-53 63h-52l70 -105h70zM616 189q0 124 -118 169l-219 45q-118 28 -118 110q0 59 61 92q25 12 53 18.5t61 6.5q64 0 114 -26q61 -31 61 -91h87q0 95 -86 153q-77 51 -176 51q-100 0 -176 -51q-87 -59 -87 -153q0 -128 119 -173l109 -22l109 -22
q118 -27 118 -107q0 -64 -68 -95q-51 -24 -124 -24q-72 0 -124 24q-69 31 -69 95h-87q0 -99 94 -157q82 -50 186 -50t185 49q95 60 95 158z" />
    <glyph glyph-name="guilsinglleft" unicode="&#x2039;" horiz-adv-x="374" 
d="M309 189l-170 115l170 114l-39 59l-205 -138v-70l205 -139z" />
    <glyph glyph-name="OE" unicode="&#x152;" horiz-adv-x="1158" 
d="M1093 0v87h-315v219h227v88h-227v218h315v88h-403v-112q-108 129 -280 129q-153 0 -260 -107q-107 -109 -107 -260t107 -260q108 -108 260 -108q171 0 280 130v-112h403zM690 350q0 -116 -82 -198t-198 -82q-115 0 -197 82q-83 82 -83 198t83 198q82 82 197 82
q116 0 198 -82t82 -198z" />
    <glyph glyph-name="quoteleft" unicode="&#x2018;" horiz-adv-x="252" 
d="M187 455v122h-87q0 37 15 62.5t37 25.5v35q-35 0 -62 -36q-25 -35 -25 -87v-122h122z" />
    <glyph glyph-name="quoteright" unicode="&#x2019;" horiz-adv-x="252" 
d="M187 577v123h-122v-123h87q0 -36 -15 -61.5t-37 -25.5v-35q35 0 61 36q26 35 26 86z" />
    <glyph glyph-name="quotedblleft" unicode="&#x201c;" horiz-adv-x="444" 
d="M380 455v122h-88q0 37 15.5 62.5t37.5 25.5v35q-37 0 -62 -36q-26 -37 -26 -87v-122h123zM187 455v122h-87q0 37 15 62.5t37 25.5v35q-35 0 -62 -36q-25 -35 -25 -87v-122h122z" />
    <glyph glyph-name="quotedblright" unicode="&#x201d;" horiz-adv-x="444" 
d="M380 577v123h-123v-123h88q0 -36 -15.5 -61.5t-37.5 -25.5v-35q37 0 61 36q27 34 27 86zM187 577v123h-122v-123h87q0 -36 -15 -61.5t-37 -25.5v-35q35 0 61 36q26 35 26 86z" />
    <glyph glyph-name="bullet" unicode="&#x2022;" horiz-adv-x="444" 
d="M380 262q0 65 -47 112q-46 46 -111 46q-63 0 -111 -46q-46 -46 -46 -112q0 -65 46 -111q48 -46 111 -46q66 0 111 45q47 47 47 112z" />
    <glyph glyph-name="endash" unicode="&#x2013;" horiz-adv-x="392" 
d="M327 227v70h-262v-70h262z" />
    <glyph glyph-name="emdash" unicode="&#x2014;" horiz-adv-x="567" 
d="M502 227v70h-437v-70h437z" />
    <glyph glyph-name="tilde" unicode="&#x2dc;" horiz-adv-x="395" 
d="M330 669l-48 27q-12 -42 -30 -42q-22 0 -60 22q-36 24 -58 24q-47 0 -69 -77l49 -26q12 42 29 42q23 0 59 -24q38 -23 60 -23q45 0 68 77z" />
    <glyph glyph-name="trademark" unicode="&#x2122;" horiz-adv-x="766" 
d="M702 332v368h-85l-98 -270l-98 270h-356v-61h113v-307h62v307h96v-307h61v254l92 -254h60l91 253v-253h62z" />
    <glyph glyph-name="scaron" unicode="&#x161;" horiz-adv-x="549" 
d="M380 700h-53l-52 -63l-53 63h-52l70 -105h70zM493 144q0 98 -88 132q-5 2 -45.5 10.5l-118.5 24.5q-89 17 -89 70q0 39 44 59q33 15 79 15t78 -15q44 -20 44 -59h88q0 75 -70 121q-61 40 -140 40q-81 0 -140 -40q-70 -45 -70 -121q0 -99 88 -133q6 -2 46.5 -10.5
l118.5 -24.5q88 -17 88 -69q0 -74 -131 -74q-53 0 -83 13q-49 19 -49 61h-87q0 -77 73 -123q32 -19 68 -29t78 -10t77.5 10t67.5 29q73 46 73 123z" />
    <glyph glyph-name="guilsinglright" unicode="&#x203a;" horiz-adv-x="374" 
d="M309 269v70l-206 138l-38 -59l169 -114l-169 -115l38 -59z" />
    <glyph glyph-name="oe" unicode="&#x153;" horiz-adv-x="1118" 
d="M1075 262q0 116 -82 198t-198 82q-72 0 -134.5 -34.5t-101.5 -95.5q-39 61 -101.5 95.5t-134.5 34.5q-116 0 -198 -82t-82 -198q0 -115 82 -197q83 -83 198 -83q72 0 134.5 35t101.5 96q39 -61 101.5 -96t134.5 -35q66 0 124.5 29.5t98.5 81.5l-74 47q-59 -70 -149 -70
q-66 0 -120 42q-52 41 -67 107h464q3 22 3 43zM983 306h-375q15 66 67 107q54 42 120 42t119 -42q54 -42 69 -107zM515 262q0 -79 -57 -136q-55 -56 -135 -56q-81 0 -137 56q-56 58 -56 136q0 41 14 74t42 62q57 57 137 57q79 0 135 -57q57 -57 57 -136z" />
    <glyph glyph-name="Ydieresis" unicode="&#x178;" horiz-adv-x="644" 
d="M453 814q0 18 -12.5 30.5t-31.5 12.5q-18 0 -30.5 -12.5t-12.5 -30.5q0 -19 12.5 -31.5t30.5 -12.5q19 0 31.5 12.5t12.5 31.5zM278 814q0 18 -12.5 30.5t-31.5 12.5q-18 0 -30.5 -12.5t-12.5 -30.5q0 -19 12.5 -31.5t30.5 -12.5q19 0 31.5 12.5t12.5 31.5zM623 700h-109
l-192 -273l-193 273h-108l257 -365v-335h88v335z" />
    <glyph glyph-name="exclamdown" unicode="&#xa1;" horiz-adv-x="252" 
d="M187 551q0 26 -17.5 43.5t-43.5 17.5t-43.5 -17.5t-17.5 -43.5t17.5 -43.5t43.5 -17.5t43.5 17.5t17.5 43.5zM170 -88l-18 508h-52l-18 -508h88z" />
    <glyph glyph-name="cent" unicode="&#xa2;" horiz-adv-x="632" 
d="M567 93l-74 47q-41 -50 -105 -65v375q64 -15 105 -65l73 48q-68 89 -178 106v91h-87v-91q-101 -17 -169 -95q-67 -76 -67 -182q0 -105 67 -182q70 -79 169 -94v-91h87v91q109 16 179 107zM301 75q-65 15 -107 68q-42 52 -42 119t42 120t107 68v-375z" />
    <glyph glyph-name="sterling" unicode="&#xa3;" horiz-adv-x="635" 
d="M570 601q-32 54 -86 85t-117 31q-98 0 -168 -70q-69 -69 -69 -166v-87h-87v-88h87v-306h438v87h-350v219h175v88h-175v87q0 61 44 105q42 44 105 44q80 0 126 -70z" />
    <glyph glyph-name="currency" unicode="&#xa4;" horiz-adv-x="797" 
d="M732 647q-95 70 -217 70q-119 0 -216 -70q-95 -70 -133 -183h-75l-26 -70h85q-1 -11 -1.5 -22t-0.5 -22t0.5 -22t1.5 -22h-59l-26 -70h101q37 -112 133 -184q99 -70 216 -70q99 0 186 51v107q-82 -70 -186 -70q-83 0 -152 45q-69 46 -103 121h323l25 70h-369q-4 20 -4 44
t4 44h401l26 70h-406q35 75 103 120q68 46 152 46q104 0 186 -70z" />
    <glyph glyph-name="yen" unicode="&#xa5;" horiz-adv-x="731" 
d="M667 700h-109l-192 -273l-193 273h-108l228 -324h-190v-70h219v-87h-219v-70h219v-149h87v149h219v70h-219v87h219v70h-190z" />
    <glyph glyph-name="brokenbar" unicode="&#xa6;" 
d="M152 359v341h-87v-341h87zM152 -88v342h-87v-342h87z" />
    <glyph glyph-name="section" unicode="&#xa7;" horiz-adv-x="567" 
d="M502 83q0 84 -66 122q66 40 66 114q0 97 -88 132q-5 2 -46 10.5l-119 24.5q-88 17 -88 70q0 39 44 59q33 15 78 15q46 0 79 -15q46 -20 44 -59h87q0 76 -70 121q-59 40 -140 40q-79 0 -140 -40q-70 -46 -70 -121q0 -86 65 -122q-65 -41 -65 -115q0 -97 89 -133
q6 -2 46.5 -10.5l117.5 -23.5q89 -17 89 -69q0 -74 -132 -74q-51 0 -84 13q-48 20 -47 61h-87q0 -78 73 -123q63 -39 145 -39q83 0 146 39q73 45 73 123zM415 319q0 -39 -44 -59q-35 -15 -79 -15q-46 0 -82 16q-49 20 -49 58q0 41 42 61q33 15 78 15t83 -15q51 -23 51 -61z
" />
    <glyph glyph-name="dieresis" unicode="&#xa8;" horiz-adv-x="392" 
d="M327 656q0 19 -12.5 31.5t-31.5 12.5q-18 0 -30.5 -12.5t-12.5 -31.5q0 -18 12.5 -31t30.5 -13q19 0 31.5 13t12.5 31zM152 656q0 19 -12.5 31.5t-31.5 12.5q-18 0 -30.5 -12.5t-12.5 -31.5q0 -18 12.5 -31t30.5 -13q19 0 31.5 13t12.5 31z" />
    <glyph glyph-name="copyright" unicode="&#xa9;" horiz-adv-x="681" 
d="M616 276q0 113 -81 194t-195 81t-195 -81q-80 -82 -80 -194q0 -113 80 -196q82 -80 195 -80t195 80q81 82 81 196zM568 276q0 -95 -68 -161q-66 -67 -160 -67t-161 67q-66 66 -66 161q0 92 66 160q69 67 161 67q93 0 160 -67q68 -68 68 -160zM479 146l-31 30
q-40 -40 -99 -40q-58 0 -99 41t-41 99q0 57 41 98q40 42 99 42q58 0 99 -41l31 31q-52 53 -130 53q-76 0 -130 -54t-54 -129q0 -77 54 -131q53 -53 130 -53t130 54z" />
    <glyph glyph-name="ordfeminine" unicode="&#xaa;" horiz-adv-x="549" 
d="M485 306v394h-66v-71q-59 84 -157 84q-86 0 -141 -63q-56 -60 -56 -147q0 -86 56 -146q55 -64 141 -64q98 0 157 84v-71h66zM419 503q0 -59 -43 -102q-42 -42 -101 -42q-60 0 -103 42q-42 43 -42 102q0 60 42 102q43 42 103 42q59 0 101 -42q43 -42 43 -102z" />
    <glyph glyph-name="guillemotleft" unicode="&#xab;" horiz-adv-x="715" 
d="M650 59l-222 149l222 150l-38 58l-259 -173v-70l259 -173zM361 59l-222 149l222 150l-38 58l-258 -173v-70l258 -173z" />
    <glyph glyph-name="logicalnot" unicode="&#xac;" horiz-adv-x="479" 
d="M415 140v157h-350v-70h280v-87h70z" />
    <glyph glyph-name="registered" unicode="&#xae;" horiz-adv-x="681" 
d="M616 276q0 113 -81 194t-195 81t-195 -81q-80 -82 -80 -194q0 -113 80 -196q82 -80 195 -80t195 80q81 82 81 196zM425 353q0 -25 -19.5 -40.5t-45.5 -15.5h-105v110h105q26 0 45.5 -15t19.5 -39zM568 276q0 -97 -71 -165l-73 112q-19 30 -34 35q35 8 57 34t22 61
q0 41 -33 70q-34 28 -76 28h-149v-350h44v153h52q46 0 66 -31l79 -122h34q-64 -53 -146 -53q-94 0 -161 67q-66 66 -66 161q0 92 66 160q69 67 161 67q93 0 160 -67q68 -68 68 -160z" />
    <glyph glyph-name="macron" horiz-adv-x="392" 
d="M327 630v70h-262v-70h262z" />
    <glyph glyph-name="degree" unicode="&#xb0;" horiz-adv-x="322" 
d="M257 604q0 40 -28 68t-68 28t-68 -28t-28 -68q0 -41 28 -69t68 -28t68 28t28 69zM222 604q0 -26 -17.5 -44t-43.5 -18t-43.5 18t-17.5 44t17.5 43.5t43.5 17.5t43.5 -17.5t17.5 -43.5z" />
    <glyph glyph-name="plusminus" unicode="&#xb1;" horiz-adv-x="479" 
d="M415 315v70h-140v140h-70v-140h-140v-70h140v-140h70v140h140zM415 0v70h-350v-70h350z" />
    <glyph glyph-name="twosuperior" unicode="&#xb2;" horiz-adv-x="392" 
d="M327 350v44h-206q16 30 73 64q38 21 60 35.5t29 20.5q44 38 44 88q0 48 -42 80q-38 27 -89 27q-53 0 -88 -25q-43 -28 -43 -78h43q0 30 29 47q22 12 56 12q36 0 60 -14q30 -17 30 -49q0 -42 -56 -80l-105 -65q-57 -45 -57 -107h262z" />
    <glyph glyph-name="threesuperior" unicode="&#xb3;" horiz-adv-x="397" 
d="M332 455q0 64 -68 92q51 21 51 70q0 46 -40 71q-33 21 -83 21q-96 0 -118 -63l41 -15q12 34 77 34q79 0 79 -48q0 -24 -29 -38q-21 -10 -50 -10h-26v-44h26q37 0 63 -17q34 -20 34 -53q0 -36 -32 -54q-25 -16 -65 -16q-67 0 -90 41l-37 -22q34 -63 127 -63q56 0 96 28
q44 31 44 86z" />
    <glyph glyph-name="acute" unicode="&#xb4;" horiz-adv-x="269" 
d="M205 700h-88l-52 -105h52z" />
    <glyph glyph-name="mu" unicode="&#xb5;" horiz-adv-x="584" 
d="M520 0v525h-88v-315q0 -58 -41 -99t-99 -41t-99 41t-41 99v315h-87v-700h87v234q50 -77 140 -77q92 0 140 77v-59h88z" />
    <glyph glyph-name="mu" unicode="&#x3bc;" horiz-adv-x="584" 
d="M520 0v525h-88v-315q0 -58 -41 -99t-99 -41t-99 41t-41 99v315h-87v-700h87v234q50 -77 140 -77q92 0 140 77v-59h88z" />
    <glyph glyph-name="paragraph" unicode="&#xb6;" horiz-adv-x="733" 
d="M668 612v88h-385q-87 0 -151 -54q-67 -58 -67 -143q0 -86 67 -143q66 -54 151 -54v-481h88v787h105v-787h87v787h105z" />
    <glyph glyph-name="periodcentered" unicode="&#xb7;" horiz-adv-x="252" 
d="M187 262q0 26 -17.5 44t-43.5 18t-43.5 -18t-17.5 -44t17.5 -43.5t43.5 -17.5t43.5 17.5t17.5 43.5z" />
    <glyph glyph-name="cedilla" unicode="&#xb8;" horiz-adv-x="269" 
d="M205 -105q0 24 -16 43.5t-40 24.5l12 54h-35l-18 -78h27q17 0 30 -13t13 -31t-13 -31t-30 -13h-62l-8 -26h70q29 0 49.5 20.5t20.5 49.5z" />
    <glyph glyph-name="onesuperior" unicode="&#xb9;" horiz-adv-x="266" 
d="M201 350v350h-44l-92 -93l28 -28l64 66v-295h44z" />
    <glyph glyph-name="ordmasculine" unicode="&#xba;" horiz-adv-x="549" 
d="M485 503q0 86 -62 148q-64 62 -148 62q-87 0 -149 -62q-61 -61 -61 -148q0 -88 61 -149t149 -61q86 0 148 61q62 62 62 149zM419 503q0 -59 -43 -102q-42 -42 -101 -42q-60 0 -103 42q-42 43 -42 102q0 60 42 102q43 42 103 42q59 0 101 -42q43 -42 43 -102z" />
    <glyph glyph-name="guillemotright" unicode="&#xbb;" horiz-adv-x="715" 
d="M650 173v70l-258 173l-39 -58l223 -150l-223 -149l39 -59zM361 173v70l-258 173l-38 -58l222 -150l-222 -149l38 -59z" />
    <glyph glyph-name="onequarter" unicode="&#xbc;" horiz-adv-x="479" 
d="M295 420v280h-35l-75 -74l23 -22l52 51v-235h35zM415 332v35h-350v-35h350zM352 56v35h-35v189h-30l-158 -189v-35h153v-56h35v56h35zM282 91h-117l117 137v-137z" />
    <glyph glyph-name="onehalf" unicode="&#xbd;" horiz-adv-x="479" 
d="M295 420v280h-35l-75 -74l23 -22l52 51v-235h35zM415 332v35h-350v-35h350zM345 0v35h-165q15 26 59 52q58 33 71 44q35 30 35 70q0 38 -34 64q-29 22 -70 22q-40 0 -71 -20q-34 -22 -34 -62h35q0 26 23 36q19 11 45 11q27 0 47 -11q24 -14 24 -40q0 -34 -46 -64l-42 -26
l-41 -26q-45 -35 -45 -85h209z" />
    <glyph glyph-name="threequarters" unicode="&#xbe;" horiz-adv-x="479" 
d="M347 504q0 52 -55 73q41 18 41 56t-31 57q-27 17 -67 17q-76 0 -94 -51l33 -12q9 28 61 28q63 0 63 -39q0 -18 -22 -29q-20 -9 -41 -9h-21v-35h21q30 0 51 -14q26 -16 26 -42q0 -29 -25 -44q-21 -12 -52 -12q-55 0 -71 33l-31 -17q27 -51 102 -51q44 0 76 23q36 24 36 68
zM415 332v35h-350v-35h350zM352 56v35h-35v189h-30l-158 -189v-35h153v-56h35v56h35zM282 91h-117l117 137v-137z" />
    <glyph glyph-name="questiondown" unicode="&#xbf;" horiz-adv-x="444" 
d="M345 551q0 26 -18 43.5t-44 17.5t-43.5 -17.5t-17.5 -43.5t17.5 -43.5t43.5 -17.5t44 17.5t18 43.5zM380 57h-88q-1 -30 -21 -52.5t-49 -22.5t-49.5 22.5t-20.5 52.5q0 46 44 85l40 32.5l40 32.5q43 45 43 105q0 7 -9 108h-53q-3 -29 -5 -51t-4 -37q-9 -68 -58 -105
l-41 -27.5l-42 -27.5q-42 -38 -42 -115q0 -66 45 -114q46 -48 112 -48t111 48q47 49 47 114z" />
    <glyph glyph-name="Agrave" unicode="&#xc0;" horiz-adv-x="645" 
d="M348 770l-52 105h-88l88 -105h52zM624 0l-255 700h-93l-255 -700h93l57 157h301l58 -157h94zM441 245h-238l119 327z" />
    <glyph glyph-name="Aacute" unicode="&#xc1;" horiz-adv-x="645" 
d="M436 875h-88l-52 -105h52zM624 0l-255 700h-93l-255 -700h93l57 157h301l58 -157h94zM441 245h-238l119 327z" />
    <glyph glyph-name="Acircumflex" unicode="&#xc2;" horiz-adv-x="645" 
d="M427 770l-70 105h-70l-70 -105h52l53 63l52 -63h53zM624 0l-255 700h-93l-255 -700h93l57 157h301l58 -157h94zM441 245h-238l119 327z" />
    <glyph glyph-name="Atilde" unicode="&#xc3;" horiz-adv-x="645" 
d="M455 847l-48 26q-12 -42 -30 -42q-21 0 -59 23q-38 24 -59 24q-46 0 -69 -77l49 -27q12 42 30 42q21 0 58 -23q40 -23 60 -23q46 0 68 77zM624 0l-255 700h-93l-255 -700h93l57 157h301l58 -157h94zM441 245h-238l119 327z" />
    <glyph glyph-name="Adieresis" unicode="&#xc4;" horiz-adv-x="645" 
d="M454 814q0 18 -12.5 30.5t-31.5 12.5q-18 0 -30.5 -12.5t-12.5 -30.5q0 -19 12.5 -31.5t30.5 -12.5q19 0 31.5 12.5t12.5 31.5zM279 814q0 18 -12.5 30.5t-31.5 12.5q-18 0 -30.5 -12.5t-12.5 -30.5q0 -19 12.5 -31.5t30.5 -12.5q19 0 31.5 12.5t12.5 31.5zM624 0
l-255 700h-93l-255 -700h93l57 157h301l58 -157h94zM441 245h-238l119 327z" />
    <glyph glyph-name="Aring" unicode="&#xc5;" horiz-adv-x="645" 
d="M624 0l-248 682q42 28 42 79q0 40 -29 68q-27 28 -67 28t-68 -28t-28 -68q0 -52 43 -80l-248 -681h93l57 157h301l58 -157h94zM383 761q0 -26 -17.5 -43.5t-43.5 -17.5t-43.5 17.5t-17.5 43.5t17.5 43.5t43.5 17.5t43.5 -17.5t17.5 -43.5zM441 245h-238l119 327z" />
    <glyph glyph-name="AE" unicode="&#xc6;" horiz-adv-x="997" 
d="M933 0v87h-315v219h227v88h-227v218h315v88h-403v-443l-161 443h-93l-255 -700h93l57 157h301l58 -157h403zM441 245h-238l119 327z" />
    <glyph glyph-name="Ccedilla" unicode="&#xc7;" horiz-adv-x="726" 
d="M670 90l-63 60q-82 -80 -197 -80t-197 82q-83 82 -83 198t83 198q82 82 197 82q116 0 197 -81l63 61q-107 107 -260 107q-152 0 -260 -108q-107 -109 -107 -259q0 -142 94 -246q95 -105 235 -120l-14 -63h26q18 0 31 -13t13 -31q0 -17 -13 -30t-31 -13h-61l-9 -27h70
q29 0 49.5 20.5t20.5 49.5q0 25 -16 44.5t-40 24.5l8 36q157 0 264 108z" />
    <glyph glyph-name="Egrave" unicode="&#xc8;" horiz-adv-x="619" 
d="M336 770l-53 105h-87l87 -105h53zM555 0v87h-403v219h315v88h-315v218h403v88h-490v-700h490z" />
    <glyph glyph-name="Eacute" unicode="&#xc9;" horiz-adv-x="619" 
d="M423 875h-87l-53 -105h53zM555 0v87h-403v219h315v88h-315v218h403v88h-490v-700h490z" />
    <glyph glyph-name="Ecircumflex" unicode="&#xca;" horiz-adv-x="619" 
d="M415 770l-70 105h-70l-70 -105h52l53 63l52 -63h53zM555 0v87h-403v219h315v88h-315v218h403v88h-490v-700h490z" />
    <glyph glyph-name="Edieresis" unicode="&#xcb;" horiz-adv-x="619" 
d="M441 814q0 18 -12.5 30.5t-31.5 12.5q-18 0 -31 -12.5t-13 -30.5q0 -19 13 -31.5t31 -12.5q19 0 31.5 12.5t12.5 31.5zM266 814q0 18 -12.5 30.5t-31.5 12.5q-18 0 -31 -12.5t-13 -30.5q0 -19 13 -31.5t31 -12.5q19 0 31.5 12.5t12.5 31.5zM555 0v87h-403v219h315v88
h-315v218h403v88h-490v-700h490z" />
    <glyph glyph-name="Igrave" unicode="&#xcc;" 
d="M135 770l-53 105h-87l87 -105h53zM152 0v700h-87v-700h87z" />
    <glyph glyph-name="Iacute" unicode="&#xcd;" 
d="M222 875h-87l-53 -105h53zM152 0v700h-87v-700h87z" />
    <glyph glyph-name="Icircumflex" unicode="&#xce;" 
d="M213 770l-70 105h-70l-70 -105h53l52 63l53 -63h52zM152 0v700h-87v-700h87z" />
    <glyph glyph-name="Idieresis" unicode="&#xcf;" 
d="M240 814q0 18 -13 30.5t-31 12.5q-19 0 -31.5 -12.5t-12.5 -30.5q0 -19 12.5 -31.5t31.5 -12.5q18 0 31 12.5t13 31.5zM65 814q0 18 -13 30.5t-31 12.5q-19 0 -31.5 -12.5t-12.5 -30.5q0 -19 12.5 -31.5t31.5 -12.5q18 0 31 12.5t13 31.5zM152 0v700h-87v-700h87z" />
    <glyph glyph-name="Eth" unicode="&#xd0;" horiz-adv-x="799" 
d="M743 350q0 144 -103 247t-247 103h-263v-306h-87v-70h87v-324h263q143 0 247 102q103 103 103 248zM655 350q0 -109 -77 -186t-185 -77h-175v237h175v70h-175v218h175q109 0 185 -77q77 -76 77 -185z" />
    <glyph glyph-name="Ntilde" unicode="&#xd1;" horiz-adv-x="689" 
d="M478 847l-48 26q-12 -42 -30 -42q-20 0 -60 23q-36 24 -58 24q-48 0 -69 -77l49 -27q10 42 29 42q21 0 59 -23t59 -23q47 0 69 77zM625 0v700h-88v-543l-385 543h-87v-700h87v542l385 -542h88z" />
    <glyph glyph-name="Ograve" unicode="&#xd2;" horiz-adv-x="821" 
d="M437 770l-53 105h-87l87 -105h53zM778 350q0 152 -108 260q-107 107 -260 107t-260 -107q-107 -109 -107 -260t107 -260q108 -108 260 -108t260 108t108 260zM690 350q0 -116 -82 -198t-198 -82q-115 0 -197 82q-83 82 -83 198t83 198q82 82 197 82q116 0 198 -82
t82 -198z" />
    <glyph glyph-name="Oacute" unicode="&#xd3;" horiz-adv-x="821" 
d="M524 875h-87l-53 -105h53zM778 350q0 152 -108 260q-107 107 -260 107t-260 -107q-107 -109 -107 -260t107 -260q108 -108 260 -108t260 108t108 260zM690 350q0 -116 -82 -198t-198 -82q-115 0 -197 82q-83 82 -83 198t83 198q82 82 197 82q116 0 198 -82t82 -198z" />
    <glyph glyph-name="Ocircumflex" unicode="&#xd4;" horiz-adv-x="821" 
d="M515 770l-70 105h-70l-70 -105h53l52 63l53 -63h52zM778 350q0 152 -108 260q-107 107 -260 107t-260 -107q-107 -109 -107 -260t107 -260q108 -108 260 -108t260 108t108 260zM690 350q0 -116 -82 -198t-198 -82q-115 0 -197 82q-83 82 -83 198t83 198q82 82 197 82
q116 0 198 -82t82 -198z" />
    <glyph glyph-name="Otilde" unicode="&#xd5;" horiz-adv-x="821" 
d="M543 847l-48 26q-12 -42 -30 -42q-21 0 -59 23q-38 24 -59 24q-46 0 -69 -77l49 -27q12 42 30 42q21 0 59 -23t59 -23q46 0 68 77zM778 350q0 152 -108 260q-107 107 -260 107t-260 -107q-107 -109 -107 -260t107 -260q108 -108 260 -108t260 108t108 260zM690 350
q0 -116 -82 -198t-198 -82q-115 0 -197 82q-83 82 -83 198t83 198q82 82 197 82q116 0 198 -82t82 -198z" />
    <glyph glyph-name="Odieresis" unicode="&#xd6;" horiz-adv-x="821" 
d="M542 814q0 18 -13 30.5t-31 12.5q-19 0 -31.5 -12.5t-12.5 -30.5q0 -19 12.5 -31.5t31.5 -12.5q18 0 31 12.5t13 31.5zM367 814q0 18 -13 30.5t-31 12.5q-19 0 -31.5 -12.5t-12.5 -30.5q0 -19 12.5 -31.5t31.5 -12.5q18 0 31 12.5t13 31.5zM778 350q0 152 -108 260
q-107 107 -260 107t-260 -107q-107 -109 -107 -260t107 -260q108 -108 260 -108t260 108t108 260zM690 350q0 -116 -82 -198t-198 -82q-115 0 -197 82q-83 82 -83 198t83 198q82 82 197 82q116 0 198 -82t82 -198z" />
    <glyph glyph-name="multiply" unicode="&#xd7;" horiz-adv-x="476" 
d="M411 139l-123 123l123 124l-50 50l-123 -124l-123 124l-50 -50l123 -124l-123 -123l50 -50l123 124l123 -124z" />
    <glyph glyph-name="Oslash" unicode="&#xd8;" horiz-adv-x="821" 
d="M800 674l-27 26l-102 -92q-109 109 -261 109q-153 0 -260 -107q-107 -109 -107 -260q0 -131 82 -231l-104 -93l26 -26l103 92q108 -110 260 -110t260 108t108 260q0 131 -82 231zM606 550l-416 -372q-60 75 -60 172q0 116 83 198q82 82 197 82q116 0 196 -80zM690 350
q0 -116 -82 -198t-198 -82q-115 0 -196 80l417 372q59 -76 59 -172z" />
    <glyph glyph-name="Ugrave" unicode="&#xd9;" horiz-adv-x="672" 
d="M362 770l-52 105h-88l88 -105h52zM616 262v438h-88v-438q0 -78 -56 -136q-56 -56 -136 -56q-81 0 -137 56q-56 58 -56 136v438h-87v-438q0 -115 82 -197q83 -83 198 -83t198 83q82 82 82 197z" />
    <glyph glyph-name="Uacute" unicode="&#xda;" horiz-adv-x="672" 
d="M450 875h-88l-52 -105h52zM616 262v438h-88v-438q0 -78 -56 -136q-56 -56 -136 -56q-81 0 -137 56q-56 58 -56 136v438h-87v-438q0 -115 82 -197q83 -83 198 -83t198 83q82 82 82 197z" />
    <glyph glyph-name="Ucircumflex" unicode="&#xdb;" horiz-adv-x="672" 
d="M441 770l-70 105h-70l-70 -105h52l53 63l52 -63h53zM616 262v438h-88v-438q0 -78 -56 -136q-56 -56 -136 -56q-81 0 -137 56q-56 58 -56 136v438h-87v-438q0 -115 82 -197q83 -83 198 -83t198 83q82 82 82 197z" />
    <glyph glyph-name="Udieresis" unicode="&#xdc;" horiz-adv-x="672" 
d="M467 814q0 18 -12.5 30.5t-31.5 12.5q-18 0 -30.5 -12.5t-12.5 -30.5q0 -19 12.5 -31.5t30.5 -12.5q19 0 31.5 12.5t12.5 31.5zM292 814q0 18 -12.5 30.5t-31.5 12.5q-18 0 -30.5 -12.5t-12.5 -30.5q0 -19 12.5 -31.5t30.5 -12.5q19 0 31.5 12.5t12.5 31.5zM616 262v438
h-88v-438q0 -78 -56 -136q-56 -56 -136 -56q-81 0 -137 56q-56 58 -56 136v438h-87v-438q0 -115 82 -197q83 -83 198 -83t198 83q82 82 82 197z" />
    <glyph glyph-name="Yacute" unicode="&#xdd;" horiz-adv-x="644" 
d="M436 875h-88l-52 -105h52zM623 700h-109l-192 -273l-193 273h-108l257 -365v-335h88v335z" />
    <glyph glyph-name="Thorn" unicode="&#xde;" horiz-adv-x="615" 
d="M581 350q0 84 -67 143q-66 54 -152 54h-210v153h-87v-700h87v153h210q88 0 152 55q67 57 67 142zM493 350q0 -50 -42 -81q-37 -28 -89 -28h-210v218h210q53 0 89 -29q42 -32 42 -80z" />
    <glyph glyph-name="germandbls" unicode="&#xdf;" horiz-adv-x="646" 
d="M590 210q0 64 -39 114q-34 44 -98 70q102 40 102 140q0 94 -77 142q-65 41 -164 41q-110 0 -181 -86q-68 -81 -68 -194v-525h87v525q0 76 43 132q46 61 119 61q153 0 153 -96q0 -48 -58 -75q-44 -22 -99 -22h-53v-87h53q71 0 127 -34q65 -39 65 -106q0 -70 -64 -109
q-52 -31 -128 -31q-35 0 -70 8l-21 -84q45 -12 91 -12q112 0 191 56q89 63 89 172z" />
    <glyph glyph-name="agrave" unicode="&#xe0;" horiz-adv-x="668" 
d="M349 595l-52 105h-88l88 -105h52zM603 0v525h-88v-95q-78 112 -210 112q-112 0 -187 -84q-75 -83 -75 -196q0 -114 74 -195q76 -85 188 -85q131 0 210 112v-94h88zM515 262q0 -79 -57 -136q-55 -56 -135 -56q-81 0 -137 56q-56 58 -56 136q0 41 14 74t42 62q57 57 137 57
q79 0 135 -57q57 -57 57 -136z" />
    <glyph glyph-name="aacute" unicode="&#xe1;" horiz-adv-x="668" 
d="M437 700h-88l-52 -105h52zM603 0v525h-88v-95q-78 112 -210 112q-112 0 -187 -84q-75 -83 -75 -196q0 -114 74 -195q76 -85 188 -85q131 0 210 112v-94h88zM515 262q0 -79 -57 -136q-55 -56 -135 -56q-81 0 -137 56q-56 58 -56 136q0 41 14 74t42 62q57 57 137 57
q79 0 135 -57q57 -57 57 -136z" />
    <glyph glyph-name="acircumflex" unicode="&#xe2;" horiz-adv-x="668" 
d="M428 595l-70 105h-70l-70 -105h52l53 63l52 -63h53zM603 0v525h-88v-95q-78 112 -210 112q-112 0 -187 -84q-75 -83 -75 -196q0 -114 74 -195q76 -85 188 -85q131 0 210 112v-94h88zM515 262q0 -79 -57 -136q-55 -56 -135 -56q-81 0 -137 56q-56 58 -56 136q0 41 14 74
t42 62q57 57 137 57q79 0 135 -57q57 -57 57 -136z" />
    <glyph glyph-name="atilde" unicode="&#xe3;" horiz-adv-x="668" 
d="M456 672l-48 26q-12 -42 -30 -42q-20 0 -60 23q-36 24 -58 24q-46 0 -69 -77l49 -27q12 42 29 42q22 0 59 -23q38 -23 60 -23q46 0 68 77zM603 0v525h-88v-95q-78 112 -210 112q-112 0 -187 -84q-75 -83 -75 -196q0 -114 74 -195q76 -85 188 -85q131 0 210 112v-94h88z
M515 262q0 -79 -57 -136q-55 -56 -135 -56q-81 0 -137 56q-56 58 -56 136q0 41 14 74t42 62q57 57 137 57q79 0 135 -57q57 -57 57 -136z" />
    <glyph glyph-name="adieresis" unicode="&#xe4;" horiz-adv-x="668" 
d="M454 639q0 18 -12.5 30.5t-31.5 12.5q-18 0 -30.5 -12.5t-12.5 -30.5q0 -19 12.5 -31.5t30.5 -12.5q19 0 31.5 12.5t12.5 31.5zM279 639q0 18 -12.5 30.5t-31.5 12.5q-18 0 -30.5 -12.5t-12.5 -30.5q0 -19 12.5 -31.5t30.5 -12.5q19 0 31.5 12.5t12.5 31.5zM603 0v525
h-88v-95q-78 112 -210 112q-112 0 -187 -84q-75 -83 -75 -196q0 -114 74 -195q76 -85 188 -85q131 0 210 112v-94h88zM515 262q0 -79 -57 -136q-55 -56 -135 -56q-81 0 -137 56q-56 58 -56 136q0 41 14 74t42 62q57 57 137 57q79 0 135 -57q57 -57 57 -136z" />
    <glyph glyph-name="aring" unicode="&#xe5;" horiz-adv-x="668" 
d="M419 691q0 41 -28 68.5t-68 27.5q-41 0 -68.5 -27.5t-27.5 -68.5q0 -40 27.5 -68t68.5 -28q40 0 68 28t28 68zM603 0v525h-88v-95q-78 112 -210 112q-112 0 -187 -84q-75 -83 -75 -196q0 -114 74 -195q76 -85 188 -85q131 0 210 112v-94h88zM384 691q0 -26 -17.5 -43.5
t-43.5 -17.5t-43.5 17.5t-17.5 43.5t17.5 43.5t43.5 17.5t43.5 -17.5t17.5 -43.5zM515 262q0 -79 -57 -136q-55 -56 -135 -56q-81 0 -137 56q-56 58 -56 136q0 41 14 74t42 62q57 57 137 57q79 0 135 -57q57 -57 57 -136z" />
    <glyph glyph-name="ae" unicode="&#xe6;" horiz-adv-x="1118" 
d="M1075 262q0 113 -73 195q-76 85 -187 85q-136 0 -212 -112v95h-88v-95q-78 112 -210 112q-111 0 -187 -84q-75 -83 -75 -196q0 -114 74 -195q78 -85 188 -85q133 0 210 112v-94h88v94q77 -112 205 -112q126 0 210 111l-74 47q-59 -70 -149 -70q-66 0 -120 42
q-52 41 -67 107h464q3 22 3 43zM983 306h-375q15 66 67 107q54 42 120 42t119 -42q54 -42 69 -107zM515 262q0 -79 -57 -136q-55 -56 -135 -56q-81 0 -137 56q-56 58 -56 136q0 41 14 74t42 62q57 57 137 57q79 0 135 -57q57 -57 57 -136z" />
    <glyph glyph-name="ccedilla" unicode="&#xe7;" horiz-adv-x="601" 
d="M545 93l-73 47q-61 -70 -149 -70q-81 0 -137 56q-56 58 -56 136q0 41 14 74t42 62q57 57 137 57q88 0 149 -70l73 47q-39 52 -98 81t-124 29q-116 0 -198 -82t-82 -198q0 -104 69 -183q35 -41 77.5 -63.5t94.5 -30.5l-14 -64h27q17 0 30 -13t13 -31q0 -17 -13 -30
t-30 -13h-62l-8 -27h70q29 0 49.5 20.5t20.5 49.5q0 25 -16 44.5t-40 24.5l7 36q143 0 227 111z" />
    <glyph glyph-name="egrave" unicode="&#xe8;" horiz-adv-x="646" 
d="M349 595l-52 105h-88l88 -105h52zM603 262q0 116 -82 198q-83 82 -198 82q-116 0 -198 -82t-82 -198q0 -115 82 -197q83 -83 198 -83q65 0 124 29.5t98 81.5l-73 47q-59 -70 -149 -70q-66 0 -120 42q-54 43 -67 107h463q4 20 4 43zM510 306h-374q13 64 67 107
q54 42 120 42t119 -42q53 -41 68 -107z" />
    <glyph glyph-name="eacute" unicode="&#xe9;" horiz-adv-x="646" 
d="M437 700h-88l-52 -105h52zM603 262q0 116 -82 198q-83 82 -198 82q-116 0 -198 -82t-82 -198q0 -115 82 -197q83 -83 198 -83q65 0 124 29.5t98 81.5l-73 47q-59 -70 -149 -70q-66 0 -120 42q-54 43 -67 107h463q4 20 4 43zM510 306h-374q13 64 67 107q54 42 120 42
t119 -42q53 -41 68 -107z" />
    <glyph glyph-name="ecircumflex" unicode="&#xea;" horiz-adv-x="646" 
d="M428 595l-70 105h-70l-70 -105h52l53 63l52 -63h53zM603 262q0 116 -82 198q-83 82 -198 82q-116 0 -198 -82t-82 -198q0 -115 82 -197q83 -83 198 -83q65 0 124 29.5t98 81.5l-73 47q-59 -70 -149 -70q-66 0 -120 42q-54 43 -67 107h463q4 20 4 43zM510 306h-374
q13 64 67 107q54 42 120 42t119 -42q53 -41 68 -107z" />
    <glyph glyph-name="edieresis" unicode="&#xeb;" horiz-adv-x="646" 
d="M454 639q0 18 -12.5 30.5t-31.5 12.5q-18 0 -30.5 -12.5t-12.5 -30.5q0 -19 12.5 -31.5t30.5 -12.5q19 0 31.5 12.5t12.5 31.5zM279 639q0 18 -12.5 30.5t-31.5 12.5q-18 0 -30.5 -12.5t-12.5 -30.5q0 -19 12.5 -31.5t30.5 -12.5q19 0 31.5 12.5t12.5 31.5zM603 262
q0 116 -82 198q-83 82 -198 82q-116 0 -198 -82t-82 -198q0 -115 82 -197q83 -83 198 -83q65 0 124 29.5t98 81.5l-73 47q-59 -70 -149 -70q-66 0 -120 42q-54 43 -67 107h463q4 20 4 43zM510 306h-374q13 64 67 107q54 42 120 42t119 -42q53 -41 68 -107z" />
    <glyph glyph-name="igrave" unicode="&#xec;" 
d="M135 595l-53 105h-87l87 -105h53zM152 0v525h-87v-525h87z" />
    <glyph glyph-name="iacute" unicode="&#xed;" 
d="M222 700h-87l-53 -105h53zM152 0v525h-87v-525h87z" />
    <glyph glyph-name="icircumflex" unicode="&#xee;" 
d="M213 595l-70 105h-70l-70 -105h53l52 63l53 -63h52zM152 0v525h-87v-525h87z" />
    <glyph glyph-name="idieresis" unicode="&#xef;" 
d="M240 639q0 18 -13 30.5t-31 12.5q-19 0 -31.5 -12.5t-12.5 -30.5q0 -19 12.5 -31.5t31.5 -12.5q18 0 31 12.5t13 31.5zM65 639q0 18 -13 30.5t-31 12.5q-19 0 -31.5 -12.5t-12.5 -30.5q0 -19 12.5 -31.5t31.5 -12.5q18 0 31 12.5t13 31.5zM152 0v525h-87v-525h87z" />
    <glyph glyph-name="eth" unicode="&#xf0;" horiz-adv-x="720" 
d="M690 577v70h-87v53h-88v-53h-87v-70h87v-147q-78 112 -210 112q-111 0 -187 -84q-75 -83 -75 -196q0 -115 82 -197q83 -83 198 -83q113 0 198 83q82 82 82 197v315h87zM515 262q0 -79 -57 -136q-55 -56 -135 -56q-81 0 -137 56q-56 58 -56 136q0 41 14 74t42 62
q57 57 137 57q79 0 135 -57q57 -57 57 -136z" />
    <glyph glyph-name="ntilde" unicode="&#xf1;" horiz-adv-x="576" 
d="M425 672l-48 26q-12 -42 -30 -42q-21 0 -59 23q-38 24 -59 24q-46 0 -69 -77l49 -27q12 42 30 42q21 0 58 -23q40 -23 60 -23q46 0 68 77zM520 0v315q0 90 -59 157q-61 70 -151 70q-97 0 -158 -77v60h-87v-525h87v315q0 58 41 99t99 41t99 -41t41 -99v-315h88z" />
    <glyph glyph-name="ograve" unicode="&#xf2;" horiz-adv-x="646" 
d="M349 595l-52 105h-88l88 -105h52zM603 262q0 116 -82 198q-83 82 -198 82q-116 0 -198 -82t-82 -198q0 -115 82 -197q83 -83 198 -83q113 0 198 83q82 82 82 197zM515 262q0 -79 -57 -136q-55 -56 -135 -56q-81 0 -137 56q-56 58 -56 136q0 41 14 74t42 62q57 57 137 57
q79 0 135 -57q57 -57 57 -136z" />
    <glyph glyph-name="oacute" unicode="&#xf3;" horiz-adv-x="646" 
d="M437 700h-88l-52 -105h52zM603 262q0 116 -82 198q-83 82 -198 82q-116 0 -198 -82t-82 -198q0 -115 82 -197q83 -83 198 -83q113 0 198 83q82 82 82 197zM515 262q0 -79 -57 -136q-55 -56 -135 -56q-81 0 -137 56q-56 58 -56 136q0 41 14 74t42 62q57 57 137 57
q79 0 135 -57q57 -57 57 -136z" />
    <glyph glyph-name="ocircumflex" unicode="&#xf4;" horiz-adv-x="646" 
d="M428 595l-70 105h-70l-70 -105h52l53 63l52 -63h53zM603 262q0 116 -82 198q-83 82 -198 82q-116 0 -198 -82t-82 -198q0 -115 82 -197q83 -83 198 -83q113 0 198 83q82 82 82 197zM515 262q0 -79 -57 -136q-55 -56 -135 -56q-81 0 -137 56q-56 58 -56 136q0 41 14 74
t42 62q57 57 137 57q79 0 135 -57q57 -57 57 -136z" />
    <glyph glyph-name="otilde" unicode="&#xf5;" horiz-adv-x="646" 
d="M456 672l-48 26q-12 -42 -30 -42q-20 0 -60 23q-36 24 -58 24q-46 0 -69 -77l49 -27q12 42 29 42q22 0 59 -23q38 -23 60 -23q46 0 68 77zM603 262q0 116 -82 198q-83 82 -198 82q-116 0 -198 -82t-82 -198q0 -115 82 -197q83 -83 198 -83q113 0 198 83q82 82 82 197z
M515 262q0 -79 -57 -136q-55 -56 -135 -56q-81 0 -137 56q-56 58 -56 136q0 41 14 74t42 62q57 57 137 57q79 0 135 -57q57 -57 57 -136z" />
    <glyph glyph-name="odieresis" unicode="&#xf6;" horiz-adv-x="646" 
d="M454 639q0 18 -12.5 30.5t-31.5 12.5q-18 0 -30.5 -12.5t-12.5 -30.5q0 -19 12.5 -31.5t30.5 -12.5q19 0 31.5 12.5t12.5 31.5zM279 639q0 18 -12.5 30.5t-31.5 12.5q-18 0 -30.5 -12.5t-12.5 -30.5q0 -19 12.5 -31.5t30.5 -12.5q19 0 31.5 12.5t12.5 31.5zM603 262
q0 116 -82 198q-83 82 -198 82q-116 0 -198 -82t-82 -198q0 -115 82 -197q83 -83 198 -83q113 0 198 83q82 82 82 197zM515 262q0 -79 -57 -136q-55 -56 -135 -56q-81 0 -137 56q-56 58 -56 136q0 41 14 74t42 62q57 57 137 57q79 0 135 -57q57 -57 57 -136z" />
    <glyph glyph-name="divide" unicode="&#xf7;" horiz-adv-x="479" 
d="M301 464q0 26 -17.5 43.5t-43.5 17.5t-44 -17.5t-18 -43.5t18 -44t44 -18t43.5 18t17.5 44zM415 227v70h-350v-70h350zM301 61q0 26 -17.5 43.5t-43.5 17.5t-44 -17.5t-18 -43.5t18 -43.5t44 -17.5t43.5 17.5t17.5 43.5z" />
    <glyph glyph-name="oslash" unicode="&#xf8;" horiz-adv-x="646" 
d="M625 499l-27 26l-76 -66q-83 83 -199 83t-198 -82t-82 -198q0 -95 57 -168l-79 -68l26 -26l76 66q82 -84 200 -84q113 0 198 83q82 82 82 197q0 94 -57 169zM456 402l-290 -251q-36 53 -36 111q0 41 14 74t42 62q57 57 137 57q75 0 133 -53zM515 262q0 -79 -57 -136
q-55 -56 -135 -56q-79 0 -133 53l289 251q36 -53 36 -112z" />
    <glyph glyph-name="ugrave" unicode="&#xf9;" horiz-adv-x="576" 
d="M310 595l-53 105h-87l87 -105h53zM511 0v525h-88v-315q0 -58 -41 -99t-99 -41q-57 0 -98 41q-42 40 -42 99v315h-87v-315q0 -92 59 -158q62 -70 151 -70q95 0 157 77v-59h88z" />
    <glyph glyph-name="uacute" unicode="&#xfa;" horiz-adv-x="576" 
d="M397 700h-87l-53 -105h53zM511 0v525h-88v-315q0 -58 -41 -99t-99 -41q-57 0 -98 41q-42 40 -42 99v315h-87v-315q0 -92 59 -158q62 -70 151 -70q95 0 157 77v-59h88z" />
    <glyph glyph-name="ucircumflex" unicode="&#xfb;" horiz-adv-x="576" 
d="M388 595l-70 105h-70l-70 -105h53l52 63l53 -63h52zM511 0v525h-88v-315q0 -58 -41 -99t-99 -41q-57 0 -98 41q-42 40 -42 99v315h-87v-315q0 -92 59 -158q62 -70 151 -70q95 0 157 77v-59h88z" />
    <glyph glyph-name="udieresis" unicode="&#xfc;" horiz-adv-x="576" 
d="M415 639q0 18 -13 30.5t-31 12.5q-19 0 -31.5 -12.5t-12.5 -30.5q0 -19 12.5 -31.5t31.5 -12.5q18 0 31 12.5t13 31.5zM240 639q0 18 -13 30.5t-31 12.5q-19 0 -31.5 -12.5t-12.5 -30.5q0 -19 12.5 -31.5t31.5 -12.5q18 0 31 12.5t13 31.5zM511 0v525h-88v-315
q0 -58 -41 -99t-99 -41q-57 0 -98 41q-42 40 -42 99v315h-87v-315q0 -92 59 -158q62 -70 151 -70q95 0 157 77v-59h88z" />
    <glyph glyph-name="yacute" unicode="&#xfd;" horiz-adv-x="561" 
d="M394 700h-88l-52 -105h52zM540 525h-95l-165 -409l-165 409h-94l212 -525l-33 -81q-9 -24 -40 -24q-17 0 -44 9v-88q27 -9 44 -9q90 0 123 83z" />
    <glyph glyph-name="thorn" unicode="&#xfe;" horiz-adv-x="668" 
d="M625 262q0 112 -76 196q-74 84 -187 84q-131 0 -210 -112v270h-87v-875h87v269q80 -112 210 -112q113 0 188 85q75 82 75 195zM537 262q0 -79 -57 -136q-55 -56 -135 -56q-81 0 -137 56q-56 58 -56 136q0 41 14 74t42 62q57 57 137 57q79 0 135 -57q57 -57 57 -136z" />
    <glyph glyph-name="ydieresis" unicode="&#xff;" horiz-adv-x="561" 
d="M412 639q0 18 -12.5 30.5t-31.5 12.5q-18 0 -30.5 -12.5t-12.5 -30.5q0 -19 12.5 -31.5t30.5 -12.5q19 0 31.5 12.5t12.5 31.5zM237 639q0 18 -12.5 30.5t-31.5 12.5q-18 0 -30.5 -12.5t-12.5 -30.5q0 -19 12.5 -31.5t30.5 -12.5q19 0 31.5 12.5t12.5 31.5zM540 525h-95
l-165 -409l-165 409h-94l212 -525l-33 -81q-9 -24 -40 -24q-17 0 -44 9v-88q27 -9 44 -9q90 0 123 83z" />
    <glyph glyph-name="Euro" unicode="&#x20ac;" horiz-adv-x="797" 
d="M732 647q-95 70 -217 70q-119 0 -216 -70q-95 -70 -133 -183h-75l-26 -70h85q-1 -11 -1.5 -22t-0.5 -22t0.5 -22t1.5 -22h-59l-26 -70h101q37 -112 133 -184q99 -70 216 -70q99 0 186 51v107q-82 -70 -186 -70q-83 0 -152 45q-69 46 -103 121h323l25 70h-369q-4 20 -4 44
t4 44h401l26 70h-406q35 75 103 120q68 46 152 46q104 0 186 -70z" />
    <glyph glyph-name="macron" unicode="&#xaf;" horiz-adv-x="436" 
d="M436 630v70h-436v-70h436z" />
    <glyph glyph-name="macron" unicode="&#x2c9;" horiz-adv-x="436" 
d="M436 630v70h-436v-70h436z" />
    <glyph glyph-name="minus" unicode="&#x2212;" horiz-adv-x="479" 
d="M415 227v70h-350v-70h350z" />
    <glyph glyph-name="nonbreakingspace" unicode="&#xa0;" horiz-adv-x="436" 
 />
    </font>
</defs>
</svg>
