<?xml version="1.0" standalone="no"?>
<!DOCTYPE svg PUBLIC "-//W3C//DTD SVG 1.1//EN" "http://www.w3.org/Graphics/SVG/1.1/DTD/svg11.dtd" >
<svg>
<metadata>
Created by FontForge 20090914 at Mon Dec  8 22:53:32 2014
 By www-data
&#194;&#169; 2014 Microsoft Corporation. All Rights Reserved.
</metadata>
<defs>
<font id="SegoeUI-Bold" horiz-adv-x="0" >
  <font-face 
    font-family="Segoe UI"
    font-weight="700"
    font-stretch="normal"
    units-per-em="2048"
    panose-1="2 11 8 2 4 2 4 2 2 3"
    ascent="1638"
    descent="-410"
    x-height="1024"
    cap-height="1434"
    bbox="-980 -882.001 4094 2375"
    underline-thickness="119"
    underline-position="-119"
    unicode-range="U+000D-U+FFFD"
  />
<missing-glyph horiz-adv-x="1322" 
d="M166 0v1398h990v-1398h-990zM314 148h694v1102h-694v-1102z" />
    <glyph glyph-name="uniFDF2" unicode="&#x627;&#xfedf;&#xfee0;&#x651;&#x670;&#xfeea;" horiz-adv-x="2565" arabic-form="isolated" 
d="M983 -25c-34 0 -66.832 3.00391 -98.499 9.00391s-61 16.167 -88 30.5s-51.333 34 -73 59s-39.834 56.5 -54.501 94.5c-26 -6 -51.833 -10.667 -77.5 -14s-51.167 -5 -76.5 -5c-51.333 0 -100 7 -146 21s-86.333 35 -121 63s-62.167 63.167 -82.5 105.5
s-30.5 92.166 -30.5 149.499c0 66.667 13.833 126.667 41.5 180s64.667 100 111 140s100 73 161 99s125.167 45 192.5 57v123h213v-660c0 -30 1.16699 -56.333 3.5 -79s8.5 -41.5 18.5 -56.5s25 -26.167 45 -33.5s47.333 -11 82 -11c25.333 0 47.5 1.33301 66.5 4
s34.833 8.66699 47.5 18s22.167 22.833 28.5 40.5s9.5 41.167 9.5 70.5v886h213v-817c0 -34 0.833008 -63.5 2.5 -88.5s7.16699 -46 16.5 -63s24 -29.667 44 -38s48 -12.5 84 -12.5c25.333 0 47.5 1.5 66.5 4.5s35 9.16699 48 18.5s22.667 22.666 29 39.999
s9.5 40.666 9.5 69.999v1036h213v-1043c0 -81.333 -10.333 -147.833 -31 -199.5s-48.334 -92.167 -83.001 -121.5s-74.834 -49.5 -120.501 -60.5s-93.5 -16.5 -143.5 -16.5c-58 0 -109.333 9.16699 -154 27.5s-76.667 47.5 -96 87.5h-6
c-17.333 -23.333 -36.666 -42.333 -57.999 -57s-43.666 -26.334 -66.999 -35.001s-47 -14.667 -71 -18s-46.667 -5 -68 -5zM641.001 705.004c-40.667 -8 -79 -17.332 -115 -27.999s-67.667 -23.667 -95 -39s-49 -33.333 -65 -54s-24 -45 -24 -73
c0 -22 4.83301 -39.667 14.5 -53s22.5 -23.833 38.5 -31.5s34.333 -12.667 55 -15s42 -3.5 64 -3.5s43.333 1.16699 64 3.5s41.667 6.16602 63 11.499v282zM1256 1448c-15.333 -18 -35.166 -31.1631 -59.499 -39.4961s-50.5 -12.5 -78.5 -12.5
c-33.333 0 -61.5 5.66699 -84.5 17s-41.667 27 -56 47s-24.666 43.667 -30.999 71s-9.5 56.666 -9.5 87.999c0 10 0.333008 21 1 33s1.66699 22.667 3 32h133c-2 -20 -3.33301 -35.833 -4 -47.5s-1 -19.834 -1 -24.501c0 -32 5.33301 -57 16 -75s28 -27 52 -27
c23.333 0 39.5 9.5 48.5 28.5s13.5 50.5 13.5 94.5v23c0 7.33301 -0.333008 16.666 -1 27.999h133c-0.666992 -10.667 -1.16699 -22.167 -1.5 -34.5s-0.5 -23.166 -0.5 -32.499c0 -36 4.5 -62.833 13.5 -80.5s25.833 -26.5 50.5 -26.5c25.333 0 42.833 9.16699 52.5 27.5
s14.5 43.5 14.5 75.5c0 11.333 -0.5 23.166 -1.5 35.499s-2.16699 24.166 -3.5 35.499h133c1.33301 -9.33301 2.16602 -19.166 2.49902 -29.499s0.5 -18.5 0.5 -24.5c0 -74.667 -18 -132.334 -54 -173.001s-85.333 -61 -148 -61c-26.667 0 -51.334 4.16699 -74.001 12.5
s-41 21.5 -55 39.5h-4zM1336 1750.01h-147v352h147v-352zM2181 0.00878906v1516h213v-1516h-213z" />
    <glyph glyph-name="uniFEDF_uniFEE0_afii57457_uni0670_uniFEEA.liga" unicode="&#xfedf;&#xfee0;&#x651;&#x670;&#xfeea;" horiz-adv-x="2052" 
d="M983 -25c-34 0 -66.832 3.00391 -98.499 9.00391s-61 16.167 -88 30.5s-51.333 34 -73 59s-39.834 56.5 -54.501 94.5c-26 -6 -51.833 -10.667 -77.5 -14s-51.167 -5 -76.5 -5c-51.333 0 -100 7 -146 21s-86.333 35 -121 63s-62.167 63.167 -82.5 105.5
s-30.5 92.166 -30.5 149.499c0 66.667 13.833 126.667 41.5 180s64.667 100 111 140s100 73 161 99s125.167 45 192.5 57v123h213v-660c0 -30 1.16699 -56.333 3.5 -79s8.5 -41.5 18.5 -56.5s25 -26.167 45 -33.5s47.333 -11 82 -11c25.333 0 47.5 1.33301 66.5 4
s34.833 8.66699 47.5 18s22.167 22.833 28.5 40.5s9.5 41.167 9.5 70.5v886h213v-817c0 -34 0.833008 -63.5 2.5 -88.5s7.16699 -46 16.5 -63s24 -29.667 44 -38s48 -12.5 84 -12.5c25.333 0 47.5 1.5 66.5 4.5s35 9.16699 48 18.5s22.667 22.666 29 39.999
s9.5 40.666 9.5 69.999v1036h213v-1043c0 -81.333 -10.333 -147.833 -31 -199.5s-48.334 -92.167 -83.001 -121.5s-74.834 -49.5 -120.501 -60.5s-93.5 -16.5 -143.5 -16.5c-58 0 -109.333 9.16699 -154 27.5s-76.667 47.5 -96 87.5h-6
c-17.333 -23.333 -36.666 -42.333 -57.999 -57s-43.666 -26.334 -66.999 -35.001s-47 -14.667 -71 -18s-46.667 -5 -68 -5zM641.001 705.004c-40.667 -8 -79 -17.332 -115 -27.999s-67.667 -23.667 -95 -39s-49 -33.333 -65 -54s-24 -45 -24 -73
c0 -22 4.83301 -39.667 14.5 -53s22.5 -23.833 38.5 -31.5s34.333 -12.667 55 -15s42 -3.5 64 -3.5s43.333 1.16699 64 3.5s41.667 6.16602 63 11.499v282zM1256 1448c-15.333 -18 -35.166 -31.1631 -59.499 -39.4961s-50.5 -12.5 -78.5 -12.5
c-33.333 0 -61.5 5.66699 -84.5 17s-41.667 27 -56 47s-24.666 43.667 -30.999 71s-9.5 56.666 -9.5 87.999c0 10 0.333008 21 1 33s1.66699 22.667 3 32h133c-2 -20 -3.33301 -35.833 -4 -47.5s-1 -19.834 -1 -24.501c0 -32 5.33301 -57 16 -75s28 -27 52 -27
c23.333 0 39.5 9.5 48.5 28.5s13.5 50.5 13.5 94.5v23c0 7.33301 -0.333008 16.666 -1 27.999h133c-0.666992 -10.667 -1.16699 -22.167 -1.5 -34.5s-0.5 -23.166 -0.5 -32.499c0 -36 4.5 -62.833 13.5 -80.5s25.833 -26.5 50.5 -26.5c25.333 0 42.833 9.16699 52.5 27.5
s14.5 43.5 14.5 75.5c0 11.333 -0.5 23.166 -1.5 35.499s-2.16699 24.166 -3.5 35.499h133c1.33301 -9.33301 2.16602 -19.166 2.49902 -29.499s0.5 -18.5 0.5 -24.5c0 -74.667 -18 -132.334 -54 -173.001s-85.333 -61 -148 -61c-26.667 0 -51.334 4.16699 -74.001 12.5
s-41 21.5 -55 39.5h-4zM1336 1750.01h-147v352h147v-352z" />
    <glyph glyph-name="afii57409" unicode="&#x621;" horiz-adv-x="855" arabic-form="isolated" 
d="M188 258l3.00195 5.00195c-18 32 -30.833 63.667 -38.5 95s-11.5 62 -11.5 92c0 48 9.5 92.667 28.5 134s46.167 77.166 81.5 107.499s78.333 54.166 129 71.499s107.667 26 171 26c23.333 0 45 -1.16699 65 -3.5s42.667 -5.83301 68 -10.5v-273
c-19.333 4 -42.5 7.83301 -69.5 11.5s-54.5 5.5 -82.5 5.5c-23.333 0 -45.833 -1.83301 -67.5 -5.5s-40.834 -10.334 -57.501 -20.001s-30.167 -22.667 -40.5 -39s-15.5 -37.166 -15.5 -62.499c0 -23.333 4.16699 -43 12.5 -59s19.666 -28.833 33.999 -38.5
s31.333 -16.5 51 -20.5s41.167 -6 64.5 -6h248v-268h-658l-50 258h135z" />
    <glyph glyph-name="afii57410" unicode="&#x622;" horiz-adv-x="513" arabic-form="isolated" 
d="M129 0v1516h213v-1516h-213zM605 1711c-18.667 -20 -37.0029 -36 -55.0029 -48s-35.167 -21.167 -51.5 -27.5s-32 -10.666 -47 -12.999s-29.167 -3.5 -42.5 -3.5c-34.667 0 -67.334 4.83301 -98.001 14.5s-60.334 20.5 -89.001 32.5s-56.5 22.833 -83.5 32.5
s-53.833 14.5 -80.5 14.5c-17.333 0 -34.5 -4.66699 -51.5 -14s-35.833 -23 -56.5 -41l-79 90c18.667 20 36.834 36 54.501 48s34.834 21.167 51.501 27.5s32.5 10.666 47.5 12.999s29.167 3.5 42.5 3.5c34.667 0 67.334 -4.83301 98.001 -14.5s60.334 -20.5 89.001 -32.5
s56.334 -22.833 83.001 -32.5s53.334 -14.5 80.001 -14.5c19.333 0 37.166 4.33301 53.499 13s34.833 22.667 55.5 42z" />
    <glyph glyph-name="afii57411" unicode="&#x623;" horiz-adv-x="513" arabic-form="isolated" 
d="M129 0v1516h213v-1516h-213zM378 1896c-15.333 3.33301 -29.834 5.99902 -43.501 7.99902s-24.5 3 -32.5 3c-24.667 0 -45.167 -5.16699 -61.5 -15.5s-24.5 -28.166 -24.5 -53.499s9.33301 -44.333 28 -57s45.334 -19 80.001 -19h100v-115h-377v109h80l1 4
c-13.333 17.333 -23.5 34.166 -30.5 50.499s-10.5 33.5 -10.5 51.5c0 24 5 45.833 15 65.5s24.167 36.834 42.5 51.501s40.333 26 66 34s54.167 12 85.5 12c22.667 0 50 -3 82 -9v-120z" />
    <glyph glyph-name="afii57412" unicode="&#x624;" horiz-adv-x="1026" arabic-form="isolated" 
d="M0 -174c35.333 -13.333 68.333 -24.667 99 -34s59.667 -17 87 -23s53.5 -10.333 78.5 -13s49.5 -4 73.5 -4c55.333 0 101.333 7.16699 138 21.5s66.334 33.333 89.001 57s39.5 51 50.5 82s18.5 63.5 22.5 97.5c-46 -16.667 -93.667 -25 -143 -25
c-42 0 -84.5 6.16699 -127.5 18.5s-81.667 32.333 -116 60s-62.5 63.834 -84.5 108.501s-33 99 -33 163c0 54 9 108.167 27 162.5s42.5 103 73.5 146s67.167 78 108.5 105s85.666 40.5 132.999 40.5c52 0 99 -14.833 141 -44.5s82 -74.834 120 -135.501
c40 -62.667 69.667 -136.667 89 -222s29 -176.666 29 -273.999c0 -88 -10 -170.667 -30 -248s-51 -144.833 -93 -202.5s-95.5 -103.167 -160.5 -136.5s-142.833 -50 -233.5 -50c-27.333 0 -54.333 1.5 -81 4.5s-53.667 7.83301 -81 14.5s-55.5 14.667 -84.5 24
s-59.5 20.666 -91.5 33.999v273zM468 510.999c-18.667 0 -35.668 -5.83301 -51.001 -17.5s-28.5 -26 -39.5 -43s-19.667 -34.833 -26 -53.5s-9.5 -35 -9.5 -49c0 -21.333 4.5 -39 13.5 -53s21.167 -25.167 36.5 -33.5s33.166 -14.333 53.499 -18s41.5 -5.5 63.5 -5.5
c20.667 0 42 1.83301 64 5.5s42 9.16699 60 16.5c-5.33301 24.667 -13.166 51.5 -23.499 80.5s-22.666 56.167 -36.999 81.5s-30.333 46.5 -48 63.5s-36.5 25.5 -56.5 25.5zM615.999 1303c-15.333 3.33301 -29.834 5.99902 -43.501 7.99902s-24.5 3 -32.5 3
c-24.667 0 -45.167 -5.16699 -61.5 -15.5s-24.5 -28.166 -24.5 -53.499s9.33301 -44.333 28 -57s45.334 -19 80.001 -19h100v-115h-377v109h80l1 4c-13.333 17.333 -23.5 34.166 -30.5 50.499s-10.5 33.5 -10.5 51.5c0 24 5 45.833 15 65.5s24.167 36.834 42.5 51.501
s40.333 26 66 34s54.167 12 85.5 12c22.667 0 50 -3 82 -9v-120z" />
    <glyph glyph-name="afii57413" unicode="&#x625;" horiz-adv-x="513" arabic-form="isolated" 
d="M129 0v1516h213v-1516h-213zM378 -273c-15.333 3.33301 -29.834 5.99902 -43.501 7.99902s-24.5 3 -32.5 3c-24.667 0 -45.167 -5.16699 -61.5 -15.5s-24.5 -28.166 -24.5 -53.499s9.33301 -44.333 28 -57s45.334 -19 80.001 -19h100v-115h-377v109h80l1 4
c-13.333 17.333 -23.5 34.166 -30.5 50.499s-10.5 33.5 -10.5 51.5c0 24 5 45.833 15 65.5s24.167 36.834 42.5 51.501s40.333 26 66 34s54.167 12 85.5 12c22.667 0 50 -3 82 -9v-120z" />
    <glyph glyph-name="afii57414" unicode="&#x626;" horiz-adv-x="1539" arabic-form="isolated" 
d="M1426 885c-68.667 -9.33301 -129.829 -18.9961 -183.496 -28.9961s-98.834 -21.167 -135.501 -33.5s-64.667 -26.166 -84 -41.499s-29 -33.333 -29 -54c0 -14 4.33301 -26.167 13 -36.5s20.5 -20 35.5 -29s32.167 -18 51.5 -27l61 -28.5
c32.667 -16 62.167 -32.5 88.5 -49.5s48.666 -36.167 66.999 -57.5s32.5 -45.333 42.5 -72s15 -57.334 15 -92.001c0 -63.333 -16.5 -125.833 -49.5 -187.5s-79.833 -117 -140.5 -166s-134.334 -88.5 -221.001 -118.5s-183.334 -45 -290.001 -45
c-98.667 0 -182.5 13 -251.5 39s-125.167 62.5 -168.5 109.5s-74.833 103.167 -94.5 168.5s-29.5 137.666 -29.5 216.999c0 68.667 7.5 137.667 22.5 207s35.167 142.333 60.5 219h213l-34.5 -132c-9.66699 -38.667 -17.667 -73.834 -24 -105.501s-11 -60.667 -14 -87
s-4.5 -52.166 -4.5 -77.499c0 -34.667 3.83301 -68.834 11.5 -102.501s23.667 -64 48 -91s59 -48.833 104 -65.5s104.833 -25 179.5 -25c60.667 0 119.5 5.66699 176.5 17s107.5 26 151.5 44s79.167 38.333 105.5 61s39.5 45.667 39.5 69c0 14.667 -5 27.667 -15 39
s-23 21.666 -39 30.999s-33.667 18.333 -53 27s-38.333 17.667 -57 27c-28 14 -54.333 30 -79 48s-46.334 38.667 -65.001 62s-33.5 50.166 -44.5 80.499s-16.5 64.833 -16.5 103.5c0 62 14.667 117.833 44 167.5s71.5 93.334 126.5 131.001s121.833 69.167 200.5 94.5
s167.334 44.666 266.001 57.999v-267zM445.005 1219c-15.333 3.33301 -29.834 5.99902 -43.501 7.99902s-24.5 3 -32.5 3c-24.667 0 -45.167 -5.16699 -61.5 -15.5s-24.5 -28.166 -24.5 -53.499s9.33301 -44.333 28 -57s45.334 -19 80.001 -19h100v-115h-377v109h80l1 4
c-13.333 17.333 -23.5 34.166 -30.5 50.499s-10.5 33.5 -10.5 51.5c0 24 5 45.833 15 65.5s24.167 36.834 42.5 51.501s40.333 26 66 34s54.167 12 85.5 12c22.667 0 50 -3 82 -9v-120z" />
    <glyph glyph-name="afii57415" unicode="&#x627;" horiz-adv-x="513" arabic-form="isolated" 
d="M129 0v1516h213v-1516h-213z" />
    <glyph glyph-name="afii57416" unicode="&#x628;" horiz-adv-x="1881" arabic-form="isolated" 
d="M1497 855h212.999v-468c0 -64.667 -9.16699 -120 -27.5 -166s-44.166 -84.5 -77.499 -115.5s-73.5 -55.667 -120.5 -74s-99.5 -32.333 -157.5 -42s-120.333 -15.834 -187 -18.501s-136.667 -4 -210 -4c-77.333 0 -150 0.666992 -218 2s-130.667 5.5 -188 12.5
s-109 17.5 -155 31.5s-85.333 34 -118 60c-24 18.667 -44.167 40.334 -60.5 65.001s-29.5 51 -39.5 79s-17.167 57 -21.5 87s-6.5 60 -6.5 90c0 46.667 3.5 92.334 10.5 137.001s16.167 89 27.5 133h214l-14.5 -66.5c-4.33301 -19.667 -7.83301 -38 -10.5 -55
s-4.66699 -33.5 -6 -49.5s-2 -32.333 -2 -49c0 -28.667 3.5 -55 10.5 -79s23.167 -45.667 48.5 -65c20 -15.333 45.167 -27.166 75.5 -35.499s68.5 -14.833 114.5 -19.5s100.833 -7.5 164.5 -8.5s138.5 -1.5 224.5 -1.5c104 0 189.5 1.16699 256.5 3.5
s119.667 8.66602 158 18.999s65 26.166 80 47.499s22.5 51 22.5 89v461zM1059 -371h-235v211h235v-211z" />
    <glyph glyph-name="afii57417" unicode="&#x629;" horiz-adv-x="1026" arabic-form="isolated" 
d="M268 920l142.001 179.999c83.333 -57.333 154.833 -117 214.5 -179s108.5 -124.833 146.5 -188.5s66 -127.5 84 -191.5s27 -126.667 27 -188c0 -56.667 -8.66699 -108.167 -26 -154.5s-42.333 -86 -75 -119s-72.5 -58.667 -119.5 -77s-99.833 -27.5 -158.5 -27.5
c-57.333 0 -108.333 7.83301 -153 23.5s-82.334 38.334 -113.001 68.001s-54 65.5 -70 107.5s-24 89.333 -24 142c0 57.333 6.83301 112 20.5 164s31.667 100 54 144s47.5 84 75.5 120s56 66.667 84 92l-52 42c-18 14 -37 28 -57 42zM351.001 351.999
c0 -21.333 4.16699 -38.665 12.5 -51.998s19.5 -24 33.5 -32s30.5 -13.5 49.5 -16.5s39.167 -4.5 60.5 -4.5c58 0 100.167 9.33301 126.5 28s39.5 45.334 39.5 80.001c0 48.667 -12.167 101.667 -36.5 159s-62.5 117.333 -114.5 180
c-23.333 -19.333 -45.5 -41.833 -66.5 -67.5s-39.167 -53.334 -54.5 -83.001s-27.5 -60.834 -36.5 -93.501s-13.5 -65.334 -13.5 -98.001zM460.001 1267h-235v211h235v-211zM802.001 1267h-235v211h235v-211z" />
    <glyph glyph-name="afii57418" unicode="&#x62a;" horiz-adv-x="1881" arabic-form="isolated" 
d="M1497 855h212.999v-468c0 -64.667 -9.16699 -120 -27.5 -166s-44.166 -84.5 -77.499 -115.5s-73.5 -55.667 -120.5 -74s-99.5 -32.333 -157.5 -42s-120.333 -15.834 -187 -18.501s-136.667 -4 -210 -4c-77.333 0 -150 0.666992 -218 2s-130.667 5.5 -188 12.5
s-109 17.5 -155 31.5s-85.333 34 -118 60c-24 18.667 -44.167 40.334 -60.5 65.001s-29.5 51 -39.5 79s-17.167 57 -21.5 87s-6.5 60 -6.5 90c0 46.667 3.5 92.334 10.5 137.001s16.167 89 27.5 133h214l-14.5 -66.5c-4.33301 -19.667 -7.83301 -38 -10.5 -55
s-4.66699 -33.5 -6 -49.5s-2 -32.333 -2 -49c0 -28.667 3.5 -55 10.5 -79s23.167 -45.667 48.5 -65c20 -15.333 45.167 -27.166 75.5 -35.499s68.5 -14.833 114.5 -19.5s100.833 -7.5 164.5 -8.5s138.5 -1.5 224.5 -1.5c104 0 189.5 1.16699 256.5 3.5
s119.667 8.66602 158 18.999s65 26.166 80 47.499s22.5 51 22.5 89v461zM887.999 1056h-235v211h235v-211zM1230 1056h-235v211h235v-211z" />
    <glyph glyph-name="afii57419" unicode="&#x62b;" horiz-adv-x="1881" arabic-form="isolated" 
d="M1497 855h212.999v-468c0 -64.667 -9.16699 -120 -27.5 -166s-44.166 -84.5 -77.499 -115.5s-73.5 -55.667 -120.5 -74s-99.5 -32.333 -157.5 -42s-120.333 -15.834 -187 -18.501s-136.667 -4 -210 -4c-77.333 0 -150 0.666992 -218 2s-130.667 5.5 -188 12.5
s-109 17.5 -155 31.5s-85.333 34 -118 60c-24 18.667 -44.167 40.334 -60.5 65.001s-29.5 51 -39.5 79s-17.167 57 -21.5 87s-6.5 60 -6.5 90c0 46.667 3.5 92.334 10.5 137.001s16.167 89 27.5 133h214l-14.5 -66.5c-4.33301 -19.667 -7.83301 -38 -10.5 -55
s-4.66699 -33.5 -6 -49.5s-2 -32.333 -2 -49c0 -28.667 3.5 -55 10.5 -79s23.167 -45.667 48.5 -65c20 -15.333 45.167 -27.166 75.5 -35.499s68.5 -14.833 114.5 -19.5s100.833 -7.5 164.5 -8.5s138.5 -1.5 224.5 -1.5c104 0 189.5 1.16699 256.5 3.5
s119.667 8.66602 158 18.999s65 26.166 80 47.499s22.5 51 22.5 89v461zM886.999 1056h-235v211h235v-211zM1230 1056h-235v211h235v-211zM1059 1336h-235v211h235v-211z" />
    <glyph glyph-name="afii57420" unicode="&#x62c;" horiz-adv-x="1197" arabic-form="isolated" 
d="M703 642c-19.333 12.667 -38.1709 23.1709 -56.5039 31.5039s-37.166 15 -56.499 20s-40 8.5 -62 10.5s-46.333 3 -73 3c-48.667 0 -97.667 -3 -147 -9s-95 -14.667 -137 -26v252c44 13.333 86.333 23.666 127 30.999s84 11 130 11c50 0 94 -4.16699 132 -12.5
s73.333 -18.833 106 -31.5s64 -26.334 94 -41.001s62.167 -28.5 96.5 -41.5s72.333 -23.833 114 -32.5s90.167 -13.334 145.5 -14.001l-51 -287c-98 -26.667 -183.833 -53.834 -257.5 -81.501s-137.167 -55.667 -190.5 -84s-97.666 -57 -132.999 -86
s-63.5 -57.667 -84.5 -86s-35.833 -56.333 -44.5 -84s-13 -54.834 -13 -81.501c0 -30 5.66699 -60.833 17 -92.5s31.166 -60.5 59.499 -86.5s66.833 -47.333 115.5 -64s110 -25 184 -25c62.667 0 126.667 6.66699 192 20s137.666 34.333 216.999 63v-260
c-42 -14.667 -81.167 -27.167 -117.5 -37.5s-71.166 -18.833 -104.499 -25.5s-66 -11.5 -98 -14.5s-64.667 -4.5 -98 -4.5c-97.333 0 -182.333 12.167 -255 36.5s-133 58.5 -181 102.5s-84 96.667 -108 158s-36 129 -36 203c0 60.667 8.83301 122.334 26.5 185.001
s48.334 123 92.001 181s102.334 112 176.001 162s166.834 93 279.501 129v9zM889.995 -38.9961h-235v211h235v-211z" />
    <glyph glyph-name="afii57421" unicode="&#x62d;" horiz-adv-x="1197" arabic-form="isolated" 
d="M703 642c-19.333 12.667 -38.1709 23.1709 -56.5039 31.5039s-37.166 15 -56.499 20s-40 8.5 -62 10.5s-46.333 3 -73 3c-48.667 0 -97.667 -3 -147 -9s-95 -14.667 -137 -26v252c44 13.333 86.333 23.666 127 30.999s84 11 130 11c50 0 94 -4.16699 132 -12.5
s73.333 -18.833 106 -31.5s64 -26.334 94 -41.001s62.167 -28.5 96.5 -41.5s72.333 -23.833 114 -32.5s90.167 -13.334 145.5 -14.001l-51 -287c-98 -26.667 -183.833 -53.834 -257.5 -81.501s-137.167 -55.667 -190.5 -84s-97.666 -57 -132.999 -86
s-63.5 -57.667 -84.5 -86s-35.833 -56.333 -44.5 -84s-13 -54.834 -13 -81.501c0 -30 5.66699 -60.833 17 -92.5s31.166 -60.5 59.499 -86.5s66.833 -47.333 115.5 -64s110 -25 184 -25c62.667 0 126.667 6.66699 192 20s137.666 34.333 216.999 63v-260
c-42 -14.667 -81.167 -27.167 -117.5 -37.5s-71.166 -18.833 -104.499 -25.5s-66 -11.5 -98 -14.5s-64.667 -4.5 -98 -4.5c-97.333 0 -182.333 12.167 -255 36.5s-133 58.5 -181 102.5s-84 96.667 -108 158s-36 129 -36 203c0 60.667 8.83301 122.334 26.5 185.001
s48.334 123 92.001 181s102.334 112 176.001 162s166.834 93 279.501 129v9z" />
    <glyph glyph-name="afii57422" unicode="&#x62e;" horiz-adv-x="1197" arabic-form="isolated" 
d="M703 642c-19.333 12.667 -38.1709 23.1709 -56.5039 31.5039s-37.166 15 -56.499 20s-40 8.5 -62 10.5s-46.333 3 -73 3c-48.667 0 -97.667 -3 -147 -9s-95 -14.667 -137 -26v252c44 13.333 86.333 23.666 127 30.999s84 11 130 11c50 0 94 -4.16699 132 -12.5
s73.333 -18.833 106 -31.5s64 -26.334 94 -41.001s62.167 -28.5 96.5 -41.5s72.333 -23.833 114 -32.5s90.167 -13.334 145.5 -14.001l-51 -287c-98 -26.667 -183.833 -53.834 -257.5 -81.501s-137.167 -55.667 -190.5 -84s-97.666 -57 -132.999 -86
s-63.5 -57.667 -84.5 -86s-35.833 -56.333 -44.5 -84s-13 -54.834 -13 -81.501c0 -30 5.66699 -60.833 17 -92.5s31.166 -60.5 59.499 -86.5s66.833 -47.333 115.5 -64s110 -25 184 -25c62.667 0 126.667 6.66699 192 20s137.666 34.333 216.999 63v-260
c-42 -14.667 -81.167 -27.167 -117.5 -37.5s-71.166 -18.833 -104.499 -25.5s-66 -11.5 -98 -14.5s-64.667 -4.5 -98 -4.5c-97.333 0 -182.333 12.167 -255 36.5s-133 58.5 -181 102.5s-84 96.667 -108 158s-36 129 -36 203c0 60.667 8.83301 122.334 26.5 185.001
s48.334 123 92.001 181s102.334 112 176.001 162s166.834 93 279.501 129v9zM747.995 1146h-235v211h235v-211z" />
    <glyph glyph-name="afii57423" unicode="&#x62f;" horiz-adv-x="1026" arabic-form="isolated" 
d="M392 -29c-38 0 -82.665 2.16699 -133.998 6.5s-106.333 11.833 -165 22.5l-54 275c74.667 -10.667 142.5 -18.667 203.5 -24s115.5 -8 163.5 -8c68.667 0 121.167 9 157.5 27s54.5 51 54.5 99c0 46.667 -9.33301 94.834 -28 144.501s-45 102.167 -79 157.5
s-74.5 114 -121.5 176l-155.5 201h279c53.333 -60 101.166 -119.5 143.499 -178.5s78.166 -117.167 107.499 -174.5s51.833 -114.333 67.5 -171s23.5 -112.334 23.5 -167.001c0 -76 -12 -139 -36 -189s-56.833 -89.5 -98.5 -118.5s-90.667 -49.333 -147 -61
s-116.833 -17.5 -181.5 -17.5z" />
    <glyph glyph-name="afii57424" unicode="&#x630;" horiz-adv-x="1026" arabic-form="isolated" 
d="M392 -29c-38 0 -82.665 2.16699 -133.998 6.5s-106.333 11.833 -165 22.5l-54 275c74.667 -10.667 142.5 -18.667 203.5 -24s115.5 -8 163.5 -8c68.667 0 121.167 9 157.5 27s54.5 51 54.5 99c0 46.667 -9.33301 94.834 -28 144.501s-45 102.167 -79 157.5
s-74.5 114 -121.5 176l-155.5 201h279c53.333 -60 101.166 -119.5 143.499 -178.5s78.166 -117.167 107.499 -174.5s51.833 -114.333 67.5 -171s23.5 -112.334 23.5 -167.001c0 -76 -12 -139 -36 -189s-56.833 -89.5 -98.5 -118.5s-90.667 -49.333 -147 -61
s-116.833 -17.5 -181.5 -17.5zM485.002 1257h-235v211h235v-211z" />
    <glyph glyph-name="afii57425" unicode="&#x631;" horiz-adv-x="855" arabic-form="isolated" 
d="M0 -211c46 -13.333 84.499 -22.8271 115.499 -28.4941s59.5 -8.5 85.5 -8.5c54 0 98 9.5 132 28.5s60.667 44.5 80 76.5s32.5 69 39.5 111s10.5 86.333 10.5 133c0 44.667 -3 89.167 -9 133.5s-15 90.5 -27 138.5s-26.833 98.667 -44.5 152l-60.5 175h236
c20.667 -51.333 38.834 -103.333 54.501 -156s28.834 -105.334 39.501 -158.001s18.667 -104.334 24 -155.001s8 -99.334 8 -146.001c0 -106 -12.833 -197.333 -38.5 -274s-60.334 -139.834 -104.001 -189.501s-94.167 -86.334 -151.5 -110.001s-118 -35.5 -182 -35.5
c-32 0 -64.167 3.16699 -96.5 9.5s-69.5 17.166 -111.5 32.499v271z" />
    <glyph glyph-name="afii57426" unicode="&#x632;" horiz-adv-x="855" arabic-form="isolated" 
d="M0 -211c46 -13.333 84.499 -22.8271 115.499 -28.4941s59.5 -8.5 85.5 -8.5c54 0 98 9.5 132 28.5s60.667 44.5 80 76.5s32.5 69 39.5 111s10.5 86.333 10.5 133c0 44.667 -3 89.167 -9 133.5s-15 90.5 -27 138.5s-26.833 98.667 -44.5 152l-60.5 175h236
c20.667 -51.333 38.834 -103.333 54.501 -156s28.834 -105.334 39.501 -158.001s18.667 -104.334 24 -155.001s8 -99.334 8 -146.001c0 -106 -12.833 -197.333 -38.5 -274s-60.334 -139.834 -104.001 -189.501s-94.167 -86.334 -151.5 -110.001s-118 -35.5 -182 -35.5
c-32 0 -64.167 3.16699 -96.5 9.5s-69.5 17.166 -111.5 32.499v271zM527.999 915.006h-235v211h235v-211z" />
    <glyph glyph-name="afii57427" unicode="&#x633;" horiz-adv-x="2394" arabic-form="isolated" 
d="M1189 28c-13.333 -184 -64.834 -322.008 -154.501 -414.008s-223.834 -138 -402.501 -138c-91.333 0 -168.833 11.833 -232.5 35.5s-115.667 58.334 -156 104.001s-69.666 102.167 -87.999 169.5s-27.5 145 -27.5 233c0 24 0.666992 48 2 72s3.5 49.333 6.5 76
s6.83301 55.334 11.5 86.001s10.667 64.334 18 101.001h209c-6.66699 -41.333 -12.167 -77.666 -16.5 -108.999s-7.66602 -59.166 -9.99902 -83.499s-4 -46 -5 -65s-1.5 -37.167 -1.5 -54.5c0 -49.333 4.33301 -92.333 13 -129s24 -67 46 -91s52 -41.833 90 -53.5
s86.333 -17.5 145 -17.5c67.333 0 123.666 7.83301 168.999 23.5s81.5 40 108.5 73s46.167 74.833 57.5 125.5s17 111 17 181c0 28.667 -0.833008 57.834 -2.5 87.501s-4.5 62.667 -8.5 99s-8.83301 77.833 -14.5 124.5l-20.5 163h214c7.33301 -64 14 -119.5 20 -166.5
s11 -89.5 15 -127.5c2 -18.667 6.5 -33.667 13.5 -45s17 -20 30 -26s29.167 -10 48.5 -12s42 -3 68 -3c18.667 0 36.667 1.16699 54 3.5s32.833 8 46.5 17s24.667 22.333 33 40s12.5 41.834 12.5 72.501v284h213v-215c0 -34.667 1 -64.667 3 -90s7.83301 -46.333 17.5 -63
s25 -29 46 -37s50.5 -12 88.5 -12c20.667 0 39.834 1 57.501 3s33 7.5 46 16.5s23.167 22.333 30.5 40s11 42.167 11 73.5v475h213v-488c0 -78.667 -10 -143.334 -30 -194.001s-46.667 -90.667 -80 -120s-71.5 -49.666 -114.5 -60.999s-87.833 -17 -134.5 -17
c-26 0 -51.833 1.66699 -77.5 5s-50 9.5 -73 18.5s-44.167 21.333 -63.5 37s-35.333 35.5 -48 59.5h-6c-12 -19.333 -26.5 -36.333 -43.5 -51s-35.833 -27.167 -56.5 -37.5s-42.167 -18.166 -64.5 -23.499s-44.5 -8 -66.5 -8c-32 0 -62.333 3.66699 -91 11
s-54.667 22 -78 44z" />
    <glyph glyph-name="afii57428" unicode="&#x634;" horiz-adv-x="2394" arabic-form="isolated" 
d="M1189 28c-13.333 -184 -64.834 -322.008 -154.501 -414.008s-223.834 -138 -402.501 -138c-91.333 0 -168.833 11.833 -232.5 35.5s-115.667 58.334 -156 104.001s-69.666 102.167 -87.999 169.5s-27.5 145 -27.5 233c0 24 0.666992 48 2 72s3.5 49.333 6.5 76
s6.83301 55.334 11.5 86.001s10.667 64.334 18 101.001h209c-6.66699 -41.333 -12.167 -77.666 -16.5 -108.999s-7.66602 -59.166 -9.99902 -83.499s-4 -46 -5 -65s-1.5 -37.167 -1.5 -54.5c0 -49.333 4.33301 -92.333 13 -129s24 -67 46 -91s52 -41.833 90 -53.5
s86.333 -17.5 145 -17.5c67.333 0 123.666 7.83301 168.999 23.5s81.5 40 108.5 73s46.167 74.833 57.5 125.5s17 111 17 181c0 28.667 -0.833008 57.834 -2.5 87.501s-4.5 62.667 -8.5 99s-8.83301 77.833 -14.5 124.5l-20.5 163h214c7.33301 -64 14 -119.5 20 -166.5
s11 -89.5 15 -127.5c2 -18.667 6.5 -33.667 13.5 -45s17 -20 30 -26s29.167 -10 48.5 -12s42 -3 68 -3c18.667 0 36.667 1.16699 54 3.5s32.833 8 46.5 17s24.667 22.333 33 40s12.5 41.834 12.5 72.501v284h213v-215c0 -34.667 1 -64.667 3 -90s7.83301 -46.333 17.5 -63
s25 -29 46 -37s50.5 -12 88.5 -12c20.667 0 39.834 1 57.501 3s33 7.5 46 16.5s23.167 22.333 30.5 40s11 42.167 11 73.5v475h213v-488c0 -78.667 -10 -143.334 -30 -194.001s-46.667 -90.667 -80 -120s-71.5 -49.666 -114.5 -60.999s-87.833 -17 -134.5 -17
c-26 0 -51.833 1.66699 -77.5 5s-50 9.5 -73 18.5s-44.167 21.333 -63.5 37s-35.333 35.5 -48 59.5h-6c-12 -19.333 -26.5 -36.333 -43.5 -51s-35.833 -27.167 -56.5 -37.5s-42.167 -18.166 -64.5 -23.499s-44.5 -8 -66.5 -8c-32 0 -62.333 3.66699 -91 11
s-54.667 22 -78 44zM1542 884.992h-235v211h235v-211zM1885 884.992h-235v211h235v-211zM1714 1164.99h-235v211h235v-211z" />
    <glyph glyph-name="afii57429" unicode="&#x635;" horiz-adv-x="2737" arabic-form="isolated" 
d="M1192 50c-9.33301 -191.333 -59.8281 -334.836 -151.495 -430.503s-228.5 -143.5 -410.5 -143.5c-90.667 0 -167.834 11.667 -231.501 35s-115.5 57.833 -155.5 103.5s-69.167 102.334 -87.5 170.001s-27.5 145.5 -27.5 233.5c0 24 0.666992 48 2 72s3.5 49.5 6.5 76.5
s6.83301 55.667 11.5 86s10.667 63.833 18 100.5h209l-15.5 -109.5c-4.33301 -31 -7.66602 -58.667 -9.99902 -83s-4.16602 -46.333 -5.49902 -66s-2 -38.5 -2 -56.5c0 -48.667 4.5 -91 13.5 -127s24.667 -66 47 -90s52.666 -41.833 90.999 -53.5
s87.166 -17.5 146.499 -17.5c68 0 124.167 7.83301 168.5 23.5s79.833 40.334 106.5 74.001s45.334 76.5 56.001 128.5s16 114.333 16 187c0 27.333 -0.833008 56.333 -2.5 87s-4.83398 64.667 -9.50098 102s-11 78.5 -19 123.5s-18.333 95.5 -31 151.5h222
c10.667 -60.667 19.667 -114.667 27 -162l18 -119c2 -13.333 4 -25 6 -35s6.5 -19 13.5 -27s17.5 -14.833 31.5 -20.5s33.667 -10.5 59 -14.5c18 47.333 40.333 97.5 67 150.5s57.667 105.333 93 157s74.666 101.334 117.999 149.001s90.833 89.5 142.5 125.5
s107.167 64.833 166.5 86.5s122.666 32.5 189.999 32.5c80 0 150.333 -13.667 211 -41s111.334 -65.333 152 -114c40.667 -48.667 71.167 -106.667 91.5 -174s30.5 -141.333 30.5 -222c0 -68.667 -7.66699 -127.167 -23 -175.5s-37 -88.5 -65 -120.5s-61.667 -57 -101 -75
s-82.666 -31.5 -129.999 -40.5s-98 -14.667 -152 -17s-110 -3.5 -168 -3.5c-78.667 0 -147.667 0.166992 -207 0.5s-111.333 0.833008 -156 1.5s-82.834 1.66699 -114.501 3s-58.834 3.33301 -81.501 6s-41.834 5.83398 -57.501 9.50098s-29.834 8.16699 -42.501 13.5
s-25.167 12.666 -37.5 21.999s-23.166 19 -32.499 29zM2062 675.997c-68 0 -130.334 -12.1699 -187.001 -36.5029s-107.667 -56.666 -153 -96.999s-85.333 -86.5 -120 -138.5s-64 -106 -88 -162c11.333 -0.666992 27.5 -1.16699 48.5 -1.5s44.833 -0.666016 71.5 -0.999023
s54.834 -0.666016 84.501 -0.999023s58.667 -0.5 87 -0.5h80.5h64c85.333 0 154.166 1.33301 206.499 4s92.833 9 121.5 19s47.834 25 57.501 45s14.5 47.667 14.5 83c0 47.333 -6.66699 89 -20 125s-32.5 66 -57.5 90s-55.167 42 -90.5 54s-75.333 18 -120 18z" />
    <glyph glyph-name="afii57430" unicode="&#x636;" horiz-adv-x="2737" arabic-form="isolated" 
d="M1192 50c-9.33301 -191.333 -59.8281 -334.836 -151.495 -430.503s-228.5 -143.5 -410.5 -143.5c-90.667 0 -167.834 11.667 -231.501 35s-115.5 57.833 -155.5 103.5s-69.167 102.334 -87.5 170.001s-27.5 145.5 -27.5 233.5c0 24 0.666992 48 2 72s3.5 49.5 6.5 76.5
s6.83301 55.667 11.5 86s10.667 63.833 18 100.5h209l-15.5 -109.5c-4.33301 -31 -7.66602 -58.667 -9.99902 -83s-4.16602 -46.333 -5.49902 -66s-2 -38.5 -2 -56.5c0 -48.667 4.5 -91 13.5 -127s24.667 -66 47 -90s52.666 -41.833 90.999 -53.5
s87.166 -17.5 146.499 -17.5c68 0 124.167 7.83301 168.5 23.5s79.833 40.334 106.5 74.001s45.334 76.5 56.001 128.5s16 114.333 16 187c0 27.333 -0.833008 56.333 -2.5 87s-4.83398 64.667 -9.50098 102s-11 78.5 -19 123.5s-18.333 95.5 -31 151.5h222
c10.667 -60.667 19.667 -114.667 27 -162l18 -119c2 -13.333 4 -25 6 -35s6.5 -19 13.5 -27s17.5 -14.833 31.5 -20.5s33.667 -10.5 59 -14.5c18 47.333 40.333 97.5 67 150.5s57.667 105.333 93 157s74.666 101.334 117.999 149.001s90.833 89.5 142.5 125.5
s107.167 64.833 166.5 86.5s122.666 32.5 189.999 32.5c80 0 150.333 -13.667 211 -41s111.334 -65.333 152 -114c40.667 -48.667 71.167 -106.667 91.5 -174s30.5 -141.333 30.5 -222c0 -68.667 -7.66699 -127.167 -23 -175.5s-37 -88.5 -65 -120.5s-61.667 -57 -101 -75
s-82.666 -31.5 -129.999 -40.5s-98 -14.667 -152 -17s-110 -3.5 -168 -3.5c-78.667 0 -147.667 0.166992 -207 0.5s-111.333 0.833008 -156 1.5s-82.834 1.66699 -114.501 3s-58.834 3.33301 -81.501 6s-41.834 5.83398 -57.501 9.50098s-29.834 8.16699 -42.501 13.5
s-25.167 12.666 -37.5 21.999s-23.166 19 -32.499 29zM2062 675.997c-68 0 -130.334 -12.1699 -187.001 -36.5029s-107.667 -56.666 -153 -96.999s-85.333 -86.5 -120 -138.5s-64 -106 -88 -162c11.333 -0.666992 27.5 -1.16699 48.5 -1.5s44.833 -0.666016 71.5 -0.999023
s54.834 -0.666016 84.501 -0.999023s58.667 -0.5 87 -0.5h80.5h64c85.333 0 154.166 1.33301 206.499 4s92.833 9 121.5 19s47.834 25 57.501 45s14.5 47.667 14.5 83c0 47.333 -6.66699 89 -20 125s-32.5 66 -57.5 90s-55.167 42 -90.5 54s-75.333 18 -120 18z
M1846 1085.99h-235v211h235v-211z" />
    <glyph glyph-name="afii57431" unicode="&#x637;" horiz-adv-x="1710" arabic-form="isolated" 
d="M298 247l-0.000976562 1269h213v-873l6 -2c31.333 43.333 66.333 83.833 105 121.5s80.5 70.334 125.5 98.001s93.167 49.5 144.5 65.5s105.333 24 162 24c80 0 150.333 -13.667 211 -41s111.334 -65.333 152.001 -114s71.167 -106.667 91.5 -174
s30.5 -141.333 30.5 -222c0 -68.667 -7.66699 -127.167 -23 -175.5s-37 -88.5 -65 -120.5s-61.667 -57 -101 -75s-82.666 -31.5 -129.999 -40.5s-98 -14.667 -152 -17s-110 -3.5 -168 -3.5c-118 0 -220.667 0.666992 -308 2s-164.333 3.5 -231 6.5s-125.167 6.5 -175.5 10.5
s-97.833 8.66699 -142.5 14l-53 275c22.667 -4.66699 47.167 -8.66699 73.5 -12s53 -6 80 -8s53.667 -3.66699 80 -5s51.166 -2.33301 74.499 -3zM1037 675.999c-68 0 -130.334 -12.1699 -187.001 -36.5029s-107.667 -56.666 -153 -96.999s-85.333 -86.5 -120 -138.5
s-64 -106 -88 -162c11.333 -0.666992 27.5 -1.16699 48.5 -1.5s44.833 -0.666016 71.5 -0.999023s54.834 -0.666016 84.501 -0.999023s58.667 -0.5 87 -0.5h80.5h64c85.333 0 154.166 1.33301 206.499 4s92.833 9 121.5 19s47.834 25 57.501 45s14.5 47.667 14.5 83
c0 47.333 -6.66699 89 -20 125s-32.5 66 -57.5 90s-55.167 42 -90.5 54s-75.333 18 -120 18z" />
    <glyph glyph-name="afii57432" unicode="&#x638;" horiz-adv-x="1710" arabic-form="isolated" 
d="M298 247l-0.000976562 1269h213v-873l6 -2c31.333 43.333 66.333 83.833 105 121.5s80.5 70.334 125.5 98.001s93.167 49.5 144.5 65.5s105.333 24 162 24c80 0 150.333 -13.667 211 -41s111.334 -65.333 152.001 -114s71.167 -106.667 91.5 -174
s30.5 -141.333 30.5 -222c0 -68.667 -7.66699 -127.167 -23 -175.5s-37 -88.5 -65 -120.5s-61.667 -57 -101 -75s-82.666 -31.5 -129.999 -40.5s-98 -14.667 -152 -17s-110 -3.5 -168 -3.5c-118 0 -220.667 0.666992 -308 2s-164.333 3.5 -231 6.5s-125.167 6.5 -175.5 10.5
s-97.833 8.66699 -142.5 14l-53 275c22.667 -4.66699 47.167 -8.66699 73.5 -12s53 -6 80 -8s53.667 -3.66699 80 -5s51.166 -2.33301 74.499 -3zM1037 675.999c-68 0 -130.334 -12.1699 -187.001 -36.5029s-107.667 -56.666 -153 -96.999s-85.333 -86.5 -120 -138.5
s-64 -106 -88 -162c11.333 -0.666992 27.5 -1.16699 48.5 -1.5s44.833 -0.666016 71.5 -0.999023s54.834 -0.666016 84.501 -0.999023s58.667 -0.5 87 -0.5h80.5h64c85.333 0 154.166 1.33301 206.499 4s92.833 9 121.5 19s47.834 25 57.501 45s14.5 47.667 14.5 83
c0 47.333 -6.66699 89 -20 125s-32.5 66 -57.5 90s-55.167 42 -90.5 54s-75.333 18 -120 18zM1115 1106h-235v211h235v-211z" />
    <glyph glyph-name="afii57433" unicode="&#x639;" horiz-adv-x="1026" arabic-form="isolated" 
d="M855 384c-111.333 -30 -202.167 -62.002 -272.5 -96.002s-125.5 -68.667 -165.5 -104s-67.5 -70.166 -82.5 -104.499s-22.5 -66.5 -22.5 -96.5c0 -27.333 5.83301 -55.5 17.5 -84.5s32.167 -55.667 61.5 -80s69.166 -44.333 119.499 -60s114.5 -23.5 192.5 -23.5
c56.667 0 116.167 4.83301 178.5 14.5s127.833 25.167 196.5 46.5v-259c-70.667 -21.333 -136.5 -36.833 -197.5 -46.5s-121.833 -14.5 -182.5 -14.5c-102 0 -190.5 12 -265.5 36s-137.167 57.833 -186.5 101.5s-86.166 95.5 -110.499 155.5s-36.5 126 -36.5 198
c0 90 17.5 169.5 52.5 238.5s82.167 129.167 141.5 180.5c-36 45.333 -65.333 95.333 -88 150s-34 114.334 -34 179.001c0 67.333 13 128 39 182s61.5 100 106.5 138s97.167 67.333 156.5 88s122.666 31 189.999 31c18 0 36.667 -0.833008 56 -2.5
s38.666 -4.16699 57.999 -7.5v-263c-22.667 2.66699 -47 5.16699 -73 7.5s-51.333 3.5 -76 3.5c-30.667 0 -60.5 -2.83301 -89.5 -8.5s-55 -15.667 -78 -30s-41.5 -33.833 -55.5 -58.5s-21 -55.667 -21 -93c0 -34.667 6.16699 -70.167 18.5 -106.5s31.833 -68.5 58.5 -96.5
c60.667 32 123.834 59.5 189.501 82.5s133.834 43.5 204.501 61.5v-259z" />
    <glyph glyph-name="afii57434" unicode="&#x63a;" horiz-adv-x="1026" arabic-form="isolated" 
d="M855 384c-111.333 -30 -202.167 -62.002 -272.5 -96.002s-125.5 -68.667 -165.5 -104s-67.5 -70.166 -82.5 -104.499s-22.5 -66.5 -22.5 -96.5c0 -27.333 5.83301 -55.5 17.5 -84.5s32.167 -55.667 61.5 -80s69.166 -44.333 119.499 -60s114.5 -23.5 192.5 -23.5
c56.667 0 116.167 4.83301 178.5 14.5s127.833 25.167 196.5 46.5v-259c-70.667 -21.333 -136.5 -36.833 -197.5 -46.5s-121.833 -14.5 -182.5 -14.5c-102 0 -190.5 12 -265.5 36s-137.167 57.833 -186.5 101.5s-86.166 95.5 -110.499 155.5s-36.5 126 -36.5 198
c0 90 17.5 169.5 52.5 238.5s82.167 129.167 141.5 180.5c-36 45.333 -65.333 95.333 -88 150s-34 114.334 -34 179.001c0 67.333 13 128 39 182s61.5 100 106.5 138s97.167 67.333 156.5 88s122.666 31 189.999 31c18 0 36.667 -0.833008 56 -2.5
s38.666 -4.16699 57.999 -7.5v-263c-22.667 2.66699 -47 5.16699 -73 7.5s-51.333 3.5 -76 3.5c-30.667 0 -60.5 -2.83301 -89.5 -8.5s-55 -15.667 -78 -30s-41.5 -33.833 -55.5 -58.5s-21 -55.667 -21 -93c0 -34.667 6.16699 -70.167 18.5 -106.5s31.833 -68.5 58.5 -96.5
c60.667 32 123.834 59.5 189.501 82.5s133.834 43.5 204.501 61.5v-259zM601.999 1307h-235v211h235v-211z" />
    <glyph glyph-name="uni063B.init" unicode="&#x63b;" horiz-adv-x="1026" 
d="M0 1094l881 556.999v-287l-609 -372c80 -40 153.5 -81.833 220.5 -125.5s125 -90.667 174 -141s87.167 -104.666 114.5 -162.999s41 -121.833 41 -190.5c0 -29.333 -2.66699 -59.333 -8 -90s-15 -60.667 -29 -90s-33.5 -57.166 -58.5 -83.499s-57.167 -49.333 -96.5 -69
s-86.833 -35.334 -142.5 -47.001s-121.167 -17.5 -196.5 -17.5h-291c-23.333 0 -40.833 12.167 -52.5 36.5s-17.5 57.5 -17.5 99.5s5.83301 75.167 17.5 99.5s29.167 36.5 52.5 36.5h294c60.667 0 111 1.33301 151 4s72 8.16699 96 16.5s41 20 51 35s15 34.833 15 59.5
c0 72.667 -50.333 149 -151 229s-252.667 169 -456 267v236zM235 1519h-235v211h235v-211zM577 1519h-235v211h235v-211z" />
    <glyph glyph-name="uni063B.medi" unicode="&#x63b;" horiz-adv-x="1026" 
d="M0 1094l880.999 556.995v-287l-609 -372c74 -37.333 142.833 -76.166 206.5 -116.499s119.5 -83.5 167.5 -129.5s87 -95.167 117 -147.5s48.667 -109.166 56 -170.499c2.66699 -19.333 6.33398 -37.5 11.001 -54.5s12.667 -34.167 24 -51.5
c6 -9.33301 13.5 -18.5 22.5 -27.5s20.167 -17 33.5 -24s29.5 -12.667 48.5 -17s41.5 -6.5 67.5 -6.5v-272h-22c-24 0 -48.5 2.66699 -73.5 8s-49 14 -72 26s-44.5 27.5 -64.5 46.5s-37.333 41.833 -52 68.5h-6c-16.667 -21.333 -38 -41.166 -64 -59.499
s-57.167 -34.166 -93.5 -47.499s-78.333 -23.666 -126 -30.999s-101.5 -11 -161.5 -11h-291c-23.333 0 -40.833 12.167 -52.5 36.5s-17.5 57.5 -17.5 99.5s5.83301 75.167 17.5 99.5s29.167 36.5 52.5 36.5h294c60.667 0 111 1.33301 151 4s72 8.16699 96 16.5s41 20 51 35
s15 34.833 15 59.5c0 72.667 -50.333 149 -151 229s-252.667 169 -456 267v236zM202.999 1519h-235v211h235v-211zM544.999 1519h-235v211h235v-211z" />
    <glyph glyph-name="uni063B.fina" unicode="&#x63b;" horiz-adv-x="1881" 
d="M855 1094l881 556.996v-287l-609 -372c74.667 -37.333 143.667 -76.166 207 -116.499s118.833 -83.5 166.5 -129.5s86.5 -95.167 116.5 -147.5s49 -109.166 57 -170.499c2.66699 -19.333 6.33398 -37.5 11.001 -54.5s12.667 -34.167 24 -51.5
c6 -9.33301 13.5 -18.5 22.5 -27.5s20.167 -17 33.5 -24s29.5 -12.667 48.5 -17s41.5 -6.5 67.5 -6.5v-272h-22c-24 0 -48.5 2.66699 -73.5 8s-49 14 -72 26s-44.5 27.5 -64.5 46.5s-37.333 41.833 -52 68.5h-6c-31.333 -37.333 -68.833 -66.5 -112.5 -87.5
s-95.5 -36.667 -155.5 -47s-129 -16.666 -207 -18.999s-167.333 -3.5 -268 -3.5c-59.333 0 -117.833 0.833008 -175.5 2.5s-112.334 6 -164.001 13s-99.5 17.5 -143.5 31.5s-82 33.667 -114 59c-24 18.667 -44.167 40.334 -60.5 65.001s-29.5 51 -39.5 79
s-17.167 57.333 -21.5 88s-6.5 61.667 -6.5 93c0 44 3.5 88.833 10.5 134.5s16.167 89.5 27.5 131.5h214l-14.5 -66.5c-4.33301 -19.667 -7.83301 -38 -10.5 -55s-4.66699 -33.5 -6 -49.5s-2 -32.333 -2 -49c0 -52 11 -92.167 33 -120.5s57.667 -49 107 -62
s114 -20.5 194 -22.5s177.667 -3 293 -3c78 0 149.833 1.16699 215.5 3.5s120.834 9.5 165.501 21.5c27.333 7.33301 48.666 15.5 63.999 24.5s26.5 18.167 33.5 27.5s11.167 18.5 12.5 27.5s2 17.167 2 24.5c0 70 -50.333 145.333 -151 226s-252.667 169.667 -456 267v236z
M1090 1519h-235v211h235v-211zM1432 1519h-235v211h235v-211z" />
    <glyph glyph-name="uni063C.init" unicode="&#x63c;" horiz-adv-x="1026" 
d="M0 1094l881 556.999v-287l-609 -372c80 -40 153.5 -81.833 220.5 -125.5s125 -90.667 174 -141s87.167 -104.666 114.5 -162.999s41 -121.833 41 -190.5c0 -29.333 -2.66699 -59.333 -8 -90s-15 -60.667 -29 -90s-33.5 -57.166 -58.5 -83.499s-57.167 -49.333 -96.5 -69
s-86.833 -35.334 -142.5 -47.001s-121.167 -17.5 -196.5 -17.5h-291c-23.333 0 -40.833 12.167 -52.5 36.5s-17.5 57.5 -17.5 99.5s5.83301 75.167 17.5 99.5s29.167 36.5 52.5 36.5h294c60.667 0 111 1.33301 151 4s72 8.16699 96 16.5s41 20 51 35s15 34.833 15 59.5
c0 72.667 -50.333 149 -151 229s-252.667 169 -456 267v236zM481 -101.001h235v-211h-235v211zM138 -101.001h235v-211h-235v211zM309 -381.001h235v-211h-235v211z" />
    <glyph glyph-name="uni063C.medi" unicode="&#x63c;" horiz-adv-x="1026" 
d="M0 1094l880.999 556.995v-287l-609 -372c74 -37.333 142.833 -76.166 206.5 -116.499s119.5 -83.5 167.5 -129.5s87 -95.167 117 -147.5s48.667 -109.166 56 -170.499c2.66699 -19.333 6.33398 -37.5 11.001 -54.5s12.667 -34.167 24 -51.5
c6 -9.33301 13.5 -18.5 22.5 -27.5s20.167 -17 33.5 -24s29.5 -12.667 48.5 -17s41.5 -6.5 67.5 -6.5v-272h-22c-24 0 -48.5 2.66699 -73.5 8s-49 14 -72 26s-44.5 27.5 -64.5 46.5s-37.333 41.833 -52 68.5h-6c-16.667 -21.333 -38 -41.166 -64 -59.499
s-57.167 -34.166 -93.5 -47.499s-78.333 -23.666 -126 -30.999s-101.5 -11 -161.5 -11h-291c-23.333 0 -40.833 12.167 -52.5 36.5s-17.5 57.5 -17.5 99.5s5.83301 75.167 17.5 99.5s29.167 36.5 52.5 36.5h294c60.667 0 111 1.33301 151 4s72 8.16699 96 16.5s41 20 51 35
s15 34.833 15 59.5c0 72.667 -50.333 149 -151 229s-252.667 169 -456 267v236zM480.999 -101.005h235v-211h-235v211zM137.999 -101.005h235v-211h-235v211zM308.999 -381.005h235v-211h-235v211z" />
    <glyph glyph-name="uni063C.fina" unicode="&#x63c;" horiz-adv-x="1881" 
d="M855 1094l881 556.996v-287l-609 -372c74.667 -37.333 143.667 -76.166 207 -116.499s118.833 -83.5 166.5 -129.5s86.5 -95.167 116.5 -147.5s49 -109.166 57 -170.499c2.66699 -19.333 6.33398 -37.5 11.001 -54.5s12.667 -34.167 24 -51.5
c6 -9.33301 13.5 -18.5 22.5 -27.5s20.167 -17 33.5 -24s29.5 -12.667 48.5 -17s41.5 -6.5 67.5 -6.5v-272h-22c-24 0 -48.5 2.66699 -73.5 8s-49 14 -72 26s-44.5 27.5 -64.5 46.5s-37.333 41.833 -52 68.5h-6c-31.333 -37.333 -68.833 -66.5 -112.5 -87.5
s-95.5 -36.667 -155.5 -47s-129 -16.666 -207 -18.999s-167.333 -3.5 -268 -3.5c-59.333 0 -117.833 0.833008 -175.5 2.5s-112.334 6 -164.001 13s-99.5 17.5 -143.5 31.5s-82 33.667 -114 59c-24 18.667 -44.167 40.334 -60.5 65.001s-29.5 51 -39.5 79
s-17.167 57.333 -21.5 88s-6.5 61.667 -6.5 93c0 44 3.5 88.833 10.5 134.5s16.167 89.5 27.5 131.5h214l-14.5 -66.5c-4.33301 -19.667 -7.83301 -38 -10.5 -55s-4.66699 -33.5 -6 -49.5s-2 -32.333 -2 -49c0 -52 11 -92.167 33 -120.5s57.667 -49 107 -62
s114 -20.5 194 -22.5s177.667 -3 293 -3c78 0 149.833 1.16699 215.5 3.5s120.834 9.5 165.501 21.5c27.333 7.33301 48.666 15.5 63.999 24.5s26.5 18.167 33.5 27.5s11.167 18.5 12.5 27.5s2 17.167 2 24.5c0 70 -50.333 145.333 -151 226s-252.667 169.667 -456 267v236z
M995 -101.004h235v-211h-235v211zM652 -101.004h235v-211h-235v211zM823 -381.004h235v-211h-235v211z" />
    <glyph glyph-name="uni063D.init" unicode="&#x63d;" horiz-adv-x="684" 
d="M132 -25l-132 -0.000976562c-23.333 0 -40.833 12.167 -52.5 36.5s-17.5 57.5 -17.5 99.5s5.83301 75.167 17.5 99.5s29.167 36.5 52.5 36.5h142c26.667 0 50 1 70 3s36.5 7.33301 49.5 16s22.667 21.834 29 39.501s9.5 42.5 9.5 74.5v475h213v-482
c0 -81.333 -10.5 -147.833 -31.5 -199.5s-49 -92.167 -84 -121.5s-75.5 -49.5 -121.5 -60.5s-94 -16.5 -144 -16.5zM267 1058h-174l239 365h144l245 -365h-179l-139 206zM277 -371.001h-235v211h235v-211zM619 -371.001h-235v211h235v-211z" />
    <glyph glyph-name="uni063D.medi" unicode="&#x63d;" horiz-adv-x="684" 
d="M132 -25h-132.003c-23.333 0 -40.833 12.167 -52.5 36.5s-17.5 57.5 -17.5 99.5s5.83301 75.167 17.5 99.5s29.167 36.5 52.5 36.5h142c28.667 0 53 1.16699 73 3.5s36.333 7.83301 49 16.5s21.834 21.834 27.501 39.501s8.5 42.167 8.5 73.5v475h213v-406
c0 -34.667 1 -64.667 3 -90s8.5 -46.333 19.5 -63s28 -29 51 -37s55.5 -12 97.5 -12v-272h-46c-58 0 -107.667 9.16699 -149 27.5s-71.666 47.5 -90.999 87.5h-6c-17.333 -23.333 -36.666 -42.333 -57.999 -57s-43.5 -26.334 -66.5 -35.001s-46.167 -14.667 -69.5 -18
s-45.333 -5 -66 -5zM266.997 1058h-174l239 365h144l245 -365h-179l-139 206zM276.997 -371h-235v211h235v-211zM618.997 -371h-235v211h235v-211z" />
    <glyph glyph-name="uni063D.fina" unicode="&#x63d;" horiz-adv-x="1710" 
d="M1710 247l0.000976562 -271.999h-21c-61.333 0 -113.166 9.16699 -155.499 27.5s-78.5 41.166 -108.5 68.499s-55 57 -75 89l-56 89c-17.333 27.333 -34.5 50.166 -51.5 68.499s-37.167 27.5 -60.5 27.5c-15.333 0 -27.666 -5.16699 -36.999 -15.5
s-14 -23.166 -14 -38.499s4.66699 -29.833 14 -43.5s20.333 -28.834 33 -45.501c32.667 -43.333 49 -90.333 49 -141c0 -60 -15.833 -111.333 -47.5 -154s-73.334 -77.5 -125.001 -104.5s-110.334 -46.667 -176.001 -59s-132.834 -18.5 -201.501 -18.5
c-105.333 0 -193.166 14.833 -263.499 44.5s-126.666 69.167 -168.999 118.5s-72.333 106 -90 170s-26.5 130.333 -26.5 199c0 54.667 4.33301 109.167 13 163.5s19.667 106.5 33 156.5h216c-14.667 -52 -26.334 -100.667 -35.001 -146s-13 -93.333 -13 -144
c0 -41.333 5.16699 -79.833 15.5 -115.5s29 -66.667 56 -93s64.167 -47 111.5 -62s108 -22.5 182 -22.5c46 0 88.167 1.16699 126.5 3.5s71.166 7 98.499 14s48.666 16.667 63.999 29s23 28.166 23 47.499c0 24 -5.5 45.333 -16.5 64s-23.167 38 -36.5 58
c-27.333 42 -41 87.333 -41 136c0 34.667 6.5 67.334 19.5 98.001s31 57.334 54 80.001s50.5 40.667 82.5 54s67 20 105 20c39.333 0 72.333 -5 99 -15s49.5 -23.333 68.5 -40s35 -35.5 48 -56.5l38 -64c12.333 -21.667 25.333 -43 39 -64s30.667 -39.833 51 -56.5
s44.833 -30 73.5 -40s64.334 -15 107.001 -15zM629.001 786.001h-174l239 365h144l245 -365h-179l-139 206z" />
    <glyph glyph-name="uni063E.init" unicode="&#x63e;" horiz-adv-x="684" 
d="M132 -25l-132 -0.000976562c-23.333 0 -40.833 12.167 -52.5 36.5s-17.5 57.5 -17.5 99.5s5.83301 75.167 17.5 99.5s29.167 36.5 52.5 36.5h142c26.667 0 50 1 70 3s36.5 7.33301 49.5 16s22.667 21.834 29 39.501s9.5 42.5 9.5 74.5v475h213v-482
c0 -81.333 -10.5 -147.833 -31.5 -199.5s-49 -92.167 -84 -121.5s-75.5 -49.5 -121.5 -60.5s-94 -16.5 -144 -16.5zM277 -371.001h-235v211h235v-211zM619 -371.001h-235v211h235v-211zM354 1056h-235v211h235v-211zM696 1056h-235v211h235v-211z" />
    <glyph glyph-name="uni063E.medi" unicode="&#x63e;" horiz-adv-x="684" 
d="M132 -25h-132.003c-23.333 0 -40.833 12.167 -52.5 36.5s-17.5 57.5 -17.5 99.5s5.83301 75.167 17.5 99.5s29.167 36.5 52.5 36.5h142c28.667 0 53 1.16699 73 3.5s36.333 7.83301 49 16.5s21.834 21.834 27.501 39.501s8.5 42.167 8.5 73.5v475h213v-406
c0 -34.667 1 -64.667 3 -90s8.5 -46.333 19.5 -63s28 -29 51 -37s55.5 -12 97.5 -12v-272h-46c-58 0 -107.667 9.16699 -149 27.5s-71.666 47.5 -90.999 87.5h-6c-17.333 -23.333 -36.666 -42.333 -57.999 -57s-43.5 -26.334 -66.5 -35.001s-46.167 -14.667 -69.5 -18
s-45.333 -5 -66 -5zM276.997 -371h-235v211h235v-211zM618.997 -371h-235v211h235v-211zM353.997 1056h-235v211h235v-211zM695.997 1056h-235v211h235v-211z" />
    <glyph glyph-name="uni063E.fina" unicode="&#x63e;" horiz-adv-x="1710" 
d="M1710 247l0.000976562 -271.999h-21c-61.333 0 -113.166 9.16699 -155.499 27.5s-78.5 41.166 -108.5 68.499s-55 57 -75 89l-56 89c-17.333 27.333 -34.5 50.166 -51.5 68.499s-37.167 27.5 -60.5 27.5c-15.333 0 -27.666 -5.16699 -36.999 -15.5
s-14 -23.166 -14 -38.499s4.66699 -29.833 14 -43.5s20.333 -28.834 33 -45.501c32.667 -43.333 49 -90.333 49 -141c0 -60 -15.833 -111.333 -47.5 -154s-73.334 -77.5 -125.001 -104.5s-110.334 -46.667 -176.001 -59s-132.834 -18.5 -201.501 -18.5
c-105.333 0 -193.166 14.833 -263.499 44.5s-126.666 69.167 -168.999 118.5s-72.333 106 -90 170s-26.5 130.333 -26.5 199c0 54.667 4.33301 109.167 13 163.5s19.667 106.5 33 156.5h216c-14.667 -52 -26.334 -100.667 -35.001 -146s-13 -93.333 -13 -144
c0 -41.333 5.16699 -79.833 15.5 -115.5s29 -66.667 56 -93s64.167 -47 111.5 -62s108 -22.5 182 -22.5c46 0 88.167 1.16699 126.5 3.5s71.166 7 98.499 14s48.666 16.667 63.999 29s23 28.166 23 47.499c0 24 -5.5 45.333 -16.5 64s-23.167 38 -36.5 58
c-27.333 42 -41 87.333 -41 136c0 34.667 6.5 67.334 19.5 98.001s31 57.334 54 80.001s50.5 40.667 82.5 54s67 20 105 20c39.333 0 72.333 -5 99 -15s49.5 -23.333 68.5 -40s35 -35.5 48 -56.5l38 -64c12.333 -21.667 25.333 -43 39 -64s30.667 -39.833 51 -56.5
s44.833 -30 73.5 -40s64.334 -15 107.001 -15zM679.001 837.001h-235v211h235v-211zM1021 837.001h-235v211h235v-211z" />
    <glyph glyph-name="uni063F.init" unicode="&#x63f;" horiz-adv-x="684" 
d="M132 -25l-132 -0.000976562c-23.333 0 -40.833 12.167 -52.5 36.5s-17.5 57.5 -17.5 99.5s5.83301 75.167 17.5 99.5s29.167 36.5 52.5 36.5h142c26.667 0 50 1 70 3s36.5 7.33301 49.5 16s22.667 21.834 29 39.501s9.5 42.5 9.5 74.5v475h213v-482
c0 -81.333 -10.5 -147.833 -31.5 -199.5s-49 -92.167 -84 -121.5s-75.5 -49.5 -121.5 -60.5s-94 -16.5 -144 -16.5zM277 -371.001h-235v211h235v-211zM619 -371.001h-235v211h235v-211zM353 1056h-235v211h235v-211zM696 1056h-235v211h235v-211zM525 1336h-235v211h235
v-211z" />
    <glyph glyph-name="uni063F.medi" unicode="&#x63f;" horiz-adv-x="684" 
d="M132 -25h-132.003c-23.333 0 -40.833 12.167 -52.5 36.5s-17.5 57.5 -17.5 99.5s5.83301 75.167 17.5 99.5s29.167 36.5 52.5 36.5h142c28.667 0 53 1.16699 73 3.5s36.333 7.83301 49 16.5s21.834 21.834 27.501 39.501s8.5 42.167 8.5 73.5v475h213v-406
c0 -34.667 1 -64.667 3 -90s8.5 -46.333 19.5 -63s28 -29 51 -37s55.5 -12 97.5 -12v-272h-46c-58 0 -107.667 9.16699 -149 27.5s-71.666 47.5 -90.999 87.5h-6c-17.333 -23.333 -36.666 -42.333 -57.999 -57s-43.5 -26.334 -66.5 -35.001s-46.167 -14.667 -69.5 -18
s-45.333 -5 -66 -5zM276.997 -371h-235v211h235v-211zM618.997 -371h-235v211h235v-211zM352.997 1056h-235v211h235v-211zM695.997 1056h-235v211h235v-211zM524.997 1336h-235v211h235v-211z" />
    <glyph glyph-name="uni063F.fina" unicode="&#x63f;" horiz-adv-x="1710" 
d="M1710 247l0.000976562 -271.999h-21c-61.333 0 -113.166 9.16699 -155.499 27.5s-78.5 41.166 -108.5 68.499s-55 57 -75 89l-56 89c-17.333 27.333 -34.5 50.166 -51.5 68.499s-37.167 27.5 -60.5 27.5c-15.333 0 -27.666 -5.16699 -36.999 -15.5
s-14 -23.166 -14 -38.499s4.66699 -29.833 14 -43.5s20.333 -28.834 33 -45.501c32.667 -43.333 49 -90.333 49 -141c0 -60 -15.833 -111.333 -47.5 -154s-73.334 -77.5 -125.001 -104.5s-110.334 -46.667 -176.001 -59s-132.834 -18.5 -201.501 -18.5
c-105.333 0 -193.166 14.833 -263.499 44.5s-126.666 69.167 -168.999 118.5s-72.333 106 -90 170s-26.5 130.333 -26.5 199c0 54.667 4.33301 109.167 13 163.5s19.667 106.5 33 156.5h216c-14.667 -52 -26.334 -100.667 -35.001 -146s-13 -93.333 -13 -144
c0 -41.333 5.16699 -79.833 15.5 -115.5s29 -66.667 56 -93s64.167 -47 111.5 -62s108 -22.5 182 -22.5c46 0 88.167 1.16699 126.5 3.5s71.166 7 98.499 14s48.666 16.667 63.999 29s23 28.166 23 47.499c0 24 -5.5 45.333 -16.5 64s-23.167 38 -36.5 58
c-27.333 42 -41 87.333 -41 136c0 34.667 6.5 67.334 19.5 98.001s31 57.334 54 80.001s50.5 40.667 82.5 54s67 20 105 20c39.333 0 72.333 -5 99 -15s49.5 -23.333 68.5 -40s35 -35.5 48 -56.5l38 -64c12.333 -21.667 25.333 -43 39 -64s30.667 -39.833 51 -56.5
s44.833 -30 73.5 -40s64.334 -15 107.001 -15zM678.001 837.001h-235v211h235v-211zM1021 837.001h-235v211h235v-211zM850.001 1117h-235v211h235v-211z" />
    <glyph glyph-name="afii57441" unicode="&#x641;" horiz-adv-x="2052" arabic-form="isolated" 
d="M1492 715c-17.333 0 -34 -5.83594 -50 -17.5029s-30 -26.334 -42 -44.001s-21.5 -36.5 -28.5 -56.5s-10.5 -38 -10.5 -54c0 -12 3.16699 -26.167 9.5 -42.5s19 -34.666 38 -54.999s46.167 -42.666 81.5 -66.999s82 -50.5 140 -78.5c7.33301 6 13.333 13.833 18 23.5
s8.5 19.834 11.5 30.501s5 21.334 6 32.001s1.5 20 1.5 28c0 25.333 -4.83301 55.333 -14.5 90s-22.667 67.667 -39 99s-35 57.833 -56 79.5s-42.833 32.5 -65.5 32.5zM375 663.997l-14.4971 -66.4951c-4.33301 -19.667 -7.83301 -38 -10.5 -55s-4.66699 -33.5 -6 -49.5
s-2 -32.333 -2 -49c0 -52 10.833 -92.167 32.5 -120.5s57.5 -49 107.5 -62s115.667 -20.667 197 -23s181.666 -3.5 300.999 -3.5h141.5c37 0 67.333 0.166992 91 0.5s42.334 0.833008 56.001 1.5s25.834 1.33398 36.501 2.00098l3 8c-50 38 -89 81.667 -117 131
s-42 104.333 -42 165c0 35.333 4.33301 70.833 13 106.5s21 70.167 37 103.5s35 64.666 57 93.999s46 54.833 72 76.5s54 38.667 84 51s60.667 18.5 92 18.5c36.667 0 71.5 -8.33301 104.5 -25s63.5 -39.5 91.5 -68.5s53.167 -62.833 75.5 -101.5
s41.333 -79.834 57 -123.501s27.667 -88.667 36 -135s12.5 -91.833 12.5 -136.5c0 -64.667 -9 -120.334 -27 -167.001s-43.833 -86.167 -77.5 -118.5s-74.834 -58.333 -123.501 -78s-103.334 -34.834 -164.001 -45.501s-126.834 -17.834 -198.501 -21.501
s-147.834 -5.5 -228.501 -5.5h-93c-85.333 0 -164 0.5 -236 1.5s-137.5 4.66699 -196.5 11s-111.667 16.166 -158 29.499s-85.833 32.333 -118.5 57c-26.667 20 -48.834 42.667 -66.501 68s-31.667 52.166 -42 80.499s-17.666 57.833 -21.999 88.5s-6.5 61 -6.5 91
c0 46.667 3.5 92.334 10.5 137.001s16.167 89 27.5 133h214zM1600 1200h-235v211h235v-211z" />
    <glyph glyph-name="afii57442" unicode="&#x642;" horiz-adv-x="1539" arabic-form="isolated" 
d="M372 327c-6 -36.667 -10.835 -69.167 -14.502 -97.5s-6.66699 -53.5 -9 -75.5s-3.83301 -41.5 -4.5 -58.5s-1 -32.833 -1 -47.5c0 -48 5.33301 -90.833 16 -128.5s30.334 -69.334 59.001 -95.001s68.167 -45.334 118.5 -59.001s115.166 -20.5 194.499 -20.5
c85.333 0 154.5 7 207.5 21s94.833 33.167 125.5 57.5s52.167 52.5 64.5 84.5s20.5 66 24.5 102c-45.333 -16.667 -93.333 -25 -144 -25c-42 0 -84.5 6.33301 -127.5 19s-81.833 32.667 -116.5 60s-63 63 -85 107s-33 97.333 -33 160c0 56 9 111.333 27 166
s42.667 103.667 74 147s67.833 78.333 109.5 105s86.5 40 134.5 40c52 0 99.5 -15.5 142.5 -46.5s81.833 -75.5 116.5 -133.5c40 -66.667 69.5 -141 88.5 -223s28.5 -171 28.5 -267c0 -114.667 -13.5 -212.667 -40.5 -294s-67.333 -147.833 -121 -199.5
s-121 -89.5 -202 -113.5s-175.5 -36 -283.5 -36c-104 0 -193.667 10.833 -269 32.5s-137.166 54.834 -185.499 99.501s-84.166 101.167 -107.499 169.5s-35 149.166 -35 242.499c0 42.667 2.5 88.334 7.5 137.001s13.5 105.334 25.5 170.001h215zM978.998 511
c-18 0 -34.667 -5.83398 -50 -17.501s-28.5 -26.167 -39.5 -43.5s-19.5 -35.666 -25.5 -54.999s-9 -36.666 -9 -51.999c0 -19.333 4.5 -35.5 13.5 -48.5s21.333 -23.833 37 -32.5s33.5 -14.834 53.5 -18.501s41 -5.5 63 -5.5c21.333 0 43 1.83301 65 5.5s42 9.16699 60 16.5
c-5.33301 24.667 -13 51.5 -23 80.5s-22.333 56.167 -37 81.5s-31 46.5 -49 63.5s-37.667 25.5 -59 25.5zM916.998 1009h-235v211h235v-211zM1259 1009h-235v211h235v-211z" />
    <glyph glyph-name="afii57443" unicode="&#x643;" horiz-adv-x="1710" arabic-form="isolated" 
d="M684 715c116.667 7.33301 175 27.667 175 61c0 6 -3.83301 11.333 -11.5 16s-17 9.66699 -28 15l-36.5 18.5c-13.333 7 -25.5 15.667 -36.5 26s-20.333 22.833 -28 37.5s-11.5 32.334 -11.5 53.001c0 27.333 8.5 52 25.5 74s40 41.5 69 58.5s62.667 31.167 101 42.5
s79.166 20 122.499 26v-129c-60.667 -8 -104.667 -17.833 -132 -29.5s-41 -25.167 -41 -40.5c0 -6.66699 3.83301 -12.334 11.5 -17.001s17 -9.66699 28 -15l36.5 -17.5c13.333 -6.33301 25.5 -14.5 36.5 -24.5s20.333 -21.833 28 -35.5s11.5 -30.5 11.5 -50.5
c0 -22 -6.5 -44.167 -19.5 -66.5s-32.667 -42.666 -59 -60.999s-59.666 -33.833 -99.999 -46.5s-87.5 -20.334 -141.5 -23.001v128zM862 -32.999c-62 0 -122.834 0.835938 -182.501 2.50293s-116 6 -169 13s-101.667 17.5 -146 31.5s-82.166 33.667 -113.499 59
c-24 18.667 -44.167 40.334 -60.5 65.001s-29.5 51 -39.5 79s-17.167 57 -21.5 87s-6.5 60 -6.5 90c0 46.667 3.5 92.334 10.5 137.001s16.167 89 27.5 133h214l-14.5 -66.5c-4.33301 -19.667 -7.83301 -38 -10.5 -55s-4.66699 -33.5 -6 -49.5s-2 -32.333 -2 -49
c0 -28.667 3.5 -55 10.5 -79s23.167 -45.667 48.5 -65c17.333 -13.333 39 -24.333 65 -33s58.167 -15.334 96.5 -20.001s84.333 -7.83398 138 -9.50098s116.834 -2.5 189.501 -2.5c88 0 160.167 1.16699 216.5 3.5s100.666 8.66602 132.999 18.999
s54.833 26.166 67.5 47.499s19 51 19 89v1122h213v-1129c0 -64.667 -8 -120 -24 -166s-38.667 -84.5 -68 -115.5s-64.666 -55.667 -105.999 -74s-87 -32.333 -137 -42s-103.833 -15.834 -161.5 -18.501s-117.834 -4 -180.501 -4z" />
    <glyph glyph-name="afii57444" unicode="&#x644;" horiz-adv-x="1368" arabic-form="isolated" 
d="M622 -351c-89.333 0 -165.168 11.6689 -227.501 35.002s-113.333 58 -153 104s-68.5 102.833 -86.5 170.5s-27 146.167 -27 235.5c0 45.333 2.66699 93 8 143s14.666 109.667 27.999 179h210c-6 -40 -11 -75.167 -15 -105.5s-7.33301 -57.333 -10 -81
s-4.5 -44.667 -5.5 -63s-1.5 -35.833 -1.5 -52.5c0 -49.333 4.33301 -92.333 13 -129s24 -67 46 -91s51.833 -41.833 89.5 -53.5s85.834 -17.5 144.501 -17.5c66.667 0 122.334 7.83301 167.001 23.5s80.5 40.167 107.5 73.5s46.167 76.166 57.5 128.499
s17 115.166 17 188.499v1179h213v-1199c0 -107.333 -10.5 -202.5 -31.5 -285.5s-54.5 -152.833 -100.5 -209.5s-105.333 -99.667 -178 -129s-161 -44 -265 -44z" />
    <glyph glyph-name="afii57445" unicode="&#x645;" horiz-adv-x="1197" arabic-form="isolated" 
d="M696 807c38 0 73.5029 -7.6582 106.503 -22.9912s63.167 -35.833 90.5 -61.5s51.833 -55.334 73.5 -89.001s40 -69.167 55 -106.5s26.333 -75 34 -113s11.5 -74.333 11.5 -109c0 -49.333 -7.66699 -94.333 -23 -135s-37 -75.5 -65 -104.5s-61.333 -51.5 -100 -67.5
s-81.334 -24 -128.001 -24c-32.667 0 -65.5 3.33301 -98.5 10s-65.5 14.167 -97.5 22.5s-63 15.833 -93 22.5s-58 10 -84 10c-25.333 0 -46 -3.66699 -62 -11s-28.333 -17.5 -37 -30.5s-14.5 -28.5 -17.5 -46.5s-4.5 -38 -4.5 -60c0 -19.333 1.16699 -42.833 3.5 -70.5
s6.16602 -58.834 11.499 -93.501s12.666 -72.334 21.999 -113.001s21 -83.334 35 -128.001h-224c-20 85.333 -35.5 161.166 -46.5 227.499s-16.5 125.5 -16.5 177.5c0 53.333 6 101.666 18 144.999s29 81.333 51 114s48.667 59.667 80 81s66 36.666 104 45.999
c16 74.667 35 139.667 57 195s45.333 102.5 70 141.5s50 71.167 76 96.5s51.167 45.166 75.5 59.499s47 24.166 68 29.499s39.167 8 54.5 8zM750.003 235.009c12.667 0 25.334 0.99707 38.001 2.99707s24 5.66699 34 11s18 13 24 23s9 23 9 39s-4.16699 36.833 -12.5 62.5
s-20.166 50.834 -35.499 75.501s-33.833 45.834 -55.5 63.501s-45.834 26.5 -72.501 26.5c-24 0 -45.5 -6.66699 -64.5 -20s-36.5 -31.666 -52.5 -54.999s-30.333 -50.833 -43 -82.5s-24.334 -65.834 -35.001 -102.501c22 -4 44 -8.5 66 -13.5s44 -9.66699 66 -14
s44 -8.16602 66 -11.499s44.667 -5 68 -5z" />
    <glyph glyph-name="afii57446" unicode="&#x646;" horiz-adv-x="1368" arabic-form="isolated" 
d="M1156 544c14 -78.667 24.3311 -149.998 30.998 -213.998s10 -126 10 -186c0 -107.333 -10.333 -202.5 -31 -285.5s-54 -152.833 -100 -209.5s-105.333 -99.667 -178 -129s-161 -44 -265 -44c-89.333 0 -165.333 11.667 -228 35s-113.834 58 -153.501 104
s-68.5 103 -86.5 171s-27 146.667 -27 236c0 22.667 0.666992 46.167 2 70.5s3.5 49.833 6.5 76.5s7 55.167 12 85.5s10.833 63.166 17.5 98.499h209c-6.66699 -41.333 -12.167 -77.666 -16.5 -108.999s-7.66602 -59.166 -9.99902 -83.499s-4 -46 -5 -65
s-1.5 -37.167 -1.5 -54.5c0 -49.333 4.33301 -92.333 13 -129s24 -67 46 -91s51.833 -41.833 89.5 -53.5s85.5 -17.5 143.5 -17.5c66.667 0 122.167 7.83301 166.5 23.5s79.5 40.167 105.5 73.5s44.333 76.166 55 128.499s16 115.166 16 188.499
c0 22 -0.666992 45.333 -2 70s-3.66602 52 -6.99902 82s-7.66602 63.667 -12.999 101s-12 79.666 -20 126.999h221zM788.998 714.002h-235v211h235v-211z" />
    <glyph glyph-name="afii57470" unicode="&#x647;" horiz-adv-x="1026" arabic-form="isolated" 
d="M268 920l142.001 179.999c83.333 -57.333 154.833 -117 214.5 -179s108.5 -124.833 146.5 -188.5s66 -127.5 84 -191.5s27 -126.667 27 -188c0 -56.667 -8.66699 -108.167 -26 -154.5s-42.333 -86 -75 -119s-72.5 -58.667 -119.5 -77s-99.833 -27.5 -158.5 -27.5
c-57.333 0 -108.333 7.83301 -153 23.5s-82.334 38.334 -113.001 68.001s-54 65.5 -70 107.5s-24 89.333 -24 142c0 57.333 6.83301 112 20.5 164s31.667 100 54 144s47.5 84 75.5 120s56 66.667 84 92l-52 42c-18 14 -37 28 -57 42zM351.001 351.999
c0 -21.333 4.16699 -38.665 12.5 -51.998s19.5 -24 33.5 -32s30.5 -13.5 49.5 -16.5s39.167 -4.5 60.5 -4.5c58 0 100.167 9.33301 126.5 28s39.5 45.334 39.5 80.001c0 48.667 -12.167 101.667 -36.5 159s-62.5 117.333 -114.5 180
c-23.333 -19.333 -45.5 -41.833 -66.5 -67.5s-39.167 -53.334 -54.5 -83.001s-27.5 -60.834 -36.5 -93.501s-13.5 -65.334 -13.5 -98.001z" />
    <glyph glyph-name="afii57448" unicode="&#x648;" horiz-adv-x="1026" arabic-form="isolated" 
d="M0 -174c35.333 -13.333 68.333 -24.667 99 -34s59.667 -17 87 -23s53.5 -10.333 78.5 -13s49.5 -4 73.5 -4c55.333 0 101.333 7.16699 138 21.5s66.334 33.333 89.001 57s39.5 51 50.5 82s18.5 63.5 22.5 97.5c-46 -16.667 -93.667 -25 -143 -25
c-42 0 -84.5 6.16699 -127.5 18.5s-81.667 32.333 -116 60s-62.5 63.834 -84.5 108.501s-33 99 -33 163c0 54 9 108.167 27 162.5s42.5 103 73.5 146s67.167 78 108.5 105s85.666 40.5 132.999 40.5c52 0 99 -14.833 141 -44.5s82 -74.834 120 -135.501
c40 -62.667 69.667 -136.667 89 -222s29 -176.666 29 -273.999c0 -88 -10 -170.667 -30 -248s-51 -144.833 -93 -202.5s-95.5 -103.167 -160.5 -136.5s-142.833 -50 -233.5 -50c-27.333 0 -54.333 1.5 -81 4.5s-53.667 7.83301 -81 14.5s-55.5 14.667 -84.5 24
s-59.5 20.666 -91.5 33.999v273zM468 510.999c-18.667 0 -35.668 -5.83301 -51.001 -17.5s-28.5 -26 -39.5 -43s-19.667 -34.833 -26 -53.5s-9.5 -35 -9.5 -49c0 -21.333 4.5 -39 13.5 -53s21.167 -25.167 36.5 -33.5s33.166 -14.333 53.499 -18s41.5 -5.5 63.5 -5.5
c20.667 0 42 1.83301 64 5.5s42 9.16699 60 16.5c-5.33301 24.667 -13.166 51.5 -23.499 80.5s-22.666 56.167 -36.999 81.5s-30.333 46.5 -48 63.5s-36.5 25.5 -56.5 25.5z" />
    <glyph glyph-name="afii57449" unicode="&#x649;" horiz-adv-x="1539" arabic-form="isolated" 
d="M1426 885c-68.667 -9.33301 -129.829 -18.9961 -183.496 -28.9961s-98.834 -21.167 -135.501 -33.5s-64.667 -26.166 -84 -41.499s-29 -33.333 -29 -54c0 -14 4.33301 -26.167 13 -36.5s20.5 -20 35.5 -29s32.167 -18 51.5 -27l61 -28.5
c32.667 -16 62.167 -32.5 88.5 -49.5s48.666 -36.167 66.999 -57.5s32.5 -45.333 42.5 -72s15 -57.334 15 -92.001c0 -63.333 -16.5 -125.833 -49.5 -187.5s-79.833 -117 -140.5 -166s-134.334 -88.5 -221.001 -118.5s-183.334 -45 -290.001 -45
c-98.667 0 -182.5 13 -251.5 39s-125.167 62.5 -168.5 109.5s-74.833 103.167 -94.5 168.5s-29.5 137.666 -29.5 216.999c0 68.667 7.5 137.667 22.5 207s35.167 142.333 60.5 219h213l-34.5 -132c-9.66699 -38.667 -17.667 -73.834 -24 -105.501s-11 -60.667 -14 -87
s-4.5 -52.166 -4.5 -77.499c0 -34.667 3.83301 -68.834 11.5 -102.501s23.667 -64 48 -91s59 -48.833 104 -65.5s104.833 -25 179.5 -25c60.667 0 119.5 5.66699 176.5 17s107.5 26 151.5 44s79.167 38.333 105.5 61s39.5 45.667 39.5 69c0 14.667 -5 27.667 -15 39
s-23 21.666 -39 30.999s-33.667 18.333 -53 27s-38.333 17.667 -57 27c-28 14 -54.333 30 -79 48s-46.334 38.667 -65.001 62s-33.5 50.166 -44.5 80.499s-16.5 64.833 -16.5 103.5c0 62 14.667 117.833 44 167.5s71.5 93.334 126.5 131.001s121.833 69.167 200.5 94.5
s167.334 44.666 266.001 57.999v-267z" />
    <glyph glyph-name="afii57450" unicode="&#x64a;" horiz-adv-x="1539" arabic-form="isolated" 
d="M1426 885c-68.667 -9.33301 -129.829 -18.9961 -183.496 -28.9961s-98.834 -21.167 -135.501 -33.5s-64.667 -26.166 -84 -41.499s-29 -33.333 -29 -54c0 -14 4.33301 -26.167 13 -36.5s20.5 -20 35.5 -29s32.167 -18 51.5 -27l61 -28.5
c32.667 -16 62.167 -32.5 88.5 -49.5s48.666 -36.167 66.999 -57.5s32.5 -45.333 42.5 -72s15 -57.334 15 -92.001c0 -63.333 -16.5 -125.833 -49.5 -187.5s-79.833 -117 -140.5 -166s-134.334 -88.5 -221.001 -118.5s-183.334 -45 -290.001 -45
c-98.667 0 -182.5 13 -251.5 39s-125.167 62.5 -168.5 109.5s-74.833 103.167 -94.5 168.5s-29.5 137.666 -29.5 216.999c0 68.667 7.5 137.667 22.5 207s35.167 142.333 60.5 219h213l-34.5 -132c-9.66699 -38.667 -17.667 -73.834 -24 -105.501s-11 -60.667 -14 -87
s-4.5 -52.166 -4.5 -77.499c0 -34.667 3.83301 -68.834 11.5 -102.501s23.667 -64 48 -91s59 -48.833 104 -65.5s104.833 -25 179.5 -25c60.667 0 119.5 5.66699 176.5 17s107.5 26 151.5 44s79.167 38.333 105.5 61s39.5 45.667 39.5 69c0 14.667 -5 27.667 -15 39
s-23 21.666 -39 30.999s-33.667 18.333 -53 27s-38.333 17.667 -57 27c-28 14 -54.333 30 -79 48s-46.334 38.667 -65.001 62s-33.5 50.166 -44.5 80.499s-16.5 64.833 -16.5 103.5c0 62 14.667 117.833 44 167.5s71.5 93.334 126.5 131.001s121.833 69.167 200.5 94.5
s167.334 44.666 266.001 57.999v-267zM716.005 -541.996h-235v211h235v-211zM1058 -541.996h-235v211h235v-211z" />
    <glyph glyph-name="uni066E.init" unicode="&#x66e;" horiz-adv-x="684" 
d="M132 -25l-132 -0.000976562c-23.333 0 -40.833 12.167 -52.5 36.5s-17.5 57.5 -17.5 99.5s5.83301 75.167 17.5 99.5s29.167 36.5 52.5 36.5h142c26.667 0 50 1 70 3s36.5 7.33301 49.5 16s22.667 21.834 29 39.501s9.5 42.5 9.5 74.5v475h213v-482
c0 -81.333 -10.5 -147.833 -31.5 -199.5s-49 -92.167 -84 -121.5s-75.5 -49.5 -121.5 -60.5s-94 -16.5 -144 -16.5z" />
    <glyph glyph-name="uni066E.medi" unicode="&#x66e;" horiz-adv-x="684" 
d="M132 -25h-132.003c-23.333 0 -40.833 12.167 -52.5 36.5s-17.5 57.5 -17.5 99.5s5.83301 75.167 17.5 99.5s29.167 36.5 52.5 36.5h142c28.667 0 53 1.16699 73 3.5s36.333 7.83301 49 16.5s21.834 21.834 27.501 39.501s8.5 42.167 8.5 73.5v475h213v-406
c0 -34.667 1 -64.667 3 -90s8.5 -46.333 19.5 -63s28 -29 51 -37s55.5 -12 97.5 -12v-272h-46c-58 0 -107.667 9.16699 -149 27.5s-71.666 47.5 -90.999 87.5h-6c-17.333 -23.333 -36.666 -42.333 -57.999 -57s-43.5 -26.334 -66.5 -35.001s-46.167 -14.667 -69.5 -18
s-45.333 -5 -66 -5z" />
    <glyph glyph-name="uni066E.fina" unicode="&#x66e;" horiz-adv-x="1881" 
d="M1710 449c0 -34.667 0.999023 -64.667 2.99902 -90s8.5 -46.333 19.5 -63s28 -29 51 -37s55.5 -12 97.5 -12v-272h-46c-56.667 0 -104.834 9.83301 -144.501 29.5s-69.167 49.5 -88.5 89.5h-6c-33.333 -30 -72.333 -53.333 -117 -70s-95.667 -29.334 -153 -38.001
s-120.833 -14 -190.5 -16s-145.834 -3 -228.501 -3c-67.333 0 -133.166 0.666992 -197.499 2s-125 5.5 -182 12.5s-109.167 17.5 -156.5 31.5s-87.333 34 -120 60c-24 18.667 -44.167 40.334 -60.5 65.001s-29.5 51 -39.5 79s-17.167 57 -21.5 87s-6.5 60 -6.5 90
c0 46.667 3.5 92.334 10.5 137.001s16.167 89 27.5 133h214l-14 -66.5c-4 -19.667 -7.5 -38 -10.5 -55s-5.16699 -33.5 -6.5 -49.5s-2 -32.333 -2 -49c0 -28.667 3.5 -55 10.5 -79s23.167 -45.667 48.5 -65c20 -15.333 45.167 -27.166 75.5 -35.499
s68.333 -14.833 114 -19.5s100.334 -7.5 164.001 -8.5s138.834 -1.5 225.501 -1.5c104 0 189.5 1.16699 256.5 3.5s119.667 8.66602 158 18.999s65 26.166 80 47.499s22.5 51 22.5 89v461h213v-406z" />
    <glyph glyph-name="uni066F.init" unicode="&#x66f;" horiz-adv-x="1026" 
d="M282 247c-50 38 -89 81.8398 -117 131.507s-42 104.5 -42 164.5c0 34.667 4.33301 70 13 106s21 70.667 37 104s35 64.5 57 93.5s46 54.5 72 76.5s54 39.167 84 51.5s60.667 18.5 92 18.5c36.667 0 71.5 -8.33301 104.5 -25s63.5 -39.5 91.5 -68.5
s53.167 -62.667 75.5 -101s41.333 -79.333 57 -123s27.667 -88.834 36 -135.501s12.5 -92.334 12.5 -137.001c0 -66.667 -9.83301 -123.334 -29.5 -170.001s-46.5 -85.834 -80.5 -117.501s-73.333 -56.834 -118 -75.501s-92.334 -32.834 -143.001 -42.501
s-102.5 -15.834 -155.5 -18.501s-104.5 -4 -154.5 -4h-174c-23.333 0 -40.833 12.167 -52.5 36.5s-17.5 57.5 -17.5 99.5s5.83301 75.167 17.5 99.5s29.167 36.5 52.5 36.5h100c12.667 0 28 -0.5 46 -1.5l53.5 -3c17.667 -1 33.834 -1.83301 48.501 -2.5s25 -1 31 -1z
M466 715.007c-17.333 0 -34 -6.00293 -50 -18.0029s-30 -26.833 -42 -44.5s-21.5 -36.334 -28.5 -56.001s-10.5 -37.5 -10.5 -53.5c0 -12 3.16699 -26.167 9.5 -42.5s19 -34.666 38 -54.999s46.167 -42.666 81.5 -66.999s82 -50.5 140 -78.5
c7.33301 6 13.333 13.833 18 23.5s8.5 19.834 11.5 30.501s5 21.334 6 32.001s1.5 20 1.5 28c0 25.333 -4.83301 55.333 -14.5 90s-22.667 67.667 -39 99s-35 57.833 -56 79.5s-42.833 32.5 -65.5 32.5z" />
    <glyph glyph-name="uni066F.medi" unicode="&#x66f;" horiz-adv-x="1026" 
d="M282 247c-50 38 -89.0029 81.834 -117.003 131.501s-42 104.5 -42 164.5c0 34.667 4.33301 70 13 106s21 70.667 37 104s35 64.5 57 93.5s46 54.5 72 76.5s54 39.167 84 51.5s60.667 18.5 92 18.5c36.667 0 71.5 -8.33301 104.5 -25s63.5 -39.5 91.5 -68.5
s53.167 -62.667 75.5 -101s41.333 -79.333 57 -123s27.667 -88.834 36 -135.501s12.5 -92.334 12.5 -137.001c0 -55.333 -8.33301 -105.333 -25 -150c14 -1.33301 27.667 -2.33301 41 -3s27.5 -1.33398 42.5 -2.00098s31.5 -1 49.5 -1h63v-272h-35
c-29.333 0 -60.5 1.16699 -93.5 3.5s-66.167 5.83301 -99.5 10.5s-66.166 10.834 -98.499 18.501s-62.5 16.834 -90.5 27.501c-35.333 -14 -72.166 -25 -110.499 -33s-76.5 -14 -114.5 -18s-75 -6.5 -111 -7.5s-69 -1.5 -99 -1.5h-174c-23.333 0 -40.833 12.167 -52.5 36.5
s-17.5 57.5 -17.5 99.5s5.83301 75.167 17.5 99.5s29.167 36.5 52.5 36.5h100c12.667 0 28 -0.5 46 -1.5l53.5 -3c17.667 -1 33.834 -1.83301 48.501 -2.5s25 -1 31 -1zM465.997 715.001c-17.333 0 -34 -6.00293 -50 -18.0029s-30 -26.833 -42 -44.5
s-21.5 -36.334 -28.5 -56.001s-10.5 -37.5 -10.5 -53.5c0 -12 3.16699 -26.167 9.5 -42.5s19 -34.666 38 -54.999s46.167 -42.666 81.5 -66.999s82 -50.5 140 -78.5c7.33301 6 13.333 13.833 18 23.5s8.5 19.834 11.5 30.501s5 21.334 6 32.001s1.5 20 1.5 28
c0 25.333 -4.83301 55.333 -14.5 90s-22.667 67.667 -39 99s-35 57.833 -56 79.5s-42.833 32.5 -65.5 32.5z" />
    <glyph glyph-name="uni066F.fina" unicode="&#x66f;" horiz-adv-x="1539" 
d="M1150 -20l-94.001 0.00195312c-132.667 0 -234 30.5 -304 91.5s-105 148.833 -105 263.5c0 54 9.16699 108.167 27.5 162.5s43 103 74 146s67.333 78 109 105s85.5 40.5 131.5 40.5c52 0 99 -14.667 141 -44s82.333 -75.333 121 -138c30 -48 54.167 -102.333 72.5 -163
s31.166 -126.334 38.499 -197.001h177v-272h-178c-10.667 -88.667 -32 -164.5 -64 -227.5s-74.833 -114.667 -128.5 -155s-117.667 -69.833 -192 -88.5s-159.5 -28 -255.5 -28c-104 0 -193.667 10.833 -269 32.5s-137.166 54.834 -185.499 99.501
s-84.166 101.167 -107.499 169.5s-35 149.166 -35 242.499c0 42.667 2.5 88.334 7.5 137.001s13.5 105.334 25.5 170.001h215c-6 -36.667 -10.833 -69.167 -14.5 -97.5s-6.66699 -53.5 -9 -75.5s-3.83301 -41.5 -4.5 -58.5s-1 -32.833 -1 -47.5
c0 -48 5.33301 -90.833 16 -128.5s30.334 -69.334 59.001 -95.001s68.167 -45.334 118.5 -59.001s115.166 -20.5 194.499 -20.5s144.833 6.16699 196.5 18.5s93 29.166 124 50.499s53.833 46.333 68.5 75s24.667 59 30 91zM1130 319.002
c-8 24 -17.332 47.499 -27.999 70.499s-22.334 43.5 -35.001 61.5s-26.334 32.5 -41.001 43.5s-29.667 16.5 -45 16.5c-17.333 0 -33.666 -5.83301 -48.999 -17.5s-28.666 -25.667 -39.999 -42s-20.333 -33.666 -27 -51.999s-10 -34.5 -10 -48.5
c0 -44 15.667 -73.333 47 -88s78 -22 140 -22h106c-2.66699 12 -5.33398 25 -8.00098 39s-6 27 -10 39z" />
    <glyph glyph-name="uni0671" unicode="&#x671;" horiz-adv-x="513" arabic-form="isolated" 
d="M129 0v1516h213v-1516h-213zM-143 1740c18.667 12.667 35.998 23.6699 51.998 33.0029s31.167 17 45.5 23s28.833 10.333 43.5 13s30.667 4 48 4h8c4.66699 0 8.66699 -0.333008 12 -1c24 74 56.667 128.333 98 163s89 52 143 52c28.667 0 54.334 -4.66699 77.001 -14
s41.5 -21.833 56.5 -37.5s26.5 -33.834 34.5 -54.501s12 -42 12 -64c0 -27.333 -6 -53.5 -18 -78.5s-28 -47 -48 -66s-43.5 -34 -70.5 -45s-55.5 -16.5 -85.5 -16.5c-22 0 -43.5 2.66699 -64.5 8s-41.167 11.166 -60.5 17.499l-54.5 17.5c-17 5.33301 -32.5 8 -46.5 8
c-13.333 0 -29.166 -3.83301 -47.499 -11.5s-42.833 -22.834 -73.5 -45.501zM259.998 1761c15.333 0 29.001 2.66895 41.001 8.00195s22 12.5 30 21.5s14.167 19.167 18.5 30.5s6.5 22.666 6.5 33.999c0 19.333 -5.5 34.333 -16.5 45s-25.5 16 -43.5 16
c-23.333 0 -45.833 -10.167 -67.5 -30.5s-41.834 -54.833 -60.501 -103.5c16.667 -6.66699 33 -11.834 49 -15.501s30.333 -5.5 43 -5.5z" />
    <glyph glyph-name="uni0672.fina" unicode="&#x672;" horiz-adv-x="513" 
d="M468 -25c-68 0 -123.83 11 -167.497 33s-78.334 51.833 -104.001 89.5s-43.334 81.667 -53.001 132s-14.5 103.833 -14.5 160.5v1126h213v-1067c0 -37.333 1.66699 -68.833 5 -94.5s10.666 -46.5 21.999 -62.5s28.333 -27.5 51 -34.5s53.667 -10.5 93 -10.5v-272h-45z
M378.003 1901c-15.333 3.33301 -29.8369 6 -43.5039 8s-24.5 3 -32.5 3c-24.667 0 -45.167 -5.16699 -61.5 -15.5s-24.5 -28.166 -24.5 -53.499s9.33301 -44.333 28 -57s45.334 -19 80.001 -19h100v-115h-226c-34.667 0 -62.667 2.33301 -84 7s-39.166 10 -53.499 16
s-26.5 11.333 -36.5 16s-20.667 7 -32 7c-13.333 0 -26.333 -3.5 -39 -10.5s-28 -18.167 -46 -33.5l-3 1v101c19.333 16.667 37 28.167 53 34.5s31.667 9.5 47 9.5c10.667 0 20.334 -1.33301 29.001 -4s17.5 -5.83398 26.5 -9.50098l29.5 -12.5
c10.667 -4.66699 23.334 -9 38.001 -13l1 4c-13.333 17.333 -23.5 34.166 -30.5 50.499s-10.5 33.5 -10.5 51.5c0 24 5 45.833 15 65.5s24.167 36.834 42.5 51.501s40.333 26 66 34s54.167 12 85.5 12c22.667 0 50 -3 82 -9v-120z" />
    <glyph glyph-name="uni0673.fina" unicode="&#x673;" horiz-adv-x="513" 
d="M468 -25c-68 0 -123.83 11 -167.497 33s-78.334 51.833 -104.001 89.5s-43.334 81.667 -53.001 132s-14.5 103.833 -14.5 160.5v1126h213v-1067c0 -37.333 1.66699 -68.833 5 -94.5s10.666 -46.5 21.999 -62.5s28.333 -27.5 51 -34.5s53.667 -10.5 93 -10.5v-272h-45z
M378.003 -273c-15.333 3.33301 -29.8369 6 -43.5039 8s-24.5 3 -32.5 3c-24.667 0 -45.167 -5.16699 -61.5 -15.5s-24.5 -28.166 -24.5 -53.499s9.33301 -44.333 28 -57s45.334 -19 80.001 -19h100v-115h-226c-34.667 0 -62.667 2.33301 -84 7s-39.166 10 -53.499 16
s-26.5 11.333 -36.5 16s-20.667 7 -32 7c-13.333 0 -26.333 -3.5 -39 -10.5s-28 -18.167 -46 -33.5l-3 1v101c19.333 16.667 37 28.167 53 34.5s31.667 9.5 47 9.5c10.667 0 20.334 -1.33301 29.001 -4s17.5 -5.83398 26.5 -9.50098l29.5 -12.5
c10.667 -4.66699 23.334 -9 38.001 -13l1 4c-13.333 17.333 -23.5 34.166 -30.5 50.499s-10.5 33.5 -10.5 51.5c0 24 5 45.833 15 65.5s24.167 36.834 42.5 51.501s40.333 26 66 34s54.167 12 85.5 12c22.667 0 50 -3 82 -9v-120z" />
    <glyph glyph-name="uni0675.fina" unicode="&#x675;" horiz-adv-x="855" 
d="M468 -25c-68 0 -123.83 11 -167.497 33s-78.334 51.833 -104.001 89.5s-43.334 81.667 -53.001 132s-14.5 103.833 -14.5 160.5v1126h213v-1067c0 -37.333 1.66699 -68.833 5 -94.5s10.666 -46.5 21.999 -62.5s28.333 -27.5 51 -34.5s53.667 -10.5 93 -10.5v-272h-45z
M513.003 -25c-23.333 0 -40.833 12.167 -52.5 36.5s-17.5 57.5 -17.5 99.5s5.83301 75.167 17.5 99.5s29.167 36.5 52.5 36.5h342v-272h-342zM750.003 1384c-15.333 3.33301 -29.834 5.99902 -43.501 7.99902s-24.5 3 -32.5 3c-24.667 0 -45.167 -5.16699 -61.5 -15.5
s-24.5 -28.166 -24.5 -53.499s9.33301 -44.333 28 -57s45.334 -19 80.001 -19h100v-115h-377v109h80l1 4c-13.333 17.333 -23.5 34.166 -30.5 50.499s-10.5 33.5 -10.5 51.5c0 24 5 45.833 15 65.5s24.167 36.834 42.5 51.501s40.333 26 66 34s54.167 12 85.5 12
c22.667 0 50 -3 82 -9v-120z" />
    <glyph glyph-name="uni0676.fina" unicode="&#x676;" horiz-adv-x="1026" 
d="M0 -174c36.667 -14 70.834 -25.666 102.501 -34.999s61.5 -17 89.5 -23s54.667 -10.167 80 -12.5s50.333 -3.5 75 -3.5c46 0 85.167 5.33301 117.5 16s59.333 24.667 81 42s38.667 37 51 59s21.5 44.333 27.5 67c1.33301 4.66699 2.83301 11.167 4.5 19.5
s3.16699 16.5 4.5 24.5h-90c-132.667 0 -234 30.5 -304 91.5s-105 148.833 -105 263.5c0 54 9.16699 108.167 27.5 162.5s43 103 74 146s67.333 78 109 105s85.5 40.5 131.5 40.5c52 0 99 -14.667 141 -44s82.333 -75.333 121 -138c30 -48 54.167 -102.333 72.5 -163
s31.166 -126.334 38.499 -197.001h177v-272h-180c-8.66699 -72 -25.334 -138.5 -50.001 -199.5s-57.5 -113.667 -98.5 -158s-90.5 -79 -148.5 -104s-124.667 -37.5 -200 -37.5c-28 0 -55.667 1.33301 -83 4s-55.166 7.16699 -83.499 13.5s-57.5 14.333 -87.5 24
s-61.667 21.5 -95 35.5v273zM617 319.001c-8 24 -17.332 47.499 -27.999 70.499s-22.334 43.5 -35.001 61.5s-26.334 32.5 -41.001 43.5s-29.667 16.5 -45 16.5c-17.333 0 -33.666 -5.83301 -48.999 -17.5s-28.666 -25.667 -39.999 -42s-20.333 -33.666 -27 -51.999
s-10 -34.5 -10 -48.5c0 -44 15.667 -73.333 47 -88s78 -22 140 -22h106c-2.66699 12 -5.33398 25 -8.00098 39s-6 27 -10 39zM911.001 1213c-15.333 3.33301 -29.834 5.99902 -43.501 7.99902s-24.5 3 -32.5 3c-24.667 0 -45.167 -5.16699 -61.5 -15.5
s-24.5 -28.166 -24.5 -53.499s9.33301 -44.333 28 -57s45.334 -19 80.001 -19h100v-115h-377v109h80l1 4c-13.333 17.333 -23.5 34.166 -30.5 50.499s-10.5 33.5 -10.5 51.5c0 24 5 45.833 15 65.5s24.167 36.834 42.5 51.501s40.333 26 66 34s54.167 12 85.5 12
c22.667 0 50 -3 82 -9v-120z" />
    <glyph glyph-name="uni0677" unicode="&#x677;" horiz-adv-x="1026" arabic-form="isolated" 
d="M0 -174c35.333 -13.333 68.333 -24.667 99 -34s59.667 -17 87 -23s53.5 -10.333 78.5 -13s49.5 -4 73.5 -4c55.333 0 101.333 7.16699 138 21.5s66.334 33.333 89.001 57s39.5 51 50.5 82s18.5 63.5 22.5 97.5c-46 -16.667 -93.667 -25 -143 -25
c-42 0 -84.5 6.16699 -127.5 18.5s-81.667 32.333 -116 60s-62.5 63.834 -84.5 108.501s-33 99 -33 163c0 54 9 108.167 27 162.5s42.5 103 73.5 146s67.167 78 108.5 105s85.666 40.5 132.999 40.5c52 0 99 -14.833 141 -44.5s82 -74.834 120 -135.501
c40 -62.667 69.667 -136.667 89 -222s29 -176.666 29 -273.999c0 -88 -10 -170.667 -30 -248s-51 -144.833 -93 -202.5s-95.5 -103.167 -160.5 -136.5s-142.833 -50 -233.5 -50c-27.333 0 -54.333 1.5 -81 4.5s-53.667 7.83301 -81 14.5s-55.5 14.667 -84.5 24
s-59.5 20.666 -91.5 33.999v273zM468 510.999c-18.667 0 -35.668 -5.83301 -51.001 -17.5s-28.5 -26 -39.5 -43s-19.667 -34.833 -26 -53.5s-9.5 -35 -9.5 -49c0 -21.333 4.5 -39 13.5 -53s21.167 -25.167 36.5 -33.5s33.166 -14.333 53.499 -18s41.5 -5.5 63.5 -5.5
c20.667 0 42 1.83301 64 5.5s42 9.16699 60 16.5c-5.33301 24.667 -13.166 51.5 -23.499 80.5s-22.666 56.167 -36.999 81.5s-30.333 46.5 -48 63.5s-36.5 25.5 -56.5 25.5zM910.999 1213c-15.333 3.33301 -29.834 5.99902 -43.501 7.99902s-24.5 3 -32.5 3
c-24.667 0 -45.167 -5.16699 -61.5 -15.5s-24.5 -28.166 -24.5 -53.499s9.33301 -44.333 28 -57s45.334 -19 80.001 -19h100v-115h-377v109h80l1 4c-13.333 17.333 -23.5 34.166 -30.5 50.499s-10.5 33.5 -10.5 51.5c0 24 5 45.833 15 65.5s24.167 36.834 42.5 51.501
s40.333 26 66 34s54.167 12 85.5 12c22.667 0 50 -3 82 -9v-120zM344.998 918.998l-54.0029 41.5039c-15.333 12.333 -27.666 23.166 -36.999 32.499c-6 -1.33301 -12.833 -2.33301 -20.5 -3s-15 -1.16699 -22 -1.5s-13.333 -0.5 -19 -0.5h-10.5c-44 0 -84 2.5 -120 7.5
s-74.667 13.167 -116 24.5l22 102c38.667 -10 74.167 -17.833 106.5 -23.5s64.833 -8.83398 97.5 -9.50098c-15.333 21.333 -26.666 42.5 -33.999 63.5s-11 41.5 -11 61.5c0 26.667 5.5 50.334 16.5 71.001s25.5 38.167 43.5 52.5s38.5 25.166 61.5 32.499s46.5 11 70.5 11
c22.667 0 44.834 -3.5 66.501 -10.5s41 -17.5 58 -31.5s30.667 -31.833 41 -53.5s15.5 -46.834 15.5 -75.501c0 -42 -10.667 -77.667 -32 -107s-52 -53.333 -92 -72c2.66699 -3.33301 6 -6.83301 10 -10.5s13.333 -10.834 28 -21.501zM376.995 1209
c0 23.333 -6.33301 40.166 -19 50.499s-26.667 15.5 -42 15.5c-16 0 -30.833 -5.16699 -44.5 -15.5s-20.5 -26.166 -20.5 -47.499c0 -16.667 4.33301 -33.667 13 -51s20.334 -34.333 35.001 -51c23.333 9.33301 42.166 22 56.499 38s21.5 36.333 21.5 61z" />
    <glyph glyph-name="uni0678.init" unicode="&#x678;" horiz-adv-x="1026" 
d="M132 -25l-132 -0.000976562c-23.333 0 -40.833 12.167 -52.5 36.5s-17.5 57.5 -17.5 99.5s5.83301 75.167 17.5 99.5s29.167 36.5 52.5 36.5h142c26.667 0 50 1 70 3s36.5 7.33301 49.5 16s22.667 21.834 29 39.501s9.5 42.5 9.5 74.5v475h213v-482
c0 -81.333 -10.5 -147.833 -31.5 -199.5s-49 -92.167 -84 -121.5s-75.5 -49.5 -121.5 -60.5s-94 -16.5 -144 -16.5zM911 1263c-15.333 3.33301 -29.834 5.99902 -43.501 7.99902s-24.5 3 -32.5 3c-24.667 0 -45.167 -5.16699 -61.5 -15.5s-24.5 -28.166 -24.5 -53.499
s9.33301 -44.333 28 -57s45.334 -19 80.001 -19h100v-115h-377v109h80l1 4c-13.333 17.333 -23.5 34.166 -30.5 50.499s-10.5 33.5 -10.5 51.5c0 24 5 45.833 15 65.5s24.167 36.834 42.5 51.501s40.333 26 66 34s54.167 12 85.5 12c22.667 0 50 -3 82 -9v-120z" />
    <glyph glyph-name="uni0678.medi" unicode="&#x678;" horiz-adv-x="1026" 
d="M132 -25h-132.003c-23.333 0 -40.833 12.167 -52.5 36.5s-17.5 57.5 -17.5 99.5s5.83301 75.167 17.5 99.5s29.167 36.5 52.5 36.5h142c28.667 0 53 1.16699 73 3.5s36.333 7.83301 49 16.5s21.834 21.834 27.501 39.501s8.5 42.167 8.5 73.5v475h213v-406
c0 -34.667 1 -64.667 3 -90s8.5 -46.333 19.5 -63s28 -29 51 -37s55.5 -12 97.5 -12v-272h-46c-58 0 -107.667 9.16699 -149 27.5s-71.666 47.5 -90.999 87.5h-6c-17.333 -23.333 -36.666 -42.333 -57.999 -57s-43.5 -26.334 -66.5 -35.001s-46.167 -14.667 -69.5 -18
s-45.333 -5 -66 -5zM910.997 1263c-15.333 3.33301 -29.834 5.99902 -43.501 7.99902s-24.5 3 -32.5 3c-24.667 0 -45.167 -5.16699 -61.5 -15.5s-24.5 -28.166 -24.5 -53.499s9.33301 -44.333 28 -57s45.334 -19 80.001 -19h100v-115h-377v109h80l1 4
c-13.333 17.333 -23.5 34.166 -30.5 50.499s-10.5 33.5 -10.5 51.5c0 24 5 45.833 15 65.5s24.167 36.834 42.5 51.501s40.333 26 66 34s54.167 12 85.5 12c22.667 0 50 -3 82 -9v-120zM683.996 -25.001c-23.333 0 -40.833 12.167 -52.5 36.5s-17.5 57.5 -17.5 99.5
s5.83301 75.167 17.5 99.5s29.167 36.5 52.5 36.5h342v-272h-342z" />
    <glyph glyph-name="uni0678.fina" unicode="&#x678;" horiz-adv-x="1710" 
d="M1710 247l0.000976562 -271.999h-21c-61.333 0 -113.166 9.16699 -155.499 27.5s-78.5 41.166 -108.5 68.499s-55 57 -75 89l-56 89c-17.333 27.333 -34.5 50.166 -51.5 68.499s-37.167 27.5 -60.5 27.5c-15.333 0 -27.666 -5.16699 -36.999 -15.5
s-14 -23.166 -14 -38.499s4.66699 -29.833 14 -43.5s20.333 -28.834 33 -45.501c32.667 -43.333 49 -90.333 49 -141c0 -60 -15.833 -111.333 -47.5 -154s-73.334 -77.5 -125.001 -104.5s-110.334 -46.667 -176.001 -59s-132.834 -18.5 -201.501 -18.5
c-105.333 0 -193.166 14.833 -263.499 44.5s-126.666 69.167 -168.999 118.5s-72.333 106 -90 170s-26.5 130.333 -26.5 199c0 54.667 4.33301 109.167 13 163.5s19.667 106.5 33 156.5h216c-14.667 -52 -26.334 -100.667 -35.001 -146s-13 -93.333 -13 -144
c0 -41.333 5.16699 -79.833 15.5 -115.5s29 -66.667 56 -93s64.167 -47 111.5 -62s108 -22.5 182 -22.5c46 0 88.167 1.16699 126.5 3.5s71.166 7 98.499 14s48.666 16.667 63.999 29s23 28.166 23 47.499c0 24 -5.5 45.333 -16.5 64s-23.167 38 -36.5 58
c-27.333 42 -41 87.333 -41 136c0 34.667 6.5 67.334 19.5 98.001s31 57.334 54 80.001s50.5 40.667 82.5 54s67 20 105 20c39.333 0 72.333 -5 99 -15s49.5 -23.333 68.5 -40s35 -35.5 48 -56.5l38 -64c12.333 -21.667 25.333 -43 39 -64s30.667 -39.833 51 -56.5
s44.833 -30 73.5 -40s64.334 -15 107.001 -15zM1746 1213c-15.333 3.33301 -29.834 5.99902 -43.501 7.99902s-24.5 3 -32.5 3c-24.667 0 -45.167 -5.16699 -61.5 -15.5s-24.5 -28.166 -24.5 -53.499s9.33301 -44.333 28 -57s45.334 -19 80.001 -19h100v-115h-377v109h80
l1 4c-13.333 17.333 -23.5 34.166 -30.5 50.499s-10.5 33.5 -10.5 51.5c0 24 5 45.833 15 65.5s24.167 36.834 42.5 51.501s40.333 26 66 34s54.167 12 85.5 12c22.667 0 50 -3 82 -9v-120z" />
    <glyph glyph-name="afii57511" unicode="&#x679;" horiz-adv-x="1881" arabic-form="isolated" 
d="M1497 855h212.999v-468c0 -64.667 -9.16699 -120 -27.5 -166s-44.166 -84.5 -77.499 -115.5s-73.5 -55.667 -120.5 -74s-99.5 -32.333 -157.5 -42s-120.333 -15.834 -187 -18.501s-136.667 -4 -210 -4c-77.333 0 -150 0.666992 -218 2s-130.667 5.5 -188 12.5
s-109 17.5 -155 31.5s-85.333 34 -118 60c-24 18.667 -44.167 40.334 -60.5 65.001s-29.5 51 -39.5 79s-17.167 57 -21.5 87s-6.5 60 -6.5 90c0 46.667 3.5 92.334 10.5 137.001s16.167 89 27.5 133h214l-14.5 -66.5c-4.33301 -19.667 -7.83301 -38 -10.5 -55
s-4.66699 -33.5 -6 -49.5s-2 -32.333 -2 -49c0 -28.667 3.5 -55 10.5 -79s23.167 -45.667 48.5 -65c20 -15.333 45.167 -27.166 75.5 -35.499s68.5 -14.833 114.5 -19.5s100.833 -7.5 164.5 -8.5s138.5 -1.5 224.5 -1.5c104 0 189.5 1.16699 256.5 3.5
s119.667 8.66602 158 18.999s65 26.166 80 47.499s22.5 51 22.5 89v461zM608.999 1028c22 -2.66699 43.3301 -4.50293 63.9971 -5.50293s41.334 -1.5 62.001 -1.5v492h125v-314l4 -1c25.333 32.667 52.833 59.667 82.5 81s65.5 32 107.5 32c34.667 0 64.5 -6.66699 89.5 -20
s45.5 -31.166 61.5 -53.499s27.833 -47.666 35.5 -75.999s11.5 -57.5 11.5 -87.5c0 -44 -6.83301 -78.167 -20.5 -102.5s-32.5 -42.166 -56.5 -53.499s-52.333 -18 -85 -20s-68 -3 -106 -3c-47.333 0 -89.166 0.333008 -125.499 1s-68.666 1.5 -96.999 2.5
s-53.5 2.33301 -75.5 4s-42.333 3.5 -61 5.5zM971.996 1018c30.667 0 56.333 0.331055 77 0.998047s37.167 2.83398 49.5 6.50098s21.166 9.5 26.499 17.5s8 19 8 33c0 36 -8.83301 63.833 -26.5 83.5s-38.834 29.5 -63.501 29.5c-19.333 0 -37.666 -5 -54.999 -15
s-33.666 -23 -48.999 -39s-29.333 -34.167 -42 -54.5s-24 -41.166 -34 -62.499h109z" />
    <glyph glyph-name="uni067A" unicode="&#x67a;" horiz-adv-x="1881" arabic-form="isolated" 
d="M1497 855h212.999v-468c0 -64.667 -9.16699 -120 -27.5 -166s-44.166 -84.5 -77.499 -115.5s-73.5 -55.667 -120.5 -74s-99.5 -32.333 -157.5 -42s-120.333 -15.834 -187 -18.501s-136.667 -4 -210 -4c-77.333 0 -150 0.666992 -218 2s-130.667 5.5 -188 12.5
s-109 17.5 -155 31.5s-85.333 34 -118 60c-24 18.667 -44.167 40.334 -60.5 65.001s-29.5 51 -39.5 79s-17.167 57 -21.5 87s-6.5 60 -6.5 90c0 46.667 3.5 92.334 10.5 137.001s16.167 89 27.5 133h214l-14.5 -66.5c-4.33301 -19.667 -7.83301 -38 -10.5 -55
s-4.66699 -33.5 -6 -49.5s-2 -32.333 -2 -49c0 -28.667 3.5 -55 10.5 -79s23.167 -45.667 48.5 -65c20 -15.333 45.167 -27.166 75.5 -35.499s68.5 -14.833 114.5 -19.5s100.833 -7.5 164.5 -8.5s138.5 -1.5 224.5 -1.5c104 0 189.5 1.16699 256.5 3.5
s119.667 8.66602 158 18.999s65 26.166 80 47.499s22.5 51 22.5 89v461zM1059 1056h-235v211h235v-211zM1059 1336h-235v211h235v-211z" />
    <glyph glyph-name="uni067B" unicode="&#x67b;" horiz-adv-x="1881" arabic-form="isolated" 
d="M1497 855h212.999v-468c0 -64.667 -9.16699 -120 -27.5 -166s-44.166 -84.5 -77.499 -115.5s-73.5 -55.667 -120.5 -74s-99.5 -32.333 -157.5 -42s-120.333 -15.834 -187 -18.501s-136.667 -4 -210 -4c-77.333 0 -150 0.666992 -218 2s-130.667 5.5 -188 12.5
s-109 17.5 -155 31.5s-85.333 34 -118 60c-24 18.667 -44.167 40.334 -60.5 65.001s-29.5 51 -39.5 79s-17.167 57 -21.5 87s-6.5 60 -6.5 90c0 46.667 3.5 92.334 10.5 137.001s16.167 89 27.5 133h214l-14.5 -66.5c-4.33301 -19.667 -7.83301 -38 -10.5 -55
s-4.66699 -33.5 -6 -49.5s-2 -32.333 -2 -49c0 -28.667 3.5 -55 10.5 -79s23.167 -45.667 48.5 -65c20 -15.333 45.167 -27.166 75.5 -35.499s68.5 -14.833 114.5 -19.5s100.833 -7.5 164.5 -8.5s138.5 -1.5 224.5 -1.5c104 0 189.5 1.16699 256.5 3.5
s119.667 8.66602 158 18.999s65 26.166 80 47.499s22.5 51 22.5 89v461zM1059 -592h-235v211h235v-211zM1059 -312h-235v211h235v-211z" />
    <glyph glyph-name="uni067C.init" unicode="&#x67c;" horiz-adv-x="684" 
d="M132 -25l-132 -0.000976562c-23.333 0 -40.833 12.167 -52.5 36.5s-17.5 57.5 -17.5 99.5s5.83301 75.167 17.5 99.5s29.167 36.5 52.5 36.5h142c26.667 0 50 1 70 3s36.5 7.33301 49.5 16s22.667 21.834 29 39.501s9.5 42.5 9.5 74.5v475h213v-482
c0 -81.333 -10.5 -147.833 -31.5 -199.5s-49 -92.167 -84 -121.5s-75.5 -49.5 -121.5 -60.5s-94 -16.5 -144 -16.5zM285 70.999c24 0 46.332 -4.33301 66.999 -13s38.667 -20.667 54 -36s27.5 -33.666 36.5 -54.999s13.5 -44.333 13.5 -69
c0 -23.333 -4.5 -45.166 -13.5 -65.499s-21.167 -38.166 -36.5 -53.499s-33.333 -27.5 -54 -36.5s-43 -13.5 -67 -13.5c-25.333 0 -48.666 4.5 -69.999 13.5s-39.666 21.167 -54.999 36.5s-27.5 33.166 -36.5 53.499s-13.5 42.166 -13.5 65.499
c0 24.667 4.33301 47.667 13 69s20.667 39.666 36 54.999s33.666 27.333 54.999 36s45 13 71 13zM284.999 -186.001c22 0 40 8.16699 54 24.5s21 36.166 21 59.499c0 25.333 -7 46.333 -21 63s-32 25 -54 25c-23.333 0 -42.333 -8.33301 -57 -25s-22 -37.667 -22 -63
c0 -23.333 7.33301 -43.166 22 -59.499s33.667 -24.5 57 -24.5zM353.999 1056h-235v211h235v-211zM695.999 1056h-235v211h235v-211z" />
    <glyph glyph-name="uni067C.medi" unicode="&#x67c;" horiz-adv-x="684" 
d="M132 -25h-132.003c-23.333 0 -40.833 12.167 -52.5 36.5s-17.5 57.5 -17.5 99.5s5.83301 75.167 17.5 99.5s29.167 36.5 52.5 36.5h142c28.667 0 53 1.16699 73 3.5s36.333 7.83301 49 16.5s21.834 21.834 27.501 39.501s8.5 42.167 8.5 73.5v475h213v-406
c0 -34.667 1 -64.667 3 -90s8.5 -46.333 19.5 -63s28 -29 51 -37s55.5 -12 97.5 -12v-272h-46c-58 0 -107.667 9.16699 -149 27.5s-71.666 47.5 -90.999 87.5h-6c-17.333 -23.333 -36.666 -42.333 -57.999 -57s-43.5 -26.334 -66.5 -35.001s-46.167 -14.667 -69.5 -18
s-45.333 -5 -66 -5zM274.997 71c24 0 46.332 -4.33301 66.999 -13s38.667 -20.667 54 -36s27.5 -33.666 36.5 -54.999s13.5 -44.333 13.5 -69c0 -23.333 -4.5 -45.166 -13.5 -65.499s-21.167 -38.166 -36.5 -53.499s-33.333 -27.5 -54 -36.5s-43 -13.5 -67 -13.5
c-25.333 0 -48.666 4.5 -69.999 13.5s-39.666 21.167 -54.999 36.5s-27.5 33.166 -36.5 53.499s-13.5 42.166 -13.5 65.499c0 24.667 4.33301 47.667 13 69s20.667 39.666 36 54.999s33.666 27.333 54.999 36s45 13 71 13zM274.996 -186c22 0 40 8.16699 54 24.5
s21 36.166 21 59.499c0 25.333 -7 46.333 -21 63s-32 25 -54 25c-23.333 0 -42.333 -8.33301 -57 -25s-22 -37.667 -22 -63c0 -23.333 7.33301 -43.166 22 -59.499s33.667 -24.5 57 -24.5zM353.996 1056h-235v211h235v-211zM695.996 1056h-235v211h235v-211z" />
    <glyph glyph-name="uni067C.fina" unicode="&#x67c;" horiz-adv-x="1881" 
d="M1710 449c0 -34.667 0.999023 -64.667 2.99902 -90s8.5 -46.333 19.5 -63s28 -29 51 -37s55.5 -12 97.5 -12v-272h-46c-56.667 0 -104.834 9.83301 -144.501 29.5s-69.167 49.5 -88.5 89.5h-6c-33.333 -30 -72.333 -53.333 -117 -70s-95.667 -29.334 -153 -38.001
s-120.833 -14 -190.5 -16s-145.834 -3 -228.501 -3c-67.333 0 -133.166 0.666992 -197.499 2s-125 5.5 -182 12.5s-109.167 17.5 -156.5 31.5s-87.333 34 -120 60c-24 18.667 -44.167 40.334 -60.5 65.001s-29.5 51 -39.5 79s-17.167 57 -21.5 87s-6.5 60 -6.5 90
c0 46.667 3.5 92.334 10.5 137.001s16.167 89 27.5 133h214l-14 -66.5c-4 -19.667 -7.5 -38 -10.5 -55s-5.16699 -33.5 -6.5 -49.5s-2 -32.333 -2 -49c0 -28.667 3.5 -55 10.5 -79s23.167 -45.667 48.5 -65c20 -15.333 45.167 -27.166 75.5 -35.499
s68.333 -14.833 114 -19.5s100.334 -7.5 164.001 -8.5s138.834 -1.5 225.501 -1.5c104 0 189.5 1.16699 256.5 3.5s119.667 8.66602 158 18.999s65 26.166 80 47.499s22.5 51 22.5 89v461h213v-406zM943.999 47c24 0 46.332 -4.33301 66.999 -13s38.667 -20.667 54 -36
s27.5 -33.666 36.5 -54.999s13.5 -44.333 13.5 -69c0 -23.333 -4.5 -45.166 -13.5 -65.499s-21.167 -38.166 -36.5 -53.499s-33.333 -27.5 -54 -36.5s-43 -13.5 -67 -13.5c-25.333 0 -48.666 4.5 -69.999 13.5s-39.666 21.167 -54.999 36.5s-27.5 33.166 -36.5 53.499
s-13.5 42.166 -13.5 65.499c0 24.667 4.33301 47.667 13 69s20.667 39.666 36 54.999s33.666 27.333 54.999 36s45 13 71 13zM943.998 -210c22 0 40 8.16699 54 24.5s21 36.166 21 59.499c0 25.333 -7 46.333 -21 63s-32 25 -54 25c-23.333 0 -42.333 -8.33301 -57 -25
s-22 -37.667 -22 -63c0 -23.333 7.33301 -43.166 22 -59.499s33.667 -24.5 57 -24.5zM887.998 1056h-235v211h235v-211zM1230 1056h-235v211h235v-211z" />
    <glyph glyph-name="uni067D.init" unicode="&#x67d;" horiz-adv-x="684" 
d="M132 -25l-132 -0.000976562c-23.333 0 -40.833 12.167 -52.5 36.5s-17.5 57.5 -17.5 99.5s5.83301 75.167 17.5 99.5s29.167 36.5 52.5 36.5h142c26.667 0 50 1 70 3s36.5 7.33301 49.5 16s22.667 21.834 29 39.501s9.5 42.5 9.5 74.5v475h213v-482
c0 -81.333 -10.5 -147.833 -31.5 -199.5s-49 -92.167 -84 -121.5s-75.5 -49.5 -121.5 -60.5s-94 -16.5 -144 -16.5zM461 1547h235v-211h-235v211zM118 1547h235v-211h-235v211zM289 1267h235v-211h-235v211z" />
    <glyph glyph-name="uni067D.medi" unicode="&#x67d;" horiz-adv-x="684" 
d="M132 -25h-132.003c-23.333 0 -40.833 12.167 -52.5 36.5s-17.5 57.5 -17.5 99.5s5.83301 75.167 17.5 99.5s29.167 36.5 52.5 36.5h142c28.667 0 53 1.16699 73 3.5s36.333 7.83301 49 16.5s21.834 21.834 27.501 39.501s8.5 42.167 8.5 73.5v475h213v-406
c0 -34.667 1 -64.667 3 -90s8.5 -46.333 19.5 -63s28 -29 51 -37s55.5 -12 97.5 -12v-272h-46c-58 0 -107.667 9.16699 -149 27.5s-71.666 47.5 -90.999 87.5h-6c-17.333 -23.333 -36.666 -42.333 -57.999 -57s-43.5 -26.334 -66.5 -35.001s-46.167 -14.667 -69.5 -18
s-45.333 -5 -66 -5zM460.997 1547h235v-211h-235v211zM117.997 1547h235v-211h-235v211zM288.997 1267h235v-211h-235v211z" />
    <glyph glyph-name="uni067D.fina" unicode="&#x67d;" horiz-adv-x="1881" 
d="M1710 449c0 -34.667 0.999023 -64.667 2.99902 -90s8.5 -46.333 19.5 -63s28 -29 51 -37s55.5 -12 97.5 -12v-272h-46c-56.667 0 -104.834 9.83301 -144.501 29.5s-69.167 49.5 -88.5 89.5h-6c-33.333 -30 -72.333 -53.333 -117 -70s-95.667 -29.334 -153 -38.001
s-120.833 -14 -190.5 -16s-145.834 -3 -228.501 -3c-67.333 0 -133.166 0.666992 -197.499 2s-125 5.5 -182 12.5s-109.167 17.5 -156.5 31.5s-87.333 34 -120 60c-24 18.667 -44.167 40.334 -60.5 65.001s-29.5 51 -39.5 79s-17.167 57 -21.5 87s-6.5 60 -6.5 90
c0 46.667 3.5 92.334 10.5 137.001s16.167 89 27.5 133h214l-14 -66.5c-4 -19.667 -7.5 -38 -10.5 -55s-5.16699 -33.5 -6.5 -49.5s-2 -32.333 -2 -49c0 -28.667 3.5 -55 10.5 -79s23.167 -45.667 48.5 -65c20 -15.333 45.167 -27.166 75.5 -35.499
s68.333 -14.833 114 -19.5s100.334 -7.5 164.001 -8.5s138.834 -1.5 225.501 -1.5c104 0 189.5 1.16699 256.5 3.5s119.667 8.66602 158 18.999s65 26.166 80 47.499s22.5 51 22.5 89v461h213v-406zM994.999 1547h235v-211h-235v211zM651.999 1547h235v-211h-235v211z
M822.999 1267h235v-211h-235v211z" />
    <glyph glyph-name="afii57506" unicode="&#x67e;" horiz-adv-x="1881" arabic-form="isolated" 
d="M1497 855h212.999v-468c0 -64.667 -9.16699 -120 -27.5 -166s-44.166 -84.5 -77.499 -115.5s-73.5 -55.667 -120.5 -74s-99.5 -32.333 -157.5 -42s-120.333 -15.834 -187 -18.501s-136.667 -4 -210 -4c-77.333 0 -150 0.666992 -218 2s-130.667 5.5 -188 12.5
s-109 17.5 -155 31.5s-85.333 34 -118 60c-24 18.667 -44.167 40.334 -60.5 65.001s-29.5 51 -39.5 79s-17.167 57 -21.5 87s-6.5 60 -6.5 90c0 46.667 3.5 92.334 10.5 137.001s16.167 89 27.5 133h214l-14.5 -66.5c-4.33301 -19.667 -7.83301 -38 -10.5 -55
s-4.66699 -33.5 -6 -49.5s-2 -32.333 -2 -49c0 -28.667 3.5 -55 10.5 -79s23.167 -45.667 48.5 -65c20 -15.333 45.167 -27.166 75.5 -35.499s68.5 -14.833 114.5 -19.5s100.833 -7.5 164.5 -8.5s138.5 -1.5 224.5 -1.5c104 0 189.5 1.16699 256.5 3.5
s119.667 8.66602 158 18.999s65 26.166 80 47.499s22.5 51 22.5 89v461zM994.999 -101h235v-211h-235v211zM651.999 -101h235v-211h-235v211zM822.999 -381h235v-211h-235v211z" />
    <glyph glyph-name="uni067F" unicode="&#x67f;" horiz-adv-x="1881" arabic-form="isolated" 
d="M1497 855h212.999v-468c0 -64.667 -9.16699 -120 -27.5 -166s-44.166 -84.5 -77.499 -115.5s-73.5 -55.667 -120.5 -74s-99.5 -32.333 -157.5 -42s-120.333 -15.834 -187 -18.501s-136.667 -4 -210 -4c-77.333 0 -150 0.666992 -218 2s-130.667 5.5 -188 12.5
s-109 17.5 -155 31.5s-85.333 34 -118 60c-24 18.667 -44.167 40.334 -60.5 65.001s-29.5 51 -39.5 79s-17.167 57 -21.5 87s-6.5 60 -6.5 90c0 46.667 3.5 92.334 10.5 137.001s16.167 89 27.5 133h214l-14.5 -66.5c-4.33301 -19.667 -7.83301 -38 -10.5 -55
s-4.66699 -33.5 -6 -49.5s-2 -32.333 -2 -49c0 -28.667 3.5 -55 10.5 -79s23.167 -45.667 48.5 -65c20 -15.333 45.167 -27.166 75.5 -35.499s68.5 -14.833 114.5 -19.5s100.833 -7.5 164.5 -8.5s138.5 -1.5 224.5 -1.5c104 0 189.5 1.16699 256.5 3.5
s119.667 8.66602 158 18.999s65 26.166 80 47.499s22.5 51 22.5 89v461zM886.999 1056h-235v211h235v-211zM1230 1056h-235v211h235v-211zM886.999 1336h-235v211h235v-211zM1230 1336h-235v211h235v-211z" />
    <glyph glyph-name="uni0680" unicode="&#x680;" horiz-adv-x="1881" arabic-form="isolated" 
d="M1497 855h212.999v-468c0 -64.667 -9.16699 -120 -27.5 -166s-44.166 -84.5 -77.499 -115.5s-73.5 -55.667 -120.5 -74s-99.5 -32.333 -157.5 -42s-120.333 -15.834 -187 -18.501s-136.667 -4 -210 -4c-77.333 0 -150 0.666992 -218 2s-130.667 5.5 -188 12.5
s-109 17.5 -155 31.5s-85.333 34 -118 60c-24 18.667 -44.167 40.334 -60.5 65.001s-29.5 51 -39.5 79s-17.167 57 -21.5 87s-6.5 60 -6.5 90c0 46.667 3.5 92.334 10.5 137.001s16.167 89 27.5 133h214l-14.5 -66.5c-4.33301 -19.667 -7.83301 -38 -10.5 -55
s-4.66699 -33.5 -6 -49.5s-2 -32.333 -2 -49c0 -28.667 3.5 -55 10.5 -79s23.167 -45.667 48.5 -65c20 -15.333 45.167 -27.166 75.5 -35.499s68.5 -14.833 114.5 -19.5s100.833 -7.5 164.5 -8.5s138.5 -1.5 224.5 -1.5c104 0 189.5 1.16699 256.5 3.5
s119.667 8.66602 158 18.999s65 26.166 80 47.499s22.5 51 22.5 89v461zM886.999 -592h-235v211h235v-211zM1230 -592h-235v211h235v-211zM886.999 -312h-235v211h235v-211zM1230 -312h-235v211h235v-211z" />
    <glyph glyph-name="uni0681.init" unicode="&#x681;" horiz-adv-x="1197" 
d="M816 527c-29.333 18 -57.834 33.333 -85.501 46s-56.5 23 -86.5 31s-61.833 13.833 -95.5 17.5s-71.167 5.5 -112.5 5.5c-48 0 -93 -2.66699 -135 -8s-85.333 -14 -130 -26v252c48 13.333 93.5 23.666 136.5 30.999s89.5 11 139.5 11
c52.667 0 99.334 -4.66699 140.001 -14s78.334 -21.333 113.001 -36s67.667 -30.667 99 -48s63.666 -34.333 96.999 -51c16.667 -8 34 -15 52 -21s37.833 -11 59.5 -15s45.5 -7.33301 71.5 -10s55.333 -5 88 -7l-49 -291c-33.333 -8 -69.833 -23.833 -109.5 -47.5l-131 -82
c-47.667 -31 -100.167 -63.5 -157.5 -97.5s-120.333 -65.167 -189 -93.5s-143.5 -51.833 -224.5 -70.5s-168.833 -28 -263.5 -28h-43c-23.333 0 -40.833 12.167 -52.5 36.5s-17.5 57.5 -17.5 99.5s5.83301 75.167 17.5 99.5s29.167 36.5 52.5 36.5h52
c78 0 151.667 7.83301 221 23.5s135.333 36.334 198 62.001s122.5 54.667 179.5 87s112.167 65.5 165.5 99.5v8zM749.999 1288c-15.333 3.33301 -29.834 5.99902 -43.501 7.99902s-24.5 3 -32.5 3c-24.667 0 -45.167 -5.16699 -61.5 -15.5s-24.5 -28.166 -24.5 -53.499
s9.33301 -44.333 28 -57s45.334 -19 80.001 -19h100v-115h-377v109h80l1 4c-13.333 17.333 -23.5 34.166 -30.5 50.499s-10.5 33.5 -10.5 51.5c0 24 5 45.833 15 65.5s24.167 36.834 42.5 51.501s40.333 26 66 34s54.167 12 85.5 12c22.667 0 50 -3 82 -9v-120z" />
    <glyph glyph-name="uni0681.medi" unicode="&#x681;" horiz-adv-x="1197" 
d="M816 527c-29.333 18 -57.835 33.333 -85.502 46s-56.5 23 -86.5 31s-61.833 13.833 -95.5 17.5s-71.167 5.5 -112.5 5.5c-48 0 -93 -2.66699 -135 -8s-85.333 -14 -130 -26v252c48 13.333 93.5 23.666 136.5 30.999s89.5 11 139.5 11
c52.667 0 99.334 -4.66699 140.001 -14s78.334 -21.333 113.001 -36s67.667 -30.667 99 -48s63.666 -34.333 96.999 -51c16.667 -8 34 -15 52 -21s37.833 -11 59.5 -15s45.5 -7.33301 71.5 -10s55.333 -5 88 -7l-49 -291c-26 -6.66699 -54.167 -18.167 -84.5 -34.5
s-62.833 -35.5 -97.5 -57.5c2.66699 -12.667 6.66699 -22.667 12 -30s12.833 -12.833 22.5 -16.5s22.167 -6 37.5 -7s34.666 -1.5 57.999 -1.5h131v-272h-64c-59.333 0 -108.666 5.83301 -147.999 17.5s-71.5 28 -96.5 49s-44.167 46.167 -57.5 75.5s-23.333 62 -30 98
c-46 -28.667 -95.833 -57.167 -149.5 -85.5s-111.667 -54 -174 -77s-129.666 -41.667 -201.999 -56s-149.833 -21.5 -232.5 -21.5h-43c-23.333 0 -40.833 12.167 -52.5 36.5s-17.5 57.5 -17.5 99.5s5.83301 75.167 17.5 99.5s29.167 36.5 52.5 36.5h52
c78 0 151.667 7.83301 221 23.5s135.333 36.334 198 62.001s122.5 54.667 179.5 87s112.167 65.5 165.5 99.5v8zM749.998 1288c-15.333 3.33301 -29.834 5.99902 -43.501 7.99902s-24.5 3 -32.5 3c-24.667 0 -45.167 -5.16699 -61.5 -15.5s-24.5 -28.166 -24.5 -53.499
s9.33301 -44.333 28 -57s45.334 -19 80.001 -19h100v-115h-377v109h80l1 4c-13.333 17.333 -23.5 34.166 -30.5 50.499s-10.5 33.5 -10.5 51.5c0 24 5 45.833 15 65.5s24.167 36.834 42.5 51.501s40.333 26 66 34s54.167 12 85.5 12c22.667 0 50 -3 82 -9v-120z" />
    <glyph glyph-name="uni0681.fina" unicode="&#x681;" horiz-adv-x="1197" 
d="M703 642c-19.333 12.667 -38.1699 23.168 -56.5029 31.501s-37.166 15 -56.499 20s-40 8.5 -62 10.5s-46.333 3 -73 3c-48.667 0 -97.667 -3 -147 -9s-95 -14.667 -137 -26v252c44 13.333 86.333 23.666 127 30.999s84 11 130 11c50 0 94 -4.16699 132 -12.5
s73.333 -18.833 106 -31.5s64 -26.334 94 -41.001s62.167 -28.5 96.5 -41.5s72.333 -23.833 114 -32.5s90.167 -13.334 145.5 -14.001l-51 -287l-103 -30c6.66699 -52 16.167 -93.167 28.5 -123.5s28 -53.333 47 -69s41.667 -25.667 68 -30s56.833 -6.5 91.5 -6.5v-272h-30
c-55.333 0 -104.5 7.5 -147.5 22.5s-79.833 39.833 -110.5 74.5s-55.667 80.167 -75 136.5s-33.333 126.166 -42 209.499c-89.333 -34 -163 -68.667 -221 -104s-104 -70.666 -138 -105.999s-57.667 -70.166 -71 -104.499s-20 -67.833 -20 -100.5
c0 -30 5.66699 -60.833 17 -92.5s31.166 -60.5 59.499 -86.5s66.833 -47.333 115.5 -64s110 -25 184 -25c62.667 0 126.667 6.66699 192 20s137.666 34.333 216.999 63v-260c-42 -14.667 -81.167 -27.167 -117.5 -37.5s-71.166 -18.833 -104.499 -25.5s-66 -11.5 -98 -14.5
s-64.667 -4.5 -98 -4.5c-97.333 0 -182.333 12.167 -255 36.5s-133 58.5 -181 102.5s-84 96.667 -108 158s-36 129 -36 203c0 60.667 8.83301 122.334 26.5 185.001s48.334 123 92.001 181s102.334 112 176.001 162s166.834 93 279.501 129v9zM769.996 1394
c-15.333 3.33301 -29.834 5.99902 -43.501 7.99902s-24.5 3 -32.5 3c-24.667 0 -45.167 -5.16699 -61.5 -15.5s-24.5 -28.166 -24.5 -53.499s9.33301 -44.333 28 -57s45.334 -19 80.001 -19h100v-115h-377v109h80l1 4c-13.333 17.333 -23.5 34.166 -30.5 50.499
s-10.5 33.5 -10.5 51.5c0 24 5 45.833 15 65.5s24.167 36.834 42.5 51.501s40.333 26 66 34s54.167 12 85.5 12c22.667 0 50 -3 82 -9v-120z" />
    <glyph glyph-name="uni0682.init" unicode="&#x682;" horiz-adv-x="1197" 
d="M816 527c-29.333 18 -57.834 33.333 -85.501 46s-56.5 23 -86.5 31s-61.833 13.833 -95.5 17.5s-71.167 5.5 -112.5 5.5c-48 0 -93 -2.66699 -135 -8s-85.333 -14 -130 -26v252c48 13.333 93.5 23.666 136.5 30.999s89.5 11 139.5 11
c52.667 0 99.334 -4.66699 140.001 -14s78.334 -21.333 113.001 -36s67.667 -30.667 99 -48s63.666 -34.333 96.999 -51c16.667 -8 34 -15 52 -21s37.833 -11 59.5 -15s45.5 -7.33301 71.5 -10s55.333 -5 88 -7l-49 -291c-33.333 -8 -69.833 -23.833 -109.5 -47.5l-131 -82
c-47.667 -31 -100.167 -63.5 -157.5 -97.5s-120.333 -65.167 -189 -93.5s-143.5 -51.833 -224.5 -70.5s-168.833 -28 -263.5 -28h-43c-23.333 0 -40.833 12.167 -52.5 36.5s-17.5 57.5 -17.5 99.5s5.83301 75.167 17.5 99.5s29.167 36.5 52.5 36.5h52
c78 0 151.667 7.83301 221 23.5s135.333 36.334 198 62.001s122.5 54.667 179.5 87s112.167 65.5 165.5 99.5v8zM715.999 1035h-235v211h235v-211zM715.999 1315h-235v211h235v-211z" />
    <glyph glyph-name="uni0682.medi" unicode="&#x682;" horiz-adv-x="1197" 
d="M816 527c-29.333 18 -57.835 33.333 -85.502 46s-56.5 23 -86.5 31s-61.833 13.833 -95.5 17.5s-71.167 5.5 -112.5 5.5c-48 0 -93 -2.66699 -135 -8s-85.333 -14 -130 -26v252c48 13.333 93.5 23.666 136.5 30.999s89.5 11 139.5 11
c52.667 0 99.334 -4.66699 140.001 -14s78.334 -21.333 113.001 -36s67.667 -30.667 99 -48s63.666 -34.333 96.999 -51c16.667 -8 34 -15 52 -21s37.833 -11 59.5 -15s45.5 -7.33301 71.5 -10s55.333 -5 88 -7l-49 -291c-26 -6.66699 -54.167 -18.167 -84.5 -34.5
s-62.833 -35.5 -97.5 -57.5c2.66699 -12.667 6.66699 -22.667 12 -30s12.833 -12.833 22.5 -16.5s22.167 -6 37.5 -7s34.666 -1.5 57.999 -1.5h131v-272h-64c-59.333 0 -108.666 5.83301 -147.999 17.5s-71.5 28 -96.5 49s-44.167 46.167 -57.5 75.5s-23.333 62 -30 98
c-46 -28.667 -95.833 -57.167 -149.5 -85.5s-111.667 -54 -174 -77s-129.666 -41.667 -201.999 -56s-149.833 -21.5 -232.5 -21.5h-43c-23.333 0 -40.833 12.167 -52.5 36.5s-17.5 57.5 -17.5 99.5s5.83301 75.167 17.5 99.5s29.167 36.5 52.5 36.5h52
c78 0 151.667 7.83301 221 23.5s135.333 36.334 198 62.001s122.5 54.667 179.5 87s112.167 65.5 165.5 99.5v8zM715.998 1035h-235v211h235v-211zM715.998 1315h-235v211h235v-211z" />
    <glyph glyph-name="uni0682.fina" unicode="&#x682;" horiz-adv-x="1197" 
d="M703 642c-19.333 12.667 -38.1699 23.168 -56.5029 31.501s-37.166 15 -56.499 20s-40 8.5 -62 10.5s-46.333 3 -73 3c-48.667 0 -97.667 -3 -147 -9s-95 -14.667 -137 -26v252c44 13.333 86.333 23.666 127 30.999s84 11 130 11c50 0 94 -4.16699 132 -12.5
s73.333 -18.833 106 -31.5s64 -26.334 94 -41.001s62.167 -28.5 96.5 -41.5s72.333 -23.833 114 -32.5s90.167 -13.334 145.5 -14.001l-51 -287l-103 -30c6.66699 -52 16.167 -93.167 28.5 -123.5s28 -53.333 47 -69s41.667 -25.667 68 -30s56.833 -6.5 91.5 -6.5v-272h-30
c-55.333 0 -104.5 7.5 -147.5 22.5s-79.833 39.833 -110.5 74.5s-55.667 80.167 -75 136.5s-33.333 126.166 -42 209.499c-89.333 -34 -163 -68.667 -221 -104s-104 -70.666 -138 -105.999s-57.667 -70.166 -71 -104.499s-20 -67.833 -20 -100.5
c0 -30 5.66699 -60.833 17 -92.5s31.166 -60.5 59.499 -86.5s66.833 -47.333 115.5 -64s110 -25 184 -25c62.667 0 126.667 6.66699 192 20s137.666 34.333 216.999 63v-260c-42 -14.667 -81.167 -27.167 -117.5 -37.5s-71.166 -18.833 -104.499 -25.5s-66 -11.5 -98 -14.5
s-64.667 -4.5 -98 -4.5c-97.333 0 -182.333 12.167 -255 36.5s-133 58.5 -181 102.5s-84 96.667 -108 158s-36 129 -36 203c0 60.667 8.83301 122.334 26.5 185.001s48.334 123 92.001 181s102.334 112 176.001 162s166.834 93 279.501 129v9zM747.996 1146h-235v211h235
v-211zM747.996 1426h-235v211h235v-211z" />
    <glyph glyph-name="uni0683" unicode="&#x683;" horiz-adv-x="1198" arabic-form="isolated" 
d="M707 -50h-205v211h205v-211zM1023 -50h-205v211h205v-211zM703 642c-19.333 12.667 -38.1709 23.1689 -56.5039 31.502s-37.166 15 -56.499 20s-40 8.5 -62 10.5s-46.333 3 -73 3c-48.667 0 -97.667 -3 -147 -9s-95 -14.667 -137 -26v252
c44 13.333 86.333 23.666 127 30.999s84 11 130 11c50 0 94 -4.16699 132 -12.5s73.333 -18.833 106 -31.5s64 -26.334 94 -41.001s62.167 -28.5 96.5 -41.5s72.333 -23.833 114 -32.5s90.167 -13.334 145.5 -14.001l-49 -277
c-146.667 -40 -267.334 -81.167 -362.001 -123.5s-169.667 -85.166 -225 -128.499s-93.833 -87 -115.5 -131s-32.5 -87.333 -32.5 -130c0 -32.667 6.16699 -65.5 18.5 -98.5s33.333 -62.833 63 -89.5s69.334 -48.334 119.001 -65.001s111.5 -25 185.5 -25
c62.667 0 126.667 6.66699 192 20s137.666 34.333 216.999 63v-250c-42 -14.667 -81.167 -27.167 -117.5 -37.5s-71.166 -18.833 -104.499 -25.5s-66 -11.5 -98 -14.5s-64.667 -4.5 -98 -4.5c-97.333 0 -182.333 12.167 -255 36.5s-133 58.5 -181 102.5s-84 96.667 -108 158
s-36 129 -36 203c0 60.667 8.83301 122.334 26.5 185.001s48.334 123 92.001 181s102.334 112 176.001 162s166.834 93 279.501 129v9z" />
    <glyph glyph-name="uni0684" unicode="&#x684;" horiz-adv-x="1197" arabic-form="isolated" 
d="M836 82h-221v179h221v-179zM836 -178h-221v179h221v-179zM703 642c-19.333 12.667 -38.1709 23.1709 -56.5039 31.5039s-37.166 15 -56.499 20s-40 8.5 -62 10.5s-46.333 3 -73 3c-48.667 0 -97.667 -3 -147 -9s-95 -14.667 -137 -26v252
c44 13.333 86.333 23.666 127 30.999s84 11 130 11c50 0 94 -4.16699 132 -12.5s73.333 -18.833 106 -31.5s64 -26.334 94 -41.001s62.167 -28.5 96.5 -41.5s72.333 -23.833 114 -32.5s90.167 -13.334 145.5 -14.001l-51 -287c-98 -26.667 -183.833 -53.834 -257.5 -81.501
s-137.167 -55.667 -190.5 -84s-97.666 -57 -132.999 -86s-63.5 -57.667 -84.5 -86s-35.833 -56.333 -44.5 -84s-13 -54.834 -13 -81.501c0 -30 5.66699 -60.833 17 -92.5s31.166 -60.5 59.499 -86.5s66.833 -47.333 115.5 -64s110 -25 184 -25
c62.667 0 126.667 6.66699 192 20s137.666 34.333 216.999 63v-260c-42 -14.667 -81.167 -27.167 -117.5 -37.5s-71.166 -18.833 -104.499 -25.5s-66 -11.5 -98 -14.5s-64.667 -4.5 -98 -4.5c-97.333 0 -182.333 12.167 -255 36.5s-133 58.5 -181 102.5s-84 96.667 -108 158
s-36 129 -36 203c0 60.667 8.83301 122.334 26.5 185.001s48.334 123 92.001 181s102.334 112 176.001 162s166.834 93 279.501 129v9z" />
    <glyph glyph-name="uni0685.init" unicode="&#x685;" horiz-adv-x="1197" 
d="M816 527c-29.333 18 -57.834 33.333 -85.501 46s-56.5 23 -86.5 31s-61.833 13.833 -95.5 17.5s-71.167 5.5 -112.5 5.5c-48 0 -93 -2.66699 -135 -8s-85.333 -14 -130 -26v252c48 13.333 93.5 23.666 136.5 30.999s89.5 11 139.5 11
c52.667 0 99.334 -4.66699 140.001 -14s78.334 -21.333 113.001 -36s67.667 -30.667 99 -48s63.666 -34.333 96.999 -51c16.667 -8 34 -15 52 -21s37.833 -11 59.5 -15s45.5 -7.33301 71.5 -10s55.333 -5 88 -7l-49 -291c-33.333 -8 -69.833 -23.833 -109.5 -47.5l-131 -82
c-47.667 -31 -100.167 -63.5 -157.5 -97.5s-120.333 -65.167 -189 -93.5s-143.5 -51.833 -224.5 -70.5s-168.833 -28 -263.5 -28h-43c-23.333 0 -40.833 12.167 -52.5 36.5s-17.5 57.5 -17.5 99.5s5.83301 75.167 17.5 99.5s29.167 36.5 52.5 36.5h52
c78 0 151.667 7.83301 221 23.5s135.333 36.334 198 62.001s122.5 54.667 179.5 87s112.167 65.5 165.5 99.5v8zM543.999 1035h-235v211h235v-211zM886.999 1035h-235v211h235v-211zM715.999 1315h-235v211h235v-211z" />
    <glyph glyph-name="uni0685.medi" unicode="&#x685;" horiz-adv-x="1197" 
d="M816 527c-29.333 18 -57.835 33.333 -85.502 46s-56.5 23 -86.5 31s-61.833 13.833 -95.5 17.5s-71.167 5.5 -112.5 5.5c-48 0 -93 -2.66699 -135 -8s-85.333 -14 -130 -26v252c48 13.333 93.5 23.666 136.5 30.999s89.5 11 139.5 11
c52.667 0 99.334 -4.66699 140.001 -14s78.334 -21.333 113.001 -36s67.667 -30.667 99 -48s63.666 -34.333 96.999 -51c16.667 -8 34 -15 52 -21s37.833 -11 59.5 -15s45.5 -7.33301 71.5 -10s55.333 -5 88 -7l-49 -291c-26 -6.66699 -54.167 -18.167 -84.5 -34.5
s-62.833 -35.5 -97.5 -57.5c2.66699 -12.667 6.66699 -22.667 12 -30s12.833 -12.833 22.5 -16.5s22.167 -6 37.5 -7s34.666 -1.5 57.999 -1.5h131v-272h-64c-59.333 0 -108.666 5.83301 -147.999 17.5s-71.5 28 -96.5 49s-44.167 46.167 -57.5 75.5s-23.333 62 -30 98
c-46 -28.667 -95.833 -57.167 -149.5 -85.5s-111.667 -54 -174 -77s-129.666 -41.667 -201.999 -56s-149.833 -21.5 -232.5 -21.5h-43c-23.333 0 -40.833 12.167 -52.5 36.5s-17.5 57.5 -17.5 99.5s5.83301 75.167 17.5 99.5s29.167 36.5 52.5 36.5h52
c78 0 151.667 7.83301 221 23.5s135.333 36.334 198 62.001s122.5 54.667 179.5 87s112.167 65.5 165.5 99.5v8zM543.998 1035h-235v211h235v-211zM886.998 1035h-235v211h235v-211zM715.998 1315h-235v211h235v-211z" />
    <glyph glyph-name="uni0685.fina" unicode="&#x685;" horiz-adv-x="1197" 
d="M703 642c-19.333 12.667 -38.1699 23.168 -56.5029 31.501s-37.166 15 -56.499 20s-40 8.5 -62 10.5s-46.333 3 -73 3c-48.667 0 -97.667 -3 -147 -9s-95 -14.667 -137 -26v252c44 13.333 86.333 23.666 127 30.999s84 11 130 11c50 0 94 -4.16699 132 -12.5
s73.333 -18.833 106 -31.5s64 -26.334 94 -41.001s62.167 -28.5 96.5 -41.5s72.333 -23.833 114 -32.5s90.167 -13.334 145.5 -14.001l-51 -287l-103 -30c6.66699 -52 16.167 -93.167 28.5 -123.5s28 -53.333 47 -69s41.667 -25.667 68 -30s56.833 -6.5 91.5 -6.5v-272h-30
c-55.333 0 -104.5 7.5 -147.5 22.5s-79.833 39.833 -110.5 74.5s-55.667 80.167 -75 136.5s-33.333 126.166 -42 209.499c-89.333 -34 -163 -68.667 -221 -104s-104 -70.666 -138 -105.999s-57.667 -70.166 -71 -104.499s-20 -67.833 -20 -100.5
c0 -30 5.66699 -60.833 17 -92.5s31.166 -60.5 59.499 -86.5s66.833 -47.333 115.5 -64s110 -25 184 -25c62.667 0 126.667 6.66699 192 20s137.666 34.333 216.999 63v-260c-42 -14.667 -81.167 -27.167 -117.5 -37.5s-71.166 -18.833 -104.499 -25.5s-66 -11.5 -98 -14.5
s-64.667 -4.5 -98 -4.5c-97.333 0 -182.333 12.167 -255 36.5s-133 58.5 -181 102.5s-84 96.667 -108 158s-36 129 -36 203c0 60.667 8.83301 122.334 26.5 185.001s48.334 123 92.001 181s102.334 112 176.001 162s166.834 93 279.501 129v9zM573.996 1146h-235v211h235
v-211zM916.996 1146h-235v211h235v-211zM745.996 1426h-235v211h235v-211z" />
    <glyph glyph-name="afii57507" unicode="&#x686;" horiz-adv-x="1197" arabic-form="isolated" 
d="M707 62h-181v179h181v-179zM999 62h-181v179h181v-179zM853 -198h-181v179h181v-179zM703 642c-19.333 12.667 -38.1709 23.1689 -56.5039 31.502s-37.166 15 -56.499 20s-40 8.5 -62 10.5s-46.333 3 -73 3c-48.667 0 -97.667 -3 -147 -9s-95 -14.667 -137 -26v252
c44 13.333 86.333 23.666 127 30.999s84 11 130 11c50 0 94 -4.16699 132 -12.5s73.333 -18.833 106 -31.5s64 -26.334 94 -41.001s62.167 -28.5 96.5 -41.5s72.333 -23.833 114 -32.5s90.167 -13.334 145.5 -14.001l-49 -277
c-146.667 -40 -267.334 -81.167 -362.001 -123.5s-169.667 -85.166 -225 -128.499s-93.833 -87 -115.5 -131s-32.5 -87.333 -32.5 -130c0 -32.667 6.16699 -65.5 18.5 -98.5s33.333 -62.833 63 -89.5s69.334 -48.334 119.001 -65.001s111.5 -25 185.5 -25
c62.667 0 126.667 6.66699 192 20s137.666 34.333 216.999 63v-250c-42 -14.667 -81.167 -27.167 -117.5 -37.5s-71.166 -18.833 -104.499 -25.5s-66 -11.5 -98 -14.5s-64.667 -4.5 -98 -4.5c-97.333 0 -182.333 12.167 -255 36.5s-133 58.5 -181 102.5s-84 96.667 -108 158
s-36 129 -36 203c0 60.667 8.83301 122.334 26.5 185.001s48.334 123 92.001 181s102.334 112 176.001 162s166.834 93 279.501 129v9z" />
    <glyph glyph-name="uni0687" unicode="&#x687;" horiz-adv-x="1197" arabic-form="isolated" 
d="M707 72h-181v179h181v-179zM999 72h-181v179h181v-179zM703 642c-19.333 12.667 -38.1709 23.1689 -56.5039 31.502s-37.166 15 -56.499 20s-40 8.5 -62 10.5s-46.333 3 -73 3c-48.667 0 -97.667 -3 -147 -9s-95 -14.667 -137 -26v252
c44 13.333 86.333 23.666 127 30.999s84 11 130 11c50 0 94 -4.16699 132 -12.5s73.333 -18.833 106 -31.5s64 -26.334 94 -41.001s62.167 -28.5 96.5 -41.5s72.333 -23.833 114 -32.5s90.167 -13.334 145.5 -14.001l-49 -277
c-146.667 -40 -267.334 -81.167 -362.001 -123.5s-169.667 -85.166 -225 -128.499s-93.833 -87 -115.5 -131s-32.5 -87.333 -32.5 -130c0 -32.667 6.16699 -65.5 18.5 -98.5s33.333 -62.833 63 -89.5s69.334 -48.334 119.001 -65.001s111.5 -25 185.5 -25
c62.667 0 126.667 6.66699 192 20s137.666 34.333 216.999 63v-250c-42 -14.667 -81.167 -27.167 -117.5 -37.5s-71.166 -18.833 -104.499 -25.5s-66 -11.5 -98 -14.5s-64.667 -4.5 -98 -4.5c-97.333 0 -182.333 12.167 -255 36.5s-133 58.5 -181 102.5s-84 96.667 -108 158
s-36 129 -36 203c0 60.667 8.83301 122.334 26.5 185.001s48.334 123 92.001 181s102.334 112 176.001 162s166.834 93 279.501 129v9zM706.995 -187.998h-181v179h181v-179zM998.995 -187.998h-181v179h181v-179z" />
    <glyph glyph-name="afii57512" unicode="&#x688;" horiz-adv-x="1026" arabic-form="isolated" 
d="M392 -29c-38 0 -82.665 2.16699 -133.998 6.5s-106.333 11.833 -165 22.5l-54 275c74.667 -10.667 142.5 -18.667 203.5 -24s115.5 -8 163.5 -8c68.667 0 121.167 9 157.5 27s54.5 51 54.5 99c0 46.667 -9.33301 94.834 -28 144.501s-45 102.167 -79 157.5
s-74.5 114 -121.5 176l-155.5 201h279c53.333 -60 101.166 -119.5 143.499 -178.5s78.166 -117.167 107.499 -174.5s51.833 -114.333 67.5 -171s23.5 -112.334 23.5 -167.001c0 -76 -12 -139 -36 -189s-56.833 -89.5 -98.5 -118.5s-90.667 -49.333 -147 -61
s-116.833 -17.5 -181.5 -17.5zM35.002 1400c22 -2.66699 43.3301 -4.50293 63.9971 -5.50293s41.334 -1.5 62.001 -1.5v492h125v-314l4 -1c25.333 32.667 52.833 59.667 82.5 81s65.5 32 107.5 32c34.667 0 64.5 -6.66699 89.5 -20s45.5 -31.166 61.5 -53.499
s27.833 -47.666 35.5 -75.999s11.5 -57.5 11.5 -87.5c0 -44 -6.83301 -78.167 -20.5 -102.5s-32.5 -42.166 -56.5 -53.499s-52.333 -18 -85 -20s-68 -3 -106 -3c-47.333 0 -89.166 0.333008 -125.499 1s-68.666 1.5 -96.999 2.5s-53.5 2.33301 -75.5 4s-42.333 3.5 -61 5.5z
M397.999 1390c30.667 0 56.333 0.331055 77 0.998047s37.167 2.83398 49.5 6.50098s21.166 9.5 26.499 17.5s8 19 8 33c0 36 -8.83301 63.833 -26.5 83.5s-38.834 29.5 -63.501 29.5c-19.333 0 -37.666 -5 -54.999 -15s-33.666 -23 -48.999 -39s-29.333 -34.167 -42 -54.5
s-24 -41.166 -34 -62.499h109z" />
    <glyph glyph-name="uni0689.fina" unicode="&#x689;" horiz-adv-x="1026" 
d="M392 -29c-38 0 -82.6631 2.16797 -133.996 6.50098s-106.333 11.833 -165 22.5l-54 275c74.667 -10.667 141.667 -18.667 201 -24s113 -8 161 -8c46 0 82.5 3.16699 109.5 9.5s47.667 15.666 62 27.999s23.5 27.5 27.5 45.5s6 38.667 6 62
c0 30.667 -5 70.334 -15 119.001s-23.333 102.5 -40 161.5s-36 121 -58 186s-45 129.167 -69 192.5h252c38 -112 69.667 -215.167 95 -309.5s47.666 -184.5 66.999 -270.5c6 -26 12.333 -52 19 -78s16.5 -49.5 29.5 -70.5s30.5 -38.167 52.5 -51.5s51 -20 87 -20v-272h-30
c-20.667 0 -40.834 2.33301 -60.501 7s-38.5 12.167 -56.5 22.5s-34.833 24.166 -50.5 41.499s-29.834 39 -42.501 65h-5c-21.333 -27.333 -46.333 -49.833 -75 -67.5s-59.834 -32 -93.501 -43s-69.167 -18.667 -106.5 -23s-75.333 -6.5 -114 -6.5zM430.004 56.001
c24 0 46.332 -4.33301 66.999 -13s38.667 -20.667 54 -36s27.5 -33.666 36.5 -54.999s13.5 -44.333 13.5 -69c0 -23.333 -4.5 -45.166 -13.5 -65.499s-21.167 -38.166 -36.5 -53.499s-33.333 -27.5 -54 -36.5s-43 -13.5 -67 -13.5c-25.333 0 -48.666 4.5 -69.999 13.5
s-39.666 21.167 -54.999 36.5s-27.5 33.166 -36.5 53.499s-13.5 42.166 -13.5 65.499c0 24.667 4.33301 47.667 13 69s20.667 39.666 36 54.999s33.666 27.333 54.999 36s45 13 71 13zM430.003 -200.999c22 0 40 8.16699 54 24.5s21 36.166 21 59.499
c0 25.333 -7 46.333 -21 63s-32 25 -54 25c-23.333 0 -42.333 -8.33301 -57 -25s-22 -37.667 -22 -63c0 -23.333 7.33301 -43.166 22 -59.499s33.667 -24.5 57 -24.5z" />
    <glyph glyph-name="uni068A.fina" unicode="&#x68a;" horiz-adv-x="1026" 
d="M392 -29c-38 0 -82.6631 2.16797 -133.996 6.50098s-106.333 11.833 -165 22.5l-54 275c74.667 -10.667 141.667 -18.667 201 -24s113 -8 161 -8c46 0 82.5 3.16699 109.5 9.5s47.667 15.666 62 27.999s23.5 27.5 27.5 45.5s6 38.667 6 62
c0 30.667 -5 70.334 -15 119.001s-23.333 102.5 -40 161.5s-36 121 -58 186s-45 129.167 -69 192.5h252c38 -112 69.667 -215.167 95 -309.5s47.666 -184.5 66.999 -270.5c6 -26 12.333 -52 19 -78s16.5 -49.5 29.5 -70.5s30.5 -38.167 52.5 -51.5s51 -20 87 -20v-272h-30
c-20.667 0 -40.834 2.33301 -60.501 7s-38.5 12.167 -56.5 22.5s-34.833 24.166 -50.5 41.499s-29.834 39 -42.501 65h-5c-21.333 -27.333 -46.333 -49.833 -75 -67.5s-59.834 -32 -93.501 -43s-69.167 -18.667 -106.5 -23s-75.333 -6.5 -114 -6.5zM149.004 1400
c22 -2.66699 43.3301 -4.50293 63.9971 -5.50293s41.334 -1.5 62.001 -1.5v492h125v-314l4 -1c25.333 32.667 52.833 59.667 82.5 81s65.5 32 107.5 32c34.667 0 64.5 -6.66699 89.5 -20s45.5 -31.166 61.5 -53.499s27.833 -47.666 35.5 -75.999s11.5 -57.5 11.5 -87.5
c0 -44 -6.83301 -78.167 -20.5 -102.5s-32.5 -42.166 -56.5 -53.499s-52.333 -18 -85 -20s-68 -3 -106 -3c-47.333 0 -89.166 0.333008 -125.499 1s-68.666 1.5 -96.999 2.5s-53.5 2.33301 -75.5 4s-42.333 3.5 -61 5.5zM512.001 1390c30.667 0 56.333 0.331055 77 0.998047
s37.167 2.83398 49.5 6.50098s21.166 9.5 26.499 17.5s8 19 8 33c0 36 -8.83301 63.833 -26.5 83.5s-38.834 29.5 -63.501 29.5c-19.333 0 -37.666 -5 -54.999 -15s-33.666 -23 -48.999 -39s-29.333 -34.167 -42 -54.5s-24 -41.166 -34 -62.499h109zM545 -371.004h-235v211
h235v-211z" />
    <glyph glyph-name="uni068B.fina" unicode="&#x68b;" horiz-adv-x="1026" 
d="M392 -29c-38 0 -82.6631 2.16797 -133.996 6.50098s-106.333 11.833 -165 22.5l-54 275c74.667 -10.667 141.667 -18.667 201 -24s113 -8 161 -8c46 0 82.5 3.16699 109.5 9.5s47.667 15.666 62 27.999s23.5 27.5 27.5 45.5s6 38.667 6 62
c0 30.667 -5 70.334 -15 119.001s-23.333 102.5 -40 161.5s-36 121 -58 186s-45 129.167 -69 192.5h252c38 -112 69.667 -215.167 95 -309.5s47.666 -184.5 66.999 -270.5c6 -26 12.333 -52 19 -78s16.5 -49.5 29.5 -70.5s30.5 -38.167 52.5 -51.5s51 -20 87 -20v-272h-30
c-20.667 0 -40.834 2.33301 -60.501 7s-38.5 12.167 -56.5 22.5s-34.833 24.166 -50.5 41.499s-29.834 39 -42.501 65h-5c-21.333 -27.333 -46.333 -49.833 -75 -67.5s-59.834 -32 -93.501 -43s-69.167 -18.667 -106.5 -23s-75.333 -6.5 -114 -6.5zM545.004 -370.999h-235
v211h235v-211zM599.004 1257h-235v211h235v-211z" />
    <glyph glyph-name="uni068C" unicode="&#x68c;" horiz-adv-x="1026" arabic-form="isolated" 
d="M392 -29c-38 0 -82.665 2.16699 -133.998 6.5s-106.333 11.833 -165 22.5l-54 275c74.667 -10.667 142.5 -18.667 203.5 -24s115.5 -8 163.5 -8c68.667 0 121.167 9 157.5 27s54.5 51 54.5 99c0 46.667 -9.33301 94.834 -28 144.501s-45 102.167 -79 157.5
s-74.5 114 -121.5 176l-155.5 201h279c53.333 -60 101.166 -119.5 143.499 -178.5s78.166 -117.167 107.499 -174.5s51.833 -114.333 67.5 -171s23.5 -112.334 23.5 -167.001c0 -76 -12 -139 -36 -189s-56.833 -89.5 -98.5 -118.5s-90.667 -49.333 -147 -61
s-116.833 -17.5 -181.5 -17.5zM314.002 1257h-235v211h235v-211zM656.002 1257h-235v211h235v-211z" />
    <glyph glyph-name="uni068D" unicode="&#x68d;" horiz-adv-x="1026" arabic-form="isolated" 
d="M392 -29c-38 0 -82.665 2.16699 -133.998 6.5s-106.333 11.833 -165 22.5l-54 275c74.667 -10.667 142.5 -18.667 203.5 -24s115.5 -8 163.5 -8c68.667 0 121.167 9 157.5 27s54.5 51 54.5 99c0 46.667 -9.33301 94.834 -28 144.501s-45 102.167 -79 157.5
s-74.5 114 -121.5 176l-155.5 201h279c53.333 -60 101.166 -119.5 143.499 -178.5s78.166 -117.167 107.499 -174.5s51.833 -114.333 67.5 -171s23.5 -112.334 23.5 -167.001c0 -76 -12 -139 -36 -189s-56.833 -89.5 -98.5 -118.5s-90.667 -49.333 -147 -61
s-116.833 -17.5 -181.5 -17.5zM374.002 -371h-235v211h235v-211zM716.002 -371h-235v211h235v-211z" />
    <glyph glyph-name="uni068E" unicode="&#x68e;" horiz-adv-x="1026" arabic-form="isolated" 
d="M392 -29c-38 0 -82.665 2.16699 -133.998 6.5s-106.333 11.833 -165 22.5l-54 275c74.667 -10.667 142.5 -18.667 203.5 -24s115.5 -8 163.5 -8c68.667 0 121.167 9 157.5 27s54.5 51 54.5 99c0 46.667 -9.33301 94.834 -28 144.501s-45 102.167 -79 157.5
s-74.5 114 -121.5 176l-155.5 201h279c53.333 -60 101.166 -119.5 143.499 -178.5s78.166 -117.167 107.499 -174.5s51.833 -114.333 67.5 -171s23.5 -112.334 23.5 -167.001c0 -76 -12 -139 -36 -189s-56.833 -89.5 -98.5 -118.5s-90.667 -49.333 -147 -61
s-116.833 -17.5 -181.5 -17.5zM313.002 1257h-235v211h235v-211zM656.002 1257h-235v211h235v-211zM485.002 1537h-235v211h235v-211z" />
    <glyph glyph-name="uni068F.fina" unicode="&#x68f;" horiz-adv-x="1026" 
d="M392 -29c-38 0 -82.6631 2.16797 -133.996 6.50098s-106.333 11.833 -165 22.5l-54 275c74.667 -10.667 141.667 -18.667 201 -24s113 -8 161 -8c46 0 82.5 3.16699 109.5 9.5s47.667 15.666 62 27.999s23.5 27.5 27.5 45.5s6 38.667 6 62
c0 30.667 -5 70.334 -15 119.001s-23.333 102.5 -40 161.5s-36 121 -58 186s-45 129.167 -69 192.5h252c38 -112 69.667 -215.167 95 -309.5s47.666 -184.5 66.999 -270.5c6 -26 12.333 -52 19 -78s16.5 -49.5 29.5 -70.5s30.5 -38.167 52.5 -51.5s51 -20 87 -20v-272h-30
c-20.667 0 -40.834 2.33301 -60.501 7s-38.5 12.167 -56.5 22.5s-34.833 24.166 -50.5 41.499s-29.834 39 -42.501 65h-5c-21.333 -27.333 -46.333 -49.833 -75 -67.5s-59.834 -32 -93.501 -43s-69.167 -18.667 -106.5 -23s-75.333 -6.5 -114 -6.5zM535.004 1748h235v-211
h-235v211zM192.004 1748h235v-211h-235v211zM363.004 1468h235v-211h-235v211z" />
    <glyph glyph-name="uni0690.fina" unicode="&#x690;" horiz-adv-x="1026" 
d="M392 -29c-38 0 -82.6631 2.16797 -133.996 6.50098s-106.333 11.833 -165 22.5l-54 275c74.667 -10.667 141.667 -18.667 201 -24s113 -8 161 -8c46 0 82.5 3.16699 109.5 9.5s47.667 15.666 62 27.999s23.5 27.5 27.5 45.5s6 38.667 6 62
c0 30.667 -5 70.334 -15 119.001s-23.333 102.5 -40 161.5s-36 121 -58 186s-45 129.167 -69 192.5h252c38 -112 69.667 -215.167 95 -309.5s47.666 -184.5 66.999 -270.5c6 -26 12.333 -52 19 -78s16.5 -49.5 29.5 -70.5s30.5 -38.167 52.5 -51.5s51 -20 87 -20v-272h-30
c-20.667 0 -40.834 2.33301 -60.501 7s-38.5 12.167 -56.5 22.5s-34.833 24.166 -50.5 41.499s-29.834 39 -42.501 65h-5c-21.333 -27.333 -46.333 -49.833 -75 -67.5s-59.834 -32 -93.501 -43s-69.167 -18.667 -106.5 -23s-75.333 -6.5 -114 -6.5zM427.004 1257h-235v211
h235v-211zM770.004 1257h-235v211h235v-211zM427.004 1537h-235v211h235v-211zM770.004 1537h-235v211h235v-211z" />
    <glyph glyph-name="afii57513" unicode="&#x691;" horiz-adv-x="855" arabic-form="isolated" 
d="M0 -211c46 -13.333 84.499 -22.8271 115.499 -28.4941s59.5 -8.5 85.5 -8.5c54 0 98 9.5 132 28.5s60.667 44.5 80 76.5s32.5 69 39.5 111s10.5 86.333 10.5 133c0 44.667 -3 89.167 -9 133.5s-15 90.5 -27 138.5s-26.833 98.667 -44.5 152l-60.5 175h236
c20.667 -51.333 38.834 -103.333 54.501 -156s28.834 -105.334 39.501 -158.001s18.667 -104.334 24 -155.001s8 -99.334 8 -146.001c0 -106 -12.833 -197.333 -38.5 -274s-60.334 -139.834 -104.001 -189.501s-94.167 -86.334 -151.5 -110.001s-118 -35.5 -182 -35.5
c-32 0 -64.167 3.16699 -96.5 9.5s-69.5 17.166 -111.5 32.499v271zM77.999 1058.01c22 -2.66699 43.3301 -4.50293 63.9971 -5.50293s41.334 -1.5 62.001 -1.5v492h125v-314l4 -1c25.333 32.667 52.833 59.667 82.5 81s65.5 32 107.5 32c34.667 0 64.5 -6.66699 89.5 -20
s45.5 -31.166 61.5 -53.499s27.833 -47.666 35.5 -75.999s11.5 -57.5 11.5 -87.5c0 -44 -6.83301 -78.167 -20.5 -102.5s-32.5 -42.166 -56.5 -53.499s-52.333 -18 -85 -20s-68 -3 -106 -3c-47.333 0 -89.166 0.333008 -125.499 1s-68.666 1.5 -96.999 2.5
s-53.5 2.33301 -75.5 4s-42.333 3.5 -61 5.5zM440.996 1048c30.667 0 56.333 0.331055 77 0.998047s37.167 2.83398 49.5 6.50098s21.166 9.5 26.499 17.5s8 19 8 33c0 36 -8.83301 63.833 -26.5 83.5s-38.834 29.5 -63.501 29.5c-19.333 0 -37.666 -5 -54.999 -15
s-33.666 -23 -48.999 -39s-29.333 -34.167 -42 -54.5s-24 -41.166 -34 -62.499h109z" />
    <glyph glyph-name="uni0692.fina" unicode="&#x692;" horiz-adv-x="855" 
d="M0 -211c46 -13.333 84.502 -22.834 115.502 -28.501s59.5 -8.5 85.5 -8.5c54 0 98 9.5 132 28.5s60.667 44.5 80 76.5s32.5 69 39.5 111s10.5 86.333 10.5 133c0 44.667 -3 89.167 -9 133.5s-15 90.5 -27 138.5s-26.833 98.667 -44.5 152l-60.5 175h236
c23.333 -58.667 43.5 -118.167 60.5 -178.5s30.833 -120.166 41.5 -179.499c2.66699 -13.333 7.16699 -25.666 13.5 -36.999s16.666 -21.333 30.999 -30s33.5 -15.5 57.5 -20.5s55 -7.5 93 -7.5v-272h-26c-19.333 0 -36 1.33301 -50 4s-26.5 6.33398 -37.5 11.001
s-20.667 10.5 -29 17.5s-16.5 15.167 -24.5 24.5l-5 -1c-4.66699 -96.667 -20.5 -179.834 -47.5 -249.501s-62 -127.167 -105 -172.5s-92.333 -78.833 -148 -100.5s-113.834 -32.5 -174.501 -32.5c-32 0 -64.167 3.16699 -96.5 9.5s-69.5 17.166 -111.5 32.499v271z
M550.002 1282h174l-239 -365h-144l-245 365h179l139 -206z" />
    <glyph glyph-name="uni0693.fina" unicode="&#x693;" horiz-adv-x="855" 
d="M0 -211c46 -13.333 84.502 -22.834 115.502 -28.501s59.5 -8.5 85.5 -8.5c54 0 98 9.5 132 28.5s60.667 44.5 80 76.5s32.5 69 39.5 111s10.5 86.333 10.5 133c0 44.667 -3 89.167 -9 133.5s-15 90.5 -27 138.5s-26.833 98.667 -44.5 152l-60.5 175h236
c23.333 -58.667 43.5 -118.167 60.5 -178.5s30.833 -120.166 41.5 -179.499c2.66699 -13.333 7.16699 -25.666 13.5 -36.999s16.666 -21.333 30.999 -30s33.5 -15.5 57.5 -20.5s55 -7.5 93 -7.5v-272h-26c-19.333 0 -36 1.33301 -50 4s-26.5 6.33398 -37.5 11.001
s-20.667 10.5 -29 17.5s-16.5 15.167 -24.5 24.5l-5 -1c-4.66699 -96.667 -20.5 -179.834 -47.5 -249.501s-62 -127.167 -105 -172.5s-92.333 -78.833 -148 -100.5s-113.834 -32.5 -174.501 -32.5c-32 0 -64.167 3.16699 -96.5 9.5s-69.5 17.166 -111.5 32.499v271z
M659.002 -185.001c24 0 46.332 -4.33301 66.999 -13s38.667 -20.667 54 -36s27.5 -33.666 36.5 -54.999s13.5 -44.333 13.5 -69c0 -23.333 -4.5 -45.166 -13.5 -65.499s-21.167 -38.166 -36.5 -53.499s-33.333 -27.5 -54 -36.5s-43 -13.5 -67 -13.5
c-25.333 0 -48.666 4.5 -69.999 13.5s-39.666 21.167 -54.999 36.5s-27.5 33.166 -36.5 53.499s-13.5 42.166 -13.5 65.499c0 24.667 4.33301 47.667 13 69s20.667 39.666 36 54.999s33.666 27.333 54.999 36s45 13 71 13zM659.001 -442.001c22 0 40 8.16699 54 24.5
s21 36.166 21 59.499c0 25.333 -7 46.333 -21 63s-32 25 -54 25c-23.333 0 -42.333 -8.33301 -57 -25s-22 -37.667 -22 -63c0 -23.333 7.33301 -43.166 22 -59.499s33.667 -24.5 57 -24.5z" />
    <glyph glyph-name="uni0694.fina" unicode="&#x694;" horiz-adv-x="855" 
d="M0 -211c46 -13.333 84.502 -22.834 115.502 -28.501s59.5 -8.5 85.5 -8.5c54 0 98 9.5 132 28.5s60.667 44.5 80 76.5s32.5 69 39.5 111s10.5 86.333 10.5 133c0 44.667 -3 89.167 -9 133.5s-15 90.5 -27 138.5s-26.833 98.667 -44.5 152l-60.5 175h236
c23.333 -58.667 43.5 -118.167 60.5 -178.5s30.833 -120.166 41.5 -179.499c2.66699 -13.333 7.16699 -25.666 13.5 -36.999s16.666 -21.333 30.999 -30s33.5 -15.5 57.5 -20.5s55 -7.5 93 -7.5v-272h-26c-19.333 0 -36 1.33301 -50 4s-26.5 6.33398 -37.5 11.001
s-20.667 10.5 -29 17.5s-16.5 15.167 -24.5 24.5l-5 -1c-4.66699 -96.667 -20.5 -179.834 -47.5 -249.501s-62 -127.167 -105 -172.5s-92.333 -78.833 -148 -100.5s-113.834 -32.5 -174.501 -32.5c-32 0 -64.167 3.16699 -96.5 9.5s-69.5 17.166 -111.5 32.499v271z
M872.002 -542.001h-235v211h235v-211z" />
    <glyph glyph-name="uni0695.fina" unicode="&#x695;" horiz-adv-x="855" 
d="M0 -211c46 -13.333 84.502 -22.834 115.502 -28.501s59.5 -8.5 85.5 -8.5c54 0 98 9.5 132 28.5s60.667 44.5 80 76.5s32.5 69 39.5 111s10.5 86.333 10.5 133c0 44.667 -3 89.167 -9 133.5s-15 90.5 -27 138.5s-26.833 98.667 -44.5 152l-60.5 175h236
c23.333 -58.667 43.5 -118.167 60.5 -178.5s30.833 -120.166 41.5 -179.499c2.66699 -13.333 7.16699 -25.666 13.5 -36.999s16.666 -21.333 30.999 -30s33.5 -15.5 57.5 -20.5s55 -7.5 93 -7.5v-272h-26c-19.333 0 -36 1.33301 -50 4s-26.5 6.33398 -37.5 11.001
s-20.667 10.5 -29 17.5s-16.5 15.167 -24.5 24.5l-5 -1c-4.66699 -96.667 -20.5 -179.834 -47.5 -249.501s-62 -127.167 -105 -172.5s-92.333 -78.833 -148 -100.5s-113.834 -32.5 -174.501 -32.5c-32 0 -64.167 3.16699 -96.5 9.5s-69.5 17.166 -111.5 32.499v271z
M917.002 -198.001h174l-239 -365h-144l-245 365h179l139 -206z" />
    <glyph glyph-name="uni0696.fina" unicode="&#x696;" horiz-adv-x="855" 
d="M0 -211c46 -13.333 84.502 -22.834 115.502 -28.501s59.5 -8.5 85.5 -8.5c54 0 98 9.5 132 28.5s60.667 44.5 80 76.5s32.5 69 39.5 111s10.5 86.333 10.5 133c0 44.667 -3 89.167 -9 133.5s-15 90.5 -27 138.5s-26.833 98.667 -44.5 152l-60.5 175h236
c23.333 -58.667 43.5 -118.167 60.5 -178.5s30.833 -120.166 41.5 -179.499c2.66699 -13.333 7.16699 -25.666 13.5 -36.999s16.666 -21.333 30.999 -30s33.5 -15.5 57.5 -20.5s55 -7.5 93 -7.5v-272h-26c-19.333 0 -36 1.33301 -50 4s-26.5 6.33398 -37.5 11.001
s-20.667 10.5 -29 17.5s-16.5 15.167 -24.5 24.5l-5 -1c-4.66699 -96.667 -20.5 -179.834 -47.5 -249.501s-62 -127.167 -105 -172.5s-92.333 -78.833 -148 -100.5s-113.834 -32.5 -174.501 -32.5c-32 0 -64.167 3.16699 -96.5 9.5s-69.5 17.166 -111.5 32.499v271z
M872.002 -542.001h-235v211h235v-211zM304.002 -0.000976562h-235v211h235v-211z" />
    <glyph glyph-name="uni0697.fina" unicode="&#x697;" horiz-adv-x="855" 
d="M0 -211c46 -13.333 84.502 -22.834 115.502 -28.501s59.5 -8.5 85.5 -8.5c54 0 98 9.5 132 28.5s60.667 44.5 80 76.5s32.5 69 39.5 111s10.5 86.333 10.5 133c0 44.667 -3 89.167 -9 133.5s-15 90.5 -27 138.5s-26.833 98.667 -44.5 152l-60.5 175h236
c23.333 -58.667 43.5 -118.167 60.5 -178.5s30.833 -120.166 41.5 -179.499c2.66699 -13.333 7.16699 -25.666 13.5 -36.999s16.666 -21.333 30.999 -30s33.5 -15.5 57.5 -20.5s55 -7.5 93 -7.5v-272h-26c-19.333 0 -36 1.33301 -50 4s-26.5 6.33398 -37.5 11.001
s-20.667 10.5 -29 17.5s-16.5 15.167 -24.5 24.5l-5 -1c-4.66699 -96.667 -20.5 -179.834 -47.5 -249.501s-62 -127.167 -105 -172.5s-92.333 -78.833 -148 -100.5s-113.834 -32.5 -174.501 -32.5c-32 0 -64.167 3.16699 -96.5 9.5s-69.5 17.166 -111.5 32.499v271z
M357.002 914.999h-235v211h235v-211zM699.002 914.999h-235v211h235v-211z" />
    <glyph glyph-name="afii57508" unicode="&#x698;" horiz-adv-x="855" arabic-form="isolated" 
d="M0 -211c46 -13.333 84.499 -22.8271 115.499 -28.4941s59.5 -8.5 85.5 -8.5c54 0 98 9.5 132 28.5s60.667 44.5 80 76.5s32.5 69 39.5 111s10.5 86.333 10.5 133c0 44.667 -3 89.167 -9 133.5s-15 90.5 -27 138.5s-26.833 98.667 -44.5 152l-60.5 175h236
c20.667 -51.333 38.834 -103.333 54.501 -156s28.834 -105.334 39.501 -158.001s18.667 -104.334 24 -155.001s8 -99.334 8 -146.001c0 -106 -12.833 -197.333 -38.5 -274s-60.334 -139.834 -104.001 -189.501s-94.167 -86.334 -151.5 -110.001s-118 -35.5 -182 -35.5
c-32 0 -64.167 3.16699 -96.5 9.5s-69.5 17.166 -111.5 32.499v271zM355.999 915.006h-235v211h235v-211zM698.999 915.006h-235v211h235v-211zM527.999 1195.01h-235v211h235v-211z" />
    <glyph glyph-name="uni0699.fina" unicode="&#x699;" horiz-adv-x="855" 
d="M0 -211c46 -13.333 84.502 -22.834 115.502 -28.501s59.5 -8.5 85.5 -8.5c54 0 98 9.5 132 28.5s60.667 44.5 80 76.5s32.5 69 39.5 111s10.5 86.333 10.5 133c0 44.667 -3 89.167 -9 133.5s-15 90.5 -27 138.5s-26.833 98.667 -44.5 152l-60.5 175h236
c23.333 -58.667 43.5 -118.167 60.5 -178.5s30.833 -120.166 41.5 -179.499c2.66699 -13.333 7.16699 -25.666 13.5 -36.999s16.666 -21.333 30.999 -30s33.5 -15.5 57.5 -20.5s55 -7.5 93 -7.5v-272h-26c-19.333 0 -36 1.33301 -50 4s-26.5 6.33398 -37.5 11.001
s-20.667 10.5 -29 17.5s-16.5 15.167 -24.5 24.5l-5 -1c-4.66699 -96.667 -20.5 -179.834 -47.5 -249.501s-62 -127.167 -105 -172.5s-92.333 -78.833 -148 -100.5s-113.834 -32.5 -174.501 -32.5c-32 0 -64.167 3.16699 -96.5 9.5s-69.5 17.166 -111.5 32.499v271z
M356.002 914.999h-235v211h235v-211zM699.002 914.999h-235v211h235v-211zM356.002 1195h-235v211h235v-211zM699.002 1195h-235v211h235v-211z" />
    <glyph glyph-name="uni069A.init" unicode="&#x69a;" horiz-adv-x="1710" 
d="M392 88c-18.667 -21.333 -39.1689 -39.3301 -61.502 -53.9971s-45.333 -26.334 -69 -35.001s-47.334 -14.834 -71.001 -18.501s-46.167 -5.5 -67.5 -5.5h-123c-23.333 0 -40.833 12.167 -52.5 36.5s-17.5 57.5 -17.5 99.5s5.83301 75.167 17.5 99.5
s29.167 36.5 52.5 36.5h133c16.667 0 34.834 1.33301 54.501 4s37.834 8.66699 54.501 18s30.667 22.833 42 40.5s17 41.167 17 70.5v284h212v-218c0 -34 1 -63.5 3 -88.5s7.66699 -45.667 17 -62s23.666 -28.5 42.999 -36.5s46.333 -12 81 -12c20 0 39.333 1.16699 58 3.5
s35.167 7.83301 49.5 16.5s26 21.834 35 39.501s13.5 42.167 13.5 73.5v284h213v-215c0 -34.667 1 -64.667 3 -90s7.83301 -46.333 17.5 -63s25 -29 46 -37s50.5 -12 88.5 -12c20.667 0 39.834 1 57.501 3s33 7.5 46 16.5s23.167 22.333 30.5 40s11 42.167 11 73.5v475h213
v-488c0 -78.667 -10 -143.334 -30 -194.001s-46.667 -90.667 -80 -120s-71.666 -49.666 -114.999 -60.999s-88.333 -17 -135 -17c-26 0 -51.667 1.83301 -77 5.5s-49.333 9.66699 -72 18s-43.667 19.833 -63 34.5s-36 33 -50 55h-4c-18 -21.333 -38.167 -39.333 -60.5 -54
s-45.333 -26.334 -69 -35.001s-47.167 -14.834 -70.5 -18.501s-45.333 -5.5 -66 -5.5c-60 0 -110.5 8.66699 -151.5 26s-74.167 46.333 -99.5 87h-4zM1040 885.003h-235v211h235v-211zM1040 -370.997h-235v211h235v-211z" />
    <glyph glyph-name="uni069A.medi" unicode="&#x69a;" horiz-adv-x="1710" 
d="M392 88c-18.667 -21.333 -39.168 -39.3301 -61.501 -53.9971s-45.333 -26.334 -69 -35.001s-47.334 -14.834 -71.001 -18.501s-46.167 -5.5 -67.5 -5.5h-123c-23.333 0 -40.833 12.167 -52.5 36.5s-17.5 57.5 -17.5 99.5s5.83301 75.167 17.5 99.5s29.167 36.5 52.5 36.5
h133c16.667 0 34.834 1.33301 54.501 4s37.834 8.66699 54.501 18s30.667 22.833 42 40.5s17 41.167 17 70.5v284h212v-218c0 -34 1 -63.5 3 -88.5s7.66699 -45.667 17 -62s23.666 -28.5 42.999 -36.5s46.333 -12 81 -12c20 0 39.333 1.16699 58 3.5
s35.167 7.83301 49.5 16.5s26 21.834 35 39.501s13.5 42.167 13.5 73.5v284h213v-215c0 -34.667 1 -64.667 3 -90s7.83301 -46.333 17.5 -63s25 -29 46 -37s50.5 -12 88.5 -12c20.667 0 39.834 1 57.501 3s33 7.5 46 16.5s23.167 22.333 30.5 40s11 42.167 11 73.5v475h213
v-400c0 -35.333 1 -66 3 -92s8.5 -47.5 19.5 -64.5s28 -29.833 51 -38.5s55.5 -13 97.5 -13v-272h-46c-54.667 0 -100.667 7.66699 -138 23s-68 42 -92 80c-17.333 -20.667 -36.166 -37.667 -56.499 -51s-41.5 -23.833 -63.5 -31.5s-44.5 -13 -67.5 -16
s-45.5 -4.5 -67.5 -4.5c-26 0 -51.667 1.83301 -77 5.5s-49.333 9.66699 -72 18s-43.667 19.833 -63 34.5s-36 33 -50 55h-4c-18 -21.333 -38.167 -39.333 -60.5 -54s-45.333 -26.334 -69 -35.001s-47.167 -14.834 -70.5 -18.501s-45.333 -5.5 -66 -5.5
c-60.667 0 -111.334 8.66699 -152.001 26s-73.667 46.333 -99 87h-4zM1040 885.003h-235v211h235v-211zM1040 -370.997h-235v211h235v-211z" />
    <glyph glyph-name="uni069A.fina" unicode="&#x69a;" horiz-adv-x="2394" 
d="M1189 28c-13.333 -184 -64.834 -322.008 -154.501 -414.008s-223.834 -138 -402.501 -138c-91.333 0 -168.833 11.833 -232.5 35.5s-115.667 58.334 -156 104.001s-69.666 102.167 -87.999 169.5s-27.5 145 -27.5 233c0 24 0.666992 48 2 72s3.5 49.333 6.5 76
s6.83301 55.334 11.5 86.001s10.667 64.334 18 101.001h209c-6.66699 -41.333 -12.167 -77.666 -16.5 -108.999s-7.66602 -59.166 -9.99902 -83.499s-4 -46 -5 -65s-1.5 -37.167 -1.5 -54.5c0 -49.333 4.33301 -92.333 13 -129s24 -67 46 -91s52 -41.833 90 -53.5
s86.333 -17.5 145 -17.5c67.333 0 123.666 7.83301 168.999 23.5s81.5 40 108.5 73s46.167 74.833 57.5 125.5s17 111 17 181c0 28.667 -0.833008 57.834 -2.5 87.501s-4.5 62.667 -8.5 99s-8.83301 77.833 -14.5 124.5l-20.5 163h214c7.33301 -64 14 -119.5 20 -166.5
s11 -89.5 15 -127.5c2 -18.667 6.5 -33.667 13.5 -45s17 -20 30 -26s29.167 -10 48.5 -12s42 -3 68 -3c18.667 0 36.667 1.16699 54 3.5s32.833 8 46.5 17s24.667 22.333 33 40s12.5 41.834 12.5 72.501v284h213v-215c0 -34.667 1 -64.667 3 -90s7.83301 -46.333 17.5 -63
s25 -29 46 -37s50.5 -12 88.5 -12c20.667 0 39.834 1 57.501 3s33 7.5 46 16.5s23.167 22.333 30.5 40s11 42.167 11 73.5v475h213v-400c0 -35.333 1 -66 3 -92s8.5 -47.5 19.5 -64.5s28 -29.833 51 -38.5s55.5 -13 97.5 -13v-272h-46c-54.667 0 -100.667 7.66699 -138 23
s-68 42 -92 80c-17.333 -20.667 -36.166 -37.667 -56.5 -51c-20.333 -13.333 -41.5 -23.833 -63.5 -31.5s-44.5 -13 -67.5 -16s-45.5 -4.5 -67.5 -4.5c-26 0 -51.833 1.66699 -77.5 5s-50 9.5 -73 18.5s-44 21.333 -63 37s-34.833 35.5 -47.5 59.5h-6
c-12 -19.333 -26.5 -36.333 -43.5 -51s-35.833 -27.167 -56.5 -37.5s-42.167 -18.166 -64.5 -23.499s-44.5 -8 -66.5 -8c-32 0 -62.333 3.66699 -91 11s-54.667 22 -78 44zM1724 884.992h-235v211h235v-211zM1724 -371.008h-235v211h235v-211z" />
    <glyph glyph-name="uni069B.init" unicode="&#x69b;" horiz-adv-x="1710" 
d="M392 88c-18.667 -21.333 -39.1689 -39.3301 -61.502 -53.9971s-45.333 -26.334 -69 -35.001s-47.334 -14.834 -71.001 -18.501s-46.167 -5.5 -67.5 -5.5h-123c-23.333 0 -40.833 12.167 -52.5 36.5s-17.5 57.5 -17.5 99.5s5.83301 75.167 17.5 99.5
s29.167 36.5 52.5 36.5h133c16.667 0 34.834 1.33301 54.501 4s37.834 8.66699 54.501 18s30.667 22.833 42 40.5s17 41.167 17 70.5v284h212v-218c0 -34 1 -63.5 3 -88.5s7.66699 -45.667 17 -62s23.666 -28.5 42.999 -36.5s46.333 -12 81 -12c20 0 39.333 1.16699 58 3.5
s35.167 7.83301 49.5 16.5s26 21.834 35 39.501s13.5 42.167 13.5 73.5v284h213v-215c0 -34.667 1 -64.667 3 -90s7.83301 -46.333 17.5 -63s25 -29 46 -37s50.5 -12 88.5 -12c20.667 0 39.834 1 57.501 3s33 7.5 46 16.5s23.167 22.333 30.5 40s11 42.167 11 73.5v475h213
v-488c0 -78.667 -10 -143.334 -30 -194.001s-46.667 -90.667 -80 -120s-71.666 -49.666 -114.999 -60.999s-88.333 -17 -135 -17c-26 0 -51.667 1.83301 -77 5.5s-49.333 9.66699 -72 18s-43.667 19.833 -63 34.5s-36 33 -50 55h-4c-18 -21.333 -38.167 -39.333 -60.5 -54
s-45.333 -26.334 -69 -35.001s-47.167 -14.834 -70.5 -18.501s-45.333 -5.5 -66 -5.5c-60 0 -110.5 8.66699 -151.5 26s-74.167 46.333 -99.5 87h-4zM975.998 -100.997h235v-211h-235v211zM632.998 -100.997h235v-211h-235v211zM803.998 -380.997h235v-211h-235v211z" />
    <glyph glyph-name="uni069B.medi" unicode="&#x69b;" horiz-adv-x="1710" 
d="M392 88c-18.667 -21.333 -39.168 -39.3301 -61.501 -53.9971s-45.333 -26.334 -69 -35.001s-47.334 -14.834 -71.001 -18.501s-46.167 -5.5 -67.5 -5.5h-123c-23.333 0 -40.833 12.167 -52.5 36.5s-17.5 57.5 -17.5 99.5s5.83301 75.167 17.5 99.5s29.167 36.5 52.5 36.5
h133c16.667 0 34.834 1.33301 54.501 4s37.834 8.66699 54.501 18s30.667 22.833 42 40.5s17 41.167 17 70.5v284h212v-218c0 -34 1 -63.5 3 -88.5s7.66699 -45.667 17 -62s23.666 -28.5 42.999 -36.5s46.333 -12 81 -12c20 0 39.333 1.16699 58 3.5
s35.167 7.83301 49.5 16.5s26 21.834 35 39.501s13.5 42.167 13.5 73.5v284h213v-215c0 -34.667 1 -64.667 3 -90s7.83301 -46.333 17.5 -63s25 -29 46 -37s50.5 -12 88.5 -12c20.667 0 39.834 1 57.501 3s33 7.5 46 16.5s23.167 22.333 30.5 40s11 42.167 11 73.5v475h213
v-400c0 -35.333 1 -66 3 -92s8.5 -47.5 19.5 -64.5s28 -29.833 51 -38.5s55.5 -13 97.5 -13v-272h-46c-54.667 0 -100.667 7.66699 -138 23s-68 42 -92 80c-17.333 -20.667 -36.166 -37.667 -56.499 -51s-41.5 -23.833 -63.5 -31.5s-44.5 -13 -67.5 -16
s-45.5 -4.5 -67.5 -4.5c-26 0 -51.667 1.83301 -77 5.5s-49.333 9.66699 -72 18s-43.667 19.833 -63 34.5s-36 33 -50 55h-4c-18 -21.333 -38.167 -39.333 -60.5 -54s-45.333 -26.334 -69 -35.001s-47.167 -14.834 -70.5 -18.501s-45.333 -5.5 -66 -5.5
c-60.667 0 -111.334 8.66699 -152.001 26s-73.667 46.333 -99 87h-4zM975.999 -100.997h235v-211h-235v211zM632.999 -100.997h235v-211h-235v211zM803.999 -380.997h235v-211h-235v211z" />
    <glyph glyph-name="uni069B.fina" unicode="&#x69b;" horiz-adv-x="2394" 
d="M1189 28c-13.333 -184 -64.834 -322.008 -154.501 -414.008s-223.834 -138 -402.501 -138c-91.333 0 -168.833 11.833 -232.5 35.5s-115.667 58.334 -156 104.001s-69.666 102.167 -87.999 169.5s-27.5 145 -27.5 233c0 24 0.666992 48 2 72s3.5 49.333 6.5 76
s6.83301 55.334 11.5 86.001s10.667 64.334 18 101.001h209c-6.66699 -41.333 -12.167 -77.666 -16.5 -108.999s-7.66602 -59.166 -9.99902 -83.499s-4 -46 -5 -65s-1.5 -37.167 -1.5 -54.5c0 -49.333 4.33301 -92.333 13 -129s24 -67 46 -91s52 -41.833 90 -53.5
s86.333 -17.5 145 -17.5c67.333 0 123.666 7.83301 168.999 23.5s81.5 40 108.5 73s46.167 74.833 57.5 125.5s17 111 17 181c0 28.667 -0.833008 57.834 -2.5 87.501s-4.5 62.667 -8.5 99s-8.83301 77.833 -14.5 124.5l-20.5 163h214c7.33301 -64 14 -119.5 20 -166.5
s11 -89.5 15 -127.5c2 -18.667 6.5 -33.667 13.5 -45s17 -20 30 -26s29.167 -10 48.5 -12s42 -3 68 -3c18.667 0 36.667 1.16699 54 3.5s32.833 8 46.5 17s24.667 22.333 33 40s12.5 41.834 12.5 72.501v284h213v-215c0 -34.667 1 -64.667 3 -90s7.83301 -46.333 17.5 -63
s25 -29 46 -37s50.5 -12 88.5 -12c20.667 0 39.834 1 57.501 3s33 7.5 46 16.5s23.167 22.333 30.5 40s11 42.167 11 73.5v475h213v-400c0 -35.333 1 -66 3 -92s8.5 -47.5 19.5 -64.5s28 -29.833 51 -38.5s55.5 -13 97.5 -13v-272h-46c-54.667 0 -100.667 7.66699 -138 23
s-68 42 -92 80c-17.333 -20.667 -36.166 -37.667 -56.5 -51c-20.333 -13.333 -41.5 -23.833 -63.5 -31.5s-44.5 -13 -67.5 -16s-45.5 -4.5 -67.5 -4.5c-26 0 -51.833 1.66699 -77.5 5s-50 9.5 -73 18.5s-44 21.333 -63 37s-34.833 35.5 -47.5 59.5h-6
c-12 -19.333 -26.5 -36.333 -43.5 -51s-35.833 -27.167 -56.5 -37.5s-42.167 -18.166 -64.5 -23.499s-44.5 -8 -66.5 -8c-32 0 -62.333 3.66699 -91 11s-54.667 22 -78 44zM1660 -101.008h235v-211h-235v211zM1317 -101.008h235v-211h-235v211zM1488 -381.008h235v-211h-235
v211z" />
    <glyph glyph-name="uni069C.init" unicode="&#x69c;" horiz-adv-x="1710" 
d="M392 88c-18.667 -21.333 -39.1689 -39.3301 -61.502 -53.9971s-45.333 -26.334 -69 -35.001s-47.334 -14.834 -71.001 -18.501s-46.167 -5.5 -67.5 -5.5h-123c-23.333 0 -40.833 12.167 -52.5 36.5s-17.5 57.5 -17.5 99.5s5.83301 75.167 17.5 99.5
s29.167 36.5 52.5 36.5h133c16.667 0 34.834 1.33301 54.501 4s37.834 8.66699 54.501 18s30.667 22.833 42 40.5s17 41.167 17 70.5v284h212v-218c0 -34 1 -63.5 3 -88.5s7.66699 -45.667 17 -62s23.666 -28.5 42.999 -36.5s46.333 -12 81 -12c20 0 39.333 1.16699 58 3.5
s35.167 7.83301 49.5 16.5s26 21.834 35 39.501s13.5 42.167 13.5 73.5v284h213v-215c0 -34.667 1 -64.667 3 -90s7.83301 -46.333 17.5 -63s25 -29 46 -37s50.5 -12 88.5 -12c20.667 0 39.834 1 57.501 3s33 7.5 46 16.5s23.167 22.333 30.5 40s11 42.167 11 73.5v475h213
v-488c0 -78.667 -10 -143.334 -30 -194.001s-46.667 -90.667 -80 -120s-71.666 -49.666 -114.999 -60.999s-88.333 -17 -135 -17c-26 0 -51.667 1.83301 -77 5.5s-49.333 9.66699 -72 18s-43.667 19.833 -63 34.5s-36 33 -50 55h-4c-18 -21.333 -38.167 -39.333 -60.5 -54
s-45.333 -26.334 -69 -35.001s-47.167 -14.834 -70.5 -18.501s-45.333 -5.5 -66 -5.5c-60 0 -110.5 8.66699 -151.5 26s-74.167 46.333 -99.5 87h-4zM975.998 -100.997h235v-211h-235v211zM632.998 -100.997h235v-211h-235v211zM803.998 -380.997h235v-211h-235v211z
M867.998 885.003h-235v211h235v-211zM1211 885.003h-235v211h235v-211zM1040 1165h-235v211h235v-211z" />
    <glyph glyph-name="uni069C.medi" unicode="&#x69c;" horiz-adv-x="1710" 
d="M392 88c-18.667 -21.333 -39.168 -39.3301 -61.501 -53.9971s-45.333 -26.334 -69 -35.001s-47.334 -14.834 -71.001 -18.501s-46.167 -5.5 -67.5 -5.5h-123c-23.333 0 -40.833 12.167 -52.5 36.5s-17.5 57.5 -17.5 99.5s5.83301 75.167 17.5 99.5s29.167 36.5 52.5 36.5
h133c16.667 0 34.834 1.33301 54.501 4s37.834 8.66699 54.501 18s30.667 22.833 42 40.5s17 41.167 17 70.5v284h212v-218c0 -34 1 -63.5 3 -88.5s7.66699 -45.667 17 -62s23.666 -28.5 42.999 -36.5s46.333 -12 81 -12c20 0 39.333 1.16699 58 3.5
s35.167 7.83301 49.5 16.5s26 21.834 35 39.501s13.5 42.167 13.5 73.5v284h213v-215c0 -34.667 1 -64.667 3 -90s7.83301 -46.333 17.5 -63s25 -29 46 -37s50.5 -12 88.5 -12c20.667 0 39.834 1 57.501 3s33 7.5 46 16.5s23.167 22.333 30.5 40s11 42.167 11 73.5v475h213
v-400c0 -35.333 1 -66 3 -92s8.5 -47.5 19.5 -64.5s28 -29.833 51 -38.5s55.5 -13 97.5 -13v-272h-46c-54.667 0 -100.667 7.66699 -138 23s-68 42 -92 80c-17.333 -20.667 -36.166 -37.667 -56.499 -51s-41.5 -23.833 -63.5 -31.5s-44.5 -13 -67.5 -16
s-45.5 -4.5 -67.5 -4.5c-26 0 -51.667 1.83301 -77 5.5s-49.333 9.66699 -72 18s-43.667 19.833 -63 34.5s-36 33 -50 55h-4c-18 -21.333 -38.167 -39.333 -60.5 -54s-45.333 -26.334 -69 -35.001s-47.167 -14.834 -70.5 -18.501s-45.333 -5.5 -66 -5.5
c-60.667 0 -111.334 8.66699 -152.001 26s-73.667 46.333 -99 87h-4zM975.999 -100.997h235v-211h-235v211zM632.999 -100.997h235v-211h-235v211zM803.999 -380.997h235v-211h-235v211zM867.999 885.003h-235v211h235v-211zM1211 885.003h-235v211h235v-211zM1040 1165
h-235v211h235v-211z" />
    <glyph glyph-name="uni069C.fina" unicode="&#x69c;" horiz-adv-x="2394" 
d="M1189 28c-13.333 -184 -64.834 -322.008 -154.501 -414.008s-223.834 -138 -402.501 -138c-91.333 0 -168.833 11.833 -232.5 35.5s-115.667 58.334 -156 104.001s-69.666 102.167 -87.999 169.5s-27.5 145 -27.5 233c0 24 0.666992 48 2 72s3.5 49.333 6.5 76
s6.83301 55.334 11.5 86.001s10.667 64.334 18 101.001h209c-6.66699 -41.333 -12.167 -77.666 -16.5 -108.999s-7.66602 -59.166 -9.99902 -83.499s-4 -46 -5 -65s-1.5 -37.167 -1.5 -54.5c0 -49.333 4.33301 -92.333 13 -129s24 -67 46 -91s52 -41.833 90 -53.5
s86.333 -17.5 145 -17.5c67.333 0 123.666 7.83301 168.999 23.5s81.5 40 108.5 73s46.167 74.833 57.5 125.5s17 111 17 181c0 28.667 -0.833008 57.834 -2.5 87.501s-4.5 62.667 -8.5 99s-8.83301 77.833 -14.5 124.5l-20.5 163h214c7.33301 -64 14 -119.5 20 -166.5
s11 -89.5 15 -127.5c2 -18.667 6.5 -33.667 13.5 -45s17 -20 30 -26s29.167 -10 48.5 -12s42 -3 68 -3c18.667 0 36.667 1.16699 54 3.5s32.833 8 46.5 17s24.667 22.333 33 40s12.5 41.834 12.5 72.501v284h213v-215c0 -34.667 1 -64.667 3 -90s7.83301 -46.333 17.5 -63
s25 -29 46 -37s50.5 -12 88.5 -12c20.667 0 39.834 1 57.501 3s33 7.5 46 16.5s23.167 22.333 30.5 40s11 42.167 11 73.5v475h213v-400c0 -35.333 1 -66 3 -92s8.5 -47.5 19.5 -64.5s28 -29.833 51 -38.5s55.5 -13 97.5 -13v-272h-46c-54.667 0 -100.667 7.66699 -138 23
s-68 42 -92 80c-17.333 -20.667 -36.166 -37.667 -56.5 -51c-20.333 -13.333 -41.5 -23.833 -63.5 -31.5s-44.5 -13 -67.5 -16s-45.5 -4.5 -67.5 -4.5c-26 0 -51.833 1.66699 -77.5 5s-50 9.5 -73 18.5s-44 21.333 -63 37s-34.833 35.5 -47.5 59.5h-6
c-12 -19.333 -26.5 -36.333 -43.5 -51s-35.833 -27.167 -56.5 -37.5s-42.167 -18.166 -64.5 -23.499s-44.5 -8 -66.5 -8c-32 0 -62.333 3.66699 -91 11s-54.667 22 -78 44zM1660 -101.008h235v-211h-235v211zM1317 -101.008h235v-211h-235v211zM1488 -381.008h235v-211h-235
v211zM1542 884.992h-235v211h235v-211zM1885 884.992h-235v211h235v-211zM1714 1164.99h-235v211h235v-211z" />
    <glyph glyph-name="uni069D.init" unicode="&#x69d;" horiz-adv-x="2052" 
d="M393 95c-16 -23.333 -34.501 -42.668 -55.501 -58.001s-43 -27.666 -66 -36.999s-46.167 -15.833 -69.5 -19.5s-45 -5.5 -65 -5.5h-137c-23.333 0 -40.833 12.167 -52.5 36.5s-17.5 57.5 -17.5 99.5s5.83301 75.167 17.5 99.5s29.167 36.5 52.5 36.5h143
c20.667 0 39.834 1.83301 57.501 5.5s33 9 46 16s23.167 16 30.5 27s11 24.167 11 39.5c0 13.333 -0.833008 29 -2.5 47s-4.5 38.667 -8.5 62s-8.83301 50.166 -14.5 80.499s-12.5 64.5 -20.5 102.5h222c10.667 -60.667 19.667 -115.167 27 -163.5
s13.666 -91.833 18.999 -130.5c0.666992 -6 2.16699 -13.333 4.5 -22s7.33301 -17.167 15 -25.5s18.5 -16 32.5 -23s33 -11.5 57 -13.5c18 47.333 40.333 97.5 67 150.5s57.667 105.333 93 157s74.666 101.334 117.999 149.001s90.833 89.5 142.5 125.5
s107.167 64.833 166.5 86.5s122.666 32.5 189.999 32.5c80 0 150.333 -13.667 211 -41s111.334 -65.333 152.001 -114s71.167 -106.667 91.5 -174s30.5 -141.333 30.5 -222c0 -68.667 -7.66699 -127.167 -23 -175.5s-37 -88.5 -65 -120.5s-61.667 -57 -101 -75
s-82.666 -31.5 -129.999 -40.5s-98 -14.667 -152 -17s-110 -3.5 -168 -3.5c-120 0 -223 0.333008 -309 1s-158.333 2 -217 4s-105.667 5.33301 -141 10s-62.333 11 -81 19c-21.333 9.33301 -39.666 21.333 -54.999 36s-29 34 -41 58h-5zM1379 675.998
c-68 0 -130.334 -12.1699 -187.001 -36.5029s-107.667 -56.666 -153 -96.999s-85.333 -86.5 -120 -138.5s-64 -106 -88 -162c11.333 -0.666992 27.5 -1.16699 48.5 -1.5s44.833 -0.666016 71.5 -0.999023s54.834 -0.666016 84.501 -0.999023s58.667 -0.5 87 -0.5h80.5h64
c85.333 0 154.166 1.33301 206.499 4s92.833 9 121.5 19s47.834 25 57.501 45s14.5 47.667 14.5 83c0 47.333 -6.66699 89 -20 125s-32.5 66 -57.5 90s-55.167 42 -90.5 54s-75.333 18 -120 18zM1105 -371.005h-235v211h235v-211zM1447 -371.005h-235v211h235v-211z" />
    <glyph glyph-name="uni069D.medi" unicode="&#x69d;" horiz-adv-x="2052" 
d="M393 95c-16 -23.333 -34.4951 -42.668 -55.4951 -58.001s-43 -27.666 -66 -36.999s-46.167 -15.833 -69.5 -19.5s-45 -5.5 -65 -5.5h-137c-23.333 0 -40.833 12.167 -52.5 36.5s-17.5 57.5 -17.5 99.5s5.83301 75.167 17.5 99.5s29.167 36.5 52.5 36.5h143
c20.667 0 39.834 1.83301 57.501 5.5s33 9 46 16s23.167 16 30.5 27s11 24.167 11 39.5c0 13.333 -0.833008 29 -2.5 47s-4.5 38.667 -8.5 62s-8.83301 50.166 -14.5 80.499s-12.5 64.5 -20.5 102.5h222c10.667 -60.667 19.667 -115.167 27 -163.5
s13.666 -91.833 18.999 -130.5c0.666992 -6 2.16699 -13.333 4.5 -22s7.33301 -17.167 15 -25.5s18.5 -16 32.5 -23s33 -11.5 57 -13.5c18 47.333 40.333 97.5 67 150.5s57.667 105.333 93 157s74.666 101.334 117.999 149.001s90.833 89.5 142.5 125.5
s107.167 64.833 166.5 86.5s122.666 32.5 189.999 32.5c78.667 0 147.834 -13.167 207.501 -39.5s109.667 -63 150 -110s71.166 -103 92.499 -168s33 -136.5 35 -214.5c0.666992 -27.333 2.66699 -51.666 6 -72.999s10.666 -39.333 21.999 -54s28.166 -25.667 50.499 -33
s53.166 -11 92.499 -11v-272h-46c-53.333 0 -100.166 8.83301 -140.499 26.5s-69.833 50.167 -88.5 97.5h-6c-26 -32 -58.333 -57 -97 -75s-81.167 -31.167 -127.5 -39.5s-95.5 -13.333 -147.5 -15s-104.333 -2.5 -157 -2.5c-120 0 -223 0.166992 -309 0.5
s-158.333 1.66602 -217 3.99902s-105.667 5.83301 -141 10.5s-62.333 11 -81 19c-20.667 9.33301 -38.834 21.333 -54.501 36s-29.5 34 -41.5 58h-5zM1379 675.998c-68 0 -130.334 -12.1699 -187.001 -36.5029s-107.667 -56.666 -153 -96.999s-85.333 -86.5 -120 -138.5
s-64 -106 -88 -162c11.333 -0.666992 27.5 -1.16699 48.5 -1.5s44.833 -0.666016 71.5 -0.999023s54.834 -0.666016 84.501 -0.999023s58.667 -0.5 87 -0.5h80.5h64c85.333 0 154.166 1.33301 206.499 4s92.833 9 121.5 19s47.834 25 57.501 45s14.5 47.667 14.5 83
c0 47.333 -6.66699 89 -20 125s-32.5 66 -57.5 90s-55.167 42 -90.5 54s-75.333 18 -120 18zM1105 -371.005h-235v211h235v-211zM1447 -371.005h-235v211h235v-211z" />
    <glyph glyph-name="uni069D.fina" unicode="&#x69d;" horiz-adv-x="2736" 
d="M1192 50c-9.33301 -191.333 -59.8281 -334.837 -151.495 -430.504s-228.5 -143.5 -410.5 -143.5c-90.667 0 -167.834 11.667 -231.501 35s-115.5 57.833 -155.5 103.5s-69.167 102.334 -87.5 170.001s-27.5 145.5 -27.5 233.5c0 24 0.666992 48 2 72s3.5 49.5 6.5 76.5
s6.83301 55.667 11.5 86s10.667 63.833 18 100.5h209l-15.5 -109.5c-4.33301 -31 -7.66602 -58.667 -9.99902 -83s-4.16602 -46.333 -5.49902 -66s-2 -38.5 -2 -56.5c0 -48.667 4.5 -91 13.5 -127s24.667 -66 47 -90s52.666 -41.833 90.999 -53.5
s87.166 -17.5 146.499 -17.5c68 0 124.167 7.83301 168.5 23.5s79.833 40.334 106.5 74.001s45.334 76.5 56.001 128.5s16 114.333 16 187c0 27.333 -0.833008 56.333 -2.5 87s-4.83398 64.667 -9.50098 102s-11 78.5 -19 123.5s-18.333 95.5 -31 151.5h222
c10.667 -60.667 19.667 -114.667 27 -162l18 -119c2 -13.333 4 -25 6 -35s6.5 -19 13.5 -27s17.5 -14.833 31.5 -20.5s33.667 -10.5 59 -14.5c18 47.333 40.333 97.5 67 150.5s57.667 105.333 93 157s74.666 101.334 117.999 149.001s90.833 89.5 142.5 125.5
s107.167 64.833 166.5 86.5s122.666 32.5 189.999 32.5c78.667 0 147.834 -13.167 207.5 -39.5c59.667 -26.333 109.667 -63 150 -110s71.166 -103 92.5 -168c21.333 -65 33 -136.5 35 -214.5c0.666992 -27.333 2.66699 -51.666 6 -72.999s10.666 -39.333 22 -54
c11.333 -14.667 28.166 -25.667 50.5 -33c22.333 -7.33301 53.5 -11 93.5 -11v-272h-47c-53.333 0 -100.166 8.83301 -140.499 26.5s-69.833 50.167 -88.5 97.5h-6c-26 -32 -58.333 -57 -97 -75s-81.167 -31.167 -127.5 -39.5s-95.5 -13.333 -147.5 -15
s-104.333 -2.5 -157 -2.5c-78.667 0 -147.667 0.166992 -207 0.5s-111.333 0.833008 -156 1.5s-82.834 1.66699 -114.501 3s-58.834 3.33301 -81.501 6s-41.834 5.83398 -57.501 9.50098s-29.834 8.16699 -42.501 13.5s-25.167 12.666 -37.5 21.999s-23.166 19 -32.499 29z
M2062 675.996c-68 0 -130.334 -12.1699 -187.001 -36.5029s-107.667 -56.666 -153 -96.999s-85.333 -86.5 -120 -138.5s-64 -106 -88 -162c11.333 -0.666992 27.5 -1.16699 48.5 -1.5s44.833 -0.666016 71.5 -0.999023s54.834 -0.666016 84.501 -0.999023
s58.667 -0.5 87 -0.5h80.5h64c85.333 0 154.166 1.33301 206.499 4s92.833 9 121.5 19s47.834 25 57.501 45s14.5 47.667 14.5 83c0 47.333 -6.66699 89 -20 125s-32.5 66 -57.5 90s-55.167 42 -90.5 54s-75.333 18 -120 18zM1799 -371.007h-235v211h235v-211z
M2141 -371.007h-235v211h235v-211z" />
    <glyph glyph-name="uni069E.init" unicode="&#x69e;" horiz-adv-x="2052" 
d="M393 95c-16 -23.333 -34.501 -42.668 -55.501 -58.001s-43 -27.666 -66 -36.999s-46.167 -15.833 -69.5 -19.5s-45 -5.5 -65 -5.5h-137c-23.333 0 -40.833 12.167 -52.5 36.5s-17.5 57.5 -17.5 99.5s5.83301 75.167 17.5 99.5s29.167 36.5 52.5 36.5h143
c20.667 0 39.834 1.83301 57.501 5.5s33 9 46 16s23.167 16 30.5 27s11 24.167 11 39.5c0 13.333 -0.833008 29 -2.5 47s-4.5 38.667 -8.5 62s-8.83301 50.166 -14.5 80.499s-12.5 64.5 -20.5 102.5h222c10.667 -60.667 19.667 -115.167 27 -163.5
s13.666 -91.833 18.999 -130.5c0.666992 -6 2.16699 -13.333 4.5 -22s7.33301 -17.167 15 -25.5s18.5 -16 32.5 -23s33 -11.5 57 -13.5c18 47.333 40.333 97.5 67 150.5s57.667 105.333 93 157s74.666 101.334 117.999 149.001s90.833 89.5 142.5 125.5
s107.167 64.833 166.5 86.5s122.666 32.5 189.999 32.5c80 0 150.333 -13.667 211 -41s111.334 -65.333 152.001 -114s71.167 -106.667 91.5 -174s30.5 -141.333 30.5 -222c0 -68.667 -7.66699 -127.167 -23 -175.5s-37 -88.5 -65 -120.5s-61.667 -57 -101 -75
s-82.666 -31.5 -129.999 -40.5s-98 -14.667 -152 -17s-110 -3.5 -168 -3.5c-120 0 -223 0.333008 -309 1s-158.333 2 -217 4s-105.667 5.33301 -141 10s-62.333 11 -81 19c-21.333 9.33301 -39.666 21.333 -54.999 36s-29 34 -41 58h-5zM1379 675.998
c-68 0 -130.334 -12.1699 -187.001 -36.5029s-107.667 -56.666 -153 -96.999s-85.333 -86.5 -120 -138.5s-64 -106 -88 -162c11.333 -0.666992 27.5 -1.16699 48.5 -1.5s44.833 -0.666016 71.5 -0.999023s54.834 -0.666016 84.501 -0.999023s58.667 -0.5 87 -0.5h80.5h64
c85.333 0 154.166 1.33301 206.499 4s92.833 9 121.5 19s47.834 25 57.501 45s14.5 47.667 14.5 83c0 47.333 -6.66699 89 -20 125s-32.5 66 -57.5 90s-55.167 42 -90.5 54s-75.333 18 -120 18zM989.998 1086h-235v211h235v-211zM1333 1086h-235v211h235v-211zM1162 1366
h-235v211h235v-211z" />
    <glyph glyph-name="uni069E.medi" unicode="&#x69e;" horiz-adv-x="2052" 
d="M393 95c-16 -23.333 -34.4951 -42.668 -55.4951 -58.001s-43 -27.666 -66 -36.999s-46.167 -15.833 -69.5 -19.5s-45 -5.5 -65 -5.5h-137c-23.333 0 -40.833 12.167 -52.5 36.5s-17.5 57.5 -17.5 99.5s5.83301 75.167 17.5 99.5s29.167 36.5 52.5 36.5h143
c20.667 0 39.834 1.83301 57.501 5.5s33 9 46 16s23.167 16 30.5 27s11 24.167 11 39.5c0 13.333 -0.833008 29 -2.5 47s-4.5 38.667 -8.5 62s-8.83301 50.166 -14.5 80.499s-12.5 64.5 -20.5 102.5h222c10.667 -60.667 19.667 -115.167 27 -163.5
s13.666 -91.833 18.999 -130.5c0.666992 -6 2.16699 -13.333 4.5 -22s7.33301 -17.167 15 -25.5s18.5 -16 32.5 -23s33 -11.5 57 -13.5c18 47.333 40.333 97.5 67 150.5s57.667 105.333 93 157s74.666 101.334 117.999 149.001s90.833 89.5 142.5 125.5
s107.167 64.833 166.5 86.5s122.666 32.5 189.999 32.5c78.667 0 147.834 -13.167 207.501 -39.5s109.667 -63 150 -110s71.166 -103 92.499 -168s33 -136.5 35 -214.5c0.666992 -27.333 2.66699 -51.666 6 -72.999s10.666 -39.333 21.999 -54s28.166 -25.667 50.499 -33
s53.166 -11 92.499 -11v-272h-46c-53.333 0 -100.166 8.83301 -140.499 26.5s-69.833 50.167 -88.5 97.5h-6c-26 -32 -58.333 -57 -97 -75s-81.167 -31.167 -127.5 -39.5s-95.5 -13.333 -147.5 -15s-104.333 -2.5 -157 -2.5c-120 0 -223 0.166992 -309 0.5
s-158.333 1.66602 -217 3.99902s-105.667 5.83301 -141 10.5s-62.333 11 -81 19c-20.667 9.33301 -38.834 21.333 -54.501 36s-29.5 34 -41.5 58h-5zM1379 675.998c-68 0 -130.334 -12.1699 -187.001 -36.5029s-107.667 -56.666 -153 -96.999s-85.333 -86.5 -120 -138.5
s-64 -106 -88 -162c11.333 -0.666992 27.5 -1.16699 48.5 -1.5s44.833 -0.666016 71.5 -0.999023s54.834 -0.666016 84.501 -0.999023s58.667 -0.5 87 -0.5h80.5h64c85.333 0 154.166 1.33301 206.499 4s92.833 9 121.5 19s47.834 25 57.501 45s14.5 47.667 14.5 83
c0 47.333 -6.66699 89 -20 125s-32.5 66 -57.5 90s-55.167 42 -90.5 54s-75.333 18 -120 18zM990.004 1086h-235v211h235v-211zM1333 1086h-235v211h235v-211zM1162 1366h-235v211h235v-211z" />
    <glyph glyph-name="uni069E.fina" unicode="&#x69e;" horiz-adv-x="2736" 
d="M1192 50c-9.33301 -191.333 -59.8281 -334.837 -151.495 -430.504s-228.5 -143.5 -410.5 -143.5c-90.667 0 -167.834 11.667 -231.501 35s-115.5 57.833 -155.5 103.5s-69.167 102.334 -87.5 170.001s-27.5 145.5 -27.5 233.5c0 24 0.666992 48 2 72s3.5 49.5 6.5 76.5
s6.83301 55.667 11.5 86s10.667 63.833 18 100.5h209l-15.5 -109.5c-4.33301 -31 -7.66602 -58.667 -9.99902 -83s-4.16602 -46.333 -5.49902 -66s-2 -38.5 -2 -56.5c0 -48.667 4.5 -91 13.5 -127s24.667 -66 47 -90s52.666 -41.833 90.999 -53.5
s87.166 -17.5 146.499 -17.5c68 0 124.167 7.83301 168.5 23.5s79.833 40.334 106.5 74.001s45.334 76.5 56.001 128.5s16 114.333 16 187c0 27.333 -0.833008 56.333 -2.5 87s-4.83398 64.667 -9.50098 102s-11 78.5 -19 123.5s-18.333 95.5 -31 151.5h222
c10.667 -60.667 19.667 -114.667 27 -162l18 -119c2 -13.333 4 -25 6 -35s6.5 -19 13.5 -27s17.5 -14.833 31.5 -20.5s33.667 -10.5 59 -14.5c18 47.333 40.333 97.5 67 150.5s57.667 105.333 93 157s74.666 101.334 117.999 149.001s90.833 89.5 142.5 125.5
s107.167 64.833 166.5 86.5s122.666 32.5 189.999 32.5c78.667 0 147.834 -13.167 207.5 -39.5c59.667 -26.333 109.667 -63 150 -110s71.166 -103 92.5 -168c21.333 -65 33 -136.5 35 -214.5c0.666992 -27.333 2.66699 -51.666 6 -72.999s10.666 -39.333 22 -54
c11.333 -14.667 28.166 -25.667 50.5 -33c22.333 -7.33301 53.5 -11 93.5 -11v-272h-47c-53.333 0 -100.166 8.83301 -140.499 26.5s-69.833 50.167 -88.5 97.5h-6c-26 -32 -58.333 -57 -97 -75s-81.167 -31.167 -127.5 -39.5s-95.5 -13.333 -147.5 -15
s-104.333 -2.5 -157 -2.5c-78.667 0 -147.667 0.166992 -207 0.5s-111.333 0.833008 -156 1.5s-82.834 1.66699 -114.501 3s-58.834 3.33301 -81.501 6s-41.834 5.83398 -57.501 9.50098s-29.834 8.16699 -42.501 13.5s-25.167 12.666 -37.5 21.999s-23.166 19 -32.499 29z
M2062 675.996c-68 0 -130.334 -12.1699 -187.001 -36.5029s-107.667 -56.666 -153 -96.999s-85.333 -86.5 -120 -138.5s-64 -106 -88 -162c11.333 -0.666992 27.5 -1.16699 48.5 -1.5s44.833 -0.666016 71.5 -0.999023s54.834 -0.666016 84.501 -0.999023
s58.667 -0.5 87 -0.5h80.5h64c85.333 0 154.166 1.33301 206.499 4s92.833 9 121.5 19s47.834 25 57.501 45s14.5 47.667 14.5 83c0 47.333 -6.66699 89 -20 125s-32.5 66 -57.5 90s-55.167 42 -90.5 54s-75.333 18 -120 18zM1674 1085.99h-235v211h235v-211zM2017 1085.99
h-235v211h235v-211zM1846 1365.99h-235v211h235v-211z" />
    <glyph glyph-name="uni069F.init" unicode="&#x69f;" horiz-adv-x="1710" 
d="M900 -33c-54 0 -116.835 0.332031 -188.502 0.999023s-146.5 1.5 -224.5 2.5l-234 3c-78 1 -150.333 1.5 -217 1.5h-36c-23.333 0 -40.833 12.167 -52.5 36.5s-17.5 57.5 -17.5 99.5s5.83301 75.167 17.5 99.5s29.167 36.5 52.5 36.5h298v1269h213v-873l6 -2
c31.333 43.333 66.333 83.833 105 121.5s80.5 70.334 125.5 98.001s93.167 49.5 144.5 65.5s105.333 24 162 24c80 0 150.333 -13.667 211 -41s111.334 -65.333 152.001 -114s71.167 -106.667 91.5 -174s30.5 -141.333 30.5 -222c0 -68.667 -7.66699 -127.167 -23 -175.5
s-37 -88.5 -65 -120.5s-61.667 -57 -101 -75s-82.666 -31.5 -129.999 -40.5s-98 -14.667 -152 -17s-110 -3.5 -168 -3.5zM1037 675.999c-68 0 -130.334 -12.1699 -187.001 -36.5029s-107.667 -56.666 -153 -96.999s-85.333 -86.5 -120 -138.5s-64 -106 -88 -162
c11.333 -0.666992 27.5 -1.16699 48.5 -1.5s44.833 -0.666016 71.5 -0.999023s54.834 -0.666016 84.501 -0.999023s58.667 -0.5 87 -0.5h80.5h64c85.333 0 154.166 1.33301 206.499 4s92.833 9 121.5 19s47.834 25 57.501 45s14.5 47.667 14.5 83
c0 47.333 -6.66699 89 -20 125s-32.5 66 -57.5 90s-55.167 42 -90.5 54s-75.333 18 -120 18zM942.997 1096h-235v211h235v-211zM1286 1096h-235v211h235v-211zM1115 1376h-235v211h235v-211z" />
    <glyph glyph-name="uni069F.medi" unicode="&#x69f;" horiz-adv-x="1710" 
d="M1054 950c78.667 0 147.836 -13.1689 207.503 -39.502s109.667 -63 150 -110s71.166 -103 92.499 -168s33 -136.5 35 -214.5c0.666992 -27.333 2.66699 -51.666 6 -72.999s10.666 -39.333 21.999 -54s28.166 -25.667 50.499 -33s53.166 -11 92.499 -11v-272h-30
c-56.667 0 -105.667 8.66699 -147 26s-72.666 48 -93.999 92h-6c-28 -30.667 -61.667 -54.5 -101 -71.5s-82.166 -29.5 -128.499 -37.5s-95.333 -12.833 -147 -14.5s-103.834 -2.5 -156.501 -2.5c-54 0 -116.833 0.333008 -188.5 1s-146.5 1.5 -224.5 2.5l-234 3
c-78 1 -150.333 1.5 -217 1.5h-36c-23.333 0 -40.833 12.167 -52.5 36.5s-17.5 57.5 -17.5 99.5s5.83301 75.167 17.5 99.5s29.167 36.5 52.5 36.5h298v1269h213v-873l6 -2c31.333 43.333 66.333 83.833 105 121.5s80.5 70.334 125.5 98.001s93.167 49.5 144.5 65.5
s105.333 24 162 24zM1037 675.998c-68 0 -130.334 -12.1699 -187.001 -36.5029s-107.667 -56.666 -153 -96.999s-85.333 -86.5 -120 -138.5s-64 -106 -88 -162c11.333 -0.666992 27.5 -1.16699 48.5 -1.5s44.833 -0.666016 71.5 -0.999023
s54.834 -0.666016 84.501 -0.999023s58.667 -0.5 87 -0.5h80.5h64c85.333 0 154.166 1.33301 206.499 4s92.833 9 121.5 19s47.834 25 57.501 45s14.5 47.667 14.5 83c0 47.333 -6.66699 89 -20 125s-32.5 66 -57.5 90s-55.167 42 -90.5 54s-75.333 18 -120 18z
M943.001 1096h-235v211h235v-211zM1286 1096h-235v211h235v-211zM1115 1376h-235v211h235v-211z" />
    <glyph glyph-name="uni069F.fina" unicode="&#x69f;" horiz-adv-x="1710" 
d="M298 247l0.00292969 1269h213v-873l6 -2c31.333 43.333 66.333 83.833 105 121.5s80.5 70.334 125.5 98.001s93.167 49.5 144.5 65.5s105.333 24 162 24c78.667 0 147.834 -13.167 207.501 -39.5s109.667 -63 150 -110s71.166 -103 92.499 -168s33 -136.5 35 -214.5
c0.666992 -27.333 2.66699 -51.666 6 -72.999s10.666 -39.333 21.999 -54s28.166 -25.667 50.499 -33s53.166 -11 92.499 -11v-272h-30c-56.667 0 -105.667 8.66699 -147 26s-72.666 48 -93.999 92h-6c-28 -30.667 -61.667 -54.5 -101 -71.5s-82.166 -29.5 -128.499 -37.5
s-95.333 -12.833 -147 -14.5s-103.834 -2.5 -156.501 -2.5c-118 0 -220.667 0.666992 -308 2s-164.333 3.5 -231 6.5s-125.167 6.5 -175.5 10.5s-97.833 8.66699 -142.5 14l-53 275c22.667 -4.66699 47.167 -8.66699 73.5 -12s53 -6 80 -8s53.667 -3.66699 80 -5
s51.166 -2.33301 74.499 -3zM1037 675.998c-68 0 -130.334 -12.1699 -187.001 -36.5029s-107.667 -56.666 -153 -96.999s-85.333 -86.5 -120 -138.5s-64 -106 -88 -162c11.333 -0.666992 27.5 -1.16699 48.5 -1.5s44.833 -0.666016 71.5 -0.999023
s54.834 -0.666016 84.501 -0.999023s58.667 -0.5 87 -0.5h80.5h64c85.333 0 154.166 1.33301 206.499 4s92.833 9 121.5 19s47.834 25 57.501 45s14.5 47.667 14.5 83c0 47.333 -6.66699 89 -20 125s-32.5 66 -57.5 90s-55.167 42 -90.5 54s-75.333 18 -120 18z
M943.002 1096h-235v211h235v-211zM1286 1096h-235v211h235v-211zM1115 1376h-235v211h235v-211z" />
    <glyph glyph-name="uni06A0.init" unicode="&#x6a0;" horiz-adv-x="1198" 
d="M1087 156c-83.333 -36 -161.671 -65.6631 -235.004 -88.9961s-144.166 -41.833 -212.499 -55.5s-135.5 -23.167 -201.5 -28.5s-133.333 -8 -202 -8h-236c-23.333 0 -40.833 12.167 -52.5 36.5s-17.5 57.5 -17.5 99.5s5.83301 75.167 17.5 99.5s29.167 36.5 52.5 36.5h261
l2 6c-27.333 26 -49.666 51.667 -66.999 77s-31 50.166 -41 74.499s-16.833 48.166 -20.5 71.499s-5.5 46.666 -5.5 69.999c0 66 13.5 125.5 40.5 178.5s64.833 98.167 113.5 135.5s106.334 66 173.001 86s139.667 30 219 30c24.667 0 51.334 -1.16699 80.001 -3.5
s62.334 -6.83301 101.001 -13.5v-274c-38 6 -73.5 10.5 -106.5 13.5s-65.5 4.5 -97.5 4.5c-39.333 0 -77.5 -1.33301 -114.5 -4s-70 -9.66699 -99 -21s-52.333 -28.333 -70 -51s-26.5 -54 -26.5 -94c0 -10.667 2.5 -24.834 7.5 -42.501s15.333 -37.667 31 -60
s38.167 -47 67.5 -74s68 -54.833 116 -83.5c40.667 8 81.334 17.333 122.001 28s82.167 23 124.5 37s86.166 30 131.499 48s93.666 38.667 144.999 62v-292zM486.995 1136h-235v211h235v-211zM829.995 1136h-235v211h235v-211zM658.995 1416h-235v211h235v-211z" />
    <glyph glyph-name="uni06A0.medi" unicode="&#x6a0;" horiz-adv-x="1197" 
d="M1129 -25c-90.667 0 -174.84 11.999 -252.507 35.999s-147.167 60 -208.5 108h-6c-68 -44.667 -145.5 -79.834 -232.5 -105.501s-187.5 -38.5 -301.5 -38.5h-91c-23.333 0 -40.833 12.167 -52.5 36.5s-17.5 57.5 -17.5 99.5s5.83301 75.167 17.5 99.5
s29.167 36.5 52.5 36.5h101c64.667 0 122.334 3.83301 173.001 11.5s97.334 18.5 140.001 32.5c-29.333 26 -57 52.167 -83 78.5s-51.167 53.666 -75.5 81.999s-48.166 57.833 -71.499 88.5s-46.666 63.334 -69.999 98.001v257l110 19.5c40.667 7 82.5 13.667 125.5 20
s86.167 11.5 129.5 15.5s84.666 6 123.999 6c26.667 0 54.834 -1.33301 84.501 -4s58.834 -7.33398 87.501 -14.001s56 -16.167 82 -28.5s48.667 -28.166 68 -47.499s34.833 -42.666 46.5 -69.999s17.5 -59.333 17.5 -96c0 -27.333 -3.16699 -57.166 -9.5 -89.499
s-15.666 -65.833 -27.999 -100.5s-27.666 -69.5 -45.999 -104.5s-39.5 -68.5 -63.5 -100.5c46 -18 94.5 -31.5 145.5 -40.5s108.5 -13.5 172.5 -13.5v-272h-68zM670.994 411.999c22 18 41.668 37.666 59.001 58.999s32.166 42.333 44.499 63s21.833 40 28.5 58
s10 32.667 10 44c0 27.333 -15.333 46.333 -46 57s-73.667 16 -129 16c-38 0 -78.833 -2.16699 -122.5 -6.5s-84.5 -10.166 -122.5 -17.499v-8c38.667 -52 80.5 -99.667 125.5 -143s94.5 -84 148.5 -122h4zM543.995 1116h-235v211h235v-211zM886.995 1116h-235v211h235v-211
zM715.995 1396h-235v211h235v-211z" />
    <glyph glyph-name="uni06A0.fina" unicode="&#x6a0;" horiz-adv-x="1197" 
d="M1197 -13h-49.0039c-59.333 0 -116.833 6.16699 -172.5 18.5s-109.667 30 -162 53s-102.666 50.333 -150.999 82s-94.833 67.167 -139.5 106.5c-54.667 -25.333 -99.334 -50.666 -134.001 -75.999s-61.834 -50.166 -81.501 -74.499s-33.167 -47.833 -40.5 -70.5
s-11 -44.334 -11 -65.001c0 -32.667 7.83301 -62.834 23.5 -90.501s40 -51.5 73 -71.5s75.333 -35.667 127 -47s113.5 -17 185.5 -17c32.667 0 64.5 1.16699 95.5 3.5s62.833 6.33301 95.5 12s66.334 13 101.001 22s72 20.167 112 33.5v-261
c-39.333 -12.667 -76.166 -23.334 -110.499 -32.001s-67.666 -15.834 -99.999 -21.501s-64.333 -9.66699 -96 -12s-64.5 -3.5 -98.5 -3.5c-202.667 0 -356.167 40 -460.5 120s-156.5 196.333 -156.5 349c0 48 5.5 94 16.5 138s28.5 85.833 52.5 125.5s55.333 77.5 94 113.5
s85.667 70.333 141 103c-36 44.667 -70.333 90.834 -103 138.501s-65 100.834 -97 159.501v257c28 4.66699 61.5 10.667 100.5 18s80.5 14.333 124.5 21s88.833 12.334 134.5 17.001s89.167 7 130.5 7c27.333 0 55.833 -1.16699 85.5 -3.5s58.834 -7 87.501 -14
s55.834 -16.5 81.501 -28.5s48.167 -27.667 67.5 -47s34.666 -42.833 45.999 -70.5s17 -60.167 17 -97.5c0 -26 -3.66699 -55.833 -11 -89.5s-20.5 -68.834 -39.5 -105.501s-44.833 -73.667 -77.5 -111s-74.667 -72.333 -126 -105c59.333 -38 125.333 -66.167 198 -84.5
s148.334 -27.5 227.001 -27.5v-272zM392.996 764c27.333 -45.333 55.834 -87.333 85.501 -126s61.167 -75.667 94.5 -111c47.333 22.667 86.333 44.167 117 64.5s55 39 73 56s30.5 32.5 37.5 46.5s10.5 26 10.5 36c0 23.333 -14.5 40.166 -43.5 50.499
s-71.833 15.5 -128.5 15.5c-38.667 0 -79.834 -2.16699 -123.501 -6.5s-84.5 -10.166 -122.5 -17.499v-8zM543.997 1206h-235v211h235v-211zM886.997 1206h-235v211h235v-211zM715.997 1486h-235v211h235v-211z" />
    <glyph glyph-name="uni06A1.init" unicode="&#x6a1;" horiz-adv-x="1026" 
d="M282 247c-50 38 -89 81.8398 -117 131.507s-42 104.5 -42 164.5c0 34.667 4.33301 70 13 106s21 70.667 37 104s35 64.5 57 93.5s46 54.5 72 76.5s54 39.167 84 51.5s60.667 18.5 92 18.5c36.667 0 71.5 -8.33301 104.5 -25s63.5 -39.5 91.5 -68.5
s53.167 -62.667 75.5 -101s41.333 -79.333 57 -123s27.667 -88.834 36 -135.501s12.5 -92.334 12.5 -137.001c0 -66.667 -9.83301 -123.334 -29.5 -170.001s-46.5 -85.834 -80.5 -117.501s-73.333 -56.834 -118 -75.501s-92.334 -32.834 -143.001 -42.501
s-102.5 -15.834 -155.5 -18.501s-104.5 -4 -154.5 -4h-174c-23.333 0 -40.833 12.167 -52.5 36.5s-17.5 57.5 -17.5 99.5s5.83301 75.167 17.5 99.5s29.167 36.5 52.5 36.5h100c12.667 0 28 -0.5 46 -1.5l53.5 -3c17.667 -1 33.834 -1.83301 48.501 -2.5s25 -1 31 -1z
M466 715.007c-17.333 0 -34 -6.00293 -50 -18.0029s-30 -26.833 -42 -44.5s-21.5 -36.334 -28.5 -56.001s-10.5 -37.5 -10.5 -53.5c0 -12 3.16699 -26.167 9.5 -42.5s19 -34.666 38 -54.999s46.167 -42.666 81.5 -66.999s82 -50.5 140 -78.5
c7.33301 6 13.333 13.833 18 23.5s8.5 19.834 11.5 30.501s5 21.334 6 32.001s1.5 20 1.5 28c0 25.333 -4.83301 55.333 -14.5 90s-22.667 67.667 -39 99s-35 57.833 -56 79.5s-42.833 32.5 -65.5 32.5z" />
    <glyph glyph-name="uni06A1.medi" unicode="&#x6a1;" horiz-adv-x="1026" 
d="M282 247c-50 38 -89.0029 81.834 -117.003 131.501s-42 104.5 -42 164.5c0 34.667 4.33301 70 13 106s21 70.667 37 104s35 64.5 57 93.5s46 54.5 72 76.5s54 39.167 84 51.5s60.667 18.5 92 18.5c36.667 0 71.5 -8.33301 104.5 -25s63.5 -39.5 91.5 -68.5
s53.167 -62.667 75.5 -101s41.333 -79.333 57 -123s27.667 -88.834 36 -135.501s12.5 -92.334 12.5 -137.001c0 -55.333 -8.33301 -105.333 -25 -150c14 -1.33301 27.667 -2.33301 41 -3s27.5 -1.33398 42.5 -2.00098s31.5 -1 49.5 -1h63v-272h-35
c-29.333 0 -60.5 1.16699 -93.5 3.5s-66.167 5.83301 -99.5 10.5s-66.166 10.834 -98.499 18.501s-62.5 16.834 -90.5 27.501c-35.333 -14 -72.166 -25 -110.499 -33s-76.5 -14 -114.5 -18s-75 -6.5 -111 -7.5s-69 -1.5 -99 -1.5h-174c-23.333 0 -40.833 12.167 -52.5 36.5
s-17.5 57.5 -17.5 99.5s5.83301 75.167 17.5 99.5s29.167 36.5 52.5 36.5h100c12.667 0 28 -0.5 46 -1.5l53.5 -3c17.667 -1 33.834 -1.83301 48.501 -2.5s25 -1 31 -1zM465.997 715.001c-17.333 0 -34 -6.00293 -50 -18.0029s-30 -26.833 -42 -44.5
s-21.5 -36.334 -28.5 -56.001s-10.5 -37.5 -10.5 -53.5c0 -12 3.16699 -26.167 9.5 -42.5s19 -34.666 38 -54.999s46.167 -42.666 81.5 -66.999s82 -50.5 140 -78.5c7.33301 6 13.333 13.833 18 23.5s8.5 19.834 11.5 30.501s5 21.334 6 32.001s1.5 20 1.5 28
c0 25.333 -4.83301 55.333 -14.5 90s-22.667 67.667 -39 99s-35 57.833 -56 79.5s-42.833 32.5 -65.5 32.5z" />
    <glyph glyph-name="uni06A1.fina" unicode="&#x6a1;" horiz-adv-x="2052" 
d="M375 664l-14.499 -66.499c-4.33301 -19.667 -7.83301 -38 -10.5 -55s-4.66699 -33.5 -6 -49.5s-2 -32.333 -2 -49c0 -52 10.833 -92.167 32.5 -120.5s57.5 -49 107.5 -62s115.667 -20.667 197 -23s181.666 -3.5 300.999 -3.5h141.5c37 0 67.333 0.166992 91 0.5
s42.334 0.833008 56.001 1.5s25.834 1.33398 36.501 2.00098l3 8c-50 38 -89 81.667 -117 131s-42 104.333 -42 165c0 35.333 4.33301 70.833 13 106.5s21 70.167 37 103.5s35 64.666 57 93.999s46 54.833 72 76.5s54 38.667 84 51s60.667 18.5 92 18.5
c36.667 0 71.5 -8.33301 104.5 -25s63.5 -39.5 91.5 -68.5s53.167 -62.833 75.5 -101.5s41.333 -79.834 57 -123.501s27.667 -88.667 36 -135s12.5 -91.833 12.5 -136.5c0 -28 -2.16699 -54.167 -6.5 -78.5s-10.833 -48.166 -19.5 -71.499
c14 -1.33301 27.667 -2.33301 41 -3s27.666 -1.33398 42.999 -2.00098s32.166 -1 50.499 -1h62.5v-272h-35c-29.333 0 -60.833 1.16699 -94.5 3.5s-67.5 5.83301 -101.5 10.5s-67.167 10.834 -99.5 18.501s-61.5 16.5 -87.5 26.5c-36 -14.667 -76.167 -26.5 -120.5 -35.5
s-91 -15.833 -140 -20.5s-100 -7.66699 -153 -9s-105.833 -2 -158.5 -2h-93c-85.333 0 -164 0.5 -236 1.5s-137.5 4.66699 -196.5 11s-111.667 16.166 -158 29.499s-85.833 32.333 -118.5 57c-26.667 20 -48.834 42.667 -66.501 68s-31.667 52.166 -42 80.499
s-17.666 57.833 -21.999 88.5s-6.5 61 -6.5 91c0 46.667 3.5 92.334 10.5 137.001s16.167 89 27.5 133h214zM1492 715.001c-17.333 0 -34 -5.83594 -50 -17.5029s-30 -26.334 -42 -44.001s-21.5 -36.5 -28.5 -56.5s-10.5 -38 -10.5 -54c0 -12 3.16699 -26.167 9.5 -42.5
s19 -34.666 38 -54.999s46.167 -42.666 81.5 -66.999s82 -50.5 140 -78.5c7.33301 6 13.333 13.833 18 23.5s8.5 19.834 11.5 30.501s5 21.334 6 32.001s1.5 20 1.5 28c0 25.333 -4.83301 55.333 -14.5 90s-22.667 67.667 -39 99s-35 57.833 -56 79.5
s-42.833 32.5 -65.5 32.5z" />
    <glyph glyph-name="uni06A2.init" unicode="&#x6a2;" horiz-adv-x="1026" 
d="M282 247c-50 38 -89 81.8398 -117 131.507s-42 104.5 -42 164.5c0 34.667 4.33301 70 13 106s21 70.667 37 104s35 64.5 57 93.5s46 54.5 72 76.5s54 39.167 84 51.5s60.667 18.5 92 18.5c36.667 0 71.5 -8.33301 104.5 -25s63.5 -39.5 91.5 -68.5
s53.167 -62.667 75.5 -101s41.333 -79.333 57 -123s27.667 -88.834 36 -135.501s12.5 -92.334 12.5 -137.001c0 -66.667 -9.83301 -123.334 -29.5 -170.001s-46.5 -85.834 -80.5 -117.501s-73.333 -56.834 -118 -75.501s-92.334 -32.834 -143.001 -42.501
s-102.5 -15.834 -155.5 -18.501s-104.5 -4 -154.5 -4h-174c-23.333 0 -40.833 12.167 -52.5 36.5s-17.5 57.5 -17.5 99.5s5.83301 75.167 17.5 99.5s29.167 36.5 52.5 36.5h100c12.667 0 28 -0.5 46 -1.5l53.5 -3c17.667 -1 33.834 -1.83301 48.501 -2.5s25 -1 31 -1z
M466 715.007c-17.333 0 -34 -6.00293 -50 -18.0029s-30 -26.833 -42 -44.5s-21.5 -36.334 -28.5 -56.001s-10.5 -37.5 -10.5 -53.5c0 -12 3.16699 -26.167 9.5 -42.5s19 -34.666 38 -54.999s46.167 -42.666 81.5 -66.999s82 -50.5 140 -78.5
c7.33301 6 13.333 13.833 18 23.5s8.5 19.834 11.5 30.501s5 21.334 6 32.001s1.5 20 1.5 28c0 25.333 -4.83301 55.333 -14.5 90s-22.667 67.667 -39 99s-35 57.833 -56 79.5s-42.833 32.5 -65.5 32.5zM644 -370.996h-235v211h235v-211z" />
    <glyph glyph-name="uni06A2.medi" unicode="&#x6a2;" horiz-adv-x="1026" 
d="M282 247c-50 38 -89.0029 81.834 -117.003 131.501s-42 104.5 -42 164.5c0 34.667 4.33301 70 13 106s21 70.667 37 104s35 64.5 57 93.5s46 54.5 72 76.5s54 39.167 84 51.5s60.667 18.5 92 18.5c36.667 0 71.5 -8.33301 104.5 -25s63.5 -39.5 91.5 -68.5
s53.167 -62.667 75.5 -101s41.333 -79.333 57 -123s27.667 -88.834 36 -135.501s12.5 -92.334 12.5 -137.001c0 -55.333 -8.33301 -105.333 -25 -150c14 -1.33301 27.667 -2.33301 41 -3s27.5 -1.33398 42.5 -2.00098s31.5 -1 49.5 -1h63v-272h-35
c-29.333 0 -60.5 1.16699 -93.5 3.5s-66.167 5.83301 -99.5 10.5s-66.166 10.834 -98.499 18.501s-62.5 16.834 -90.5 27.501c-35.333 -14 -72.166 -25 -110.499 -33s-76.5 -14 -114.5 -18s-75 -6.5 -111 -7.5s-69 -1.5 -99 -1.5h-174c-23.333 0 -40.833 12.167 -52.5 36.5
s-17.5 57.5 -17.5 99.5s5.83301 75.167 17.5 99.5s29.167 36.5 52.5 36.5h100c12.667 0 28 -0.5 46 -1.5l53.5 -3c17.667 -1 33.834 -1.83301 48.501 -2.5s25 -1 31 -1zM465.997 715.001c-17.333 0 -34 -6.00293 -50 -18.0029s-30 -26.833 -42 -44.5
s-21.5 -36.334 -28.5 -56.001s-10.5 -37.5 -10.5 -53.5c0 -12 3.16699 -26.167 9.5 -42.5s19 -34.666 38 -54.999s46.167 -42.666 81.5 -66.999s82 -50.5 140 -78.5c7.33301 6 13.333 13.833 18 23.5s8.5 19.834 11.5 30.501s5 21.334 6 32.001s1.5 20 1.5 28
c0 25.333 -4.83301 55.333 -14.5 90s-22.667 67.667 -39 99s-35 57.833 -56 79.5s-42.833 32.5 -65.5 32.5zM643.997 -371.002h-235v211h235v-211z" />
    <glyph glyph-name="uni06A2.fina" unicode="&#x6a2;" horiz-adv-x="2052" 
d="M375 664l-14.499 -66.499c-4.33301 -19.667 -7.83301 -38 -10.5 -55s-4.66699 -33.5 -6 -49.5s-2 -32.333 -2 -49c0 -52 10.833 -92.167 32.5 -120.5s57.5 -49 107.5 -62s115.667 -20.667 197 -23s181.666 -3.5 300.999 -3.5h141.5c37 0 67.333 0.166992 91 0.5
s42.334 0.833008 56.001 1.5s25.834 1.33398 36.501 2.00098l3 8c-50 38 -89 81.667 -117 131s-42 104.333 -42 165c0 35.333 4.33301 70.833 13 106.5s21 70.167 37 103.5s35 64.666 57 93.999s46 54.833 72 76.5s54 38.667 84 51s60.667 18.5 92 18.5
c36.667 0 71.5 -8.33301 104.5 -25s63.5 -39.5 91.5 -68.5s53.167 -62.833 75.5 -101.5s41.333 -79.834 57 -123.501s27.667 -88.667 36 -135s12.5 -91.833 12.5 -136.5c0 -28 -2.16699 -54.167 -6.5 -78.5s-10.833 -48.166 -19.5 -71.499
c14 -1.33301 27.667 -2.33301 41 -3s27.666 -1.33398 42.999 -2.00098s32.166 -1 50.499 -1h62.5v-272h-35c-29.333 0 -60.833 1.16699 -94.5 3.5s-67.5 5.83301 -101.5 10.5s-67.167 10.834 -99.5 18.501s-61.5 16.5 -87.5 26.5c-36 -14.667 -76.167 -26.5 -120.5 -35.5
s-91 -15.833 -140 -20.5s-100 -7.66699 -153 -9s-105.833 -2 -158.5 -2h-93c-85.333 0 -164 0.5 -236 1.5s-137.5 4.66699 -196.5 11s-111.667 16.166 -158 29.499s-85.833 32.333 -118.5 57c-26.667 20 -48.834 42.667 -66.501 68s-31.667 52.166 -42 80.499
s-17.666 57.833 -21.999 88.5s-6.5 61 -6.5 91c0 46.667 3.5 92.334 10.5 137.001s16.167 89 27.5 133h214zM1492 715.001c-17.333 0 -34 -5.83594 -50 -17.5029s-30 -26.334 -42 -44.001s-21.5 -36.5 -28.5 -56.5s-10.5 -38 -10.5 -54c0 -12 3.16699 -26.167 9.5 -42.5
s19 -34.666 38 -54.999s46.167 -42.666 81.5 -66.999s82 -50.5 140 -78.5c7.33301 6 13.333 13.833 18 23.5s8.5 19.834 11.5 30.501s5 21.334 6 32.001s1.5 20 1.5 28c0 25.333 -4.83301 55.333 -14.5 90s-22.667 67.667 -39 99s-35 57.833 -56 79.5
s-42.833 32.5 -65.5 32.5zM1670 -371.002h-235v211h235v-211z" />
    <glyph glyph-name="uni06A3.init" unicode="&#x6a3;" horiz-adv-x="1026" 
d="M282 247c-50 38 -89 81.8398 -117 131.507s-42 104.5 -42 164.5c0 34.667 4.33301 70 13 106s21 70.667 37 104s35 64.5 57 93.5s46 54.5 72 76.5s54 39.167 84 51.5s60.667 18.5 92 18.5c36.667 0 71.5 -8.33301 104.5 -25s63.5 -39.5 91.5 -68.5
s53.167 -62.667 75.5 -101s41.333 -79.333 57 -123s27.667 -88.834 36 -135.501s12.5 -92.334 12.5 -137.001c0 -66.667 -9.83301 -123.334 -29.5 -170.001s-46.5 -85.834 -80.5 -117.501s-73.333 -56.834 -118 -75.501s-92.334 -32.834 -143.001 -42.501
s-102.5 -15.834 -155.5 -18.501s-104.5 -4 -154.5 -4h-174c-23.333 0 -40.833 12.167 -52.5 36.5s-17.5 57.5 -17.5 99.5s5.83301 75.167 17.5 99.5s29.167 36.5 52.5 36.5h100c12.667 0 28 -0.5 46 -1.5l53.5 -3c17.667 -1 33.834 -1.83301 48.501 -2.5s25 -1 31 -1z
M466 715.007c-17.333 0 -34 -6.00293 -50 -18.0029s-30 -26.833 -42 -44.5s-21.5 -36.334 -28.5 -56.001s-10.5 -37.5 -10.5 -53.5c0 -12 3.16699 -26.167 9.5 -42.5s19 -34.666 38 -54.999s46.167 -42.666 81.5 -66.999s82 -50.5 140 -78.5
c7.33301 6 13.333 13.833 18 23.5s8.5 19.834 11.5 30.501s5 21.334 6 32.001s1.5 20 1.5 28c0 25.333 -4.83301 55.333 -14.5 90s-22.667 67.667 -39 99s-35 57.833 -56 79.5s-42.833 32.5 -65.5 32.5zM644 -370.996h-235v211h235v-211zM577 1200h-235v211h235v-211z" />
    <glyph glyph-name="uni06A3.medi" unicode="&#x6a3;" horiz-adv-x="1026" 
d="M282 247c-50 38 -89.0029 81.834 -117.003 131.501s-42 104.5 -42 164.5c0 34.667 4.33301 70 13 106s21 70.667 37 104s35 64.5 57 93.5s46 54.5 72 76.5s54 39.167 84 51.5s60.667 18.5 92 18.5c36.667 0 71.5 -8.33301 104.5 -25s63.5 -39.5 91.5 -68.5
s53.167 -62.667 75.5 -101s41.333 -79.333 57 -123s27.667 -88.834 36 -135.501s12.5 -92.334 12.5 -137.001c0 -55.333 -8.33301 -105.333 -25 -150c14 -1.33301 27.667 -2.33301 41 -3s27.5 -1.33398 42.5 -2.00098s31.5 -1 49.5 -1h63v-272h-35
c-29.333 0 -60.5 1.16699 -93.5 3.5s-66.167 5.83301 -99.5 10.5s-66.166 10.834 -98.499 18.501s-62.5 16.834 -90.5 27.501c-35.333 -14 -72.166 -25 -110.499 -33s-76.5 -14 -114.5 -18s-75 -6.5 -111 -7.5s-69 -1.5 -99 -1.5h-174c-23.333 0 -40.833 12.167 -52.5 36.5
s-17.5 57.5 -17.5 99.5s5.83301 75.167 17.5 99.5s29.167 36.5 52.5 36.5h100c12.667 0 28 -0.5 46 -1.5l53.5 -3c17.667 -1 33.834 -1.83301 48.501 -2.5s25 -1 31 -1zM465.997 715.001c-17.333 0 -34 -6.00293 -50 -18.0029s-30 -26.833 -42 -44.5
s-21.5 -36.334 -28.5 -56.001s-10.5 -37.5 -10.5 -53.5c0 -12 3.16699 -26.167 9.5 -42.5s19 -34.666 38 -54.999s46.167 -42.666 81.5 -66.999s82 -50.5 140 -78.5c7.33301 6 13.333 13.833 18 23.5s8.5 19.834 11.5 30.501s5 21.334 6 32.001s1.5 20 1.5 28
c0 25.333 -4.83301 55.333 -14.5 90s-22.667 67.667 -39 99s-35 57.833 -56 79.5s-42.833 32.5 -65.5 32.5zM643.997 -371.002h-235v211h235v-211zM576.997 1200h-235v211h235v-211z" />
    <glyph glyph-name="uni06A3.fina" unicode="&#x6a3;" horiz-adv-x="2052" 
d="M375 664l-14.499 -66.499c-4.33301 -19.667 -7.83301 -38 -10.5 -55s-4.66699 -33.5 -6 -49.5s-2 -32.333 -2 -49c0 -52 10.833 -92.167 32.5 -120.5s57.5 -49 107.5 -62s115.667 -20.667 197 -23s181.666 -3.5 300.999 -3.5h141.5c37 0 67.333 0.166992 91 0.5
s42.334 0.833008 56.001 1.5s25.834 1.33398 36.501 2.00098l3 8c-50 38 -89 81.667 -117 131s-42 104.333 -42 165c0 35.333 4.33301 70.833 13 106.5s21 70.167 37 103.5s35 64.666 57 93.999s46 54.833 72 76.5s54 38.667 84 51s60.667 18.5 92 18.5
c36.667 0 71.5 -8.33301 104.5 -25s63.5 -39.5 91.5 -68.5s53.167 -62.833 75.5 -101.5s41.333 -79.834 57 -123.501s27.667 -88.667 36 -135s12.5 -91.833 12.5 -136.5c0 -28 -2.16699 -54.167 -6.5 -78.5s-10.833 -48.166 -19.5 -71.499
c14 -1.33301 27.667 -2.33301 41 -3s27.666 -1.33398 42.999 -2.00098s32.166 -1 50.499 -1h62.5v-272h-35c-29.333 0 -60.833 1.16699 -94.5 3.5s-67.5 5.83301 -101.5 10.5s-67.167 10.834 -99.5 18.501s-61.5 16.5 -87.5 26.5c-36 -14.667 -76.167 -26.5 -120.5 -35.5
s-91 -15.833 -140 -20.5s-100 -7.66699 -153 -9s-105.833 -2 -158.5 -2h-93c-85.333 0 -164 0.5 -236 1.5s-137.5 4.66699 -196.5 11s-111.667 16.166 -158 29.499s-85.833 32.333 -118.5 57c-26.667 20 -48.834 42.667 -66.501 68s-31.667 52.166 -42 80.499
s-17.666 57.833 -21.999 88.5s-6.5 61 -6.5 91c0 46.667 3.5 92.334 10.5 137.001s16.167 89 27.5 133h214zM1492 715.001c-17.333 0 -34 -5.83594 -50 -17.5029s-30 -26.334 -42 -44.001s-21.5 -36.5 -28.5 -56.5s-10.5 -38 -10.5 -54c0 -12 3.16699 -26.167 9.5 -42.5
s19 -34.666 38 -54.999s46.167 -42.666 81.5 -66.999s82 -50.5 140 -78.5c7.33301 6 13.333 13.833 18 23.5s8.5 19.834 11.5 30.501s5 21.334 6 32.001s1.5 20 1.5 28c0 25.333 -4.83301 55.333 -14.5 90s-22.667 67.667 -39 99s-35 57.833 -56 79.5
s-42.833 32.5 -65.5 32.5zM1116 -371.002h-235v211h235v-211zM1600 1200h-235v211h235v-211z" />
    <glyph glyph-name="afii57505" unicode="&#x6a4;" horiz-adv-x="2052" arabic-form="isolated" 
d="M1492 715c-17.333 0 -34 -5.83594 -50 -17.5029s-30 -26.334 -42 -44.001s-21.5 -36.5 -28.5 -56.5s-10.5 -38 -10.5 -54c0 -12 3.16699 -26.167 9.5 -42.5s19 -34.666 38 -54.999s46.167 -42.666 81.5 -66.999s82 -50.5 140 -78.5c7.33301 6 13.333 13.833 18 23.5
s8.5 19.834 11.5 30.501s5 21.334 6 32.001s1.5 20 1.5 28c0 25.333 -4.83301 55.333 -14.5 90s-22.667 67.667 -39 99s-35 57.833 -56 79.5s-42.833 32.5 -65.5 32.5zM375 663.997l-14.4971 -66.4951c-4.33301 -19.667 -7.83301 -38 -10.5 -55s-4.66699 -33.5 -6 -49.5
s-2 -32.333 -2 -49c0 -52 10.833 -92.167 32.5 -120.5s57.5 -49 107.5 -62s115.667 -20.667 197 -23s181.666 -3.5 300.999 -3.5h141.5c37 0 67.333 0.166992 91 0.5s42.334 0.833008 56.001 1.5s25.834 1.33398 36.501 2.00098l3 8c-50 38 -89 81.667 -117 131
s-42 104.333 -42 165c0 35.333 4.33301 70.833 13 106.5s21 70.167 37 103.5s35 64.666 57 93.999s46 54.833 72 76.5s54 38.667 84 51s60.667 18.5 92 18.5c36.667 0 71.5 -8.33301 104.5 -25s63.5 -39.5 91.5 -68.5s53.167 -62.833 75.5 -101.5
s41.333 -79.834 57 -123.501s27.667 -88.667 36 -135s12.5 -91.833 12.5 -136.5c0 -64.667 -9 -120.334 -27 -167.001s-43.833 -86.167 -77.5 -118.5s-74.834 -58.333 -123.501 -78s-103.334 -34.834 -164.001 -45.501s-126.834 -17.834 -198.501 -21.501
s-147.834 -5.5 -228.501 -5.5h-93c-85.333 0 -164 0.5 -236 1.5s-137.5 4.66699 -196.5 11s-111.667 16.166 -158 29.499s-85.833 32.333 -118.5 57c-26.667 20 -48.834 42.667 -66.501 68s-31.667 52.166 -42 80.499s-17.666 57.833 -21.999 88.5s-6.5 61 -6.5 91
c0 46.667 3.5 92.334 10.5 137.001s16.167 89 27.5 133h214zM1428 1200h-235v211h235v-211zM1771 1200h-235v211h235v-211zM1600 1480h-235v211h235v-211z" />
    <glyph glyph-name="uni06A5.init" unicode="&#x6a5;" horiz-adv-x="1026" 
d="M282 247c-50 38 -89 81.8398 -117 131.507s-42 104.5 -42 164.5c0 34.667 4.33301 70 13 106s21 70.667 37 104s35 64.5 57 93.5s46 54.5 72 76.5s54 39.167 84 51.5s60.667 18.5 92 18.5c36.667 0 71.5 -8.33301 104.5 -25s63.5 -39.5 91.5 -68.5
s53.167 -62.667 75.5 -101s41.333 -79.333 57 -123s27.667 -88.834 36 -135.501s12.5 -92.334 12.5 -137.001c0 -66.667 -9.83301 -123.334 -29.5 -170.001s-46.5 -85.834 -80.5 -117.501s-73.333 -56.834 -118 -75.501s-92.334 -32.834 -143.001 -42.501
s-102.5 -15.834 -155.5 -18.501s-104.5 -4 -154.5 -4h-174c-23.333 0 -40.833 12.167 -52.5 36.5s-17.5 57.5 -17.5 99.5s5.83301 75.167 17.5 99.5s29.167 36.5 52.5 36.5h100c12.667 0 28 -0.5 46 -1.5l53.5 -3c17.667 -1 33.834 -1.83301 48.501 -2.5s25 -1 31 -1z
M466 715.007c-17.333 0 -34 -6.00293 -50 -18.0029s-30 -26.833 -42 -44.5s-21.5 -36.334 -28.5 -56.001s-10.5 -37.5 -10.5 -53.5c0 -12 3.16699 -26.167 9.5 -42.5s19 -34.666 38 -54.999s46.167 -42.666 81.5 -66.999s82 -50.5 140 -78.5
c7.33301 6 13.333 13.833 18 23.5s8.5 19.834 11.5 30.501s5 21.334 6 32.001s1.5 20 1.5 28c0 25.333 -4.83301 55.333 -14.5 90s-22.667 67.667 -39 99s-35 57.833 -56 79.5s-42.833 32.5 -65.5 32.5zM580 -100.996h235v-211h-235v211zM237 -100.996h235v-211h-235v211z
M408 -380.996h235v-211h-235v211z" />
    <glyph glyph-name="uni06A5.medi" unicode="&#x6a5;" horiz-adv-x="1026" 
d="M282 247c-50 38 -89.0029 81.834 -117.003 131.501s-42 104.5 -42 164.5c0 34.667 4.33301 70 13 106s21 70.667 37 104s35 64.5 57 93.5s46 54.5 72 76.5s54 39.167 84 51.5s60.667 18.5 92 18.5c36.667 0 71.5 -8.33301 104.5 -25s63.5 -39.5 91.5 -68.5
s53.167 -62.667 75.5 -101s41.333 -79.333 57 -123s27.667 -88.834 36 -135.501s12.5 -92.334 12.5 -137.001c0 -55.333 -8.33301 -105.333 -25 -150c14 -1.33301 27.667 -2.33301 41 -3s27.5 -1.33398 42.5 -2.00098s31.5 -1 49.5 -1h63v-272h-35
c-29.333 0 -60.5 1.16699 -93.5 3.5s-66.167 5.83301 -99.5 10.5s-66.166 10.834 -98.499 18.501s-62.5 16.834 -90.5 27.501c-35.333 -14 -72.166 -25 -110.499 -33s-76.5 -14 -114.5 -18s-75 -6.5 -111 -7.5s-69 -1.5 -99 -1.5h-174c-23.333 0 -40.833 12.167 -52.5 36.5
s-17.5 57.5 -17.5 99.5s5.83301 75.167 17.5 99.5s29.167 36.5 52.5 36.5h100c12.667 0 28 -0.5 46 -1.5l53.5 -3c17.667 -1 33.834 -1.83301 48.501 -2.5s25 -1 31 -1zM465.997 715.001c-17.333 0 -34 -6.00293 -50 -18.0029s-30 -26.833 -42 -44.5
s-21.5 -36.334 -28.5 -56.001s-10.5 -37.5 -10.5 -53.5c0 -12 3.16699 -26.167 9.5 -42.5s19 -34.666 38 -54.999s46.167 -42.666 81.5 -66.999s82 -50.5 140 -78.5c7.33301 6 13.333 13.833 18 23.5s8.5 19.834 11.5 30.501s5 21.334 6 32.001s1.5 20 1.5 28
c0 25.333 -4.83301 55.333 -14.5 90s-22.667 67.667 -39 99s-35 57.833 -56 79.5s-42.833 32.5 -65.5 32.5zM579.997 -101.002h235v-211h-235v211zM236.997 -101.002h235v-211h-235v211zM407.997 -381.002h235v-211h-235v211z" />
    <glyph glyph-name="uni06A5.fina" unicode="&#x6a5;" horiz-adv-x="2052" 
d="M375 664l-14.499 -66.499c-4.33301 -19.667 -7.83301 -38 -10.5 -55s-4.66699 -33.5 -6 -49.5s-2 -32.333 -2 -49c0 -52 10.833 -92.167 32.5 -120.5s57.5 -49 107.5 -62s115.667 -20.667 197 -23s181.666 -3.5 300.999 -3.5h141.5c37 0 67.333 0.166992 91 0.5
s42.334 0.833008 56.001 1.5s25.834 1.33398 36.501 2.00098l3 8c-50 38 -89 81.667 -117 131s-42 104.333 -42 165c0 35.333 4.33301 70.833 13 106.5s21 70.167 37 103.5s35 64.666 57 93.999s46 54.833 72 76.5s54 38.667 84 51s60.667 18.5 92 18.5
c36.667 0 71.5 -8.33301 104.5 -25s63.5 -39.5 91.5 -68.5s53.167 -62.833 75.5 -101.5s41.333 -79.834 57 -123.501s27.667 -88.667 36 -135s12.5 -91.833 12.5 -136.5c0 -28 -2.16699 -54.167 -6.5 -78.5s-10.833 -48.166 -19.5 -71.499
c14 -1.33301 27.667 -2.33301 41 -3s27.666 -1.33398 42.999 -2.00098s32.166 -1 50.499 -1h62.5v-272h-35c-29.333 0 -60.833 1.16699 -94.5 3.5s-67.5 5.83301 -101.5 10.5s-67.167 10.834 -99.5 18.501s-61.5 16.5 -87.5 26.5c-36 -14.667 -76.167 -26.5 -120.5 -35.5
s-91 -15.833 -140 -20.5s-100 -7.66699 -153 -9s-105.833 -2 -158.5 -2h-93c-85.333 0 -164 0.5 -236 1.5s-137.5 4.66699 -196.5 11s-111.667 16.166 -158 29.499s-85.833 32.333 -118.5 57c-26.667 20 -48.834 42.667 -66.501 68s-31.667 52.166 -42 80.499
s-17.666 57.833 -21.999 88.5s-6.5 61 -6.5 91c0 46.667 3.5 92.334 10.5 137.001s16.167 89 27.5 133h214zM1492 715.001c-17.333 0 -34 -5.83594 -50 -17.5029s-30 -26.334 -42 -44.001s-21.5 -36.5 -28.5 -56.5s-10.5 -38 -10.5 -54c0 -12 3.16699 -26.167 9.5 -42.5
s19 -34.666 38 -54.999s46.167 -42.666 81.5 -66.999s82 -50.5 140 -78.5c7.33301 6 13.333 13.833 18 23.5s8.5 19.834 11.5 30.501s5 21.334 6 32.001s1.5 20 1.5 28c0 25.333 -4.83301 55.333 -14.5 90s-22.667 67.667 -39 99s-35 57.833 -56 79.5
s-42.833 32.5 -65.5 32.5zM1606 -101.002h235v-211h-235v211zM1263 -101.002h235v-211h-235v211zM1434 -381.002h235v-211h-235v211z" />
    <glyph glyph-name="uni06A6" unicode="&#x6a6;" horiz-adv-x="2052" arabic-form="isolated" 
d="M1492 715c-17.333 0 -34 -5.83594 -50 -17.5029s-30 -26.334 -42 -44.001s-21.5 -36.5 -28.5 -56.5s-10.5 -38 -10.5 -54c0 -12 3.16699 -26.167 9.5 -42.5s19 -34.666 38 -54.999s46.167 -42.666 81.5 -66.999s82 -50.5 140 -78.5c7.33301 6 13.333 13.833 18 23.5
s8.5 19.834 11.5 30.501s5 21.334 6 32.001s1.5 20 1.5 28c0 25.333 -4.83301 55.333 -14.5 90s-22.667 67.667 -39 99s-35 57.833 -56 79.5s-42.833 32.5 -65.5 32.5zM375 663.997l-14.4971 -66.4951c-4.33301 -19.667 -7.83301 -38 -10.5 -55s-4.66699 -33.5 -6 -49.5
s-2 -32.333 -2 -49c0 -52 10.833 -92.167 32.5 -120.5s57.5 -49 107.5 -62s115.667 -20.667 197 -23s181.666 -3.5 300.999 -3.5h141.5c37 0 67.333 0.166992 91 0.5s42.334 0.833008 56.001 1.5s25.834 1.33398 36.501 2.00098l3 8c-50 38 -89 81.667 -117 131
s-42 104.333 -42 165c0 35.333 4.33301 70.833 13 106.5s21 70.167 37 103.5s35 64.666 57 93.999s46 54.833 72 76.5s54 38.667 84 51s60.667 18.5 92 18.5c36.667 0 71.5 -8.33301 104.5 -25s63.5 -39.5 91.5 -68.5s53.167 -62.833 75.5 -101.5
s41.333 -79.834 57 -123.501s27.667 -88.667 36 -135s12.5 -91.833 12.5 -136.5c0 -64.667 -9 -120.334 -27 -167.001s-43.833 -86.167 -77.5 -118.5s-74.834 -58.333 -123.501 -78s-103.334 -34.834 -164.001 -45.501s-126.834 -17.834 -198.501 -21.501
s-147.834 -5.5 -228.501 -5.5h-93c-85.333 0 -164 0.5 -236 1.5s-137.5 4.66699 -196.5 11s-111.667 16.166 -158 29.499s-85.833 32.333 -118.5 57c-26.667 20 -48.834 42.667 -66.501 68s-31.667 52.166 -42 80.499s-17.666 57.833 -21.999 88.5s-6.5 61 -6.5 91
c0 46.667 3.5 92.334 10.5 137.001s16.167 89 27.5 133h214zM1428 1200h-235v211h235v-211zM1771 1200h-235v211h235v-211zM1428 1480h-235v211h235v-211zM1771 1480h-235v211h235v-211z" />
    <glyph glyph-name="uni06A7.init" unicode="&#x6a7;" horiz-adv-x="1026" 
d="M282 247c-50 38 -89 81.8398 -117 131.507s-42 104.5 -42 164.5c0 34.667 4.33301 70 13 106s21 70.667 37 104s35 64.5 57 93.5s46 54.5 72 76.5s54 39.167 84 51.5s60.667 18.5 92 18.5c36.667 0 71.5 -8.33301 104.5 -25s63.5 -39.5 91.5 -68.5
s53.167 -62.667 75.5 -101s41.333 -79.333 57 -123s27.667 -88.834 36 -135.501s12.5 -92.334 12.5 -137.001c0 -66.667 -9.83301 -123.334 -29.5 -170.001s-46.5 -85.834 -80.5 -117.501s-73.333 -56.834 -118 -75.501s-92.334 -32.834 -143.001 -42.501
s-102.5 -15.834 -155.5 -18.501s-104.5 -4 -154.5 -4h-174c-23.333 0 -40.833 12.167 -52.5 36.5s-17.5 57.5 -17.5 99.5s5.83301 75.167 17.5 99.5s29.167 36.5 52.5 36.5h100c12.667 0 28 -0.5 46 -1.5l53.5 -3c17.667 -1 33.834 -1.83301 48.501 -2.5s25 -1 31 -1z
M466 715.007c-17.333 0 -34 -6.00293 -50 -18.0029s-30 -26.833 -42 -44.5s-21.5 -36.334 -28.5 -56.001s-10.5 -37.5 -10.5 -53.5c0 -12 3.16699 -26.167 9.5 -42.5s19 -34.666 38 -54.999s46.167 -42.666 81.5 -66.999s82 -50.5 140 -78.5
c7.33301 6 13.333 13.833 18 23.5s8.5 19.834 11.5 30.501s5 21.334 6 32.001s1.5 20 1.5 28c0 25.333 -4.83301 55.333 -14.5 90s-22.667 67.667 -39 99s-35 57.833 -56 79.5s-42.833 32.5 -65.5 32.5zM577 1200h-235v211h235v-211z" />
    <glyph glyph-name="uni06A7.medi" unicode="&#x6a7;" horiz-adv-x="1026" 
d="M282 247c-50 38 -89.0029 81.834 -117.003 131.501s-42 104.5 -42 164.5c0 34.667 4.33301 70 13 106s21 70.667 37 104s35 64.5 57 93.5s46 54.5 72 76.5s54 39.167 84 51.5s60.667 18.5 92 18.5c36.667 0 71.5 -8.33301 104.5 -25s63.5 -39.5 91.5 -68.5
s53.167 -62.667 75.5 -101s41.333 -79.333 57 -123s27.667 -88.834 36 -135.501s12.5 -92.334 12.5 -137.001c0 -55.333 -8.33301 -105.333 -25 -150c14 -1.33301 27.667 -2.33301 41 -3s27.5 -1.33398 42.5 -2.00098s31.5 -1 49.5 -1h63v-272h-35
c-29.333 0 -60.5 1.16699 -93.5 3.5s-66.167 5.83301 -99.5 10.5s-66.166 10.834 -98.499 18.501s-62.5 16.834 -90.5 27.501c-35.333 -14 -72.166 -25 -110.499 -33s-76.5 -14 -114.5 -18s-75 -6.5 -111 -7.5s-69 -1.5 -99 -1.5h-174c-23.333 0 -40.833 12.167 -52.5 36.5
s-17.5 57.5 -17.5 99.5s5.83301 75.167 17.5 99.5s29.167 36.5 52.5 36.5h100c12.667 0 28 -0.5 46 -1.5l53.5 -3c17.667 -1 33.834 -1.83301 48.501 -2.5s25 -1 31 -1zM465.997 715.001c-17.333 0 -34 -6.00293 -50 -18.0029s-30 -26.833 -42 -44.5
s-21.5 -36.334 -28.5 -56.001s-10.5 -37.5 -10.5 -53.5c0 -12 3.16699 -26.167 9.5 -42.5s19 -34.666 38 -54.999s46.167 -42.666 81.5 -66.999s82 -50.5 140 -78.5c7.33301 6 13.333 13.833 18 23.5s8.5 19.834 11.5 30.501s5 21.334 6 32.001s1.5 20 1.5 28
c0 25.333 -4.83301 55.333 -14.5 90s-22.667 67.667 -39 99s-35 57.833 -56 79.5s-42.833 32.5 -65.5 32.5zM576.997 1200h-235v211h235v-211z" />
    <glyph glyph-name="uni06A7.fina" unicode="&#x6a7;" horiz-adv-x="1539" 
d="M1150 -20l-94.001 0.00195312c-132.667 0 -234 30.5 -304 91.5s-105 148.833 -105 263.5c0 54 9.16699 108.167 27.5 162.5s43 103 74 146s67.333 78 109 105s85.5 40.5 131.5 40.5c52 0 99 -14.667 141 -44s82.333 -75.333 121 -138c30 -48 54.167 -102.333 72.5 -163
s31.166 -126.334 38.499 -197.001h177v-272h-178c-10.667 -88.667 -32 -164.5 -64 -227.5s-74.833 -114.667 -128.5 -155s-117.667 -69.833 -192 -88.5s-159.5 -28 -255.5 -28c-104 0 -193.667 10.833 -269 32.5s-137.166 54.834 -185.499 99.501
s-84.166 101.167 -107.499 169.5s-35 149.166 -35 242.499c0 42.667 2.5 88.334 7.5 137.001s13.5 105.334 25.5 170.001h215c-6 -36.667 -10.833 -69.167 -14.5 -97.5s-6.66699 -53.5 -9 -75.5s-3.83301 -41.5 -4.5 -58.5s-1 -32.833 -1 -47.5
c0 -48 5.33301 -90.833 16 -128.5s30.334 -69.334 59.001 -95.001s68.167 -45.334 118.5 -59.001s115.166 -20.5 194.499 -20.5s144.833 6.16699 196.5 18.5s93 29.166 124 50.499s53.833 46.333 68.5 75s24.667 59 30 91zM1130 319.002
c-8 24 -17.332 47.499 -27.999 70.499s-22.334 43.5 -35.001 61.5s-26.334 32.5 -41.001 43.5s-29.667 16.5 -45 16.5c-17.333 0 -33.666 -5.83301 -48.999 -17.5s-28.666 -25.667 -39.999 -42s-20.333 -33.666 -27 -51.999s-10 -34.5 -10 -48.5
c0 -44 15.667 -73.333 47 -88s78 -22 140 -22h106c-2.66699 12 -5.33398 25 -8.00098 39s-6 27 -10 39zM1088 1009h-235v211h235v-211z" />
    <glyph glyph-name="uni06A8.init" unicode="&#x6a8;" horiz-adv-x="1026" 
d="M282 247c-50 38 -89 81.8398 -117 131.507s-42 104.5 -42 164.5c0 34.667 4.33301 70 13 106s21 70.667 37 104s35 64.5 57 93.5s46 54.5 72 76.5s54 39.167 84 51.5s60.667 18.5 92 18.5c36.667 0 71.5 -8.33301 104.5 -25s63.5 -39.5 91.5 -68.5
s53.167 -62.667 75.5 -101s41.333 -79.333 57 -123s27.667 -88.834 36 -135.501s12.5 -92.334 12.5 -137.001c0 -66.667 -9.83301 -123.334 -29.5 -170.001s-46.5 -85.834 -80.5 -117.501s-73.333 -56.834 -118 -75.501s-92.334 -32.834 -143.001 -42.501
s-102.5 -15.834 -155.5 -18.501s-104.5 -4 -154.5 -4h-174c-23.333 0 -40.833 12.167 -52.5 36.5s-17.5 57.5 -17.5 99.5s5.83301 75.167 17.5 99.5s29.167 36.5 52.5 36.5h100c12.667 0 28 -0.5 46 -1.5l53.5 -3c17.667 -1 33.834 -1.83301 48.501 -2.5s25 -1 31 -1z
M466 715.007c-17.333 0 -34 -6.00293 -50 -18.0029s-30 -26.833 -42 -44.5s-21.5 -36.334 -28.5 -56.001s-10.5 -37.5 -10.5 -53.5c0 -12 3.16699 -26.167 9.5 -42.5s19 -34.666 38 -54.999s46.167 -42.666 81.5 -66.999s82 -50.5 140 -78.5
c7.33301 6 13.333 13.833 18 23.5s8.5 19.834 11.5 30.501s5 21.334 6 32.001s1.5 20 1.5 28c0 25.333 -4.83301 55.333 -14.5 90s-22.667 67.667 -39 99s-35 57.833 -56 79.5s-42.833 32.5 -65.5 32.5zM405 1200h-235v211h235v-211zM748 1200h-235v211h235v-211zM577 1480
h-235v211h235v-211z" />
    <glyph glyph-name="uni06A8.medi" unicode="&#x6a8;" horiz-adv-x="1026" 
d="M282 247c-50 38 -89.0029 81.834 -117.003 131.501s-42 104.5 -42 164.5c0 34.667 4.33301 70 13 106s21 70.667 37 104s35 64.5 57 93.5s46 54.5 72 76.5s54 39.167 84 51.5s60.667 18.5 92 18.5c36.667 0 71.5 -8.33301 104.5 -25s63.5 -39.5 91.5 -68.5
s53.167 -62.667 75.5 -101s41.333 -79.333 57 -123s27.667 -88.834 36 -135.501s12.5 -92.334 12.5 -137.001c0 -55.333 -8.33301 -105.333 -25 -150c14 -1.33301 27.667 -2.33301 41 -3s27.5 -1.33398 42.5 -2.00098s31.5 -1 49.5 -1h63v-272h-35
c-29.333 0 -60.5 1.16699 -93.5 3.5s-66.167 5.83301 -99.5 10.5s-66.166 10.834 -98.499 18.501s-62.5 16.834 -90.5 27.501c-35.333 -14 -72.166 -25 -110.499 -33s-76.5 -14 -114.5 -18s-75 -6.5 -111 -7.5s-69 -1.5 -99 -1.5h-174c-23.333 0 -40.833 12.167 -52.5 36.5
s-17.5 57.5 -17.5 99.5s5.83301 75.167 17.5 99.5s29.167 36.5 52.5 36.5h100c12.667 0 28 -0.5 46 -1.5l53.5 -3c17.667 -1 33.834 -1.83301 48.501 -2.5s25 -1 31 -1zM465.997 715.001c-17.333 0 -34 -6.00293 -50 -18.0029s-30 -26.833 -42 -44.5
s-21.5 -36.334 -28.5 -56.001s-10.5 -37.5 -10.5 -53.5c0 -12 3.16699 -26.167 9.5 -42.5s19 -34.666 38 -54.999s46.167 -42.666 81.5 -66.999s82 -50.5 140 -78.5c7.33301 6 13.333 13.833 18 23.5s8.5 19.834 11.5 30.501s5 21.334 6 32.001s1.5 20 1.5 28
c0 25.333 -4.83301 55.333 -14.5 90s-22.667 67.667 -39 99s-35 57.833 -56 79.5s-42.833 32.5 -65.5 32.5zM404.997 1200h-235v211h235v-211zM747.997 1200h-235v211h235v-211zM576.997 1480h-235v211h235v-211z" />
    <glyph glyph-name="uni06A8.fina" unicode="&#x6a8;" horiz-adv-x="1539" 
d="M1150 -20l-94.001 0.00195312c-132.667 0 -234 30.5 -304 91.5s-105 148.833 -105 263.5c0 54 9.16699 108.167 27.5 162.5s43 103 74 146s67.333 78 109 105s85.5 40.5 131.5 40.5c52 0 99 -14.667 141 -44s82.333 -75.333 121 -138c30 -48 54.167 -102.333 72.5 -163
s31.166 -126.334 38.499 -197.001h177v-272h-178c-10.667 -88.667 -32 -164.5 -64 -227.5s-74.833 -114.667 -128.5 -155s-117.667 -69.833 -192 -88.5s-159.5 -28 -255.5 -28c-104 0 -193.667 10.833 -269 32.5s-137.166 54.834 -185.499 99.501
s-84.166 101.167 -107.499 169.5s-35 149.166 -35 242.499c0 42.667 2.5 88.334 7.5 137.001s13.5 105.334 25.5 170.001h215c-6 -36.667 -10.833 -69.167 -14.5 -97.5s-6.66699 -53.5 -9 -75.5s-3.83301 -41.5 -4.5 -58.5s-1 -32.833 -1 -47.5
c0 -48 5.33301 -90.833 16 -128.5s30.334 -69.334 59.001 -95.001s68.167 -45.334 118.5 -59.001s115.166 -20.5 194.499 -20.5s144.833 6.16699 196.5 18.5s93 29.166 124 50.499s53.833 46.333 68.5 75s24.667 59 30 91zM1130 319.002
c-8 24 -17.332 47.499 -27.999 70.499s-22.334 43.5 -35.001 61.5s-26.334 32.5 -41.001 43.5s-29.667 16.5 -45 16.5c-17.333 0 -33.666 -5.83301 -48.999 -17.5s-28.666 -25.667 -39.999 -42s-20.333 -33.666 -27 -51.999s-10 -34.5 -10 -48.5
c0 -44 15.667 -73.333 47 -88s78 -22 140 -22h106c-2.66699 12 -5.33398 25 -8.00098 39s-6 27 -10 39zM916 1009h-235v211h235v-211zM1259 1009h-235v211h235v-211zM1088 1289h-235v211h235v-211z" />
    <glyph glyph-name="uni06A9" unicode="&#x6a9;" horiz-adv-x="1881" arabic-form="isolated" 
d="M855 1094l880.999 556.999v-287l-609 -372c80 -40 153.667 -82 221 -126s125.333 -91.167 174 -141.5s86.667 -104.666 114 -162.999s41 -122.166 41 -191.499c0 -29.333 -3.33301 -61.5 -10 -96.5s-19.667 -69.333 -39 -103s-46.666 -64.834 -81.999 -93.501
s-81.666 -51.334 -138.999 -68.001c-62 -18 -139.167 -29.5 -231.5 -34.5s-201.5 -7.5 -327.5 -7.5c-59.333 0 -117.833 0.833008 -175.5 2.5s-112.334 6 -164.001 13s-99.5 17.5 -143.5 31.5s-82 33.667 -114 59c-24 18.667 -44.167 40.334 -60.5 65.001s-29.5 51 -39.5 79
s-17.167 57.333 -21.5 88s-6.5 61.667 -6.5 93c0 44 3.5 88.833 10.5 134.5s16.167 89.5 27.5 131.5h214l-14.5 -66.5c-4.33301 -19.667 -7.83301 -38 -10.5 -55s-4.66699 -33.5 -6 -49.5s-2 -32.333 -2 -49c0 -52 11 -92.167 33 -120.5s57.667 -49 107 -62
s114 -20.5 194 -22.5s177.667 -3 293 -3c78 0 149.833 1.16699 215.5 3.5s120.834 9.5 165.501 21.5c27.333 7.33301 48.666 15.5 63.999 24.5s26.5 18.167 33.5 27.5s11.167 18.5 12.5 27.5s2 17.167 2 24.5c0 70 -50.333 145.333 -151 226s-252.667 169.667 -456 267v236z
" />
    <glyph glyph-name="uni06AA.init" unicode="&#x6aa;" horiz-adv-x="2052" 
d="M1731 248c-2 30.667 -8.3291 55.667 -18.9961 75s-24.5 34.5 -41.5 45.5s-36.667 18.333 -59 22s-45.833 5.5 -70.5 5.5h-993c-62.667 0 -117.5 3.66699 -164.5 11s-86.333 20 -118 38s-55.334 41.833 -71.001 71.5s-23.5 66.5 -23.5 110.5c0 68 18.833 132.667 56.5 194
s92.5 117.5 164.5 168.5s160.5 96.167 265.5 135.5s224.833 71 359.5 95v-271c-84.667 -16 -165.834 -34.5 -243.501 -55.5s-146.334 -43 -206.001 -66s-107.167 -46.5 -142.5 -70.5s-53 -47.333 -53 -70c0 -8 3.33301 -14.333 10 -19s21 -8.33398 43 -11.001
s53.5 -4.33398 94.5 -5.00098s96.167 -1 165.5 -1h876c48 0 95 -7.5 141 -22.5s86.667 -37.167 122 -66.5s63.833 -65.666 85.5 -108.999s32.5 -93.333 32.5 -150c0 -28 -2.83301 -57 -8.5 -87s-14.334 -59 -26.001 -87s-26.167 -54.167 -43.5 -78.5
s-37.666 -44.833 -60.999 -61.5c-38 -3.33301 -87.5 -6.33301 -148.5 -9s-130.167 -5 -207.5 -7s-161.5 -3.5 -252.5 -4.5s-185.5 -1.5 -283.5 -1.5c-54.667 0 -112 0.166992 -172 0.5s-120.167 0.833008 -180.5 1.5l-175.5 2
c-56.667 0.666992 -108.5 1.33398 -155.5 2.00098s-87.5 1.16699 -121.5 1.5s-58.667 0.5 -74 0.5h-32c-23.333 0 -40.833 12.167 -52.5 36.5s-17.5 57.5 -17.5 99.5s5.83301 75.167 17.5 99.5s29.167 36.5 52.5 36.5h44c22 0 61.833 -0.666992 119.5 -2
s129.167 -2.83301 214.5 -4.5s182 -3.16699 290 -4.5s223 -2 345 -2c164.667 0 305.667 0.833008 423 2.5s215.666 5.5 294.999 11.5z" />
    <glyph glyph-name="uni06AA.medi" unicode="&#x6aa;" horiz-adv-x="2052" 
d="M1731 248c-2 30.667 -8.32617 55.666 -18.9932 74.999s-24.5 34.5 -41.5 45.5s-36.667 18.333 -59 22s-45.833 5.5 -70.5 5.5h-993c-62.667 0 -117.5 3.66699 -164.5 11s-86.333 20 -118 38s-55.334 41.833 -71.001 71.5s-23.5 66.5 -23.5 110.5
c0 68 18.833 132.667 56.5 194s92.5 117.5 164.5 168.5s160.5 96.167 265.5 135.5s224.833 71 359.5 95v-271c-84.667 -16 -165.834 -34.5 -243.501 -55.5s-146.334 -43 -206.001 -66s-107.167 -46.5 -142.5 -70.5s-53 -47.333 -53 -70c0 -8 3.33301 -14.333 10 -19
s21 -8.33398 43 -11.001s53.5 -4.33398 94.5 -5.00098s96.167 -1 165.5 -1h876c48 0 95 -7.5 141 -22.5s86.667 -37.167 122 -66.5s63.833 -65.666 85.5 -108.999s32.5 -93.333 32.5 -150c0 -17.333 -1 -35 -3 -53c17.333 -1.33301 34.666 -2.16602 51.999 -2.49902
s37.666 -0.5 60.999 -0.5v-272h-29c-35.333 0 -63.833 6.83301 -85.5 20.5s-41.834 35.167 -60.501 64.5h-7c-20 -29.333 -42.333 -53 -67 -71c-38 -3.33301 -87.5 -6.33301 -148.5 -9s-130.167 -5 -207.5 -7s-161.5 -3.5 -252.5 -4.5s-185.5 -1.5 -283.5 -1.5
c-54.667 0 -112.167 0.166992 -172.5 0.5s-120.5 0.833008 -180.5 1.5l-175 2c-56.667 0.666992 -108.5 1.33398 -155.5 2.00098s-87.667 1.16699 -122 1.5s-58.833 0.5 -73.5 0.5h-32c-23.333 0 -40.833 12.167 -52.5 36.5s-17.5 57.5 -17.5 99.5s5.83301 75.167 17.5 99.5
s29.167 36.5 52.5 36.5h44c22 0 61.833 -0.666992 119.5 -2s129.167 -2.83301 214.5 -4.5s182 -3.16699 290 -4.5s223 -2 345 -2c164.667 0 305.667 0.833008 423 2.5s215.666 5.5 294.999 11.5z" />
    <glyph glyph-name="uni06AA.fina" unicode="&#x6aa;" horiz-adv-x="2223" 
d="M1902 248c-2 30.667 -8.32715 55.668 -18.9941 75.001s-24.5 34.5 -41.5 45.5s-36.667 18.333 -59 22s-45.833 5.5 -70.5 5.5h-993c-62.667 0 -117.5 3.66699 -164.5 11s-86.333 20 -118 38s-55.334 41.833 -71.001 71.5s-23.5 66.5 -23.5 110.5
c0 68 18.833 132.667 56.5 194s92.5 117.5 164.5 168.5s160.5 96.167 265.5 135.5s224.833 71 359.5 95v-271c-84.667 -16 -165.834 -34.5 -243.501 -55.5s-146.334 -43 -206.001 -66s-107.167 -46.5 -142.5 -70.5s-53 -47.333 -53 -70c0 -8 3.33301 -14.333 10 -19
s21 -8.33398 43 -11.001s53.5 -4.33398 94.5 -5.00098s96.167 -1 165.5 -1h876c48 0 95 -7.5 141 -22.5s86.667 -37.167 122 -66.5s63.833 -65.666 85.499 -108.999c21.667 -43.333 32.5 -93.333 32.5 -150c0 -17.333 -1 -35 -3 -53
c17.333 -1.33301 34.666 -2.16602 52 -2.49902c17.333 -0.333008 37.666 -0.5 61 -0.5v-272h-29c-35.333 0 -63.833 6.83301 -85.5 20.5s-41.834 35.167 -60.501 64.5h-7c-20 -29.333 -42.333 -53 -67 -71c-38 -3.33301 -87.5 -6.33301 -148.5 -9s-130.167 -5 -207.5 -7
s-161.5 -3.5 -252.5 -4.5s-185.5 -1.5 -283.5 -1.5c-52.667 0 -110 0.166992 -172 0.5s-125.333 1.16602 -190 2.49902l-194 4c-64.667 1.33301 -126 3.33301 -184 6s-111.5 5.5 -160.5 8.5s-90.167 6.5 -123.5 10.5l-54 269c58 -7.33301 127.333 -13.166 208 -17.499
s171 -7.83301 271 -10.5s208.833 -4.33398 326.5 -5.00098s242.5 -1 374.5 -1c164.667 0 305.667 0.833008 423 2.5s215.666 5.5 294.999 11.5z" />
    <glyph glyph-name="uni06AB.init" unicode="&#x6ab;" horiz-adv-x="1026" 
d="M0 1094l881 556.999v-287l-609 -372c80 -40 153.5 -81.833 220.5 -125.5s125 -90.667 174 -141s87.167 -104.666 114.5 -162.999s41 -121.833 41 -190.5c0 -29.333 -2.66699 -59.333 -8 -90s-15 -60.667 -29 -90s-33.5 -57.166 -58.5 -83.499s-57.167 -49.333 -96.5 -69
s-86.833 -35.334 -142.5 -47.001s-121.167 -17.5 -196.5 -17.5h-291c-23.333 0 -40.833 12.167 -52.5 36.5s-17.5 57.5 -17.5 99.5s5.83301 75.167 17.5 99.5s29.167 36.5 52.5 36.5h294c60.667 0 111 1.33301 151 4s72 8.16699 96 16.5s41 20 51 35s15 34.833 15 59.5
c0 72.667 -50.333 149 -151 229s-252.667 169 -456 267v236zM624 1278c24 0 46.332 -4.33301 66.999 -13s38.667 -20.667 54 -36s27.5 -33.666 36.5 -54.999s13.5 -44.333 13.5 -69c0 -23.333 -4.5 -45.166 -13.5 -65.499s-21.167 -38.166 -36.5 -53.499
s-33.333 -27.5 -54 -36.5s-43 -13.5 -67 -13.5c-25.333 0 -48.666 4.5 -69.999 13.5s-39.666 21.167 -54.999 36.5s-27.5 33.166 -36.5 53.499s-13.5 42.166 -13.5 65.499c0 24.667 4.33301 47.667 13 69s20.667 39.666 36 54.999s33.666 27.333 54.999 36s45 13 71 13z
M623.999 1021c22 0 40 8.16699 54 24.5s21 36.166 21 59.499c0 25.333 -7 46.333 -21 63s-32 25 -54 25c-23.333 0 -42.333 -8.33301 -57 -25s-22 -37.667 -22 -63c0 -23.333 7.33301 -43.166 22 -59.499s33.667 -24.5 57 -24.5z" />
    <glyph glyph-name="uni06AB.medi" unicode="&#x6ab;" horiz-adv-x="1026" 
d="M0 1094l880.999 556.995v-287l-609 -372c74 -37.333 142.833 -76.166 206.5 -116.499s119.5 -83.5 167.5 -129.5s87 -95.167 117 -147.5s48.667 -109.166 56 -170.499c2.66699 -19.333 6.33398 -37.5 11.001 -54.5s12.667 -34.167 24 -51.5
c6 -9.33301 13.5 -18.5 22.5 -27.5s20.167 -17 33.5 -24s29.5 -12.667 48.5 -17s41.5 -6.5 67.5 -6.5v-272h-22c-24 0 -48.5 2.66699 -73.5 8s-49 14 -72 26s-44.5 27.5 -64.5 46.5s-37.333 41.833 -52 68.5h-6c-16.667 -21.333 -38 -41.166 -64 -59.499
s-57.167 -34.166 -93.5 -47.499s-78.333 -23.666 -126 -30.999s-101.5 -11 -161.5 -11h-291c-23.333 0 -40.833 12.167 -52.5 36.5s-17.5 57.5 -17.5 99.5s5.83301 75.167 17.5 99.5s29.167 36.5 52.5 36.5h294c60.667 0 111 1.33301 151 4s72 8.16699 96 16.5s41 20 51 35
s15 34.833 15 59.5c0 72.667 -50.333 149 -151 229s-252.667 169 -456 267v236zM623.999 1278c24 0 46.332 -4.33301 66.999 -13s38.667 -20.667 54 -36s27.5 -33.666 36.5 -54.999s13.5 -44.333 13.5 -69c0 -23.333 -4.5 -45.166 -13.5 -65.499
s-21.167 -38.166 -36.5 -53.499s-33.333 -27.5 -54 -36.5s-43 -13.5 -67 -13.5c-25.333 0 -48.666 4.5 -69.999 13.5s-39.666 21.167 -54.999 36.5s-27.5 33.166 -36.5 53.499s-13.5 42.166 -13.5 65.499c0 24.667 4.33301 47.667 13 69s20.667 39.666 36 54.999
s33.666 27.333 54.999 36s45 13 71 13zM623.998 1021c22 0 40 8.16699 54 24.5s21 36.166 21 59.499c0 25.333 -7 46.333 -21 63s-32 25 -54 25c-23.333 0 -42.333 -8.33301 -57 -25s-22 -37.667 -22 -63c0 -23.333 7.33301 -43.166 22 -59.499s33.667 -24.5 57 -24.5z" />
    <glyph glyph-name="uni06AB.fina" unicode="&#x6ab;" horiz-adv-x="1881" 
d="M855 1094l881 556.996v-287l-609 -372c74.667 -37.333 143.667 -76.166 207 -116.499s118.833 -83.5 166.5 -129.5s86.5 -95.167 116.5 -147.5s49 -109.166 57 -170.499c2.66699 -19.333 6.33398 -37.5 11.001 -54.5s12.667 -34.167 24 -51.5
c6 -9.33301 13.5 -18.5 22.5 -27.5s20.167 -17 33.5 -24s29.5 -12.667 48.5 -17s41.5 -6.5 67.5 -6.5v-272h-22c-24 0 -48.5 2.66699 -73.5 8s-49 14 -72 26s-44.5 27.5 -64.5 46.5s-37.333 41.833 -52 68.5h-6c-31.333 -37.333 -68.833 -66.5 -112.5 -87.5
s-95.5 -36.667 -155.5 -47s-129 -16.666 -207 -18.999s-167.333 -3.5 -268 -3.5c-59.333 0 -117.833 0.833008 -175.5 2.5s-112.334 6 -164.001 13s-99.5 17.5 -143.5 31.5s-82 33.667 -114 59c-24 18.667 -44.167 40.334 -60.5 65.001s-29.5 51 -39.5 79
s-17.167 57.333 -21.5 88s-6.5 61.667 -6.5 93c0 44 3.5 88.833 10.5 134.5s16.167 89.5 27.5 131.5h214l-14.5 -66.5c-4.33301 -19.667 -7.83301 -38 -10.5 -55s-4.66699 -33.5 -6 -49.5s-2 -32.333 -2 -49c0 -52 11 -92.167 33 -120.5s57.667 -49 107 -62
s114 -20.5 194 -22.5s177.667 -3 293 -3c78 0 149.833 1.16699 215.5 3.5s120.834 9.5 165.501 21.5c27.333 7.33301 48.666 15.5 63.999 24.5s26.5 18.167 33.5 27.5s11.167 18.5 12.5 27.5s2 17.167 2 24.5c0 70 -50.333 145.333 -151 226s-252.667 169.667 -456 267v236z
M1479 1278c24 0 46.332 -4.33301 66.999 -13s38.667 -20.667 54 -36s27.5 -33.666 36.5 -54.999s13.5 -44.333 13.5 -69c0 -23.333 -4.5 -45.166 -13.5 -65.499s-21.167 -38.166 -36.5 -53.499s-33.333 -27.5 -54 -36.5s-43 -13.5 -67 -13.5
c-25.333 0 -48.666 4.5 -69.999 13.5s-39.666 21.167 -54.999 36.5s-27.5 33.166 -36.5 53.499s-13.5 42.166 -13.5 65.499c0 24.667 4.33301 47.667 13 69s20.667 39.666 36 54.999s33.666 27.333 54.999 36s45 13 71 13zM1479 1021c22 0 40 8.16699 54 24.5
s21 36.166 21 59.499c0 25.333 -7 46.333 -21 63s-32 25 -54 25c-23.333 0 -42.333 -8.33301 -57 -25s-22 -37.667 -22 -63c0 -23.333 7.33301 -43.166 22 -59.499s33.667 -24.5 57 -24.5z" />
    <glyph glyph-name="uni06AC.init" unicode="&#x6ac;" horiz-adv-x="1026" 
d="M0 1094l881 556.999v-287l-609 -372c80 -40 153.5 -81.833 220.5 -125.5s125 -90.667 174 -141s87.167 -104.666 114.5 -162.999s41 -121.833 41 -190.5c0 -29.333 -2.66699 -59.333 -8 -90s-15 -60.667 -29 -90s-33.5 -57.166 -58.5 -83.499s-57.167 -49.333 -96.5 -69
s-86.833 -35.334 -142.5 -47.001s-121.167 -17.5 -196.5 -17.5h-291c-23.333 0 -40.833 12.167 -52.5 36.5s-17.5 57.5 -17.5 99.5s5.83301 75.167 17.5 99.5s29.167 36.5 52.5 36.5h294c60.667 0 111 1.33301 151 4s72 8.16699 96 16.5s41 20 51 35s15 34.833 15 59.5
c0 72.667 -50.333 149 -151 229s-252.667 169 -456 267v236zM421 1519h-235v211h235v-211z" />
    </font>
</defs>
</svg>
